<?xml version="1.0" encoding="utf-8" standalone="no"?>
<!DOCTYPE svg PUBLIC "-//W3C//DTD SVG 1.1//EN"
  "http://www.w3.org/Graphics/SVG/1.1/DTD/svg11.dtd">
<svg xmlns:xlink="http://www.w3.org/1999/xlink" width="900pt" height="302.4pt" viewBox="0 0 900 302.4" xmlns="http://www.w3.org/2000/svg" version="1.1">
 <metadata>
  <rdf:RDF xmlns:dc="http://purl.org/dc/elements/1.1/" xmlns:cc="http://creativecommons.org/ns#" xmlns:rdf="http://www.w3.org/1999/02/22-rdf-syntax-ns#">
   <cc:Work>
    <dc:type rdf:resource="http://purl.org/dc/dcmitype/StillImage"/>
    <dc:date>2024-03-04T14:47:01.029530</dc:date>
    <dc:format>image/svg+xml</dc:format>
    <dc:creator>
     <cc:Agent>
      <dc:title>Matplotlib v3.7.1, https://matplotlib.org/</dc:title>
     </cc:Agent>
    </dc:creator>
   </cc:Work>
  </rdf:RDF>
 </metadata>
 <defs>
  <style type="text/css">*{stroke-linejoin: round; stroke-linecap: butt}</style>
 </defs>
 <g id="figure_1">
  <g id="patch_1">
   <path d="M 0 302.4 
L 900 302.4 
L 900 0 
L 0 0 
z
" style="fill: #ffffff"/>
  </g>
  <g id="axes_1">
   <g id="patch_2">
    <path d="M 72 235.872 
L 452.930233 235.872 
L 452.930233 48.9888 
L 72 48.9888 
z
" style="fill: #fcfcfc"/>
   </g>
   <g id="matplotlib.axis_1">
    <g id="xtick_1">
     <g id="line2d_1">
      <path d="M 89.315011 235.872 
L 89.315011 48.9888 
" clip-path="url(#p3b382548f5)" style="fill: none; stroke: #dcdcdc; stroke-width: 0.5; stroke-linecap: square"/>
     </g>
     <g id="line2d_2">
      <defs>
       <path id="ma167c24d9d" d="M 0 0 
L 0 3.5 
" style="stroke: #000000; stroke-width: 0.8"/>
      </defs>
      <g>
       <use xlink:href="#ma167c24d9d" x="89.315011" y="235.872" style="stroke: #000000; stroke-width: 0.8"/>
      </g>
     </g>
     <g id="text_1">
      <!-- 0 -->
      <g transform="translate(85.179386 252.749969) scale(0.13 -0.13)">
       <defs>
        <path id="DejaVuSans-30" d="M 2034 4250 
Q 1547 4250 1301 3770 
Q 1056 3291 1056 2328 
Q 1056 1369 1301 889 
Q 1547 409 2034 409 
Q 2525 409 2770 889 
Q 3016 1369 3016 2328 
Q 3016 3291 2770 3770 
Q 2525 4250 2034 4250 
z
M 2034 4750 
Q 2819 4750 3233 4129 
Q 3647 3509 3647 2328 
Q 3647 1150 3233 529 
Q 2819 -91 2034 -91 
Q 1250 -91 836 529 
Q 422 1150 422 2328 
Q 422 3509 836 4129 
Q 1250 4750 2034 4750 
z
" transform="scale(0.015625)"/>
       </defs>
       <use xlink:href="#DejaVuSans-30"/>
      </g>
     </g>
    </g>
    <g id="xtick_2">
     <g id="line2d_3">
      <path d="M 175.890063 235.872 
L 175.890063 48.9888 
" clip-path="url(#p3b382548f5)" style="fill: none; stroke: #dcdcdc; stroke-width: 0.5; stroke-linecap: square"/>
     </g>
     <g id="line2d_4">
      <g>
       <use xlink:href="#ma167c24d9d" x="175.890063" y="235.872" style="stroke: #000000; stroke-width: 0.8"/>
      </g>
     </g>
     <g id="text_2">
      <!-- 25 -->
      <g transform="translate(167.618813 252.749969) scale(0.13 -0.13)">
       <defs>
        <path id="DejaVuSans-32" d="M 1228 531 
L 3431 531 
L 3431 0 
L 469 0 
L 469 531 
Q 828 903 1448 1529 
Q 2069 2156 2228 2338 
Q 2531 2678 2651 2914 
Q 2772 3150 2772 3378 
Q 2772 3750 2511 3984 
Q 2250 4219 1831 4219 
Q 1534 4219 1204 4116 
Q 875 4013 500 3803 
L 500 4441 
Q 881 4594 1212 4672 
Q 1544 4750 1819 4750 
Q 2544 4750 2975 4387 
Q 3406 4025 3406 3419 
Q 3406 3131 3298 2873 
Q 3191 2616 2906 2266 
Q 2828 2175 2409 1742 
Q 1991 1309 1228 531 
z
" transform="scale(0.015625)"/>
        <path id="DejaVuSans-35" d="M 691 4666 
L 3169 4666 
L 3169 4134 
L 1269 4134 
L 1269 2991 
Q 1406 3038 1543 3061 
Q 1681 3084 1819 3084 
Q 2600 3084 3056 2656 
Q 3513 2228 3513 1497 
Q 3513 744 3044 326 
Q 2575 -91 1722 -91 
Q 1428 -91 1123 -41 
Q 819 9 494 109 
L 494 744 
Q 775 591 1075 516 
Q 1375 441 1709 441 
Q 2250 441 2565 725 
Q 2881 1009 2881 1497 
Q 2881 1984 2565 2268 
Q 2250 2553 1709 2553 
Q 1456 2553 1204 2497 
Q 953 2441 691 2322 
L 691 4666 
z
" transform="scale(0.015625)"/>
       </defs>
       <use xlink:href="#DejaVuSans-32"/>
       <use xlink:href="#DejaVuSans-35" x="63.623047"/>
      </g>
     </g>
    </g>
    <g id="xtick_3">
     <g id="line2d_5">
      <path d="M 262.465116 235.872 
L 262.465116 48.9888 
" clip-path="url(#p3b382548f5)" style="fill: none; stroke: #dcdcdc; stroke-width: 0.5; stroke-linecap: square"/>
     </g>
     <g id="line2d_6">
      <g>
       <use xlink:href="#ma167c24d9d" x="262.465116" y="235.872" style="stroke: #000000; stroke-width: 0.8"/>
      </g>
     </g>
     <g id="text_3">
      <!-- 50 -->
      <g transform="translate(254.193866 252.749969) scale(0.13 -0.13)">
       <use xlink:href="#DejaVuSans-35"/>
       <use xlink:href="#DejaVuSans-30" x="63.623047"/>
      </g>
     </g>
    </g>
    <g id="xtick_4">
     <g id="line2d_7">
      <path d="M 349.040169 235.872 
L 349.040169 48.9888 
" clip-path="url(#p3b382548f5)" style="fill: none; stroke: #dcdcdc; stroke-width: 0.5; stroke-linecap: square"/>
     </g>
     <g id="line2d_8">
      <g>
       <use xlink:href="#ma167c24d9d" x="349.040169" y="235.872" style="stroke: #000000; stroke-width: 0.8"/>
      </g>
     </g>
     <g id="text_4">
      <!-- 75 -->
      <g transform="translate(340.768919 252.749969) scale(0.13 -0.13)">
       <defs>
        <path id="DejaVuSans-37" d="M 525 4666 
L 3525 4666 
L 3525 4397 
L 1831 0 
L 1172 0 
L 2766 4134 
L 525 4134 
L 525 4666 
z
" transform="scale(0.015625)"/>
       </defs>
       <use xlink:href="#DejaVuSans-37"/>
       <use xlink:href="#DejaVuSans-35" x="63.623047"/>
      </g>
     </g>
    </g>
    <g id="xtick_5">
     <g id="line2d_9">
      <path d="M 435.615222 235.872 
L 435.615222 48.9888 
" clip-path="url(#p3b382548f5)" style="fill: none; stroke: #dcdcdc; stroke-width: 0.5; stroke-linecap: square"/>
     </g>
     <g id="line2d_10">
      <g>
       <use xlink:href="#ma167c24d9d" x="435.615222" y="235.872" style="stroke: #000000; stroke-width: 0.8"/>
      </g>
     </g>
     <g id="text_5">
      <!-- 100 -->
      <g transform="translate(423.208347 252.749969) scale(0.13 -0.13)">
       <defs>
        <path id="DejaVuSans-31" d="M 794 531 
L 1825 531 
L 1825 4091 
L 703 3866 
L 703 4441 
L 1819 4666 
L 2450 4666 
L 2450 531 
L 3481 531 
L 3481 0 
L 794 0 
L 794 531 
z
" transform="scale(0.015625)"/>
       </defs>
       <use xlink:href="#DejaVuSans-31"/>
       <use xlink:href="#DejaVuSans-30" x="63.623047"/>
       <use xlink:href="#DejaVuSans-30" x="127.246094"/>
      </g>
     </g>
    </g>
    <g id="text_6">
     <!-- Time step -->
     <g transform="translate(225.507694 270.851219) scale(0.15 -0.15)">
      <defs>
       <path id="DejaVuSans-54" d="M -19 4666 
L 3928 4666 
L 3928 4134 
L 2272 4134 
L 2272 0 
L 1638 0 
L 1638 4134 
L -19 4134 
L -19 4666 
z
" transform="scale(0.015625)"/>
       <path id="DejaVuSans-69" d="M 603 3500 
L 1178 3500 
L 1178 0 
L 603 0 
L 603 3500 
z
M 603 4863 
L 1178 4863 
L 1178 4134 
L 603 4134 
L 603 4863 
z
" transform="scale(0.015625)"/>
       <path id="DejaVuSans-6d" d="M 3328 2828 
Q 3544 3216 3844 3400 
Q 4144 3584 4550 3584 
Q 5097 3584 5394 3201 
Q 5691 2819 5691 2113 
L 5691 0 
L 5113 0 
L 5113 2094 
Q 5113 2597 4934 2840 
Q 4756 3084 4391 3084 
Q 3944 3084 3684 2787 
Q 3425 2491 3425 1978 
L 3425 0 
L 2847 0 
L 2847 2094 
Q 2847 2600 2669 2842 
Q 2491 3084 2119 3084 
Q 1678 3084 1418 2786 
Q 1159 2488 1159 1978 
L 1159 0 
L 581 0 
L 581 3500 
L 1159 3500 
L 1159 2956 
Q 1356 3278 1631 3431 
Q 1906 3584 2284 3584 
Q 2666 3584 2933 3390 
Q 3200 3197 3328 2828 
z
" transform="scale(0.015625)"/>
       <path id="DejaVuSans-65" d="M 3597 1894 
L 3597 1613 
L 953 1613 
Q 991 1019 1311 708 
Q 1631 397 2203 397 
Q 2534 397 2845 478 
Q 3156 559 3463 722 
L 3463 178 
Q 3153 47 2828 -22 
Q 2503 -91 2169 -91 
Q 1331 -91 842 396 
Q 353 884 353 1716 
Q 353 2575 817 3079 
Q 1281 3584 2069 3584 
Q 2775 3584 3186 3129 
Q 3597 2675 3597 1894 
z
M 3022 2063 
Q 3016 2534 2758 2815 
Q 2500 3097 2075 3097 
Q 1594 3097 1305 2825 
Q 1016 2553 972 2059 
L 3022 2063 
z
" transform="scale(0.015625)"/>
       <path id="DejaVuSans-20" transform="scale(0.015625)"/>
       <path id="DejaVuSans-73" d="M 2834 3397 
L 2834 2853 
Q 2591 2978 2328 3040 
Q 2066 3103 1784 3103 
Q 1356 3103 1142 2972 
Q 928 2841 928 2578 
Q 928 2378 1081 2264 
Q 1234 2150 1697 2047 
L 1894 2003 
Q 2506 1872 2764 1633 
Q 3022 1394 3022 966 
Q 3022 478 2636 193 
Q 2250 -91 1575 -91 
Q 1294 -91 989 -36 
Q 684 19 347 128 
L 347 722 
Q 666 556 975 473 
Q 1284 391 1588 391 
Q 1994 391 2212 530 
Q 2431 669 2431 922 
Q 2431 1156 2273 1281 
Q 2116 1406 1581 1522 
L 1381 1569 
Q 847 1681 609 1914 
Q 372 2147 372 2553 
Q 372 3047 722 3315 
Q 1072 3584 1716 3584 
Q 2034 3584 2315 3537 
Q 2597 3491 2834 3397 
z
" transform="scale(0.015625)"/>
       <path id="DejaVuSans-74" d="M 1172 4494 
L 1172 3500 
L 2356 3500 
L 2356 3053 
L 1172 3053 
L 1172 1153 
Q 1172 725 1289 603 
Q 1406 481 1766 481 
L 2356 481 
L 2356 0 
L 1766 0 
Q 1100 0 847 248 
Q 594 497 594 1153 
L 594 3053 
L 172 3053 
L 172 3500 
L 594 3500 
L 594 4494 
L 1172 4494 
z
" transform="scale(0.015625)"/>
       <path id="DejaVuSans-70" d="M 1159 525 
L 1159 -1331 
L 581 -1331 
L 581 3500 
L 1159 3500 
L 1159 2969 
Q 1341 3281 1617 3432 
Q 1894 3584 2278 3584 
Q 2916 3584 3314 3078 
Q 3713 2572 3713 1747 
Q 3713 922 3314 415 
Q 2916 -91 2278 -91 
Q 1894 -91 1617 61 
Q 1341 213 1159 525 
z
M 3116 1747 
Q 3116 2381 2855 2742 
Q 2594 3103 2138 3103 
Q 1681 3103 1420 2742 
Q 1159 2381 1159 1747 
Q 1159 1113 1420 752 
Q 1681 391 2138 391 
Q 2594 391 2855 752 
Q 3116 1113 3116 1747 
z
" transform="scale(0.015625)"/>
      </defs>
      <use xlink:href="#DejaVuSans-54"/>
      <use xlink:href="#DejaVuSans-69" x="57.958984"/>
      <use xlink:href="#DejaVuSans-6d" x="85.742188"/>
      <use xlink:href="#DejaVuSans-65" x="183.154297"/>
      <use xlink:href="#DejaVuSans-20" x="244.677734"/>
      <use xlink:href="#DejaVuSans-73" x="276.464844"/>
      <use xlink:href="#DejaVuSans-74" x="328.564453"/>
      <use xlink:href="#DejaVuSans-65" x="367.773438"/>
      <use xlink:href="#DejaVuSans-70" x="429.296875"/>
     </g>
    </g>
   </g>
   <g id="matplotlib.axis_2">
    <g id="ytick_1">
     <g id="line2d_11">
      <path d="M 72 235.872 
L 452.930233 235.872 
" clip-path="url(#p3b382548f5)" style="fill: none; stroke: #dcdcdc; stroke-width: 0.5; stroke-linecap: square"/>
     </g>
     <g id="line2d_12">
      <defs>
       <path id="m772d2a76d7" d="M 0 0 
L -3.5 0 
" style="stroke: #000000; stroke-width: 0.8"/>
      </defs>
      <g>
       <use xlink:href="#m772d2a76d7" x="72" y="235.872" style="stroke: #000000; stroke-width: 0.8"/>
      </g>
     </g>
     <g id="text_7">
      <!-- 0 -->
      <g transform="translate(56.72875 240.810984) scale(0.13 -0.13)">
       <use xlink:href="#DejaVuSans-30"/>
      </g>
     </g>
    </g>
    <g id="ytick_2">
     <g id="line2d_13">
      <path d="M 72 182.337137 
L 452.930233 182.337137 
" clip-path="url(#p3b382548f5)" style="fill: none; stroke: #dcdcdc; stroke-width: 0.5; stroke-linecap: square"/>
     </g>
     <g id="line2d_14">
      <g>
       <use xlink:href="#m772d2a76d7" x="72" y="182.337137" style="stroke: #000000; stroke-width: 0.8"/>
      </g>
     </g>
     <g id="text_8">
      <!-- 1 -->
      <g transform="translate(56.72875 187.276121) scale(0.13 -0.13)">
       <use xlink:href="#DejaVuSans-31"/>
      </g>
     </g>
    </g>
    <g id="ytick_3">
     <g id="line2d_15">
      <path d="M 72 128.802273 
L 452.930233 128.802273 
" clip-path="url(#p3b382548f5)" style="fill: none; stroke: #dcdcdc; stroke-width: 0.5; stroke-linecap: square"/>
     </g>
     <g id="line2d_16">
      <g>
       <use xlink:href="#m772d2a76d7" x="72" y="128.802273" style="stroke: #000000; stroke-width: 0.8"/>
      </g>
     </g>
     <g id="text_9">
      <!-- 2 -->
      <g transform="translate(56.72875 133.741257) scale(0.13 -0.13)">
       <use xlink:href="#DejaVuSans-32"/>
      </g>
     </g>
    </g>
    <g id="ytick_4">
     <g id="line2d_17">
      <path d="M 72 75.26741 
L 452.930233 75.26741 
" clip-path="url(#p3b382548f5)" style="fill: none; stroke: #dcdcdc; stroke-width: 0.5; stroke-linecap: square"/>
     </g>
     <g id="line2d_18">
      <g>
       <use xlink:href="#m772d2a76d7" x="72" y="75.26741" style="stroke: #000000; stroke-width: 0.8"/>
      </g>
     </g>
     <g id="text_10">
      <!-- 3 -->
      <g transform="translate(56.72875 80.206394) scale(0.13 -0.13)">
       <defs>
        <path id="DejaVuSans-33" d="M 2597 2516 
Q 3050 2419 3304 2112 
Q 3559 1806 3559 1356 
Q 3559 666 3084 287 
Q 2609 -91 1734 -91 
Q 1441 -91 1130 -33 
Q 819 25 488 141 
L 488 750 
Q 750 597 1062 519 
Q 1375 441 1716 441 
Q 2309 441 2620 675 
Q 2931 909 2931 1356 
Q 2931 1769 2642 2001 
Q 2353 2234 1838 2234 
L 1294 2234 
L 1294 2753 
L 1863 2753 
Q 2328 2753 2575 2939 
Q 2822 3125 2822 3475 
Q 2822 3834 2567 4026 
Q 2313 4219 1838 4219 
Q 1578 4219 1281 4162 
Q 984 4106 628 3988 
L 628 4550 
Q 988 4650 1302 4700 
Q 1616 4750 1894 4750 
Q 2613 4750 3031 4423 
Q 3450 4097 3450 3541 
Q 3450 3153 3228 2886 
Q 3006 2619 2597 2516 
z
" transform="scale(0.015625)"/>
       </defs>
       <use xlink:href="#DejaVuSans-33"/>
      </g>
     </g>
    </g>
    <g id="text_11">
     <!-- Biomass BETU.ALL -->
     <g transform="translate(49.609219 212.174541) rotate(-90) scale(0.15 -0.15)">
      <defs>
       <path id="DejaVuSans-42" d="M 1259 2228 
L 1259 519 
L 2272 519 
Q 2781 519 3026 730 
Q 3272 941 3272 1375 
Q 3272 1813 3026 2020 
Q 2781 2228 2272 2228 
L 1259 2228 
z
M 1259 4147 
L 1259 2741 
L 2194 2741 
Q 2656 2741 2882 2914 
Q 3109 3088 3109 3444 
Q 3109 3797 2882 3972 
Q 2656 4147 2194 4147 
L 1259 4147 
z
M 628 4666 
L 2241 4666 
Q 2963 4666 3353 4366 
Q 3744 4066 3744 3513 
Q 3744 3084 3544 2831 
Q 3344 2578 2956 2516 
Q 3422 2416 3680 2098 
Q 3938 1781 3938 1306 
Q 3938 681 3513 340 
Q 3088 0 2303 0 
L 628 0 
L 628 4666 
z
" transform="scale(0.015625)"/>
       <path id="DejaVuSans-6f" d="M 1959 3097 
Q 1497 3097 1228 2736 
Q 959 2375 959 1747 
Q 959 1119 1226 758 
Q 1494 397 1959 397 
Q 2419 397 2687 759 
Q 2956 1122 2956 1747 
Q 2956 2369 2687 2733 
Q 2419 3097 1959 3097 
z
M 1959 3584 
Q 2709 3584 3137 3096 
Q 3566 2609 3566 1747 
Q 3566 888 3137 398 
Q 2709 -91 1959 -91 
Q 1206 -91 779 398 
Q 353 888 353 1747 
Q 353 2609 779 3096 
Q 1206 3584 1959 3584 
z
" transform="scale(0.015625)"/>
       <path id="DejaVuSans-61" d="M 2194 1759 
Q 1497 1759 1228 1600 
Q 959 1441 959 1056 
Q 959 750 1161 570 
Q 1363 391 1709 391 
Q 2188 391 2477 730 
Q 2766 1069 2766 1631 
L 2766 1759 
L 2194 1759 
z
M 3341 1997 
L 3341 0 
L 2766 0 
L 2766 531 
Q 2569 213 2275 61 
Q 1981 -91 1556 -91 
Q 1019 -91 701 211 
Q 384 513 384 1019 
Q 384 1609 779 1909 
Q 1175 2209 1959 2209 
L 2766 2209 
L 2766 2266 
Q 2766 2663 2505 2880 
Q 2244 3097 1772 3097 
Q 1472 3097 1187 3025 
Q 903 2953 641 2809 
L 641 3341 
Q 956 3463 1253 3523 
Q 1550 3584 1831 3584 
Q 2591 3584 2966 3190 
Q 3341 2797 3341 1997 
z
" transform="scale(0.015625)"/>
       <path id="DejaVuSans-45" d="M 628 4666 
L 3578 4666 
L 3578 4134 
L 1259 4134 
L 1259 2753 
L 3481 2753 
L 3481 2222 
L 1259 2222 
L 1259 531 
L 3634 531 
L 3634 0 
L 628 0 
L 628 4666 
z
" transform="scale(0.015625)"/>
       <path id="DejaVuSans-55" d="M 556 4666 
L 1191 4666 
L 1191 1831 
Q 1191 1081 1462 751 
Q 1734 422 2344 422 
Q 2950 422 3222 751 
Q 3494 1081 3494 1831 
L 3494 4666 
L 4128 4666 
L 4128 1753 
Q 4128 841 3676 375 
Q 3225 -91 2344 -91 
Q 1459 -91 1007 375 
Q 556 841 556 1753 
L 556 4666 
z
" transform="scale(0.015625)"/>
       <path id="DejaVuSans-2e" d="M 684 794 
L 1344 794 
L 1344 0 
L 684 0 
L 684 794 
z
" transform="scale(0.015625)"/>
       <path id="DejaVuSans-41" d="M 2188 4044 
L 1331 1722 
L 3047 1722 
L 2188 4044 
z
M 1831 4666 
L 2547 4666 
L 4325 0 
L 3669 0 
L 3244 1197 
L 1141 1197 
L 716 0 
L 50 0 
L 1831 4666 
z
" transform="scale(0.015625)"/>
       <path id="DejaVuSans-4c" d="M 628 4666 
L 1259 4666 
L 1259 531 
L 3531 531 
L 3531 0 
L 628 0 
L 628 4666 
z
" transform="scale(0.015625)"/>
      </defs>
      <use xlink:href="#DejaVuSans-42"/>
      <use xlink:href="#DejaVuSans-69" x="68.603516"/>
      <use xlink:href="#DejaVuSans-6f" x="96.386719"/>
      <use xlink:href="#DejaVuSans-6d" x="157.568359"/>
      <use xlink:href="#DejaVuSans-61" x="254.980469"/>
      <use xlink:href="#DejaVuSans-73" x="316.259766"/>
      <use xlink:href="#DejaVuSans-73" x="368.359375"/>
      <use xlink:href="#DejaVuSans-20" x="420.458984"/>
      <use xlink:href="#DejaVuSans-42" x="452.246094"/>
      <use xlink:href="#DejaVuSans-45" x="520.849609"/>
      <use xlink:href="#DejaVuSans-54" x="584.033203"/>
      <use xlink:href="#DejaVuSans-55" x="645.117188"/>
      <use xlink:href="#DejaVuSans-2e" x="718.310547"/>
      <use xlink:href="#DejaVuSans-41" x="750.097656"/>
      <use xlink:href="#DejaVuSans-4c" x="818.505859"/>
      <use xlink:href="#DejaVuSans-4c" x="874.21875"/>
     </g>
    </g>
    <g id="text_12">
     <!-- 1e4 -->
     <g transform="translate(72 45.9888) scale(0.12 -0.12)">
      <defs>
       <path id="DejaVuSans-34" d="M 2419 4116 
L 825 1625 
L 2419 1625 
L 2419 4116 
z
M 2253 4666 
L 3047 4666 
L 3047 1625 
L 3713 1625 
L 3713 1100 
L 3047 1100 
L 3047 0 
L 2419 0 
L 2419 1100 
L 313 1100 
L 313 1709 
L 2253 4666 
z
" transform="scale(0.015625)"/>
      </defs>
      <use xlink:href="#DejaVuSans-31"/>
      <use xlink:href="#DejaVuSans-65" x="63.623047"/>
      <use xlink:href="#DejaVuSans-34" x="125.146484"/>
     </g>
    </g>
   </g>
   <g id="PolyCollection_1">
    <defs>
     <path id="me946d43eb7" d="M 89.315011 -70.447527 
L 89.315011 -70.566405 
L 106.630021 -73.951947 
L 123.945032 -79.936485 
L 141.260042 -88.536007 
L 158.575053 -97.259645 
L 175.890063 -114.066876 
L 193.205074 -128.61674 
L 210.520085 -141.815346 
L 227.835095 -154.715389 
L 245.150106 -162.561754 
L 262.465116 -174.811934 
L 279.780127 -176.838666 
L 297.095137 -183.727718 
L 314.410148 -193.094761 
L 331.725159 -199.059161 
L 349.040169 -206.249774 
L 366.35518 -211.850999 
L 383.67019 -218.272596 
L 400.985201 -216.058422 
L 418.300211 -220.227683 
L 435.615222 -244.512 
L 435.615222 -166.507616 
L 435.615222 -166.507616 
L 418.300211 -218.922516 
L 400.985201 -214.730956 
L 383.67019 -216.832406 
L 366.35518 -210.408797 
L 349.040169 -204.832146 
L 331.725159 -197.524702 
L 314.410148 -191.517891 
L 297.095137 -182.024857 
L 279.780127 -174.980976 
L 262.465116 -173.46625 
L 245.150106 -161.173193 
L 227.835095 -153.523101 
L 210.520085 -140.544188 
L 193.205074 -127.308093 
L 175.890063 -112.851444 
L 158.575053 -96.333069 
L 141.260042 -87.852947 
L 123.945032 -79.463971 
L 106.630021 -73.714584 
L 89.315011 -70.447527 
z
"/>
    </defs>
    <g clip-path="url(#p3b382548f5)">
     <use xlink:href="#me946d43eb7" x="0" y="302.4" style="fill: #fcffa4; fill-opacity: 0.3"/>
    </g>
   </g>
   <g id="PolyCollection_2">
    <defs>
     <path id="mfb3472f8a1" d="M 89.315011 -70.07632 
L 89.315011 -70.424651 
L 106.630021 -73.381259 
L 123.945032 -78.182772 
L 141.260042 -84.502953 
L 158.575053 -90.52073 
L 175.890063 -102.542012 
L 193.205074 -111.686402 
L 210.520085 -119.548465 
L 227.835095 -128.082433 
L 245.150106 -138.988371 
L 262.465116 -150.544632 
L 279.780127 -150.895587 
L 297.095137 -159.446868 
L 314.410148 -171.023321 
L 331.725159 -178.62947 
L 349.040169 -188.118699 
L 366.35518 -195.815782 
L 383.67019 -204.8345 
L 400.985201 -204.973473 
L 418.300211 -211.558572 
L 435.615222 -209.305829 
L 435.615222 -73.400678 
L 435.615222 -73.400678 
L 418.300211 -74.788419 
L 400.985201 -74.698259 
L 383.67019 -74.97546 
L 366.35518 -74.679905 
L 349.040169 -75.384371 
L 331.725159 -75.084482 
L 314.410148 -77.402349 
L 297.095137 -76.394201 
L 279.780127 -77.03977 
L 262.465116 -93.852157 
L 245.150106 -91.939897 
L 227.835095 -112.538874 
L 210.520085 -107.228499 
L 193.205074 -102.948572 
L 175.890063 -96.744828 
L 158.575053 -87.827634 
L 141.260042 -82.610001 
L 123.945032 -77.013265 
L 106.630021 -72.735832 
L 89.315011 -70.07632 
z
"/>
    </defs>
    <g clip-path="url(#p3b382548f5)">
     <use xlink:href="#mfb3472f8a1" x="0" y="302.4" style="fill: #f98e09; fill-opacity: 0.3"/>
    </g>
   </g>
   <g id="PolyCollection_3">
    <defs>
     <path id="m6ee4777b84" d="M 89.315011 -69.878866 
L 89.315011 -70.33969 
L 106.630021 -73.004311 
L 123.945032 -76.994253 
L 141.260042 -82.19944 
L 158.575053 -86.860707 
L 175.890063 -95.908355 
L 193.205074 -101.498038 
L 210.520085 -107.976211 
L 227.835095 -114.612613 
L 245.150106 -116.805917 
L 262.465116 -123.961225 
L 279.780127 -118.511328 
L 297.095137 -123.485643 
L 314.410148 -130.7965 
L 331.725159 -136.146344 
L 349.040169 -144.266992 
L 366.35518 -151.09647 
L 383.67019 -159.370426 
L 400.985201 -160.564046 
L 418.300211 -167.007677 
L 435.615222 -167.247114 
L 435.615222 -50.42916 
L 435.615222 -50.42916 
L 418.300211 -51.031884 
L 400.985201 -52.214947 
L 383.67019 -52.874856 
L 366.35518 -53.94128 
L 349.040169 -55.351325 
L 331.725159 -56.719795 
L 314.410148 -59.210501 
L 297.095137 -61.412087 
L 279.780127 -62.641245 
L 262.465116 -72.327189 
L 245.150106 -73.127466 
L 227.835095 -92.589854 
L 210.520085 -91.470863 
L 193.205074 -93.26003 
L 175.890063 -89.578156 
L 158.575053 -83.493782 
L 141.260042 -79.928548 
L 123.945032 -75.549392 
L 106.630021 -72.140407 
L 89.315011 -69.878866 
z
"/>
    </defs>
    <g clip-path="url(#p3b382548f5)">
     <use xlink:href="#m6ee4777b84" x="0" y="302.4" style="fill: #bc3754; fill-opacity: 0.3"/>
    </g>
   </g>
   <g id="PolyCollection_4">
    <defs>
     <path id="m18d4336be1" d="M 89.315011 -69.707762 
L 89.315011 -70.199999 
L 106.630021 -72.543343 
L 123.945032 -75.886797 
L 141.260042 -80.321512 
L 158.575053 -83.874927 
L 175.890063 -90.683104 
L 193.205074 -95.271683 
L 210.520085 -100.528689 
L 227.835095 -105.210646 
L 245.150106 -102.476243 
L 262.465116 -106.6824 
L 279.780127 -100.422547 
L 297.095137 -102.156319 
L 314.410148 -106.569338 
L 331.725159 -109.258311 
L 349.040169 -113.782482 
L 366.35518 -118.7062 
L 383.67019 -124.430371 
L 400.985201 -124.31728 
L 418.300211 -129.311717 
L 435.615222 -129.476377 
L 435.615222 -44.638732 
L 435.615222 -44.638732 
L 418.300211 -45.666262 
L 400.985201 -47.624287 
L 383.67019 -49.243002 
L 366.35518 -51.382306 
L 349.040169 -53.067259 
L 331.725159 -55.075454 
L 314.410148 -56.952584 
L 297.095137 -58.576828 
L 279.780127 -59.864197 
L 262.465116 -65.162319 
L 245.150106 -66.618159 
L 227.835095 -79.323858 
L 210.520085 -80.078541 
L 193.205074 -85.353833 
L 175.890063 -84.289912 
L 158.575053 -80.36501 
L 141.260042 -77.946954 
L 123.945032 -74.456649 
L 106.630021 -71.693271 
L 89.315011 -69.707762 
z
"/>
    </defs>
    <g clip-path="url(#p3b382548f5)">
     <use xlink:href="#m18d4336be1" x="0" y="302.4" style="fill: #57106e; fill-opacity: 0.3"/>
    </g>
   </g>
   <g id="PolyCollection_5">
    <defs>
     <path id="m86488e3a6f" d="M 89.315011 -69.609831 
L 89.315011 -70.102416 
L 106.630021 -72.23837 
L 123.945032 -75.16632 
L 141.260042 -78.831366 
L 158.575053 -81.4817 
L 175.890063 -86.703041 
L 193.205074 -90.276161 
L 210.520085 -93.364055 
L 227.835095 -96.437877 
L 245.150106 -92.77753 
L 262.465116 -95.589084 
L 279.780127 -91.018793 
L 297.095137 -91.407673 
L 314.410148 -93.929179 
L 331.725159 -95.664593 
L 349.040169 -98.924663 
L 366.35518 -102.742935 
L 383.67019 -108.126489 
L 400.985201 -108.070934 
L 418.300211 -112.360018 
L 435.615222 -112.501365 
L 435.615222 -47.284956 
L 435.615222 -47.284956 
L 418.300211 -48.243824 
L 400.985201 -50.082574 
L 383.67019 -51.433958 
L 366.35518 -53.46062 
L 349.040169 -55.228763 
L 331.725159 -56.892295 
L 314.410148 -58.402048 
L 297.095137 -59.598181 
L 279.780127 -60.659973 
L 262.465116 -63.173693 
L 245.150106 -64.267078 
L 227.835095 -71.466364 
L 210.520085 -72.656808 
L 193.205074 -80.699482 
L 175.890063 -80.944961 
L 158.575053 -78.293294 
L 141.260042 -76.567238 
L 123.945032 -73.818507 
L 106.630021 -71.395456 
L 89.315011 -69.609831 
z
"/>
    </defs>
    <g clip-path="url(#p3b382548f5)">
     <use xlink:href="#m86488e3a6f" x="0" y="302.4" style="fill: #000004; fill-opacity: 0.3"/>
    </g>
   </g>
   <g id="line2d_19">
    <path d="M 89.315011 231.893034 
L 106.630021 228.566735 
L 123.945032 222.699772 
L 141.260042 214.205523 
L 158.575053 205.603643 
L 175.890063 188.94084 
L 193.205074 174.437583 
L 210.520085 161.220233 
L 227.835095 148.280755 
L 245.150106 140.532526 
L 262.465116 128.260908 
L 279.780127 126.490179 
L 297.095137 119.523712 
L 314.410148 110.093674 
L 331.725159 104.108068 
L 349.040169 96.85904 
L 366.35518 91.270102 
L 383.67019 84.847499 
L 400.985201 87.005311 
L 418.300211 82.824901 
L 435.615222 96.890192 
" clip-path="url(#p3b382548f5)" style="fill: none; stroke: #fcffa4; stroke-linecap: square"/>
   </g>
   <g id="line2d_20">
    <path d="M 89.315011 232.149514 
L 106.630021 229.341455 
L 123.945032 224.801982 
L 141.260042 218.843523 
L 158.575053 213.225818 
L 175.890063 202.75658 
L 193.205074 195.082513 
L 210.520085 189.011518 
L 227.835095 182.089347 
L 245.150106 186.935866 
L 262.465116 180.201605 
L 279.780127 188.432321 
L 297.095137 184.479466 
L 314.410148 178.187165 
L 331.725159 175.543024 
L 349.040169 170.648465 
L 366.35518 167.152157 
L 383.67019 162.49502 
L 400.985201 162.564134 
L 418.300211 159.226504 
L 435.615222 161.046746 
" clip-path="url(#p3b382548f5)" style="fill: none; stroke: #f98e09; stroke-linecap: square"/>
   </g>
   <g id="line2d_21">
    <path d="M 89.315011 232.290722 
L 106.630021 229.827641 
L 123.945032 226.128177 
L 141.260042 221.336006 
L 158.575053 217.222755 
L 175.890063 209.656745 
L 193.205074 205.020966 
L 210.520085 202.676463 
L 227.835095 198.798766 
L 245.150106 207.433309 
L 262.465116 204.255793 
L 279.780127 211.823713 
L 297.095137 209.951135 
L 314.410148 207.396499 
L 331.725159 205.966931 
L 349.040169 202.590842 
L 366.35518 199.881125 
L 383.67019 196.277359 
L 400.985201 196.010503 
L 418.300211 193.38022 
L 435.615222 193.561863 
" clip-path="url(#p3b382548f5)" style="fill: none; stroke: #bc3754; stroke-linecap: square"/>
   </g>
   <g id="line2d_22">
    <path d="M 89.315011 232.446119 
L 106.630021 230.281693 
L 123.945032 227.228277 
L 141.260042 223.265767 
L 158.575053 220.280032 
L 175.890063 214.913492 
L 193.205074 212.087242 
L 210.520085 212.096385 
L 227.835095 210.132748 
L 245.150106 217.852799 
L 262.465116 216.47764 
L 279.780127 222.256628 
L 297.095137 222.033427 
L 314.410148 220.639039 
L 331.725159 220.233118 
L 349.040169 218.97513 
L 366.35518 217.355747 
L 383.67019 215.563314 
L 400.985201 216.429216 
L 418.300211 214.911011 
L 435.615222 215.342445 
" clip-path="url(#p3b382548f5)" style="fill: none; stroke: #57106e; stroke-linecap: square"/>
   </g>
   <g id="line2d_23">
    <path d="M 89.315011 232.543877 
L 106.630021 230.583087 
L 123.945032 227.907586 
L 141.260042 224.700698 
L 158.575053 222.512503 
L 175.890063 218.575999 
L 193.205074 216.912178 
L 210.520085 219.389568 
L 227.835095 218.44788 
L 245.150106 223.877696 
L 262.465116 223.018611 
L 279.780127 226.560617 
L 297.095137 226.897073 
L 314.410148 226.234386 
L 331.725159 226.121556 
L 349.040169 225.323287 
L 366.35518 224.298223 
L 383.67019 222.619776 
L 400.985201 223.323246 
L 418.300211 222.098079 
L 435.615222 222.506839 
" clip-path="url(#p3b382548f5)" style="fill: none; stroke: #000004; stroke-linecap: square"/>
   </g>
   <g id="patch_3">
    <path d="M 72 235.872 
L 72 48.9888 
" style="fill: none; stroke: #000000; stroke-width: 0.8; stroke-linejoin: miter; stroke-linecap: square"/>
   </g>
   <g id="patch_4">
    <path d="M 72 235.872 
L 452.930233 235.872 
" style="fill: none; stroke: #000000; stroke-width: 0.8; stroke-linejoin: miter; stroke-linecap: square"/>
   </g>
   <g id="text_13">
    <!-- PnET -->
    <g transform="translate(242.770116 289.674624) scale(0.16 -0.16)">
     <defs>
      <path id="DejaVuSans-50" d="M 1259 4147 
L 1259 2394 
L 2053 2394 
Q 2494 2394 2734 2622 
Q 2975 2850 2975 3272 
Q 2975 3691 2734 3919 
Q 2494 4147 2053 4147 
L 1259 4147 
z
M 628 4666 
L 2053 4666 
Q 2838 4666 3239 4311 
Q 3641 3956 3641 3272 
Q 3641 2581 3239 2228 
Q 2838 1875 2053 1875 
L 1259 1875 
L 1259 0 
L 628 0 
L 628 4666 
z
" transform="scale(0.015625)"/>
      <path id="DejaVuSans-6e" d="M 3513 2113 
L 3513 0 
L 2938 0 
L 2938 2094 
Q 2938 2591 2744 2837 
Q 2550 3084 2163 3084 
Q 1697 3084 1428 2787 
Q 1159 2491 1159 1978 
L 1159 0 
L 581 0 
L 581 3500 
L 1159 3500 
L 1159 2956 
Q 1366 3272 1645 3428 
Q 1925 3584 2291 3584 
Q 2894 3584 3203 3211 
Q 3513 2838 3513 2113 
z
" transform="scale(0.015625)"/>
     </defs>
     <use xlink:href="#DejaVuSans-50"/>
     <use xlink:href="#DejaVuSans-6e" x="58.552734"/>
     <use xlink:href="#DejaVuSans-45" x="121.931641"/>
     <use xlink:href="#DejaVuSans-54" x="185.115234"/>
    </g>
   </g>
   <g id="legend_1">
    <g id="patch_5">
     <path d="M 266.5125 37.164 
L 633.4875 37.164 
Q 635.8875 37.164 635.8875 34.764 
L 635.8875 11.424 
Q 635.8875 9.024 633.4875 9.024 
L 266.5125 9.024 
Q 264.1125 9.024 264.1125 11.424 
L 264.1125 34.764 
Q 264.1125 37.164 266.5125 37.164 
z
" style="fill: #ffffff; opacity: 0.8; stroke: #cccccc; stroke-linejoin: miter"/>
    </g>
    <g id="patch_6">
     <path d="M 268.9125 32.364 
L 304.9125 32.364 
L 304.9125 13.824 
L 268.9125 13.824 
z
" style="fill: #fcffa4; fill-opacity: 0.3"/>
    </g>
    <g id="line2d_24">
     <path d="M 268.9125 20.364 
L 286.9125 20.364 
L 304.9125 20.364 
" style="fill: none; stroke: #fcffa4; stroke-linecap: square"/>
    </g>
    <g id="text_14">
     <!-- 1 -->
     <g transform="translate(314.5125 26.904) scale(0.12 -0.12)">
      <use xlink:href="#DejaVuSans-31"/>
     </g>
    </g>
    <g id="patch_7">
     <path d="M 346.1475 32.364 
L 382.1475 32.364 
L 382.1475 13.824 
L 346.1475 13.824 
z
" style="fill: #f98e09; fill-opacity: 0.3"/>
    </g>
    <g id="line2d_25">
     <path d="M 346.1475 20.364 
L 364.1475 20.364 
L 382.1475 20.364 
" style="fill: none; stroke: #f98e09; stroke-linecap: square"/>
    </g>
    <g id="text_15">
     <!-- 2 -->
     <g transform="translate(391.7475 26.904) scale(0.12 -0.12)">
      <use xlink:href="#DejaVuSans-32"/>
     </g>
    </g>
    <g id="patch_8">
     <path d="M 423.3825 32.364 
L 459.3825 32.364 
L 459.3825 13.824 
L 423.3825 13.824 
z
" style="fill: #bc3754; fill-opacity: 0.3"/>
    </g>
    <g id="line2d_26">
     <path d="M 423.3825 20.364 
L 441.3825 20.364 
L 459.3825 20.364 
" style="fill: none; stroke: #bc3754; stroke-linecap: square"/>
    </g>
    <g id="text_16">
     <!-- 3 -->
     <g transform="translate(468.9825 26.904) scale(0.12 -0.12)">
      <use xlink:href="#DejaVuSans-33"/>
     </g>
    </g>
    <g id="patch_9">
     <path d="M 500.6175 32.364 
L 536.6175 32.364 
L 536.6175 13.824 
L 500.6175 13.824 
z
" style="fill: #57106e; fill-opacity: 0.3"/>
    </g>
    <g id="line2d_27">
     <path d="M 500.6175 20.364 
L 518.6175 20.364 
L 536.6175 20.364 
" style="fill: none; stroke: #57106e; stroke-linecap: square"/>
    </g>
    <g id="text_17">
     <!-- 4 -->
     <g transform="translate(546.2175 26.904) scale(0.12 -0.12)">
      <use xlink:href="#DejaVuSans-34"/>
     </g>
    </g>
    <g id="patch_10">
     <path d="M 577.8525 32.364 
L 613.8525 32.364 
L 613.8525 13.824 
L 577.8525 13.824 
z
" style="fill: #000004; fill-opacity: 0.3"/>
    </g>
    <g id="line2d_28">
     <path d="M 577.8525 20.364 
L 595.8525 20.364 
L 613.8525 20.364 
" style="fill: none; stroke: #000004; stroke-linecap: square"/>
    </g>
    <g id="text_18">
     <!-- 5 -->
     <g transform="translate(623.4525 26.904) scale(0.12 -0.12)">
      <use xlink:href="#DejaVuSans-35"/>
     </g>
    </g>
   </g>
  </g>
  <g id="axes_2">
   <g id="patch_11">
    <path d="M 510.069767 235.872 
L 891 235.872 
L 891 48.9888 
L 510.069767 48.9888 
z
" style="fill: #fcfcfc"/>
   </g>
   <g id="matplotlib.axis_3">
    <g id="xtick_6">
     <g id="line2d_29">
      <path d="M 527.384778 235.872 
L 527.384778 48.9888 
" clip-path="url(#p57e9f3cd6d)" style="fill: none; stroke: #dcdcdc; stroke-width: 0.5; stroke-linecap: square"/>
     </g>
     <g id="line2d_30">
      <g>
       <use xlink:href="#ma167c24d9d" x="527.384778" y="235.872" style="stroke: #000000; stroke-width: 0.8"/>
      </g>
     </g>
     <g id="text_19">
      <!-- 0 -->
      <g transform="translate(523.249153 252.749969) scale(0.13 -0.13)">
       <use xlink:href="#DejaVuSans-30"/>
      </g>
     </g>
    </g>
    <g id="xtick_7">
     <g id="line2d_31">
      <path d="M 613.959831 235.872 
L 613.959831 48.9888 
" clip-path="url(#p57e9f3cd6d)" style="fill: none; stroke: #dcdcdc; stroke-width: 0.5; stroke-linecap: square"/>
     </g>
     <g id="line2d_32">
      <g>
       <use xlink:href="#ma167c24d9d" x="613.959831" y="235.872" style="stroke: #000000; stroke-width: 0.8"/>
      </g>
     </g>
     <g id="text_20">
      <!-- 25 -->
      <g transform="translate(605.688581 252.749969) scale(0.13 -0.13)">
       <use xlink:href="#DejaVuSans-32"/>
       <use xlink:href="#DejaVuSans-35" x="63.623047"/>
      </g>
     </g>
    </g>
    <g id="xtick_8">
     <g id="line2d_33">
      <path d="M 700.534884 235.872 
L 700.534884 48.9888 
" clip-path="url(#p57e9f3cd6d)" style="fill: none; stroke: #dcdcdc; stroke-width: 0.5; stroke-linecap: square"/>
     </g>
     <g id="line2d_34">
      <g>
       <use xlink:href="#ma167c24d9d" x="700.534884" y="235.872" style="stroke: #000000; stroke-width: 0.8"/>
      </g>
     </g>
     <g id="text_21">
      <!-- 50 -->
      <g transform="translate(692.263634 252.749969) scale(0.13 -0.13)">
       <use xlink:href="#DejaVuSans-35"/>
       <use xlink:href="#DejaVuSans-30" x="63.623047"/>
      </g>
     </g>
    </g>
    <g id="xtick_9">
     <g id="line2d_35">
      <path d="M 787.109937 235.872 
L 787.109937 48.9888 
" clip-path="url(#p57e9f3cd6d)" style="fill: none; stroke: #dcdcdc; stroke-width: 0.5; stroke-linecap: square"/>
     </g>
     <g id="line2d_36">
      <g>
       <use xlink:href="#ma167c24d9d" x="787.109937" y="235.872" style="stroke: #000000; stroke-width: 0.8"/>
      </g>
     </g>
     <g id="text_22">
      <!-- 75 -->
      <g transform="translate(778.838687 252.749969) scale(0.13 -0.13)">
       <use xlink:href="#DejaVuSans-37"/>
       <use xlink:href="#DejaVuSans-35" x="63.623047"/>
      </g>
     </g>
    </g>
    <g id="xtick_10">
     <g id="line2d_37">
      <path d="M 873.684989 235.872 
L 873.684989 48.9888 
" clip-path="url(#p57e9f3cd6d)" style="fill: none; stroke: #dcdcdc; stroke-width: 0.5; stroke-linecap: square"/>
     </g>
     <g id="line2d_38">
      <g>
       <use xlink:href="#ma167c24d9d" x="873.684989" y="235.872" style="stroke: #000000; stroke-width: 0.8"/>
      </g>
     </g>
     <g id="text_23">
      <!-- 100 -->
      <g transform="translate(861.278114 252.749969) scale(0.13 -0.13)">
       <use xlink:href="#DejaVuSans-31"/>
       <use xlink:href="#DejaVuSans-30" x="63.623047"/>
       <use xlink:href="#DejaVuSans-30" x="127.246094"/>
      </g>
     </g>
    </g>
    <g id="text_24">
     <!-- Time step -->
     <g transform="translate(663.577462 270.851219) scale(0.15 -0.15)">
      <use xlink:href="#DejaVuSans-54"/>
      <use xlink:href="#DejaVuSans-69" x="57.958984"/>
      <use xlink:href="#DejaVuSans-6d" x="85.742188"/>
      <use xlink:href="#DejaVuSans-65" x="183.154297"/>
      <use xlink:href="#DejaVuSans-20" x="244.677734"/>
      <use xlink:href="#DejaVuSans-73" x="276.464844"/>
      <use xlink:href="#DejaVuSans-74" x="328.564453"/>
      <use xlink:href="#DejaVuSans-65" x="367.773438"/>
      <use xlink:href="#DejaVuSans-70" x="429.296875"/>
     </g>
    </g>
   </g>
   <g id="matplotlib.axis_4">
    <g id="ytick_5">
     <g id="line2d_39">
      <path d="M 510.069767 235.872 
L 891 235.872 
" clip-path="url(#p57e9f3cd6d)" style="fill: none; stroke: #dcdcdc; stroke-width: 0.5; stroke-linecap: square"/>
     </g>
    </g>
    <g id="ytick_6">
     <g id="line2d_40">
      <path d="M 510.069767 182.337137 
L 891 182.337137 
" clip-path="url(#p57e9f3cd6d)" style="fill: none; stroke: #dcdcdc; stroke-width: 0.5; stroke-linecap: square"/>
     </g>
    </g>
    <g id="ytick_7">
     <g id="line2d_41">
      <path d="M 510.069767 128.802273 
L 891 128.802273 
" clip-path="url(#p57e9f3cd6d)" style="fill: none; stroke: #dcdcdc; stroke-width: 0.5; stroke-linecap: square"/>
     </g>
    </g>
    <g id="ytick_8">
     <g id="line2d_42">
      <path d="M 510.069767 75.26741 
L 891 75.26741 
" clip-path="url(#p57e9f3cd6d)" style="fill: none; stroke: #dcdcdc; stroke-width: 0.5; stroke-linecap: square"/>
     </g>
    </g>
   </g>
   <g id="PolyCollection_6">
    <defs>
     <path id="mdd32e5ff14" d="M 527.384778 -71.42644 
L 527.384778 -71.42644 
L 544.699789 -73.0539 
L 562.014799 -75.002569 
L 579.32981 -77.202852 
L 596.64482 -79.520911 
L 613.959831 -81.828264 
L 631.274841 -85.56397 
L 648.589852 -88.177028 
L 665.904863 -90.618577 
L 683.219873 -92.550969 
L 700.534884 -93.981956 
L 717.849894 -94.79493 
L 735.164905 -95.367014 
L 752.479915 -95.694837 
L 769.794926 -96.135645 
L 787.109937 -96.541576 
L 804.424947 -96.851949 
L 821.739958 -97.146415 
L 839.054968 -97.529256 
L 856.369979 -97.917301 
L 873.684989 -98.29635 
L 873.684989 -95.106391 
L 873.684989 -95.106391 
L 856.369979 -95.016679 
L 839.054968 -94.790042 
L 821.739958 -94.663537 
L 804.424947 -94.427957 
L 787.109937 -94.161683 
L 769.794926 -93.90164 
L 752.479915 -93.602341 
L 735.164905 -93.196788 
L 717.849894 -92.569589 
L 700.534884 -91.619277 
L 683.219873 -90.070769 
L 665.904863 -88.240527 
L 648.589852 -86.23756 
L 631.274841 -83.889619 
L 613.959831 -81.828264 
L 596.64482 -79.520911 
L 579.32981 -77.202852 
L 562.014799 -75.002569 
L 544.699789 -73.0539 
L 527.384778 -71.42644 
z
"/>
    </defs>
    <g clip-path="url(#p57e9f3cd6d)">
     <use xlink:href="#mdd32e5ff14" x="0" y="302.4" style="fill: #fcffa4; fill-opacity: 0.3"/>
    </g>
   </g>
   <g id="PolyCollection_7">
    <defs>
     <path id="mf165c1ea94" d="M 527.384778 -69.737556 
L 527.384778 -70.107231 
L 544.699789 -70.71089 
L 562.014799 -71.41144 
L 579.32981 -72.219387 
L 596.64482 -73.136294 
L 613.959831 -74.077016 
L 631.274841 -75.742072 
L 648.589852 -77.275454 
L 665.904863 -78.382414 
L 683.219873 -78.988872 
L 700.534884 -79.324884 
L 717.849894 -79.572565 
L 735.164905 -79.844444 
L 752.479915 -79.981418 
L 769.794926 -80.080544 
L 787.109937 -80.237058 
L 804.424947 -80.369641 
L 821.739958 -80.477261 
L 839.054968 -80.582437 
L 856.369979 -80.661709 
L 873.684989 -80.681552 
L 873.684989 -71.033076 
L 873.684989 -71.033076 
L 856.369979 -71.032355 
L 839.054968 -71.028237 
L 821.739958 -71.019319 
L 804.424947 -71.008992 
L 787.109937 -70.990771 
L 769.794926 -70.946118 
L 752.479915 -70.921349 
L 735.164905 -70.886898 
L 717.849894 -70.860002 
L 700.534884 -70.841198 
L 683.219873 -70.811474 
L 665.904863 -70.769169 
L 648.589852 -70.578092 
L 631.274841 -70.348052 
L 613.959831 -70.141938 
L 596.64482 -70.074844 
L 579.32981 -70.013225 
L 562.014799 -69.955494 
L 544.699789 -69.899928 
L 527.384778 -69.737556 
z
"/>
    </defs>
    <g clip-path="url(#p57e9f3cd6d)">
     <use xlink:href="#mf165c1ea94" x="0" y="302.4" style="fill: #f98e09; fill-opacity: 0.3"/>
    </g>
   </g>
   <g id="PolyCollection_8">
    <defs>
     <path id="m6341e923a3" d="M 527.384778 -69.551205 
L 527.384778 -69.761452 
L 544.699789 -70.035006 
L 562.014799 -70.235206 
L 579.32981 -70.481764 
L 596.64482 -70.76452 
L 613.959831 -71.043287 
L 631.274841 -71.654028 
L 648.589852 -71.974242 
L 665.904863 -72.102494 
L 683.219873 -72.255052 
L 700.534884 -72.389954 
L 717.849894 -72.480756 
L 735.164905 -72.525353 
L 752.479915 -72.535798 
L 769.794926 -72.535798 
L 787.109937 -72.535798 
L 804.424947 -72.535798 
L 821.739958 -72.535798 
L 839.054968 -72.535798 
L 856.369979 -72.535798 
L 873.684989 -72.535798 
L 873.684989 -68.714616 
L 873.684989 -68.714616 
L 856.369979 -68.714616 
L 839.054968 -68.714616 
L 821.739958 -68.714616 
L 804.424947 -68.714616 
L 787.109937 -68.714616 
L 769.794926 -68.714616 
L 752.479915 -68.714616 
L 735.164905 -68.71889 
L 717.849894 -68.733071 
L 700.534884 -68.772759 
L 683.219873 -68.823607 
L 665.904863 -68.890782 
L 648.589852 -68.941392 
L 631.274841 -69.061174 
L 613.959831 -69.218437 
L 596.64482 -69.322892 
L 579.32981 -69.426767 
L 562.014799 -69.512924 
L 544.699789 -69.571411 
L 527.384778 -69.551205 
z
"/>
    </defs>
    <g clip-path="url(#p57e9f3cd6d)">
     <use xlink:href="#m6341e923a3" x="0" y="302.4" style="fill: #bc3754; fill-opacity: 0.3"/>
    </g>
   </g>
   <g id="PolyCollection_9">
    <defs>
     <path id="m07a7e3cd2f" d="M 527.384778 -69.395177 
L 527.384778 -69.645428 
L 544.699789 -69.743342 
L 562.014799 -69.743342 
L 579.32981 -69.743342 
L 596.64482 -69.743342 
L 613.959831 -69.743342 
L 631.274841 -69.879448 
L 648.589852 -69.879448 
L 665.904863 -69.879448 
L 683.219873 -69.879448 
L 700.534884 -69.879448 
L 717.849894 -69.879448 
L 735.164905 -69.879448 
L 752.479915 -69.879448 
L 769.794926 -69.879448 
L 787.109937 -69.879448 
L 804.424947 -69.879448 
L 821.739958 -69.879448 
L 839.054968 -69.879448 
L 856.369979 -69.879448 
L 873.684989 -69.879448 
L 873.684989 -69.309625 
L 873.684989 -69.309625 
L 856.369979 -69.309625 
L 839.054968 -69.309625 
L 821.739958 -69.309625 
L 804.424947 -69.309625 
L 787.109937 -69.309625 
L 769.794926 -69.309625 
L 752.479915 -69.309625 
L 735.164905 -69.309625 
L 717.849894 -69.309625 
L 700.534884 -69.309625 
L 683.219873 -69.309625 
L 665.904863 -69.309625 
L 648.589852 -69.309625 
L 631.274841 -69.309625 
L 613.959831 -69.379898 
L 596.64482 -69.379898 
L 579.32981 -69.379898 
L 562.014799 -69.379898 
L 544.699789 -69.379898 
L 527.384778 -69.395177 
z
"/>
    </defs>
    <g clip-path="url(#p57e9f3cd6d)">
     <use xlink:href="#m07a7e3cd2f" x="0" y="302.4" style="fill: #57106e; fill-opacity: 0.3"/>
    </g>
   </g>
   <g id="PolyCollection_10">
    <defs>
     <path id="m67b22bd891" d="M 527.384778 -69.323474 
L 527.384778 -69.328568 
L 544.699789 -69.328568 
L 562.014799 -69.328568 
L 579.32981 -69.328568 
L 596.64482 -69.328568 
L 613.959831 -69.328568 
L 631.274841 -69.328568 
L 648.589852 -69.328568 
L 665.904863 -69.328568 
L 683.219873 -69.328568 
L 700.534884 -69.328568 
L 717.849894 -69.328568 
L 735.164905 -69.328568 
L 752.479915 -69.328568 
L 769.794926 -69.328568 
L 787.109937 -69.328568 
L 804.424947 -69.328568 
L 821.739958 -69.328568 
L 839.054968 -69.328568 
L 856.369979 -69.328568 
L 873.684989 -69.328568 
L 873.684989 -69.323474 
L 873.684989 -69.323474 
L 856.369979 -69.323474 
L 839.054968 -69.323474 
L 821.739958 -69.323474 
L 804.424947 -69.323474 
L 787.109937 -69.323474 
L 769.794926 -69.323474 
L 752.479915 -69.323474 
L 735.164905 -69.323474 
L 717.849894 -69.323474 
L 700.534884 -69.323474 
L 683.219873 -69.323474 
L 665.904863 -69.323474 
L 648.589852 -69.323474 
L 631.274841 -69.323474 
L 613.959831 -69.323474 
L 596.64482 -69.323474 
L 579.32981 -69.323474 
L 562.014799 -69.323474 
L 544.699789 -69.323474 
L 527.384778 -69.323474 
z
"/>
    </defs>
    <g clip-path="url(#p57e9f3cd6d)">
     <use xlink:href="#m67b22bd891" x="0" y="302.4" style="fill: #000004; fill-opacity: 0.3"/>
    </g>
   </g>
   <g id="line2d_43">
    <path d="M 527.384778 230.97356 
L 544.699789 229.3461 
L 562.014799 227.397431 
L 579.32981 225.197148 
L 596.64482 222.879089 
L 613.959831 220.571736 
L 631.274841 217.673206 
L 648.589852 215.192706 
L 665.904863 212.970448 
L 683.219873 211.089131 
L 700.534884 209.599383 
L 717.849894 208.717741 
L 735.164905 208.118099 
L 752.479915 207.751411 
L 769.794926 207.381357 
L 787.109937 207.048371 
L 804.424947 206.760047 
L 821.739958 206.495024 
L 839.054968 206.240351 
L 856.369979 205.93301 
L 873.684989 205.698629 
" clip-path="url(#p57e9f3cd6d)" style="fill: none; stroke: #fcffa4; stroke-linecap: square"/>
   </g>
   <g id="line2d_44">
    <path d="M 527.384778 232.477606 
L 544.699789 232.094591 
L 562.014799 231.716533 
L 579.32981 231.283694 
L 596.64482 230.794431 
L 613.959831 230.290523 
L 631.274841 229.354938 
L 648.589852 228.473227 
L 665.904863 227.824209 
L 683.219873 227.499827 
L 700.534884 227.316959 
L 717.849894 227.183717 
L 735.164905 227.034329 
L 752.479915 226.948616 
L 769.794926 226.886669 
L 787.109937 226.786086 
L 804.424947 226.710684 
L 821.739958 226.65171 
L 839.054968 226.594663 
L 856.369979 226.552968 
L 873.684989 226.542686 
" clip-path="url(#p57e9f3cd6d)" style="fill: none; stroke: #f98e09; stroke-linecap: square"/>
   </g>
   <g id="line2d_45">
    <path d="M 527.384778 232.743671 
L 544.699789 232.596792 
L 562.014799 232.525935 
L 579.32981 232.445735 
L 596.64482 232.356294 
L 613.959831 232.269138 
L 631.274841 232.042399 
L 648.589852 231.942183 
L 665.904863 231.903362 
L 683.219873 231.86067 
L 700.534884 231.818644 
L 717.849894 231.793087 
L 735.164905 231.777879 
L 752.479915 231.774793 
L 769.794926 231.774793 
L 787.109937 231.774793 
L 804.424947 231.774793 
L 821.739958 231.774793 
L 839.054968 231.774793 
L 856.369979 231.774793 
L 873.684989 231.774793 
" clip-path="url(#p57e9f3cd6d)" style="fill: none; stroke: #bc3754; stroke-linecap: square"/>
   </g>
   <g id="line2d_46">
    <path d="M 527.384778 232.879698 
L 544.699789 232.83838 
L 562.014799 232.83838 
L 579.32981 232.83838 
L 596.64482 232.83838 
L 613.959831 232.83838 
L 631.274841 232.805464 
L 648.589852 232.805464 
L 665.904863 232.805464 
L 683.219873 232.805464 
L 700.534884 232.805464 
L 717.849894 232.805464 
L 735.164905 232.805464 
L 752.479915 232.805464 
L 769.794926 232.805464 
L 787.109937 232.805464 
L 804.424947 232.805464 
L 821.739958 232.805464 
L 839.054968 232.805464 
L 856.369979 232.805464 
L 873.684989 232.805464 
" clip-path="url(#p57e9f3cd6d)" style="fill: none; stroke: #57106e; stroke-linecap: square"/>
   </g>
   <g id="line2d_47">
    <path d="M 527.384778 233.073979 
L 544.699789 233.073979 
L 562.014799 233.073979 
L 579.32981 233.073979 
L 596.64482 233.073979 
L 613.959831 233.073979 
L 631.274841 233.073979 
L 648.589852 233.073979 
L 665.904863 233.073979 
L 683.219873 233.073979 
L 700.534884 233.073979 
L 717.849894 233.073979 
L 735.164905 233.073979 
L 752.479915 233.073979 
L 769.794926 233.073979 
L 787.109937 233.073979 
L 804.424947 233.073979 
L 821.739958 233.073979 
L 839.054968 233.073979 
L 856.369979 233.073979 
L 873.684989 233.073979 
" clip-path="url(#p57e9f3cd6d)" style="fill: none; stroke: #000004; stroke-linecap: square"/>
   </g>
   <g id="patch_12">
    <path d="M 510.069767 235.872 
L 891 235.872 
" style="fill: none; stroke: #000000; stroke-width: 0.8; stroke-linejoin: miter; stroke-linecap: square"/>
   </g>
   <g id="text_25">
    <!-- BiomassSuccession -->
    <g transform="translate(622.507384 289.674624) scale(0.16 -0.16)">
     <defs>
      <path id="DejaVuSans-53" d="M 3425 4513 
L 3425 3897 
Q 3066 4069 2747 4153 
Q 2428 4238 2131 4238 
Q 1616 4238 1336 4038 
Q 1056 3838 1056 3469 
Q 1056 3159 1242 3001 
Q 1428 2844 1947 2747 
L 2328 2669 
Q 3034 2534 3370 2195 
Q 3706 1856 3706 1288 
Q 3706 609 3251 259 
Q 2797 -91 1919 -91 
Q 1588 -91 1214 -16 
Q 841 59 441 206 
L 441 856 
Q 825 641 1194 531 
Q 1563 422 1919 422 
Q 2459 422 2753 634 
Q 3047 847 3047 1241 
Q 3047 1584 2836 1778 
Q 2625 1972 2144 2069 
L 1759 2144 
Q 1053 2284 737 2584 
Q 422 2884 422 3419 
Q 422 4038 858 4394 
Q 1294 4750 2059 4750 
Q 2388 4750 2728 4690 
Q 3069 4631 3425 4513 
z
" transform="scale(0.015625)"/>
      <path id="DejaVuSans-75" d="M 544 1381 
L 544 3500 
L 1119 3500 
L 1119 1403 
Q 1119 906 1312 657 
Q 1506 409 1894 409 
Q 2359 409 2629 706 
Q 2900 1003 2900 1516 
L 2900 3500 
L 3475 3500 
L 3475 0 
L 2900 0 
L 2900 538 
Q 2691 219 2414 64 
Q 2138 -91 1772 -91 
Q 1169 -91 856 284 
Q 544 659 544 1381 
z
M 1991 3584 
L 1991 3584 
z
" transform="scale(0.015625)"/>
      <path id="DejaVuSans-63" d="M 3122 3366 
L 3122 2828 
Q 2878 2963 2633 3030 
Q 2388 3097 2138 3097 
Q 1578 3097 1268 2742 
Q 959 2388 959 1747 
Q 959 1106 1268 751 
Q 1578 397 2138 397 
Q 2388 397 2633 464 
Q 2878 531 3122 666 
L 3122 134 
Q 2881 22 2623 -34 
Q 2366 -91 2075 -91 
Q 1284 -91 818 406 
Q 353 903 353 1747 
Q 353 2603 823 3093 
Q 1294 3584 2113 3584 
Q 2378 3584 2631 3529 
Q 2884 3475 3122 3366 
z
" transform="scale(0.015625)"/>
     </defs>
     <use xlink:href="#DejaVuSans-42"/>
     <use xlink:href="#DejaVuSans-69" x="68.603516"/>
     <use xlink:href="#DejaVuSans-6f" x="96.386719"/>
     <use xlink:href="#DejaVuSans-6d" x="157.568359"/>
     <use xlink:href="#DejaVuSans-61" x="254.980469"/>
     <use xlink:href="#DejaVuSans-73" x="316.259766"/>
     <use xlink:href="#DejaVuSans-73" x="368.359375"/>
     <use xlink:href="#DejaVuSans-53" x="420.458984"/>
     <use xlink:href="#DejaVuSans-75" x="483.935547"/>
     <use xlink:href="#DejaVuSans-63" x="547.314453"/>
     <use xlink:href="#DejaVuSans-63" x="602.294922"/>
     <use xlink:href="#DejaVuSans-65" x="657.275391"/>
     <use xlink:href="#DejaVuSans-73" x="718.798828"/>
     <use xlink:href="#DejaVuSans-73" x="770.898438"/>
     <use xlink:href="#DejaVuSans-69" x="822.998047"/>
     <use xlink:href="#DejaVuSans-6f" x="850.78125"/>
     <use xlink:href="#DejaVuSans-6e" x="911.962891"/>
    </g>
   </g>
  </g>
 </g>
 <defs>
  <clipPath id="p3b382548f5">
   <rect x="72" y="48.9888" width="380.930233" height="186.8832"/>
  </clipPath>
  <clipPath id="p57e9f3cd6d">
   <rect x="510.069767" y="48.9888" width="380.930233" height="186.8832"/>
  </clipPath>
 </defs>
</svg>
