<?xml version="1.0" encoding="utf-8" standalone="no"?>
<!DOCTYPE svg PUBLIC "-//W3C//DTD SVG 1.1//EN"
  "http://www.w3.org/Graphics/SVG/1.1/DTD/svg11.dtd">
<svg xmlns:xlink="http://www.w3.org/1999/xlink" width="900pt" height="302.4pt" viewBox="0 0 900 302.4" xmlns="http://www.w3.org/2000/svg" version="1.1">
 <metadata>
  <rdf:RDF xmlns:dc="http://purl.org/dc/elements/1.1/" xmlns:cc="http://creativecommons.org/ns#" xmlns:rdf="http://www.w3.org/1999/02/22-rdf-syntax-ns#">
   <cc:Work>
    <dc:type rdf:resource="http://purl.org/dc/dcmitype/StillImage"/>
    <dc:date>2024-02-23T15:27:16.829081</dc:date>
    <dc:format>image/svg+xml</dc:format>
    <dc:creator>
     <cc:Agent>
      <dc:title>Matplotlib v3.7.1, https://matplotlib.org/</dc:title>
     </cc:Agent>
    </dc:creator>
   </cc:Work>
  </rdf:RDF>
 </metadata>
 <defs>
  <style type="text/css">*{stroke-linejoin: round; stroke-linecap: butt}</style>
 </defs>
 <g id="figure_1">
  <g id="patch_1">
   <path d="M 0 302.4 
L 900 302.4 
L 900 0 
L 0 0 
z
" style="fill: #ffffff"/>
  </g>
  <g id="axes_1">
   <g id="patch_2">
    <path d="M 72 235.872 
L 452.930233 235.872 
L 452.930233 48.9888 
L 72 48.9888 
z
" style="fill: #fcfcfc"/>
   </g>
   <g id="matplotlib.axis_1">
    <g id="xtick_1">
     <g id="line2d_1">
      <path d="M 89.315011 235.872 
L 89.315011 48.9888 
" clip-path="url(#pe1545ee246)" style="fill: none; stroke: #dcdcdc; stroke-width: 0.5; stroke-linecap: square"/>
     </g>
     <g id="line2d_2">
      <defs>
       <path id="m41acf960d7" d="M 0 0 
L 0 3.5 
" style="stroke: #000000; stroke-width: 0.8"/>
      </defs>
      <g>
       <use xlink:href="#m41acf960d7" x="89.315011" y="235.872" style="stroke: #000000; stroke-width: 0.8"/>
      </g>
     </g>
     <g id="text_1">
      <!-- 0 -->
      <g transform="translate(85.179386 252.749969) scale(0.13 -0.13)">
       <defs>
        <path id="DejaVuSans-30" d="M 2034 4250 
Q 1547 4250 1301 3770 
Q 1056 3291 1056 2328 
Q 1056 1369 1301 889 
Q 1547 409 2034 409 
Q 2525 409 2770 889 
Q 3016 1369 3016 2328 
Q 3016 3291 2770 3770 
Q 2525 4250 2034 4250 
z
M 2034 4750 
Q 2819 4750 3233 4129 
Q 3647 3509 3647 2328 
Q 3647 1150 3233 529 
Q 2819 -91 2034 -91 
Q 1250 -91 836 529 
Q 422 1150 422 2328 
Q 422 3509 836 4129 
Q 1250 4750 2034 4750 
z
" transform="scale(0.015625)"/>
       </defs>
       <use xlink:href="#DejaVuSans-30"/>
      </g>
     </g>
    </g>
    <g id="xtick_2">
     <g id="line2d_3">
      <path d="M 175.890063 235.872 
L 175.890063 48.9888 
" clip-path="url(#pe1545ee246)" style="fill: none; stroke: #dcdcdc; stroke-width: 0.5; stroke-linecap: square"/>
     </g>
     <g id="line2d_4">
      <g>
       <use xlink:href="#m41acf960d7" x="175.890063" y="235.872" style="stroke: #000000; stroke-width: 0.8"/>
      </g>
     </g>
     <g id="text_2">
      <!-- 25 -->
      <g transform="translate(167.618813 252.749969) scale(0.13 -0.13)">
       <defs>
        <path id="DejaVuSans-32" d="M 1228 531 
L 3431 531 
L 3431 0 
L 469 0 
L 469 531 
Q 828 903 1448 1529 
Q 2069 2156 2228 2338 
Q 2531 2678 2651 2914 
Q 2772 3150 2772 3378 
Q 2772 3750 2511 3984 
Q 2250 4219 1831 4219 
Q 1534 4219 1204 4116 
Q 875 4013 500 3803 
L 500 4441 
Q 881 4594 1212 4672 
Q 1544 4750 1819 4750 
Q 2544 4750 2975 4387 
Q 3406 4025 3406 3419 
Q 3406 3131 3298 2873 
Q 3191 2616 2906 2266 
Q 2828 2175 2409 1742 
Q 1991 1309 1228 531 
z
" transform="scale(0.015625)"/>
        <path id="DejaVuSans-35" d="M 691 4666 
L 3169 4666 
L 3169 4134 
L 1269 4134 
L 1269 2991 
Q 1406 3038 1543 3061 
Q 1681 3084 1819 3084 
Q 2600 3084 3056 2656 
Q 3513 2228 3513 1497 
Q 3513 744 3044 326 
Q 2575 -91 1722 -91 
Q 1428 -91 1123 -41 
Q 819 9 494 109 
L 494 744 
Q 775 591 1075 516 
Q 1375 441 1709 441 
Q 2250 441 2565 725 
Q 2881 1009 2881 1497 
Q 2881 1984 2565 2268 
Q 2250 2553 1709 2553 
Q 1456 2553 1204 2497 
Q 953 2441 691 2322 
L 691 4666 
z
" transform="scale(0.015625)"/>
       </defs>
       <use xlink:href="#DejaVuSans-32"/>
       <use xlink:href="#DejaVuSans-35" x="63.623047"/>
      </g>
     </g>
    </g>
    <g id="xtick_3">
     <g id="line2d_5">
      <path d="M 262.465116 235.872 
L 262.465116 48.9888 
" clip-path="url(#pe1545ee246)" style="fill: none; stroke: #dcdcdc; stroke-width: 0.5; stroke-linecap: square"/>
     </g>
     <g id="line2d_6">
      <g>
       <use xlink:href="#m41acf960d7" x="262.465116" y="235.872" style="stroke: #000000; stroke-width: 0.8"/>
      </g>
     </g>
     <g id="text_3">
      <!-- 50 -->
      <g transform="translate(254.193866 252.749969) scale(0.13 -0.13)">
       <use xlink:href="#DejaVuSans-35"/>
       <use xlink:href="#DejaVuSans-30" x="63.623047"/>
      </g>
     </g>
    </g>
    <g id="xtick_4">
     <g id="line2d_7">
      <path d="M 349.040169 235.872 
L 349.040169 48.9888 
" clip-path="url(#pe1545ee246)" style="fill: none; stroke: #dcdcdc; stroke-width: 0.5; stroke-linecap: square"/>
     </g>
     <g id="line2d_8">
      <g>
       <use xlink:href="#m41acf960d7" x="349.040169" y="235.872" style="stroke: #000000; stroke-width: 0.8"/>
      </g>
     </g>
     <g id="text_4">
      <!-- 75 -->
      <g transform="translate(340.768919 252.749969) scale(0.13 -0.13)">
       <defs>
        <path id="DejaVuSans-37" d="M 525 4666 
L 3525 4666 
L 3525 4397 
L 1831 0 
L 1172 0 
L 2766 4134 
L 525 4134 
L 525 4666 
z
" transform="scale(0.015625)"/>
       </defs>
       <use xlink:href="#DejaVuSans-37"/>
       <use xlink:href="#DejaVuSans-35" x="63.623047"/>
      </g>
     </g>
    </g>
    <g id="xtick_5">
     <g id="line2d_9">
      <path d="M 435.615222 235.872 
L 435.615222 48.9888 
" clip-path="url(#pe1545ee246)" style="fill: none; stroke: #dcdcdc; stroke-width: 0.5; stroke-linecap: square"/>
     </g>
     <g id="line2d_10">
      <g>
       <use xlink:href="#m41acf960d7" x="435.615222" y="235.872" style="stroke: #000000; stroke-width: 0.8"/>
      </g>
     </g>
     <g id="text_5">
      <!-- 100 -->
      <g transform="translate(423.208347 252.749969) scale(0.13 -0.13)">
       <defs>
        <path id="DejaVuSans-31" d="M 794 531 
L 1825 531 
L 1825 4091 
L 703 3866 
L 703 4441 
L 1819 4666 
L 2450 4666 
L 2450 531 
L 3481 531 
L 3481 0 
L 794 0 
L 794 531 
z
" transform="scale(0.015625)"/>
       </defs>
       <use xlink:href="#DejaVuSans-31"/>
       <use xlink:href="#DejaVuSans-30" x="63.623047"/>
       <use xlink:href="#DejaVuSans-30" x="127.246094"/>
      </g>
     </g>
    </g>
    <g id="text_6">
     <!-- Time step -->
     <g transform="translate(225.507694 270.851219) scale(0.15 -0.15)">
      <defs>
       <path id="DejaVuSans-54" d="M -19 4666 
L 3928 4666 
L 3928 4134 
L 2272 4134 
L 2272 0 
L 1638 0 
L 1638 4134 
L -19 4134 
L -19 4666 
z
" transform="scale(0.015625)"/>
       <path id="DejaVuSans-69" d="M 603 3500 
L 1178 3500 
L 1178 0 
L 603 0 
L 603 3500 
z
M 603 4863 
L 1178 4863 
L 1178 4134 
L 603 4134 
L 603 4863 
z
" transform="scale(0.015625)"/>
       <path id="DejaVuSans-6d" d="M 3328 2828 
Q 3544 3216 3844 3400 
Q 4144 3584 4550 3584 
Q 5097 3584 5394 3201 
Q 5691 2819 5691 2113 
L 5691 0 
L 5113 0 
L 5113 2094 
Q 5113 2597 4934 2840 
Q 4756 3084 4391 3084 
Q 3944 3084 3684 2787 
Q 3425 2491 3425 1978 
L 3425 0 
L 2847 0 
L 2847 2094 
Q 2847 2600 2669 2842 
Q 2491 3084 2119 3084 
Q 1678 3084 1418 2786 
Q 1159 2488 1159 1978 
L 1159 0 
L 581 0 
L 581 3500 
L 1159 3500 
L 1159 2956 
Q 1356 3278 1631 3431 
Q 1906 3584 2284 3584 
Q 2666 3584 2933 3390 
Q 3200 3197 3328 2828 
z
" transform="scale(0.015625)"/>
       <path id="DejaVuSans-65" d="M 3597 1894 
L 3597 1613 
L 953 1613 
Q 991 1019 1311 708 
Q 1631 397 2203 397 
Q 2534 397 2845 478 
Q 3156 559 3463 722 
L 3463 178 
Q 3153 47 2828 -22 
Q 2503 -91 2169 -91 
Q 1331 -91 842 396 
Q 353 884 353 1716 
Q 353 2575 817 3079 
Q 1281 3584 2069 3584 
Q 2775 3584 3186 3129 
Q 3597 2675 3597 1894 
z
M 3022 2063 
Q 3016 2534 2758 2815 
Q 2500 3097 2075 3097 
Q 1594 3097 1305 2825 
Q 1016 2553 972 2059 
L 3022 2063 
z
" transform="scale(0.015625)"/>
       <path id="DejaVuSans-20" transform="scale(0.015625)"/>
       <path id="DejaVuSans-73" d="M 2834 3397 
L 2834 2853 
Q 2591 2978 2328 3040 
Q 2066 3103 1784 3103 
Q 1356 3103 1142 2972 
Q 928 2841 928 2578 
Q 928 2378 1081 2264 
Q 1234 2150 1697 2047 
L 1894 2003 
Q 2506 1872 2764 1633 
Q 3022 1394 3022 966 
Q 3022 478 2636 193 
Q 2250 -91 1575 -91 
Q 1294 -91 989 -36 
Q 684 19 347 128 
L 347 722 
Q 666 556 975 473 
Q 1284 391 1588 391 
Q 1994 391 2212 530 
Q 2431 669 2431 922 
Q 2431 1156 2273 1281 
Q 2116 1406 1581 1522 
L 1381 1569 
Q 847 1681 609 1914 
Q 372 2147 372 2553 
Q 372 3047 722 3315 
Q 1072 3584 1716 3584 
Q 2034 3584 2315 3537 
Q 2597 3491 2834 3397 
z
" transform="scale(0.015625)"/>
       <path id="DejaVuSans-74" d="M 1172 4494 
L 1172 3500 
L 2356 3500 
L 2356 3053 
L 1172 3053 
L 1172 1153 
Q 1172 725 1289 603 
Q 1406 481 1766 481 
L 2356 481 
L 2356 0 
L 1766 0 
Q 1100 0 847 248 
Q 594 497 594 1153 
L 594 3053 
L 172 3053 
L 172 3500 
L 594 3500 
L 594 4494 
L 1172 4494 
z
" transform="scale(0.015625)"/>
       <path id="DejaVuSans-70" d="M 1159 525 
L 1159 -1331 
L 581 -1331 
L 581 3500 
L 1159 3500 
L 1159 2969 
Q 1341 3281 1617 3432 
Q 1894 3584 2278 3584 
Q 2916 3584 3314 3078 
Q 3713 2572 3713 1747 
Q 3713 922 3314 415 
Q 2916 -91 2278 -91 
Q 1894 -91 1617 61 
Q 1341 213 1159 525 
z
M 3116 1747 
Q 3116 2381 2855 2742 
Q 2594 3103 2138 3103 
Q 1681 3103 1420 2742 
Q 1159 2381 1159 1747 
Q 1159 1113 1420 752 
Q 1681 391 2138 391 
Q 2594 391 2855 752 
Q 3116 1113 3116 1747 
z
" transform="scale(0.015625)"/>
      </defs>
      <use xlink:href="#DejaVuSans-54"/>
      <use xlink:href="#DejaVuSans-69" x="57.958984"/>
      <use xlink:href="#DejaVuSans-6d" x="85.742188"/>
      <use xlink:href="#DejaVuSans-65" x="183.154297"/>
      <use xlink:href="#DejaVuSans-20" x="244.677734"/>
      <use xlink:href="#DejaVuSans-73" x="276.464844"/>
      <use xlink:href="#DejaVuSans-74" x="328.564453"/>
      <use xlink:href="#DejaVuSans-65" x="367.773438"/>
      <use xlink:href="#DejaVuSans-70" x="429.296875"/>
     </g>
    </g>
   </g>
   <g id="matplotlib.axis_2">
    <g id="ytick_1">
     <g id="line2d_11">
      <path d="M 72 235.872 
L 452.930233 235.872 
" clip-path="url(#pe1545ee246)" style="fill: none; stroke: #dcdcdc; stroke-width: 0.5; stroke-linecap: square"/>
     </g>
     <g id="line2d_12">
      <defs>
       <path id="m576c711939" d="M 0 0 
L -3.5 0 
" style="stroke: #000000; stroke-width: 0.8"/>
      </defs>
      <g>
       <use xlink:href="#m576c711939" x="72" y="235.872" style="stroke: #000000; stroke-width: 0.8"/>
      </g>
     </g>
     <g id="text_7">
      <!-- 0 -->
      <g transform="translate(56.72875 240.810984) scale(0.13 -0.13)">
       <use xlink:href="#DejaVuSans-30"/>
      </g>
     </g>
    </g>
    <g id="ytick_2">
     <g id="line2d_13">
      <path d="M 72 180.925586 
L 452.930233 180.925586 
" clip-path="url(#pe1545ee246)" style="fill: none; stroke: #dcdcdc; stroke-width: 0.5; stroke-linecap: square"/>
     </g>
     <g id="line2d_14">
      <g>
       <use xlink:href="#m576c711939" x="72" y="180.925586" style="stroke: #000000; stroke-width: 0.8"/>
      </g>
     </g>
     <g id="text_8">
      <!-- 3 -->
      <g transform="translate(56.72875 185.864571) scale(0.13 -0.13)">
       <defs>
        <path id="DejaVuSans-33" d="M 2597 2516 
Q 3050 2419 3304 2112 
Q 3559 1806 3559 1356 
Q 3559 666 3084 287 
Q 2609 -91 1734 -91 
Q 1441 -91 1130 -33 
Q 819 25 488 141 
L 488 750 
Q 750 597 1062 519 
Q 1375 441 1716 441 
Q 2309 441 2620 675 
Q 2931 909 2931 1356 
Q 2931 1769 2642 2001 
Q 2353 2234 1838 2234 
L 1294 2234 
L 1294 2753 
L 1863 2753 
Q 2328 2753 2575 2939 
Q 2822 3125 2822 3475 
Q 2822 3834 2567 4026 
Q 2313 4219 1838 4219 
Q 1578 4219 1281 4162 
Q 984 4106 628 3988 
L 628 4550 
Q 988 4650 1302 4700 
Q 1616 4750 1894 4750 
Q 2613 4750 3031 4423 
Q 3450 4097 3450 3541 
Q 3450 3153 3228 2886 
Q 3006 2619 2597 2516 
z
" transform="scale(0.015625)"/>
       </defs>
       <use xlink:href="#DejaVuSans-33"/>
      </g>
     </g>
    </g>
    <g id="ytick_3">
     <g id="line2d_15">
      <path d="M 72 125.979172 
L 452.930233 125.979172 
" clip-path="url(#pe1545ee246)" style="fill: none; stroke: #dcdcdc; stroke-width: 0.5; stroke-linecap: square"/>
     </g>
     <g id="line2d_16">
      <g>
       <use xlink:href="#m576c711939" x="72" y="125.979172" style="stroke: #000000; stroke-width: 0.8"/>
      </g>
     </g>
     <g id="text_9">
      <!-- 6 -->
      <g transform="translate(56.72875 130.918157) scale(0.13 -0.13)">
       <defs>
        <path id="DejaVuSans-36" d="M 2113 2584 
Q 1688 2584 1439 2293 
Q 1191 2003 1191 1497 
Q 1191 994 1439 701 
Q 1688 409 2113 409 
Q 2538 409 2786 701 
Q 3034 994 3034 1497 
Q 3034 2003 2786 2293 
Q 2538 2584 2113 2584 
z
M 3366 4563 
L 3366 3988 
Q 3128 4100 2886 4159 
Q 2644 4219 2406 4219 
Q 1781 4219 1451 3797 
Q 1122 3375 1075 2522 
Q 1259 2794 1537 2939 
Q 1816 3084 2150 3084 
Q 2853 3084 3261 2657 
Q 3669 2231 3669 1497 
Q 3669 778 3244 343 
Q 2819 -91 2113 -91 
Q 1303 -91 875 529 
Q 447 1150 447 2328 
Q 447 3434 972 4092 
Q 1497 4750 2381 4750 
Q 2619 4750 2861 4703 
Q 3103 4656 3366 4563 
z
" transform="scale(0.015625)"/>
       </defs>
       <use xlink:href="#DejaVuSans-36"/>
      </g>
     </g>
    </g>
    <g id="ytick_4">
     <g id="line2d_17">
      <path d="M 72 71.032759 
L 452.930233 71.032759 
" clip-path="url(#pe1545ee246)" style="fill: none; stroke: #dcdcdc; stroke-width: 0.5; stroke-linecap: square"/>
     </g>
     <g id="line2d_18">
      <g>
       <use xlink:href="#m576c711939" x="72" y="71.032759" style="stroke: #000000; stroke-width: 0.8"/>
      </g>
     </g>
     <g id="text_10">
      <!-- 9 -->
      <g transform="translate(56.72875 75.971743) scale(0.13 -0.13)">
       <defs>
        <path id="DejaVuSans-39" d="M 703 97 
L 703 672 
Q 941 559 1184 500 
Q 1428 441 1663 441 
Q 2288 441 2617 861 
Q 2947 1281 2994 2138 
Q 2813 1869 2534 1725 
Q 2256 1581 1919 1581 
Q 1219 1581 811 2004 
Q 403 2428 403 3163 
Q 403 3881 828 4315 
Q 1253 4750 1959 4750 
Q 2769 4750 3195 4129 
Q 3622 3509 3622 2328 
Q 3622 1225 3098 567 
Q 2575 -91 1691 -91 
Q 1453 -91 1209 -44 
Q 966 3 703 97 
z
M 1959 2075 
Q 2384 2075 2632 2365 
Q 2881 2656 2881 3163 
Q 2881 3666 2632 3958 
Q 2384 4250 1959 4250 
Q 1534 4250 1286 3958 
Q 1038 3666 1038 3163 
Q 1038 2656 1286 2365 
Q 1534 2075 1959 2075 
z
" transform="scale(0.015625)"/>
       </defs>
       <use xlink:href="#DejaVuSans-39"/>
      </g>
     </g>
    </g>
    <g id="text_11">
     <!-- Biomass ABIE.BAL -->
     <g transform="translate(49.609219 210.414384) rotate(-90) scale(0.15 -0.15)">
      <defs>
       <path id="DejaVuSans-42" d="M 1259 2228 
L 1259 519 
L 2272 519 
Q 2781 519 3026 730 
Q 3272 941 3272 1375 
Q 3272 1813 3026 2020 
Q 2781 2228 2272 2228 
L 1259 2228 
z
M 1259 4147 
L 1259 2741 
L 2194 2741 
Q 2656 2741 2882 2914 
Q 3109 3088 3109 3444 
Q 3109 3797 2882 3972 
Q 2656 4147 2194 4147 
L 1259 4147 
z
M 628 4666 
L 2241 4666 
Q 2963 4666 3353 4366 
Q 3744 4066 3744 3513 
Q 3744 3084 3544 2831 
Q 3344 2578 2956 2516 
Q 3422 2416 3680 2098 
Q 3938 1781 3938 1306 
Q 3938 681 3513 340 
Q 3088 0 2303 0 
L 628 0 
L 628 4666 
z
" transform="scale(0.015625)"/>
       <path id="DejaVuSans-6f" d="M 1959 3097 
Q 1497 3097 1228 2736 
Q 959 2375 959 1747 
Q 959 1119 1226 758 
Q 1494 397 1959 397 
Q 2419 397 2687 759 
Q 2956 1122 2956 1747 
Q 2956 2369 2687 2733 
Q 2419 3097 1959 3097 
z
M 1959 3584 
Q 2709 3584 3137 3096 
Q 3566 2609 3566 1747 
Q 3566 888 3137 398 
Q 2709 -91 1959 -91 
Q 1206 -91 779 398 
Q 353 888 353 1747 
Q 353 2609 779 3096 
Q 1206 3584 1959 3584 
z
" transform="scale(0.015625)"/>
       <path id="DejaVuSans-61" d="M 2194 1759 
Q 1497 1759 1228 1600 
Q 959 1441 959 1056 
Q 959 750 1161 570 
Q 1363 391 1709 391 
Q 2188 391 2477 730 
Q 2766 1069 2766 1631 
L 2766 1759 
L 2194 1759 
z
M 3341 1997 
L 3341 0 
L 2766 0 
L 2766 531 
Q 2569 213 2275 61 
Q 1981 -91 1556 -91 
Q 1019 -91 701 211 
Q 384 513 384 1019 
Q 384 1609 779 1909 
Q 1175 2209 1959 2209 
L 2766 2209 
L 2766 2266 
Q 2766 2663 2505 2880 
Q 2244 3097 1772 3097 
Q 1472 3097 1187 3025 
Q 903 2953 641 2809 
L 641 3341 
Q 956 3463 1253 3523 
Q 1550 3584 1831 3584 
Q 2591 3584 2966 3190 
Q 3341 2797 3341 1997 
z
" transform="scale(0.015625)"/>
       <path id="DejaVuSans-41" d="M 2188 4044 
L 1331 1722 
L 3047 1722 
L 2188 4044 
z
M 1831 4666 
L 2547 4666 
L 4325 0 
L 3669 0 
L 3244 1197 
L 1141 1197 
L 716 0 
L 50 0 
L 1831 4666 
z
" transform="scale(0.015625)"/>
       <path id="DejaVuSans-49" d="M 628 4666 
L 1259 4666 
L 1259 0 
L 628 0 
L 628 4666 
z
" transform="scale(0.015625)"/>
       <path id="DejaVuSans-45" d="M 628 4666 
L 3578 4666 
L 3578 4134 
L 1259 4134 
L 1259 2753 
L 3481 2753 
L 3481 2222 
L 1259 2222 
L 1259 531 
L 3634 531 
L 3634 0 
L 628 0 
L 628 4666 
z
" transform="scale(0.015625)"/>
       <path id="DejaVuSans-2e" d="M 684 794 
L 1344 794 
L 1344 0 
L 684 0 
L 684 794 
z
" transform="scale(0.015625)"/>
       <path id="DejaVuSans-4c" d="M 628 4666 
L 1259 4666 
L 1259 531 
L 3531 531 
L 3531 0 
L 628 0 
L 628 4666 
z
" transform="scale(0.015625)"/>
      </defs>
      <use xlink:href="#DejaVuSans-42"/>
      <use xlink:href="#DejaVuSans-69" x="68.603516"/>
      <use xlink:href="#DejaVuSans-6f" x="96.386719"/>
      <use xlink:href="#DejaVuSans-6d" x="157.568359"/>
      <use xlink:href="#DejaVuSans-61" x="254.980469"/>
      <use xlink:href="#DejaVuSans-73" x="316.259766"/>
      <use xlink:href="#DejaVuSans-73" x="368.359375"/>
      <use xlink:href="#DejaVuSans-20" x="420.458984"/>
      <use xlink:href="#DejaVuSans-41" x="452.246094"/>
      <use xlink:href="#DejaVuSans-42" x="520.654297"/>
      <use xlink:href="#DejaVuSans-49" x="589.257812"/>
      <use xlink:href="#DejaVuSans-45" x="618.75"/>
      <use xlink:href="#DejaVuSans-2e" x="681.933594"/>
      <use xlink:href="#DejaVuSans-42" x="713.720703"/>
      <use xlink:href="#DejaVuSans-41" x="782.324219"/>
      <use xlink:href="#DejaVuSans-4c" x="850.732422"/>
     </g>
    </g>
    <g id="text_12">
     <!-- 1e3 -->
     <g transform="translate(72 45.9888) scale(0.12 -0.12)">
      <use xlink:href="#DejaVuSans-31"/>
      <use xlink:href="#DejaVuSans-65" x="63.623047"/>
      <use xlink:href="#DejaVuSans-33" x="125.146484"/>
     </g>
    </g>
   </g>
   <g id="PolyCollection_1">
    <defs>
     <path id="m9de658ca80" d="M 89.315011 -64.574528 
L 89.315011 -72.536517 
L 106.630021 -76.146227 
L 123.945032 -82.140946 
L 141.260042 -90.617543 
L 158.575053 -100.42077 
L 175.890063 -117.087209 
L 193.205074 -134.55705 
L 210.520085 -154.032684 
L 227.835095 -172.379163 
L 245.150106 -184.835826 
L 262.465116 -201.790726 
L 279.780127 -208.661998 
L 297.095137 -218.278442 
L 314.410148 -228.50346 
L 331.725159 -235.512019 
L 349.040169 -241.097966 
L 366.35518 -243.608483 
L 383.67019 -244.512 
L 400.985201 -239.1721 
L 418.300211 -236.038998 
L 435.615222 -227.174114 
L 435.615222 -14.305886 
L 435.615222 -14.305886 
L 418.300211 -11.424227 
L 400.985201 -10.405755 
L 383.67019 -8.669388 
L 366.35518 -8.962487 
L 349.040169 -9.778091 
L 331.725159 -11.592736 
L 314.410148 -13.870409 
L 297.095137 -17.193277 
L 279.780127 -20.317107 
L 262.465116 -22.556103 
L 245.150106 -28.066031 
L 227.835095 -32.115746 
L 210.520085 -38.078183 
L 193.205074 -44.408803 
L 175.890063 -50.089342 
L 158.575053 -55.50803 
L 141.260042 -58.695489 
L 123.945032 -61.451578 
L 106.630021 -63.400776 
L 89.315011 -64.574528 
z
"/>
    </defs>
    <g clip-path="url(#pe1545ee246)">
     <use xlink:href="#m9de658ca80" x="0" y="302.4" style="fill: #fcffa4; fill-opacity: 0.3"/>
    </g>
   </g>
   <g id="PolyCollection_2">
    <defs>
     <path id="md9118d658d" d="M 89.315011 -66.160321 
L 89.315011 -75.569666 
L 106.630021 -80.547544 
L 123.945032 -88.246043 
L 141.260042 -98.184365 
L 158.575053 -109.069565 
L 175.890063 -126.341211 
L 193.205074 -141.623722 
L 210.520085 -157.345843 
L 227.835095 -170.823991 
L 245.150106 -176.882167 
L 262.465116 -187.043167 
L 279.780127 -186.581778 
L 297.095137 -194.625635 
L 314.410148 -204.283522 
L 331.725159 -207.855723 
L 349.040169 -213.334873 
L 366.35518 -217.622429 
L 383.67019 -220.344765 
L 400.985201 -213.694489 
L 418.300211 -212.6173 
L 435.615222 -204.345139 
L 435.615222 -25.339038 
L 435.615222 -25.339038 
L 418.300211 -25.360708 
L 400.985201 -26.900434 
L 383.67019 -30.531877 
L 366.35518 -32.496099 
L 349.040169 -34.409751 
L 331.725159 -38.520588 
L 314.410148 -45.250524 
L 297.095137 -47.910875 
L 279.780127 -50.174808 
L 262.465116 -55.288796 
L 245.150106 -58.887949 
L 227.835095 -61.028738 
L 210.520085 -62.221527 
L 193.205074 -63.138447 
L 175.890063 -63.942431 
L 158.575053 -64.756747 
L 141.260042 -65.224254 
L 123.945032 -65.638311 
L 106.630021 -65.956627 
L 89.315011 -66.160321 
z
"/>
    </defs>
    <g clip-path="url(#pe1545ee246)">
     <use xlink:href="#md9118d658d" x="0" y="302.4" style="fill: #f98e09; fill-opacity: 0.3"/>
    </g>
   </g>
   <g id="PolyCollection_3">
    <defs>
     <path id="m457c4d851c" d="M 89.315011 -67.240036 
L 89.315011 -76.303769 
L 106.630021 -81.28659 
L 123.945032 -88.535508 
L 141.260042 -97.575252 
L 158.575053 -106.933471 
L 175.890063 -120.722122 
L 193.205074 -130.732968 
L 210.520085 -140.868811 
L 227.835095 -149.935215 
L 245.150106 -153.811871 
L 262.465116 -163.494569 
L 279.780127 -166.622163 
L 297.095137 -173.113929 
L 314.410148 -180.517726 
L 331.725159 -184.450426 
L 349.040169 -188.12141 
L 366.35518 -187.108489 
L 383.67019 -186.492794 
L 400.985201 -176.838121 
L 418.300211 -173.806546 
L 435.615222 -162.205145 
L 435.615222 -30.805671 
L 435.615222 -30.805671 
L 418.300211 -33.08432 
L 400.985201 -35.512367 
L 383.67019 -41.47178 
L 366.35518 -45.990571 
L 349.040169 -51.37356 
L 331.725159 -55.041027 
L 314.410148 -58.554595 
L 297.095137 -61.31923 
L 279.780127 -64.355745 
L 262.465116 -66.543024 
L 245.150106 -68.319079 
L 227.835095 -70.91563 
L 210.520085 -70.929063 
L 193.205074 -70.64267 
L 175.890063 -70.185052 
L 158.575053 -69.380669 
L 141.260042 -68.756809 
L 123.945032 -68.114336 
L 106.630021 -67.59808 
L 89.315011 -67.240036 
z
"/>
    </defs>
    <g clip-path="url(#pe1545ee246)">
     <use xlink:href="#m457c4d851c" x="0" y="302.4" style="fill: #bc3754; fill-opacity: 0.3"/>
    </g>
   </g>
   <g id="PolyCollection_4">
    <defs>
     <path id="m878a97caf8" d="M 89.315011 -69.838615 
L 89.315011 -77.283594 
L 106.630021 -82.421757 
L 123.945032 -89.46367 
L 141.260042 -98.351703 
L 158.575053 -106.61027 
L 175.890063 -117.877307 
L 193.205074 -125.528068 
L 210.520085 -133.747239 
L 227.835095 -142.235516 
L 245.150106 -147.199378 
L 262.465116 -157.821068 
L 279.780127 -161.63434 
L 297.095137 -170.699753 
L 314.410148 -180.71873 
L 331.725159 -186.105366 
L 349.040169 -190.640722 
L 366.35518 -192.321953 
L 383.67019 -189.452628 
L 400.985201 -177.78124 
L 418.300211 -173.307507 
L 435.615222 -160.893832 
L 435.615222 -37.363194 
L 435.615222 -37.363194 
L 418.300211 -42.916997 
L 400.985201 -47.549716 
L 383.67019 -58.584677 
L 366.35518 -68.218884 
L 349.040169 -72.74297 
L 331.725159 -76.663658 
L 314.410148 -80.961989 
L 297.095137 -81.664618 
L 279.780127 -81.619184 
L 262.465116 -83.116208 
L 245.150106 -82.532126 
L 227.835095 -85.124062 
L 210.520085 -84.468669 
L 193.205074 -83.412886 
L 175.890063 -81.760193 
L 158.575053 -78.668413 
L 141.260042 -76.240562 
L 123.945032 -73.547943 
L 106.630021 -71.406112 
L 89.315011 -69.838615 
z
"/>
    </defs>
    <g clip-path="url(#pe1545ee246)">
     <use xlink:href="#m878a97caf8" x="0" y="302.4" style="fill: #57106e; fill-opacity: 0.3"/>
    </g>
   </g>
   <g id="PolyCollection_5">
    <defs>
     <path id="mca1f8551fb" d="M 89.315011 -74.422859 
L 89.315011 -76.002288 
L 106.630021 -80.370573 
L 123.945032 -86.208032 
L 141.260042 -93.41162 
L 158.575053 -99.570781 
L 175.890063 -108.369822 
L 193.205074 -114.28548 
L 210.520085 -121.61352 
L 227.835095 -130.342504 
L 245.150106 -137.111969 
L 262.465116 -147.492919 
L 279.780127 -152.749573 
L 297.095137 -161.082051 
L 314.410148 -170.073691 
L 331.725159 -176.424589 
L 349.040169 -183.059102 
L 366.35518 -184.199277 
L 383.67019 -182.907098 
L 400.985201 -169.491319 
L 418.300211 -164.913532 
L 435.615222 -147.800553 
L 435.615222 -43.861219 
L 435.615222 -43.861219 
L 418.300211 -53.016948 
L 400.985201 -58.53267 
L 383.67019 -73.385503 
L 366.35518 -83.204588 
L 349.040169 -93.243225 
L 331.725159 -97.225437 
L 314.410148 -100.222846 
L 297.095137 -101.693934 
L 279.780127 -100.157376 
L 262.465116 -102.337617 
L 245.150106 -100.50039 
L 227.835095 -100.888964 
L 210.520085 -99.439161 
L 193.205074 -98.718725 
L 175.890063 -97.717874 
L 158.575053 -92.334294 
L 141.260042 -88.179426 
L 123.945032 -82.701236 
L 106.630021 -77.970887 
L 89.315011 -74.422859 
z
"/>
    </defs>
    <g clip-path="url(#pe1545ee246)">
     <use xlink:href="#mca1f8551fb" x="0" y="302.4" style="fill: #000004; fill-opacity: 0.3"/>
    </g>
   </g>
   <g id="line2d_19">
    <path d="M 89.315011 233.844477 
L 106.630021 232.626498 
L 123.945032 230.603738 
L 141.260042 227.743484 
L 158.575053 224.4356 
L 175.890063 218.811725 
L 193.205074 212.917073 
L 210.520085 206.344566 
L 227.835095 200.152545 
L 245.150106 195.949071 
L 262.465116 190.226585 
L 279.780127 187.910448 
L 297.095137 184.66414 
L 314.410148 181.213066 
L 331.725159 178.847623 
L 349.040169 176.961972 
L 366.35518 176.114515 
L 383.67019 175.809306 
L 400.985201 177.611072 
L 418.300211 178.668388 
L 435.615222 181.66 
" clip-path="url(#pe1545ee246)" style="fill: none; stroke: #fcffa4; stroke-linecap: square"/>
   </g>
   <g id="line2d_20">
    <path d="M 89.315011 231.535006 
L 106.630021 229.147914 
L 123.945032 225.457823 
L 141.260042 220.695691 
L 158.575053 215.486844 
L 175.890063 207.258179 
L 193.205074 200.018916 
L 210.520085 192.616315 
L 227.835095 186.473636 
L 245.150106 184.514942 
L 262.465116 181.234019 
L 279.780127 184.021707 
L 297.095137 181.131745 
L 314.410148 177.632977 
L 331.725159 179.211844 
L 349.040169 178.527688 
L 366.35518 177.340736 
L 383.67019 176.961679 
L 400.985201 182.102538 
L 418.300211 183.410996 
L 435.615222 187.557911 
" clip-path="url(#pe1545ee246)" style="fill: none; stroke: #f98e09; stroke-linecap: square"/>
   </g>
   <g id="line2d_21">
    <path d="M 89.315011 230.628097 
L 106.630021 227.957665 
L 123.945032 224.075078 
L 141.260042 219.233969 
L 158.575053 214.24293 
L 175.890063 206.946413 
L 193.205074 201.712181 
L 210.520085 196.501063 
L 227.835095 191.974577 
L 245.150106 191.334525 
L 262.465116 187.381204 
L 279.780127 186.911046 
L 297.095137 185.18342 
L 314.410148 182.863839 
L 331.725159 182.654274 
L 349.040169 182.652515 
L 366.35518 185.85047 
L 383.67019 188.417713 
L 400.985201 196.224756 
L 418.300211 198.954567 
L 435.615222 205.894592 
" clip-path="url(#pe1545ee246)" style="fill: none; stroke: #bc3754; stroke-linecap: square"/>
   </g>
   <g id="line2d_22">
    <path d="M 89.315011 228.838896 
L 106.630021 225.486066 
L 123.945032 220.894194 
L 141.260042 215.103867 
L 158.575053 209.760658 
L 175.890063 202.58125 
L 193.205074 197.929523 
L 210.520085 193.292046 
L 227.835095 188.720211 
L 245.150106 187.534248 
L 262.465116 181.931362 
L 279.780127 180.773238 
L 297.095137 176.217814 
L 314.410148 171.55964 
L 331.725159 171.015488 
L 349.040169 170.708154 
L 366.35518 172.129581 
L 383.67019 178.381347 
L 400.985201 189.734522 
L 418.300211 194.287748 
L 435.615222 203.271487 
" clip-path="url(#pe1545ee246)" style="fill: none; stroke: #57106e; stroke-linecap: square"/>
   </g>
   <g id="line2d_23">
    <path d="M 89.315011 227.187426 
L 106.630021 223.22927 
L 123.945032 217.945366 
L 141.260042 211.604477 
L 158.575053 206.447463 
L 175.890063 199.356152 
L 193.205074 195.897898 
L 210.520085 191.873659 
L 227.835095 186.784266 
L 245.150106 183.593821 
L 262.465116 177.484732 
L 279.780127 175.946525 
L 297.095137 171.012008 
L 314.410148 167.251732 
L 331.725159 165.574987 
L 349.040169 164.248837 
L 366.35518 168.698068 
L 383.67019 174.2537 
L 400.985201 188.388005 
L 418.300211 193.43476 
L 435.615222 206.569114 
" clip-path="url(#pe1545ee246)" style="fill: none; stroke: #000004; stroke-linecap: square"/>
   </g>
   <g id="patch_3">
    <path d="M 72 235.872 
L 72 48.9888 
" style="fill: none; stroke: #000000; stroke-width: 0.8; stroke-linejoin: miter; stroke-linecap: square"/>
   </g>
   <g id="patch_4">
    <path d="M 72 235.872 
L 452.930233 235.872 
" style="fill: none; stroke: #000000; stroke-width: 0.8; stroke-linejoin: miter; stroke-linecap: square"/>
   </g>
   <g id="text_13">
    <!-- PnET -->
    <g transform="translate(242.770116 289.674624) scale(0.16 -0.16)">
     <defs>
      <path id="DejaVuSans-50" d="M 1259 4147 
L 1259 2394 
L 2053 2394 
Q 2494 2394 2734 2622 
Q 2975 2850 2975 3272 
Q 2975 3691 2734 3919 
Q 2494 4147 2053 4147 
L 1259 4147 
z
M 628 4666 
L 2053 4666 
Q 2838 4666 3239 4311 
Q 3641 3956 3641 3272 
Q 3641 2581 3239 2228 
Q 2838 1875 2053 1875 
L 1259 1875 
L 1259 0 
L 628 0 
L 628 4666 
z
" transform="scale(0.015625)"/>
      <path id="DejaVuSans-6e" d="M 3513 2113 
L 3513 0 
L 2938 0 
L 2938 2094 
Q 2938 2591 2744 2837 
Q 2550 3084 2163 3084 
Q 1697 3084 1428 2787 
Q 1159 2491 1159 1978 
L 1159 0 
L 581 0 
L 581 3500 
L 1159 3500 
L 1159 2956 
Q 1366 3272 1645 3428 
Q 1925 3584 2291 3584 
Q 2894 3584 3203 3211 
Q 3513 2838 3513 2113 
z
" transform="scale(0.015625)"/>
     </defs>
     <use xlink:href="#DejaVuSans-50"/>
     <use xlink:href="#DejaVuSans-6e" x="58.552734"/>
     <use xlink:href="#DejaVuSans-45" x="121.931641"/>
     <use xlink:href="#DejaVuSans-54" x="185.115234"/>
    </g>
   </g>
   <g id="legend_1">
    <g id="patch_5">
     <path d="M 266.5125 37.164 
L 633.4875 37.164 
Q 635.8875 37.164 635.8875 34.764 
L 635.8875 11.424 
Q 635.8875 9.024 633.4875 9.024 
L 266.5125 9.024 
Q 264.1125 9.024 264.1125 11.424 
L 264.1125 34.764 
Q 264.1125 37.164 266.5125 37.164 
z
" style="fill: #ffffff; opacity: 0.8; stroke: #cccccc; stroke-linejoin: miter"/>
    </g>
    <g id="patch_6">
     <path d="M 268.9125 32.364 
L 304.9125 32.364 
L 304.9125 13.824 
L 268.9125 13.824 
z
" style="fill: #fcffa4; fill-opacity: 0.3"/>
    </g>
    <g id="line2d_24">
     <path d="M 268.9125 20.364 
L 286.9125 20.364 
L 304.9125 20.364 
" style="fill: none; stroke: #fcffa4; stroke-linecap: square"/>
    </g>
    <g id="text_14">
     <!-- 1 -->
     <g transform="translate(314.5125 26.904) scale(0.12 -0.12)">
      <use xlink:href="#DejaVuSans-31"/>
     </g>
    </g>
    <g id="patch_7">
     <path d="M 346.1475 32.364 
L 382.1475 32.364 
L 382.1475 13.824 
L 346.1475 13.824 
z
" style="fill: #f98e09; fill-opacity: 0.3"/>
    </g>
    <g id="line2d_25">
     <path d="M 346.1475 20.364 
L 364.1475 20.364 
L 382.1475 20.364 
" style="fill: none; stroke: #f98e09; stroke-linecap: square"/>
    </g>
    <g id="text_15">
     <!-- 2 -->
     <g transform="translate(391.7475 26.904) scale(0.12 -0.12)">
      <use xlink:href="#DejaVuSans-32"/>
     </g>
    </g>
    <g id="patch_8">
     <path d="M 423.3825 32.364 
L 459.3825 32.364 
L 459.3825 13.824 
L 423.3825 13.824 
z
" style="fill: #bc3754; fill-opacity: 0.3"/>
    </g>
    <g id="line2d_26">
     <path d="M 423.3825 20.364 
L 441.3825 20.364 
L 459.3825 20.364 
" style="fill: none; stroke: #bc3754; stroke-linecap: square"/>
    </g>
    <g id="text_16">
     <!-- 3 -->
     <g transform="translate(468.9825 26.904) scale(0.12 -0.12)">
      <use xlink:href="#DejaVuSans-33"/>
     </g>
    </g>
    <g id="patch_9">
     <path d="M 500.6175 32.364 
L 536.6175 32.364 
L 536.6175 13.824 
L 500.6175 13.824 
z
" style="fill: #57106e; fill-opacity: 0.3"/>
    </g>
    <g id="line2d_27">
     <path d="M 500.6175 20.364 
L 518.6175 20.364 
L 536.6175 20.364 
" style="fill: none; stroke: #57106e; stroke-linecap: square"/>
    </g>
    <g id="text_17">
     <!-- 4 -->
     <g transform="translate(546.2175 26.904) scale(0.12 -0.12)">
      <defs>
       <path id="DejaVuSans-34" d="M 2419 4116 
L 825 1625 
L 2419 1625 
L 2419 4116 
z
M 2253 4666 
L 3047 4666 
L 3047 1625 
L 3713 1625 
L 3713 1100 
L 3047 1100 
L 3047 0 
L 2419 0 
L 2419 1100 
L 313 1100 
L 313 1709 
L 2253 4666 
z
" transform="scale(0.015625)"/>
      </defs>
      <use xlink:href="#DejaVuSans-34"/>
     </g>
    </g>
    <g id="patch_10">
     <path d="M 577.8525 32.364 
L 613.8525 32.364 
L 613.8525 13.824 
L 577.8525 13.824 
z
" style="fill: #000004; fill-opacity: 0.3"/>
    </g>
    <g id="line2d_28">
     <path d="M 577.8525 20.364 
L 595.8525 20.364 
L 613.8525 20.364 
" style="fill: none; stroke: #000004; stroke-linecap: square"/>
    </g>
    <g id="text_18">
     <!-- 5 -->
     <g transform="translate(623.4525 26.904) scale(0.12 -0.12)">
      <use xlink:href="#DejaVuSans-35"/>
     </g>
    </g>
   </g>
  </g>
  <g id="axes_2">
   <g id="patch_11">
    <path d="M 510.069767 235.872 
L 891 235.872 
L 891 48.9888 
L 510.069767 48.9888 
z
" style="fill: #fcfcfc"/>
   </g>
   <g id="matplotlib.axis_3">
    <g id="xtick_6">
     <g id="line2d_29">
      <path d="M 527.384778 235.872 
L 527.384778 48.9888 
" clip-path="url(#pcc1854c31c)" style="fill: none; stroke: #dcdcdc; stroke-width: 0.5; stroke-linecap: square"/>
     </g>
     <g id="line2d_30">
      <g>
       <use xlink:href="#m41acf960d7" x="527.384778" y="235.872" style="stroke: #000000; stroke-width: 0.8"/>
      </g>
     </g>
     <g id="text_19">
      <!-- 0 -->
      <g transform="translate(523.249153 252.749969) scale(0.13 -0.13)">
       <use xlink:href="#DejaVuSans-30"/>
      </g>
     </g>
    </g>
    <g id="xtick_7">
     <g id="line2d_31">
      <path d="M 613.959831 235.872 
L 613.959831 48.9888 
" clip-path="url(#pcc1854c31c)" style="fill: none; stroke: #dcdcdc; stroke-width: 0.5; stroke-linecap: square"/>
     </g>
     <g id="line2d_32">
      <g>
       <use xlink:href="#m41acf960d7" x="613.959831" y="235.872" style="stroke: #000000; stroke-width: 0.8"/>
      </g>
     </g>
     <g id="text_20">
      <!-- 25 -->
      <g transform="translate(605.688581 252.749969) scale(0.13 -0.13)">
       <use xlink:href="#DejaVuSans-32"/>
       <use xlink:href="#DejaVuSans-35" x="63.623047"/>
      </g>
     </g>
    </g>
    <g id="xtick_8">
     <g id="line2d_33">
      <path d="M 700.534884 235.872 
L 700.534884 48.9888 
" clip-path="url(#pcc1854c31c)" style="fill: none; stroke: #dcdcdc; stroke-width: 0.5; stroke-linecap: square"/>
     </g>
     <g id="line2d_34">
      <g>
       <use xlink:href="#m41acf960d7" x="700.534884" y="235.872" style="stroke: #000000; stroke-width: 0.8"/>
      </g>
     </g>
     <g id="text_21">
      <!-- 50 -->
      <g transform="translate(692.263634 252.749969) scale(0.13 -0.13)">
       <use xlink:href="#DejaVuSans-35"/>
       <use xlink:href="#DejaVuSans-30" x="63.623047"/>
      </g>
     </g>
    </g>
    <g id="xtick_9">
     <g id="line2d_35">
      <path d="M 787.109937 235.872 
L 787.109937 48.9888 
" clip-path="url(#pcc1854c31c)" style="fill: none; stroke: #dcdcdc; stroke-width: 0.5; stroke-linecap: square"/>
     </g>
     <g id="line2d_36">
      <g>
       <use xlink:href="#m41acf960d7" x="787.109937" y="235.872" style="stroke: #000000; stroke-width: 0.8"/>
      </g>
     </g>
     <g id="text_22">
      <!-- 75 -->
      <g transform="translate(778.838687 252.749969) scale(0.13 -0.13)">
       <use xlink:href="#DejaVuSans-37"/>
       <use xlink:href="#DejaVuSans-35" x="63.623047"/>
      </g>
     </g>
    </g>
    <g id="xtick_10">
     <g id="line2d_37">
      <path d="M 873.684989 235.872 
L 873.684989 48.9888 
" clip-path="url(#pcc1854c31c)" style="fill: none; stroke: #dcdcdc; stroke-width: 0.5; stroke-linecap: square"/>
     </g>
     <g id="line2d_38">
      <g>
       <use xlink:href="#m41acf960d7" x="873.684989" y="235.872" style="stroke: #000000; stroke-width: 0.8"/>
      </g>
     </g>
     <g id="text_23">
      <!-- 100 -->
      <g transform="translate(861.278114 252.749969) scale(0.13 -0.13)">
       <use xlink:href="#DejaVuSans-31"/>
       <use xlink:href="#DejaVuSans-30" x="63.623047"/>
       <use xlink:href="#DejaVuSans-30" x="127.246094"/>
      </g>
     </g>
    </g>
    <g id="text_24">
     <!-- Time step -->
     <g transform="translate(663.577462 270.851219) scale(0.15 -0.15)">
      <use xlink:href="#DejaVuSans-54"/>
      <use xlink:href="#DejaVuSans-69" x="57.958984"/>
      <use xlink:href="#DejaVuSans-6d" x="85.742188"/>
      <use xlink:href="#DejaVuSans-65" x="183.154297"/>
      <use xlink:href="#DejaVuSans-20" x="244.677734"/>
      <use xlink:href="#DejaVuSans-73" x="276.464844"/>
      <use xlink:href="#DejaVuSans-74" x="328.564453"/>
      <use xlink:href="#DejaVuSans-65" x="367.773438"/>
      <use xlink:href="#DejaVuSans-70" x="429.296875"/>
     </g>
    </g>
   </g>
   <g id="matplotlib.axis_4">
    <g id="ytick_5">
     <g id="line2d_39">
      <path d="M 510.069767 235.872 
L 891 235.872 
" clip-path="url(#pcc1854c31c)" style="fill: none; stroke: #dcdcdc; stroke-width: 0.5; stroke-linecap: square"/>
     </g>
    </g>
    <g id="ytick_6">
     <g id="line2d_40">
      <path d="M 510.069767 180.925586 
L 891 180.925586 
" clip-path="url(#pcc1854c31c)" style="fill: none; stroke: #dcdcdc; stroke-width: 0.5; stroke-linecap: square"/>
     </g>
    </g>
    <g id="ytick_7">
     <g id="line2d_41">
      <path d="M 510.069767 125.979172 
L 891 125.979172 
" clip-path="url(#pcc1854c31c)" style="fill: none; stroke: #dcdcdc; stroke-width: 0.5; stroke-linecap: square"/>
     </g>
    </g>
    <g id="ytick_8">
     <g id="line2d_42">
      <path d="M 510.069767 71.032759 
L 891 71.032759 
" clip-path="url(#pcc1854c31c)" style="fill: none; stroke: #dcdcdc; stroke-width: 0.5; stroke-linecap: square"/>
     </g>
    </g>
   </g>
   <g id="PolyCollection_6">
    <defs>
     <path id="ma516f1dd7b" d="M 527.384778 -57.50755 
L 527.384778 -94.277558 
L 544.699789 -99.20808 
L 562.014799 -102.394472 
L 579.32981 -104.541093 
L 596.64482 -107.315706 
L 613.959831 -110.214458 
L 631.274841 -111.838702 
L 648.589852 -113.03191 
L 665.904863 -114.340488 
L 683.219873 -115.779522 
L 700.534884 -117.163906 
L 717.849894 -118.296404 
L 735.164905 -119.621263 
L 752.479915 -120.867238 
L 769.794926 -121.997042 
L 787.109937 -123.398903 
L 804.424947 -124.551329 
L 821.739958 -125.704935 
L 839.054968 -126.817923 
L 856.369979 -127.870685 
L 873.684989 -128.811034 
L 873.684989 -46.207616 
L 873.684989 -46.207616 
L 856.369979 -46.514909 
L 839.054968 -46.853513 
L 821.739958 -47.212563 
L 804.424947 -47.589814 
L 787.109937 -47.961707 
L 769.794926 -48.417464 
L 752.479915 -48.797579 
L 735.164905 -49.20412 
L 717.849894 -49.640971 
L 700.534884 -50.004439 
L 683.219873 -50.461914 
L 665.904863 -50.940704 
L 648.589852 -51.375708 
L 631.274841 -51.767577 
L 613.959831 -52.298901 
L 596.64482 -53.254454 
L 579.32981 -54.171219 
L 562.014799 -54.869013 
L 544.699789 -55.904802 
L 527.384778 -57.50755 
z
"/>
    </defs>
    <g clip-path="url(#pcc1854c31c)">
     <use xlink:href="#ma516f1dd7b" x="0" y="302.4" style="fill: #fcffa4; fill-opacity: 0.3"/>
    </g>
   </g>
   <g id="PolyCollection_7">
    <defs>
     <path id="m25731499f6" d="M 527.384778 -64.167427 
L 527.384778 -91.473893 
L 544.699789 -95.865029 
L 562.014799 -98.656575 
L 579.32981 -100.348977 
L 596.64482 -102.976185 
L 613.959831 -105.310965 
L 631.274841 -107.084251 
L 648.589852 -108.61055 
L 665.904863 -110.170399 
L 683.219873 -111.66604 
L 700.534884 -113.064388 
L 717.849894 -114.514826 
L 735.164905 -116.025426 
L 752.479915 -117.297449 
L 769.794926 -118.431491 
L 787.109937 -119.485402 
L 804.424947 -120.651695 
L 821.739958 -121.71639 
L 839.054968 -122.841693 
L 856.369979 -123.76263 
L 873.684989 -124.679401 
L 873.684989 -60.640456 
L 873.684989 -60.640456 
L 856.369979 -60.643505 
L 839.054968 -60.635481 
L 821.739958 -60.64669 
L 804.424947 -60.622201 
L 787.109937 -60.638429 
L 769.794926 -60.628577 
L 752.479915 -60.693802 
L 735.164905 -60.735244 
L 717.849894 -60.794673 
L 700.534884 -60.812915 
L 683.219873 -60.881705 
L 665.904863 -60.962953 
L 648.589852 -61.0276 
L 631.274841 -61.111446 
L 613.959831 -61.221174 
L 596.64482 -61.487917 
L 579.32981 -61.89932 
L 562.014799 -62.348321 
L 544.699789 -63.075494 
L 527.384778 -64.167427 
z
"/>
    </defs>
    <g clip-path="url(#pcc1854c31c)">
     <use xlink:href="#m25731499f6" x="0" y="302.4" style="fill: #f98e09; fill-opacity: 0.3"/>
    </g>
   </g>
   <g id="PolyCollection_8">
    <defs>
     <path id="ma22ef707f6" d="M 527.384778 -67.167712 
L 527.384778 -84.315997 
L 544.699789 -86.053127 
L 562.014799 -87.174033 
L 579.32981 -87.757759 
L 596.64482 -89.669168 
L 613.959831 -91.387081 
L 631.274841 -92.84088 
L 648.589852 -94.008929 
L 665.904863 -95.414198 
L 683.219873 -96.789779 
L 700.534884 -98.218283 
L 717.849894 -99.4333 
L 735.164905 -100.62304 
L 752.479915 -101.785532 
L 769.794926 -102.734282 
L 787.109937 -103.930948 
L 804.424947 -105.011886 
L 821.739958 -106.211272 
L 839.054968 -107.253802 
L 856.369979 -108.138645 
L 873.684989 -109.138981 
L 873.684989 -67.617807 
L 873.684989 -67.617807 
L 856.369979 -67.509691 
L 839.054968 -67.371212 
L 821.739958 -67.226826 
L 804.424947 -67.105812 
L 787.109937 -66.979834 
L 769.794926 -66.84797 
L 752.479915 -66.732297 
L 735.164905 -66.62267 
L 717.849894 -66.501022 
L 700.534884 -66.380694 
L 683.219873 -66.311359 
L 665.904863 -66.236063 
L 648.589852 -66.160929 
L 631.274841 -66.021033 
L 613.959831 -65.949739 
L 596.64482 -65.864091 
L 579.32981 -65.907249 
L 562.014799 -66.140197 
L 544.699789 -66.569731 
L 527.384778 -67.167712 
z
"/>
    </defs>
    <g clip-path="url(#pcc1854c31c)">
     <use xlink:href="#ma22ef707f6" x="0" y="302.4" style="fill: #bc3754; fill-opacity: 0.3"/>
    </g>
   </g>
   <g id="PolyCollection_9">
    <defs>
     <path id="mb028429cb2" d="M 527.384778 -71.232072 
L 527.384778 -81.30375 
L 544.699789 -81.30375 
L 562.014799 -81.30375 
L 579.32981 -81.30375 
L 596.64482 -82.926163 
L 613.959831 -84.372791 
L 631.274841 -85.763127 
L 648.589852 -87.086395 
L 665.904863 -88.394047 
L 683.219873 -89.63124 
L 700.534884 -91.004066 
L 717.849894 -92.293321 
L 735.164905 -93.622535 
L 752.479915 -94.748303 
L 769.794926 -95.882791 
L 787.109937 -97.009962 
L 804.424947 -98.091413 
L 821.739958 -99.251889 
L 839.054968 -100.370764 
L 856.369979 -101.390453 
L 873.684989 -102.45763 
L 873.684989 -77.220109 
L 873.684989 -77.220109 
L 856.369979 -76.891135 
L 839.054968 -76.561925 
L 821.739958 -76.234611 
L 804.424947 -75.867211 
L 787.109937 -75.512582 
L 769.794926 -75.192611 
L 752.479915 -74.889114 
L 735.164905 -74.510743 
L 717.849894 -74.133029 
L 700.534884 -73.756235 
L 683.219873 -73.357295 
L 665.904863 -73.040091 
L 648.589852 -72.659789 
L 631.274841 -72.311074 
L 613.959831 -71.967375 
L 596.64482 -71.603408 
L 579.32981 -71.232072 
L 562.014799 -71.232072 
L 544.699789 -71.232072 
L 527.384778 -71.232072 
z
"/>
    </defs>
    <g clip-path="url(#pcc1854c31c)">
     <use xlink:href="#mb028429cb2" x="0" y="302.4" style="fill: #57106e; fill-opacity: 0.3"/>
    </g>
   </g>
   <g id="PolyCollection_10">
    <defs>
     <path id="m239fbd4db6" d="M 527.384778 -77.817165 
L 527.384778 -78.08907 
L 544.699789 -78.08907 
L 562.014799 -78.08907 
L 579.32981 -78.08907 
L 596.64482 -80.247777 
L 613.959831 -81.740231 
L 631.274841 -82.971855 
L 648.589852 -84.347257 
L 665.904863 -85.501336 
L 683.219873 -86.732927 
L 700.534884 -87.847191 
L 717.849894 -88.988375 
L 735.164905 -90.013676 
L 752.479915 -90.943743 
L 769.794926 -92.025524 
L 787.109937 -93.009858 
L 804.424947 -93.999593 
L 821.739958 -94.970699 
L 839.054968 -95.945613 
L 856.369979 -96.930843 
L 873.684989 -97.892128 
L 873.684989 -90.187944 
L 873.684989 -90.187944 
L 856.369979 -89.369038 
L 839.054968 -88.606239 
L 821.739958 -87.86265 
L 804.424947 -87.237159 
L 787.109937 -86.427289 
L 769.794926 -85.591285 
L 752.479915 -84.856684 
L 735.164905 -84.001505 
L 717.849894 -83.347863 
L 700.534884 -82.47376 
L 683.219873 -81.629807 
L 665.904863 -80.860323 
L 648.589852 -80.14278 
L 631.274841 -79.396812 
L 613.959831 -78.645822 
L 596.64482 -77.929284 
L 579.32981 -77.817165 
L 562.014799 -77.817165 
L 544.699789 -77.817165 
L 527.384778 -77.817165 
z
"/>
    </defs>
    <g clip-path="url(#pcc1854c31c)">
     <use xlink:href="#m239fbd4db6" x="0" y="302.4" style="fill: #000004; fill-opacity: 0.3"/>
    </g>
   </g>
   <g id="line2d_43">
    <path d="M 527.384778 226.507446 
L 544.699789 224.843559 
L 562.014799 223.768257 
L 579.32981 223.043844 
L 596.64482 222.11492 
L 613.959831 221.143321 
L 631.274841 220.59686 
L 648.589852 220.196191 
L 665.904863 219.759404 
L 683.219873 219.279282 
L 700.534884 218.815827 
L 717.849894 218.431312 
L 735.164905 217.987309 
L 752.479915 217.567591 
L 769.794926 217.192747 
L 787.109937 216.719695 
L 804.424947 216.329429 
L 821.739958 215.941251 
L 839.054968 215.564282 
L 856.369979 215.207203 
L 873.684989 214.890675 
" clip-path="url(#pcc1854c31c)" style="fill: none; stroke: #fcffa4; stroke-linecap: square"/>
   </g>
   <g id="line2d_44">
    <path d="M 527.384778 224.57934 
L 544.699789 222.929739 
L 562.014799 221.897552 
L 579.32981 221.275851 
L 596.64482 220.167949 
L 613.959831 219.13393 
L 631.274841 218.302152 
L 648.589852 217.580925 
L 665.904863 216.833324 
L 683.219873 216.126127 
L 700.534884 215.461349 
L 717.849894 214.74525 
L 735.164905 214.019665 
L 752.479915 213.404375 
L 769.794926 212.869966 
L 787.109937 212.338085 
L 804.424947 211.763052 
L 821.739958 211.21846 
L 839.054968 210.661413 
L 856.369979 210.196933 
L 873.684989 209.740072 
" clip-path="url(#pcc1854c31c)" style="fill: none; stroke: #f98e09; stroke-linecap: square"/>
   </g>
   <g id="line2d_45">
    <path d="M 527.384778 226.658146 
L 544.699789 226.088571 
L 562.014799 225.742885 
L 579.32981 225.567496 
L 596.64482 224.63337 
L 613.959831 223.73159 
L 631.274841 222.969044 
L 648.589852 222.315071 
L 665.904863 221.57487 
L 683.219873 220.849431 
L 700.534884 220.100511 
L 717.849894 219.432839 
L 735.164905 218.777145 
L 752.479915 218.141085 
L 769.794926 217.608874 
L 787.109937 216.944609 
L 804.424947 216.341151 
L 821.739958 215.680951 
L 839.054968 215.087493 
L 856.369979 214.575832 
L 873.684989 214.021606 
" clip-path="url(#pcc1854c31c)" style="fill: none; stroke: #bc3754; stroke-linecap: square"/>
   </g>
   <g id="line2d_46">
    <path d="M 527.384778 226.132089 
L 544.699789 226.132089 
L 562.014799 226.132089 
L 579.32981 226.132089 
L 596.64482 225.135214 
L 613.959831 224.229917 
L 631.274841 223.362899 
L 648.589852 222.526908 
L 665.904863 221.682931 
L 683.219873 220.905732 
L 700.534884 220.01985 
L 717.849894 219.186825 
L 735.164905 218.333361 
L 752.479915 217.581291 
L 769.794926 216.862299 
L 787.109937 216.138728 
L 804.424947 215.420688 
L 821.739958 214.65675 
L 839.054968 213.933655 
L 856.369979 213.259206 
L 873.684989 212.56113 
" clip-path="url(#pcc1854c31c)" style="fill: none; stroke: #57106e; stroke-linecap: square"/>
   </g>
   <g id="line2d_47">
    <path d="M 527.384778 224.446882 
L 544.699789 224.446882 
L 562.014799 224.446882 
L 579.32981 224.446882 
L 596.64482 223.31147 
L 613.959831 222.206973 
L 631.274841 221.215667 
L 648.589852 220.154981 
L 665.904863 219.219171 
L 683.219873 218.218633 
L 700.534884 217.239525 
L 717.849894 216.231881 
L 735.164905 215.392409 
L 752.479915 214.499786 
L 769.794926 213.591596 
L 787.109937 212.681427 
L 804.424947 211.781624 
L 821.739958 210.983326 
L 839.054968 210.124074 
L 856.369979 209.25006 
L 873.684989 208.359964 
" clip-path="url(#pcc1854c31c)" style="fill: none; stroke: #000004; stroke-linecap: square"/>
   </g>
   <g id="patch_12">
    <path d="M 510.069767 235.872 
L 891 235.872 
" style="fill: none; stroke: #000000; stroke-width: 0.8; stroke-linejoin: miter; stroke-linecap: square"/>
   </g>
   <g id="text_25">
    <!-- BiomassSuccession -->
    <g transform="translate(622.507384 289.674624) scale(0.16 -0.16)">
     <defs>
      <path id="DejaVuSans-53" d="M 3425 4513 
L 3425 3897 
Q 3066 4069 2747 4153 
Q 2428 4238 2131 4238 
Q 1616 4238 1336 4038 
Q 1056 3838 1056 3469 
Q 1056 3159 1242 3001 
Q 1428 2844 1947 2747 
L 2328 2669 
Q 3034 2534 3370 2195 
Q 3706 1856 3706 1288 
Q 3706 609 3251 259 
Q 2797 -91 1919 -91 
Q 1588 -91 1214 -16 
Q 841 59 441 206 
L 441 856 
Q 825 641 1194 531 
Q 1563 422 1919 422 
Q 2459 422 2753 634 
Q 3047 847 3047 1241 
Q 3047 1584 2836 1778 
Q 2625 1972 2144 2069 
L 1759 2144 
Q 1053 2284 737 2584 
Q 422 2884 422 3419 
Q 422 4038 858 4394 
Q 1294 4750 2059 4750 
Q 2388 4750 2728 4690 
Q 3069 4631 3425 4513 
z
" transform="scale(0.015625)"/>
      <path id="DejaVuSans-75" d="M 544 1381 
L 544 3500 
L 1119 3500 
L 1119 1403 
Q 1119 906 1312 657 
Q 1506 409 1894 409 
Q 2359 409 2629 706 
Q 2900 1003 2900 1516 
L 2900 3500 
L 3475 3500 
L 3475 0 
L 2900 0 
L 2900 538 
Q 2691 219 2414 64 
Q 2138 -91 1772 -91 
Q 1169 -91 856 284 
Q 544 659 544 1381 
z
M 1991 3584 
L 1991 3584 
z
" transform="scale(0.015625)"/>
      <path id="DejaVuSans-63" d="M 3122 3366 
L 3122 2828 
Q 2878 2963 2633 3030 
Q 2388 3097 2138 3097 
Q 1578 3097 1268 2742 
Q 959 2388 959 1747 
Q 959 1106 1268 751 
Q 1578 397 2138 397 
Q 2388 397 2633 464 
Q 2878 531 3122 666 
L 3122 134 
Q 2881 22 2623 -34 
Q 2366 -91 2075 -91 
Q 1284 -91 818 406 
Q 353 903 353 1747 
Q 353 2603 823 3093 
Q 1294 3584 2113 3584 
Q 2378 3584 2631 3529 
Q 2884 3475 3122 3366 
z
" transform="scale(0.015625)"/>
     </defs>
     <use xlink:href="#DejaVuSans-42"/>
     <use xlink:href="#DejaVuSans-69" x="68.603516"/>
     <use xlink:href="#DejaVuSans-6f" x="96.386719"/>
     <use xlink:href="#DejaVuSans-6d" x="157.568359"/>
     <use xlink:href="#DejaVuSans-61" x="254.980469"/>
     <use xlink:href="#DejaVuSans-73" x="316.259766"/>
     <use xlink:href="#DejaVuSans-73" x="368.359375"/>
     <use xlink:href="#DejaVuSans-53" x="420.458984"/>
     <use xlink:href="#DejaVuSans-75" x="483.935547"/>
     <use xlink:href="#DejaVuSans-63" x="547.314453"/>
     <use xlink:href="#DejaVuSans-63" x="602.294922"/>
     <use xlink:href="#DejaVuSans-65" x="657.275391"/>
     <use xlink:href="#DejaVuSans-73" x="718.798828"/>
     <use xlink:href="#DejaVuSans-73" x="770.898438"/>
     <use xlink:href="#DejaVuSans-69" x="822.998047"/>
     <use xlink:href="#DejaVuSans-6f" x="850.78125"/>
     <use xlink:href="#DejaVuSans-6e" x="911.962891"/>
    </g>
   </g>
  </g>
 </g>
 <defs>
  <clipPath id="pe1545ee246">
   <rect x="72" y="48.9888" width="380.930233" height="186.8832"/>
  </clipPath>
  <clipPath id="pcc1854c31c">
   <rect x="510.069767" y="48.9888" width="380.930233" height="186.8832"/>
  </clipPath>
 </defs>
</svg>
