<?xml version="1.0" encoding="utf-8" standalone="no"?>
<!DOCTYPE svg PUBLIC "-//W3C//DTD SVG 1.1//EN"
  "http://www.w3.org/Graphics/SVG/1.1/DTD/svg11.dtd">
<svg xmlns:xlink="http://www.w3.org/1999/xlink" width="900pt" height="302.4pt" viewBox="0 0 900 302.4" xmlns="http://www.w3.org/2000/svg" version="1.1">
 <metadata>
  <rdf:RDF xmlns:dc="http://purl.org/dc/elements/1.1/" xmlns:cc="http://creativecommons.org/ns#" xmlns:rdf="http://www.w3.org/1999/02/22-rdf-syntax-ns#">
   <cc:Work>
    <dc:type rdf:resource="http://purl.org/dc/dcmitype/StillImage"/>
    <dc:date>2024-03-04T14:47:00.551880</dc:date>
    <dc:format>image/svg+xml</dc:format>
    <dc:creator>
     <cc:Agent>
      <dc:title>Matplotlib v3.7.1, https://matplotlib.org/</dc:title>
     </cc:Agent>
    </dc:creator>
   </cc:Work>
  </rdf:RDF>
 </metadata>
 <defs>
  <style type="text/css">*{stroke-linejoin: round; stroke-linecap: butt}</style>
 </defs>
 <g id="figure_1">
  <g id="patch_1">
   <path d="M 0 302.4 
L 900 302.4 
L 900 0 
L 0 0 
z
" style="fill: #ffffff"/>
  </g>
  <g id="axes_1">
   <g id="patch_2">
    <path d="M 72 235.872 
L 452.930233 235.872 
L 452.930233 48.9888 
L 72 48.9888 
z
" style="fill: #fcfcfc"/>
   </g>
   <g id="matplotlib.axis_1">
    <g id="xtick_1">
     <g id="line2d_1">
      <path d="M 89.315011 235.872 
L 89.315011 48.9888 
" clip-path="url(#p91e20b090f)" style="fill: none; stroke: #dcdcdc; stroke-width: 0.5; stroke-linecap: square"/>
     </g>
     <g id="line2d_2">
      <defs>
       <path id="m07c3b98fb4" d="M 0 0 
L 0 3.5 
" style="stroke: #000000; stroke-width: 0.8"/>
      </defs>
      <g>
       <use xlink:href="#m07c3b98fb4" x="89.315011" y="235.872" style="stroke: #000000; stroke-width: 0.8"/>
      </g>
     </g>
     <g id="text_1">
      <!-- 0 -->
      <g transform="translate(85.179386 252.749969) scale(0.13 -0.13)">
       <defs>
        <path id="DejaVuSans-30" d="M 2034 4250 
Q 1547 4250 1301 3770 
Q 1056 3291 1056 2328 
Q 1056 1369 1301 889 
Q 1547 409 2034 409 
Q 2525 409 2770 889 
Q 3016 1369 3016 2328 
Q 3016 3291 2770 3770 
Q 2525 4250 2034 4250 
z
M 2034 4750 
Q 2819 4750 3233 4129 
Q 3647 3509 3647 2328 
Q 3647 1150 3233 529 
Q 2819 -91 2034 -91 
Q 1250 -91 836 529 
Q 422 1150 422 2328 
Q 422 3509 836 4129 
Q 1250 4750 2034 4750 
z
" transform="scale(0.015625)"/>
       </defs>
       <use xlink:href="#DejaVuSans-30"/>
      </g>
     </g>
    </g>
    <g id="xtick_2">
     <g id="line2d_3">
      <path d="M 175.890063 235.872 
L 175.890063 48.9888 
" clip-path="url(#p91e20b090f)" style="fill: none; stroke: #dcdcdc; stroke-width: 0.5; stroke-linecap: square"/>
     </g>
     <g id="line2d_4">
      <g>
       <use xlink:href="#m07c3b98fb4" x="175.890063" y="235.872" style="stroke: #000000; stroke-width: 0.8"/>
      </g>
     </g>
     <g id="text_2">
      <!-- 25 -->
      <g transform="translate(167.618813 252.749969) scale(0.13 -0.13)">
       <defs>
        <path id="DejaVuSans-32" d="M 1228 531 
L 3431 531 
L 3431 0 
L 469 0 
L 469 531 
Q 828 903 1448 1529 
Q 2069 2156 2228 2338 
Q 2531 2678 2651 2914 
Q 2772 3150 2772 3378 
Q 2772 3750 2511 3984 
Q 2250 4219 1831 4219 
Q 1534 4219 1204 4116 
Q 875 4013 500 3803 
L 500 4441 
Q 881 4594 1212 4672 
Q 1544 4750 1819 4750 
Q 2544 4750 2975 4387 
Q 3406 4025 3406 3419 
Q 3406 3131 3298 2873 
Q 3191 2616 2906 2266 
Q 2828 2175 2409 1742 
Q 1991 1309 1228 531 
z
" transform="scale(0.015625)"/>
        <path id="DejaVuSans-35" d="M 691 4666 
L 3169 4666 
L 3169 4134 
L 1269 4134 
L 1269 2991 
Q 1406 3038 1543 3061 
Q 1681 3084 1819 3084 
Q 2600 3084 3056 2656 
Q 3513 2228 3513 1497 
Q 3513 744 3044 326 
Q 2575 -91 1722 -91 
Q 1428 -91 1123 -41 
Q 819 9 494 109 
L 494 744 
Q 775 591 1075 516 
Q 1375 441 1709 441 
Q 2250 441 2565 725 
Q 2881 1009 2881 1497 
Q 2881 1984 2565 2268 
Q 2250 2553 1709 2553 
Q 1456 2553 1204 2497 
Q 953 2441 691 2322 
L 691 4666 
z
" transform="scale(0.015625)"/>
       </defs>
       <use xlink:href="#DejaVuSans-32"/>
       <use xlink:href="#DejaVuSans-35" x="63.623047"/>
      </g>
     </g>
    </g>
    <g id="xtick_3">
     <g id="line2d_5">
      <path d="M 262.465116 235.872 
L 262.465116 48.9888 
" clip-path="url(#p91e20b090f)" style="fill: none; stroke: #dcdcdc; stroke-width: 0.5; stroke-linecap: square"/>
     </g>
     <g id="line2d_6">
      <g>
       <use xlink:href="#m07c3b98fb4" x="262.465116" y="235.872" style="stroke: #000000; stroke-width: 0.8"/>
      </g>
     </g>
     <g id="text_3">
      <!-- 50 -->
      <g transform="translate(254.193866 252.749969) scale(0.13 -0.13)">
       <use xlink:href="#DejaVuSans-35"/>
       <use xlink:href="#DejaVuSans-30" x="63.623047"/>
      </g>
     </g>
    </g>
    <g id="xtick_4">
     <g id="line2d_7">
      <path d="M 349.040169 235.872 
L 349.040169 48.9888 
" clip-path="url(#p91e20b090f)" style="fill: none; stroke: #dcdcdc; stroke-width: 0.5; stroke-linecap: square"/>
     </g>
     <g id="line2d_8">
      <g>
       <use xlink:href="#m07c3b98fb4" x="349.040169" y="235.872" style="stroke: #000000; stroke-width: 0.8"/>
      </g>
     </g>
     <g id="text_4">
      <!-- 75 -->
      <g transform="translate(340.768919 252.749969) scale(0.13 -0.13)">
       <defs>
        <path id="DejaVuSans-37" d="M 525 4666 
L 3525 4666 
L 3525 4397 
L 1831 0 
L 1172 0 
L 2766 4134 
L 525 4134 
L 525 4666 
z
" transform="scale(0.015625)"/>
       </defs>
       <use xlink:href="#DejaVuSans-37"/>
       <use xlink:href="#DejaVuSans-35" x="63.623047"/>
      </g>
     </g>
    </g>
    <g id="xtick_5">
     <g id="line2d_9">
      <path d="M 435.615222 235.872 
L 435.615222 48.9888 
" clip-path="url(#p91e20b090f)" style="fill: none; stroke: #dcdcdc; stroke-width: 0.5; stroke-linecap: square"/>
     </g>
     <g id="line2d_10">
      <g>
       <use xlink:href="#m07c3b98fb4" x="435.615222" y="235.872" style="stroke: #000000; stroke-width: 0.8"/>
      </g>
     </g>
     <g id="text_5">
      <!-- 100 -->
      <g transform="translate(423.208347 252.749969) scale(0.13 -0.13)">
       <defs>
        <path id="DejaVuSans-31" d="M 794 531 
L 1825 531 
L 1825 4091 
L 703 3866 
L 703 4441 
L 1819 4666 
L 2450 4666 
L 2450 531 
L 3481 531 
L 3481 0 
L 794 0 
L 794 531 
z
" transform="scale(0.015625)"/>
       </defs>
       <use xlink:href="#DejaVuSans-31"/>
       <use xlink:href="#DejaVuSans-30" x="63.623047"/>
       <use xlink:href="#DejaVuSans-30" x="127.246094"/>
      </g>
     </g>
    </g>
    <g id="text_6">
     <!-- Time step -->
     <g transform="translate(225.507694 270.851219) scale(0.15 -0.15)">
      <defs>
       <path id="DejaVuSans-54" d="M -19 4666 
L 3928 4666 
L 3928 4134 
L 2272 4134 
L 2272 0 
L 1638 0 
L 1638 4134 
L -19 4134 
L -19 4666 
z
" transform="scale(0.015625)"/>
       <path id="DejaVuSans-69" d="M 603 3500 
L 1178 3500 
L 1178 0 
L 603 0 
L 603 3500 
z
M 603 4863 
L 1178 4863 
L 1178 4134 
L 603 4134 
L 603 4863 
z
" transform="scale(0.015625)"/>
       <path id="DejaVuSans-6d" d="M 3328 2828 
Q 3544 3216 3844 3400 
Q 4144 3584 4550 3584 
Q 5097 3584 5394 3201 
Q 5691 2819 5691 2113 
L 5691 0 
L 5113 0 
L 5113 2094 
Q 5113 2597 4934 2840 
Q 4756 3084 4391 3084 
Q 3944 3084 3684 2787 
Q 3425 2491 3425 1978 
L 3425 0 
L 2847 0 
L 2847 2094 
Q 2847 2600 2669 2842 
Q 2491 3084 2119 3084 
Q 1678 3084 1418 2786 
Q 1159 2488 1159 1978 
L 1159 0 
L 581 0 
L 581 3500 
L 1159 3500 
L 1159 2956 
Q 1356 3278 1631 3431 
Q 1906 3584 2284 3584 
Q 2666 3584 2933 3390 
Q 3200 3197 3328 2828 
z
" transform="scale(0.015625)"/>
       <path id="DejaVuSans-65" d="M 3597 1894 
L 3597 1613 
L 953 1613 
Q 991 1019 1311 708 
Q 1631 397 2203 397 
Q 2534 397 2845 478 
Q 3156 559 3463 722 
L 3463 178 
Q 3153 47 2828 -22 
Q 2503 -91 2169 -91 
Q 1331 -91 842 396 
Q 353 884 353 1716 
Q 353 2575 817 3079 
Q 1281 3584 2069 3584 
Q 2775 3584 3186 3129 
Q 3597 2675 3597 1894 
z
M 3022 2063 
Q 3016 2534 2758 2815 
Q 2500 3097 2075 3097 
Q 1594 3097 1305 2825 
Q 1016 2553 972 2059 
L 3022 2063 
z
" transform="scale(0.015625)"/>
       <path id="DejaVuSans-20" transform="scale(0.015625)"/>
       <path id="DejaVuSans-73" d="M 2834 3397 
L 2834 2853 
Q 2591 2978 2328 3040 
Q 2066 3103 1784 3103 
Q 1356 3103 1142 2972 
Q 928 2841 928 2578 
Q 928 2378 1081 2264 
Q 1234 2150 1697 2047 
L 1894 2003 
Q 2506 1872 2764 1633 
Q 3022 1394 3022 966 
Q 3022 478 2636 193 
Q 2250 -91 1575 -91 
Q 1294 -91 989 -36 
Q 684 19 347 128 
L 347 722 
Q 666 556 975 473 
Q 1284 391 1588 391 
Q 1994 391 2212 530 
Q 2431 669 2431 922 
Q 2431 1156 2273 1281 
Q 2116 1406 1581 1522 
L 1381 1569 
Q 847 1681 609 1914 
Q 372 2147 372 2553 
Q 372 3047 722 3315 
Q 1072 3584 1716 3584 
Q 2034 3584 2315 3537 
Q 2597 3491 2834 3397 
z
" transform="scale(0.015625)"/>
       <path id="DejaVuSans-74" d="M 1172 4494 
L 1172 3500 
L 2356 3500 
L 2356 3053 
L 1172 3053 
L 1172 1153 
Q 1172 725 1289 603 
Q 1406 481 1766 481 
L 2356 481 
L 2356 0 
L 1766 0 
Q 1100 0 847 248 
Q 594 497 594 1153 
L 594 3053 
L 172 3053 
L 172 3500 
L 594 3500 
L 594 4494 
L 1172 4494 
z
" transform="scale(0.015625)"/>
       <path id="DejaVuSans-70" d="M 1159 525 
L 1159 -1331 
L 581 -1331 
L 581 3500 
L 1159 3500 
L 1159 2969 
Q 1341 3281 1617 3432 
Q 1894 3584 2278 3584 
Q 2916 3584 3314 3078 
Q 3713 2572 3713 1747 
Q 3713 922 3314 415 
Q 2916 -91 2278 -91 
Q 1894 -91 1617 61 
Q 1341 213 1159 525 
z
M 3116 1747 
Q 3116 2381 2855 2742 
Q 2594 3103 2138 3103 
Q 1681 3103 1420 2742 
Q 1159 2381 1159 1747 
Q 1159 1113 1420 752 
Q 1681 391 2138 391 
Q 2594 391 2855 752 
Q 3116 1113 3116 1747 
z
" transform="scale(0.015625)"/>
      </defs>
      <use xlink:href="#DejaVuSans-54"/>
      <use xlink:href="#DejaVuSans-69" x="57.958984"/>
      <use xlink:href="#DejaVuSans-6d" x="85.742188"/>
      <use xlink:href="#DejaVuSans-65" x="183.154297"/>
      <use xlink:href="#DejaVuSans-20" x="244.677734"/>
      <use xlink:href="#DejaVuSans-73" x="276.464844"/>
      <use xlink:href="#DejaVuSans-74" x="328.564453"/>
      <use xlink:href="#DejaVuSans-65" x="367.773438"/>
      <use xlink:href="#DejaVuSans-70" x="429.296875"/>
     </g>
    </g>
   </g>
   <g id="matplotlib.axis_2">
    <g id="ytick_1">
     <g id="line2d_11">
      <path d="M 72 235.872 
L 452.930233 235.872 
" clip-path="url(#p91e20b090f)" style="fill: none; stroke: #dcdcdc; stroke-width: 0.5; stroke-linecap: square"/>
     </g>
     <g id="line2d_12">
      <defs>
       <path id="m79fc0d1251" d="M 0 0 
L -3.5 0 
" style="stroke: #000000; stroke-width: 0.8"/>
      </defs>
      <g>
       <use xlink:href="#m79fc0d1251" x="72" y="235.872" style="stroke: #000000; stroke-width: 0.8"/>
      </g>
     </g>
     <g id="text_7">
      <!-- 0.0 -->
      <g transform="translate(44.325937 240.810984) scale(0.13 -0.13)">
       <defs>
        <path id="DejaVuSans-2e" d="M 684 794 
L 1344 794 
L 1344 0 
L 684 0 
L 684 794 
z
" transform="scale(0.015625)"/>
       </defs>
       <use xlink:href="#DejaVuSans-30"/>
       <use xlink:href="#DejaVuSans-2e" x="63.623047"/>
       <use xlink:href="#DejaVuSans-30" x="95.410156"/>
      </g>
     </g>
    </g>
    <g id="ytick_2">
     <g id="line2d_13">
      <path d="M 72 176.488625 
L 452.930233 176.488625 
" clip-path="url(#p91e20b090f)" style="fill: none; stroke: #dcdcdc; stroke-width: 0.5; stroke-linecap: square"/>
     </g>
     <g id="line2d_14">
      <g>
       <use xlink:href="#m79fc0d1251" x="72" y="176.488625" style="stroke: #000000; stroke-width: 0.8"/>
      </g>
     </g>
     <g id="text_8">
      <!-- 0.8 -->
      <g transform="translate(44.325937 181.42761) scale(0.13 -0.13)">
       <defs>
        <path id="DejaVuSans-38" d="M 2034 2216 
Q 1584 2216 1326 1975 
Q 1069 1734 1069 1313 
Q 1069 891 1326 650 
Q 1584 409 2034 409 
Q 2484 409 2743 651 
Q 3003 894 3003 1313 
Q 3003 1734 2745 1975 
Q 2488 2216 2034 2216 
z
M 1403 2484 
Q 997 2584 770 2862 
Q 544 3141 544 3541 
Q 544 4100 942 4425 
Q 1341 4750 2034 4750 
Q 2731 4750 3128 4425 
Q 3525 4100 3525 3541 
Q 3525 3141 3298 2862 
Q 3072 2584 2669 2484 
Q 3125 2378 3379 2068 
Q 3634 1759 3634 1313 
Q 3634 634 3220 271 
Q 2806 -91 2034 -91 
Q 1263 -91 848 271 
Q 434 634 434 1313 
Q 434 1759 690 2068 
Q 947 2378 1403 2484 
z
M 1172 3481 
Q 1172 3119 1398 2916 
Q 1625 2713 2034 2713 
Q 2441 2713 2670 2916 
Q 2900 3119 2900 3481 
Q 2900 3844 2670 4047 
Q 2441 4250 2034 4250 
Q 1625 4250 1398 4047 
Q 1172 3844 1172 3481 
z
" transform="scale(0.015625)"/>
       </defs>
       <use xlink:href="#DejaVuSans-30"/>
       <use xlink:href="#DejaVuSans-2e" x="63.623047"/>
       <use xlink:href="#DejaVuSans-38" x="95.410156"/>
      </g>
     </g>
    </g>
    <g id="ytick_3">
     <g id="line2d_15">
      <path d="M 72 117.10525 
L 452.930233 117.10525 
" clip-path="url(#p91e20b090f)" style="fill: none; stroke: #dcdcdc; stroke-width: 0.5; stroke-linecap: square"/>
     </g>
     <g id="line2d_16">
      <g>
       <use xlink:href="#m79fc0d1251" x="72" y="117.10525" style="stroke: #000000; stroke-width: 0.8"/>
      </g>
     </g>
     <g id="text_9">
      <!-- 1.6 -->
      <g transform="translate(44.325937 122.044235) scale(0.13 -0.13)">
       <defs>
        <path id="DejaVuSans-36" d="M 2113 2584 
Q 1688 2584 1439 2293 
Q 1191 2003 1191 1497 
Q 1191 994 1439 701 
Q 1688 409 2113 409 
Q 2538 409 2786 701 
Q 3034 994 3034 1497 
Q 3034 2003 2786 2293 
Q 2538 2584 2113 2584 
z
M 3366 4563 
L 3366 3988 
Q 3128 4100 2886 4159 
Q 2644 4219 2406 4219 
Q 1781 4219 1451 3797 
Q 1122 3375 1075 2522 
Q 1259 2794 1537 2939 
Q 1816 3084 2150 3084 
Q 2853 3084 3261 2657 
Q 3669 2231 3669 1497 
Q 3669 778 3244 343 
Q 2819 -91 2113 -91 
Q 1303 -91 875 529 
Q 447 1150 447 2328 
Q 447 3434 972 4092 
Q 1497 4750 2381 4750 
Q 2619 4750 2861 4703 
Q 3103 4656 3366 4563 
z
" transform="scale(0.015625)"/>
       </defs>
       <use xlink:href="#DejaVuSans-31"/>
       <use xlink:href="#DejaVuSans-2e" x="63.623047"/>
       <use xlink:href="#DejaVuSans-36" x="95.410156"/>
      </g>
     </g>
    </g>
    <g id="ytick_4">
     <g id="line2d_17">
      <path d="M 72 57.721876 
L 452.930233 57.721876 
" clip-path="url(#p91e20b090f)" style="fill: none; stroke: #dcdcdc; stroke-width: 0.5; stroke-linecap: square"/>
     </g>
     <g id="line2d_18">
      <g>
       <use xlink:href="#m79fc0d1251" x="72" y="57.721876" style="stroke: #000000; stroke-width: 0.8"/>
      </g>
     </g>
     <g id="text_10">
      <!-- 2.4 -->
      <g transform="translate(44.325937 62.66086) scale(0.13 -0.13)">
       <defs>
        <path id="DejaVuSans-34" d="M 2419 4116 
L 825 1625 
L 2419 1625 
L 2419 4116 
z
M 2253 4666 
L 3047 4666 
L 3047 1625 
L 3713 1625 
L 3713 1100 
L 3047 1100 
L 3047 0 
L 2419 0 
L 2419 1100 
L 313 1100 
L 313 1709 
L 2253 4666 
z
" transform="scale(0.015625)"/>
       </defs>
       <use xlink:href="#DejaVuSans-32"/>
       <use xlink:href="#DejaVuSans-2e" x="63.623047"/>
       <use xlink:href="#DejaVuSans-34" x="95.410156"/>
      </g>
     </g>
    </g>
    <g id="text_11">
     <!-- Biomass PICE.GLA -->
     <g transform="translate(37.206406 210.731963) rotate(-90) scale(0.15 -0.15)">
      <defs>
       <path id="DejaVuSans-42" d="M 1259 2228 
L 1259 519 
L 2272 519 
Q 2781 519 3026 730 
Q 3272 941 3272 1375 
Q 3272 1813 3026 2020 
Q 2781 2228 2272 2228 
L 1259 2228 
z
M 1259 4147 
L 1259 2741 
L 2194 2741 
Q 2656 2741 2882 2914 
Q 3109 3088 3109 3444 
Q 3109 3797 2882 3972 
Q 2656 4147 2194 4147 
L 1259 4147 
z
M 628 4666 
L 2241 4666 
Q 2963 4666 3353 4366 
Q 3744 4066 3744 3513 
Q 3744 3084 3544 2831 
Q 3344 2578 2956 2516 
Q 3422 2416 3680 2098 
Q 3938 1781 3938 1306 
Q 3938 681 3513 340 
Q 3088 0 2303 0 
L 628 0 
L 628 4666 
z
" transform="scale(0.015625)"/>
       <path id="DejaVuSans-6f" d="M 1959 3097 
Q 1497 3097 1228 2736 
Q 959 2375 959 1747 
Q 959 1119 1226 758 
Q 1494 397 1959 397 
Q 2419 397 2687 759 
Q 2956 1122 2956 1747 
Q 2956 2369 2687 2733 
Q 2419 3097 1959 3097 
z
M 1959 3584 
Q 2709 3584 3137 3096 
Q 3566 2609 3566 1747 
Q 3566 888 3137 398 
Q 2709 -91 1959 -91 
Q 1206 -91 779 398 
Q 353 888 353 1747 
Q 353 2609 779 3096 
Q 1206 3584 1959 3584 
z
" transform="scale(0.015625)"/>
       <path id="DejaVuSans-61" d="M 2194 1759 
Q 1497 1759 1228 1600 
Q 959 1441 959 1056 
Q 959 750 1161 570 
Q 1363 391 1709 391 
Q 2188 391 2477 730 
Q 2766 1069 2766 1631 
L 2766 1759 
L 2194 1759 
z
M 3341 1997 
L 3341 0 
L 2766 0 
L 2766 531 
Q 2569 213 2275 61 
Q 1981 -91 1556 -91 
Q 1019 -91 701 211 
Q 384 513 384 1019 
Q 384 1609 779 1909 
Q 1175 2209 1959 2209 
L 2766 2209 
L 2766 2266 
Q 2766 2663 2505 2880 
Q 2244 3097 1772 3097 
Q 1472 3097 1187 3025 
Q 903 2953 641 2809 
L 641 3341 
Q 956 3463 1253 3523 
Q 1550 3584 1831 3584 
Q 2591 3584 2966 3190 
Q 3341 2797 3341 1997 
z
" transform="scale(0.015625)"/>
       <path id="DejaVuSans-50" d="M 1259 4147 
L 1259 2394 
L 2053 2394 
Q 2494 2394 2734 2622 
Q 2975 2850 2975 3272 
Q 2975 3691 2734 3919 
Q 2494 4147 2053 4147 
L 1259 4147 
z
M 628 4666 
L 2053 4666 
Q 2838 4666 3239 4311 
Q 3641 3956 3641 3272 
Q 3641 2581 3239 2228 
Q 2838 1875 2053 1875 
L 1259 1875 
L 1259 0 
L 628 0 
L 628 4666 
z
" transform="scale(0.015625)"/>
       <path id="DejaVuSans-49" d="M 628 4666 
L 1259 4666 
L 1259 0 
L 628 0 
L 628 4666 
z
" transform="scale(0.015625)"/>
       <path id="DejaVuSans-43" d="M 4122 4306 
L 4122 3641 
Q 3803 3938 3442 4084 
Q 3081 4231 2675 4231 
Q 1875 4231 1450 3742 
Q 1025 3253 1025 2328 
Q 1025 1406 1450 917 
Q 1875 428 2675 428 
Q 3081 428 3442 575 
Q 3803 722 4122 1019 
L 4122 359 
Q 3791 134 3420 21 
Q 3050 -91 2638 -91 
Q 1578 -91 968 557 
Q 359 1206 359 2328 
Q 359 3453 968 4101 
Q 1578 4750 2638 4750 
Q 3056 4750 3426 4639 
Q 3797 4528 4122 4306 
z
" transform="scale(0.015625)"/>
       <path id="DejaVuSans-45" d="M 628 4666 
L 3578 4666 
L 3578 4134 
L 1259 4134 
L 1259 2753 
L 3481 2753 
L 3481 2222 
L 1259 2222 
L 1259 531 
L 3634 531 
L 3634 0 
L 628 0 
L 628 4666 
z
" transform="scale(0.015625)"/>
       <path id="DejaVuSans-47" d="M 3809 666 
L 3809 1919 
L 2778 1919 
L 2778 2438 
L 4434 2438 
L 4434 434 
Q 4069 175 3628 42 
Q 3188 -91 2688 -91 
Q 1594 -91 976 548 
Q 359 1188 359 2328 
Q 359 3472 976 4111 
Q 1594 4750 2688 4750 
Q 3144 4750 3555 4637 
Q 3966 4525 4313 4306 
L 4313 3634 
Q 3963 3931 3569 4081 
Q 3175 4231 2741 4231 
Q 1884 4231 1454 3753 
Q 1025 3275 1025 2328 
Q 1025 1384 1454 906 
Q 1884 428 2741 428 
Q 3075 428 3337 486 
Q 3600 544 3809 666 
z
" transform="scale(0.015625)"/>
       <path id="DejaVuSans-4c" d="M 628 4666 
L 1259 4666 
L 1259 531 
L 3531 531 
L 3531 0 
L 628 0 
L 628 4666 
z
" transform="scale(0.015625)"/>
       <path id="DejaVuSans-41" d="M 2188 4044 
L 1331 1722 
L 3047 1722 
L 2188 4044 
z
M 1831 4666 
L 2547 4666 
L 4325 0 
L 3669 0 
L 3244 1197 
L 1141 1197 
L 716 0 
L 50 0 
L 1831 4666 
z
" transform="scale(0.015625)"/>
      </defs>
      <use xlink:href="#DejaVuSans-42"/>
      <use xlink:href="#DejaVuSans-69" x="68.603516"/>
      <use xlink:href="#DejaVuSans-6f" x="96.386719"/>
      <use xlink:href="#DejaVuSans-6d" x="157.568359"/>
      <use xlink:href="#DejaVuSans-61" x="254.980469"/>
      <use xlink:href="#DejaVuSans-73" x="316.259766"/>
      <use xlink:href="#DejaVuSans-73" x="368.359375"/>
      <use xlink:href="#DejaVuSans-20" x="420.458984"/>
      <use xlink:href="#DejaVuSans-50" x="452.246094"/>
      <use xlink:href="#DejaVuSans-49" x="512.548828"/>
      <use xlink:href="#DejaVuSans-43" x="542.041016"/>
      <use xlink:href="#DejaVuSans-45" x="611.865234"/>
      <use xlink:href="#DejaVuSans-2e" x="675.048828"/>
      <use xlink:href="#DejaVuSans-47" x="706.835938"/>
      <use xlink:href="#DejaVuSans-4c" x="784.326172"/>
      <use xlink:href="#DejaVuSans-41" x="842.289062"/>
     </g>
    </g>
    <g id="text_12">
     <!-- 1e4 -->
     <g transform="translate(72 45.9888) scale(0.12 -0.12)">
      <use xlink:href="#DejaVuSans-31"/>
      <use xlink:href="#DejaVuSans-65" x="63.623047"/>
      <use xlink:href="#DejaVuSans-34" x="125.146484"/>
     </g>
    </g>
   </g>
   <g id="PolyCollection_1">
    <defs>
     <path id="m59a5bcee38" d="M 89.315011 -70.890493 
L 89.315011 -70.999134 
L 106.630021 -74.255571 
L 123.945032 -79.712401 
L 141.260042 -88.483752 
L 158.575053 -97.866698 
L 175.890063 -114.173286 
L 193.205074 -131.076986 
L 210.520085 -146.945559 
L 227.835095 -162.77058 
L 245.150106 -175.59421 
L 262.465116 -191.210239 
L 279.780127 -196.550612 
L 297.095137 -204.773972 
L 314.410148 -214.006742 
L 331.725159 -221.008827 
L 349.040169 -227.707552 
L 366.35518 -234.580369 
L 383.67019 -239.232669 
L 400.985201 -239.415103 
L 418.300211 -243.272102 
L 435.615222 -242.624412 
L 435.615222 -241.445668 
L 435.615222 -241.445668 
L 418.300211 -242.031581 
L 400.985201 -238.184984 
L 383.67019 -238.049892 
L 366.35518 -233.256043 
L 349.040169 -226.361 
L 331.725159 -219.463027 
L 314.410148 -212.286109 
L 297.095137 -202.834075 
L 279.780127 -194.576627 
L 262.465116 -189.113418 
L 245.150106 -173.282631 
L 227.835095 -160.783269 
L 210.520085 -144.97337 
L 193.205074 -129.081443 
L 175.890063 -112.470912 
L 158.575053 -96.7503 
L 141.260042 -87.697677 
L 123.945032 -79.309329 
L 106.630021 -74.031566 
L 89.315011 -70.890493 
z
"/>
    </defs>
    <g clip-path="url(#p91e20b090f)">
     <use xlink:href="#m59a5bcee38" x="0" y="302.4" style="fill: #fcffa4; fill-opacity: 0.3"/>
    </g>
   </g>
   <g id="PolyCollection_2">
    <defs>
     <path id="md9b98020d4" d="M 89.315011 -70.555174 
L 89.315011 -70.897593 
L 106.630021 -73.798622 
L 123.945032 -78.32131 
L 141.260042 -84.984823 
L 158.575053 -91.920755 
L 175.890063 -103.777012 
L 193.205074 -114.646827 
L 210.520085 -124.738876 
L 227.835095 -134.977168 
L 245.150106 -144.081857 
L 262.465116 -158.211437 
L 279.780127 -167.599217 
L 297.095137 -177.41924 
L 314.410148 -189.319065 
L 331.725159 -200.155119 
L 349.040169 -211.352714 
L 366.35518 -222.553403 
L 383.67019 -231.266305 
L 400.985201 -234.951374 
L 418.300211 -242.408433 
L 435.615222 -244.512 
L 435.615222 -120.212124 
L 435.615222 -120.212124 
L 418.300211 -118.395545 
L 400.985201 -115.724079 
L 383.67019 -116.23446 
L 366.35518 -113.773015 
L 349.040169 -112.090959 
L 331.725159 -112.490208 
L 314.410148 -114.346074 
L 297.095137 -114.106572 
L 279.780127 -113.833673 
L 262.465116 -124.631879 
L 245.150106 -122.199126 
L 227.835095 -117.960708 
L 210.520085 -111.855063 
L 193.205074 -105.915501 
L 175.890063 -98.266005 
L 158.575053 -88.986777 
L 141.260042 -83.165767 
L 123.945032 -77.232616 
L 106.630021 -73.183765 
L 89.315011 -70.555174 
z
"/>
    </defs>
    <g clip-path="url(#p91e20b090f)">
     <use xlink:href="#md9b98020d4" x="0" y="302.4" style="fill: #f98e09; fill-opacity: 0.3"/>
    </g>
   </g>
   <g id="PolyCollection_3">
    <defs>
     <path id="m17a793e70e" d="M 89.315011 -70.38176 
L 89.315011 -70.82986 
L 106.630021 -73.505569 
L 123.945032 -77.425427 
L 141.260042 -83.015843 
L 158.575053 -88.458242 
L 175.890063 -96.666962 
L 193.205074 -103.807651 
L 210.520085 -110.731315 
L 227.835095 -118.034739 
L 245.150106 -124.776233 
L 262.465116 -136.233727 
L 279.780127 -141.320203 
L 297.095137 -149.397899 
L 314.410148 -160.179104 
L 331.725159 -169.633303 
L 349.040169 -179.772666 
L 366.35518 -190.599657 
L 383.67019 -199.600477 
L 400.985201 -204.345057 
L 418.300211 -213.25591 
L 435.615222 -217.757398 
L 435.615222 -106.440152 
L 435.615222 -106.440152 
L 418.300211 -104.606101 
L 400.985201 -102.855618 
L 383.67019 -103.277028 
L 366.35518 -103.700182 
L 349.040169 -101.848217 
L 331.725159 -101.448293 
L 314.410148 -105.245872 
L 297.095137 -105.354279 
L 279.780127 -103.63392 
L 262.465116 -105.396594 
L 245.150106 -104.19432 
L 227.835095 -101.65499 
L 210.520085 -97.583871 
L 193.205074 -95.275491 
L 175.890063 -90.639235 
L 158.575053 -85.056974 
L 141.260042 -80.771104 
L 123.945032 -76.040831 
L 106.630021 -72.700415 
L 89.315011 -70.38176 
z
"/>
    </defs>
    <g clip-path="url(#p91e20b090f)">
     <use xlink:href="#m17a793e70e" x="0" y="302.4" style="fill: #bc3754; fill-opacity: 0.3"/>
    </g>
   </g>
   <g id="PolyCollection_4">
    <defs>
     <path id="mec949d77ba" d="M 89.315011 -70.259542 
L 89.315011 -70.744299 
L 106.630021 -73.189687 
L 123.945032 -76.527129 
L 141.260042 -81.417152 
L 158.575053 -85.492344 
L 175.890063 -92.056428 
L 193.205074 -97.832641 
L 210.520085 -102.800889 
L 227.835095 -109.113365 
L 245.150106 -115.420202 
L 262.465116 -124.692779 
L 279.780127 -129.291965 
L 297.095137 -136.452163 
L 314.410148 -145.124146 
L 331.725159 -152.76239 
L 349.040169 -161.132601 
L 366.35518 -170.438455 
L 383.67019 -178.896313 
L 400.985201 -184.209687 
L 418.300211 -194.028924 
L 435.615222 -199.781571 
L 435.615222 -97.915679 
L 435.615222 -97.915679 
L 418.300211 -95.681885 
L 400.985201 -93.809268 
L 383.67019 -94.763829 
L 366.35518 -94.683605 
L 349.040169 -95.53114 
L 331.725159 -95.750396 
L 314.410148 -95.992551 
L 297.095137 -95.202893 
L 279.780127 -93.550745 
L 262.465116 -95.143702 
L 245.150106 -92.928199 
L 227.835095 -91.176969 
L 210.520085 -89.788961 
L 193.205074 -88.549483 
L 175.890063 -86.383683 
L 158.575053 -82.320195 
L 141.260042 -79.266817 
L 123.945032 -75.163924 
L 106.630021 -72.317284 
L 89.315011 -70.259542 
z
"/>
    </defs>
    <g clip-path="url(#p91e20b090f)">
     <use xlink:href="#mec949d77ba" x="0" y="302.4" style="fill: #57106e; fill-opacity: 0.3"/>
    </g>
   </g>
   <g id="PolyCollection_5">
    <defs>
     <path id="m3519fc91fa" d="M 89.315011 -70.137783 
L 89.315011 -70.633137 
L 106.630021 -72.8914 
L 123.945032 -75.899062 
L 141.260042 -80.168745 
L 158.575053 -83.541496 
L 175.890063 -88.721332 
L 193.205074 -93.22893 
L 210.520085 -97.893649 
L 227.835095 -103.152917 
L 245.150106 -108.358369 
L 262.465116 -116.07418 
L 279.780127 -119.93755 
L 297.095137 -125.30523 
L 314.410148 -132.411488 
L 331.725159 -138.03951 
L 349.040169 -144.358423 
L 366.35518 -151.956112 
L 383.67019 -158.947409 
L 400.985201 -163.492721 
L 418.300211 -172.532445 
L 435.615222 -178.858728 
L 435.615222 -89.493234 
L 435.615222 -89.493234 
L 418.300211 -88.707998 
L 400.985201 -87.810274 
L 383.67019 -89.020729 
L 366.35518 -89.731395 
L 349.040169 -88.967515 
L 331.725159 -89.238952 
L 314.410148 -90.283896 
L 297.095137 -89.311526 
L 279.780127 -88.660881 
L 262.465116 -91.694053 
L 245.150106 -88.861667 
L 227.835095 -87.223545 
L 210.520085 -85.423 
L 193.205074 -84.920555 
L 175.890063 -83.194788 
L 158.575053 -80.263485 
L 141.260042 -77.914438 
L 123.945032 -74.566524 
L 106.630021 -72.02397 
L 89.315011 -70.137783 
z
"/>
    </defs>
    <g clip-path="url(#p91e20b090f)">
     <use xlink:href="#m3519fc91fa" x="0" y="302.4" style="fill: #000004; fill-opacity: 0.3"/>
    </g>
   </g>
   <g id="line2d_19">
    <path d="M 89.315011 231.455187 
L 106.630021 228.256432 
L 123.945032 222.889135 
L 141.260042 214.309285 
L 158.575053 205.091501 
L 175.890063 189.077901 
L 193.205074 172.320786 
L 210.520085 156.440536 
L 227.835095 140.623075 
L 245.150106 127.961579 
L 262.465116 112.238172 
L 279.780127 106.83638 
L 297.095137 98.595977 
L 314.410148 89.253574 
L 331.725159 82.164073 
L 349.040169 75.365724 
L 366.35518 68.481794 
L 383.67019 63.75872 
L 400.985201 63.599957 
L 418.300211 59.748159 
L 435.615222 60.36496 
" clip-path="url(#p91e20b090f)" style="fill: none; stroke: #fcffa4; stroke-linecap: square"/>
   </g>
   <g id="line2d_20">
    <path d="M 89.315011 231.673617 
L 106.630021 228.908807 
L 123.945032 224.623037 
L 141.260042 218.324705 
L 158.575053 211.946234 
L 175.890063 201.378491 
L 193.205074 192.118836 
L 210.520085 184.10303 
L 227.835095 175.931062 
L 245.150106 169.259508 
L 262.465116 160.978342 
L 279.780127 161.683555 
L 297.095137 156.637094 
L 314.410148 150.56743 
L 331.725159 146.077337 
L 349.040169 140.678164 
L 366.35518 134.236791 
L 383.67019 128.649618 
L 400.985201 127.062273 
L 418.300211 121.998011 
L 435.615222 120.037938 
" clip-path="url(#p91e20b090f)" style="fill: none; stroke: #f98e09; stroke-linecap: square"/>
   </g>
   <g id="line2d_21">
    <path d="M 89.315011 231.79419 
L 106.630021 229.297008 
L 123.945032 225.666871 
L 141.260042 220.506527 
L 158.575053 215.642392 
L 175.890063 208.746901 
L 193.205074 202.858429 
L 210.520085 198.242407 
L 227.835095 192.555136 
L 245.150106 187.914724 
L 262.465116 181.58484 
L 279.780127 179.922938 
L 297.095137 175.023911 
L 314.410148 169.687512 
L 331.725159 166.859202 
L 349.040169 161.589559 
L 366.35518 155.25008 
L 383.67019 150.961248 
L 400.985201 148.799662 
L 418.300211 143.468995 
L 435.615222 140.301225 
" clip-path="url(#p91e20b090f)" style="fill: none; stroke: #bc3754; stroke-linecap: square"/>
   </g>
   <g id="line2d_22">
    <path d="M 89.315011 231.898079 
L 106.630021 229.646515 
L 123.945032 226.554474 
L 141.260042 222.058016 
L 158.575053 218.49373 
L 175.890063 213.179945 
L 193.205074 209.208938 
L 210.520085 206.105075 
L 227.835095 202.254833 
L 245.150106 198.2258 
L 262.465116 192.481759 
L 279.780127 190.978645 
L 297.095137 186.572472 
L 314.410148 181.841652 
L 331.725159 178.143607 
L 349.040169 174.06813 
L 366.35518 169.83897 
L 383.67019 165.569929 
L 400.985201 163.390522 
L 418.300211 157.544596 
L 435.615222 153.551375 
" clip-path="url(#p91e20b090f)" style="fill: none; stroke: #57106e; stroke-linecap: square"/>
   </g>
   <g id="line2d_23">
    <path d="M 89.315011 232.01454 
L 106.630021 229.942315 
L 123.945032 227.167207 
L 141.260042 223.358408 
L 158.575053 220.497509 
L 175.890063 216.44194 
L 193.205074 213.325257 
L 210.520085 210.741676 
L 227.835095 207.211769 
L 245.150106 203.789982 
L 262.465116 198.515883 
L 279.780127 198.100785 
L 297.095137 195.091622 
L 314.410148 191.052308 
L 331.725159 188.760769 
L 349.040169 185.737031 
L 366.35518 181.556246 
L 383.67019 178.415931 
L 400.985201 176.748502 
L 418.300211 171.779779 
L 435.615222 168.224019 
" clip-path="url(#p91e20b090f)" style="fill: none; stroke: #000004; stroke-linecap: square"/>
   </g>
   <g id="patch_3">
    <path d="M 72 235.872 
L 72 48.9888 
" style="fill: none; stroke: #000000; stroke-width: 0.8; stroke-linejoin: miter; stroke-linecap: square"/>
   </g>
   <g id="patch_4">
    <path d="M 72 235.872 
L 452.930233 235.872 
" style="fill: none; stroke: #000000; stroke-width: 0.8; stroke-linejoin: miter; stroke-linecap: square"/>
   </g>
   <g id="text_13">
    <!-- PnET -->
    <g transform="translate(242.770116 289.674624) scale(0.16 -0.16)">
     <defs>
      <path id="DejaVuSans-6e" d="M 3513 2113 
L 3513 0 
L 2938 0 
L 2938 2094 
Q 2938 2591 2744 2837 
Q 2550 3084 2163 3084 
Q 1697 3084 1428 2787 
Q 1159 2491 1159 1978 
L 1159 0 
L 581 0 
L 581 3500 
L 1159 3500 
L 1159 2956 
Q 1366 3272 1645 3428 
Q 1925 3584 2291 3584 
Q 2894 3584 3203 3211 
Q 3513 2838 3513 2113 
z
" transform="scale(0.015625)"/>
     </defs>
     <use xlink:href="#DejaVuSans-50"/>
     <use xlink:href="#DejaVuSans-6e" x="58.552734"/>
     <use xlink:href="#DejaVuSans-45" x="121.931641"/>
     <use xlink:href="#DejaVuSans-54" x="185.115234"/>
    </g>
   </g>
   <g id="legend_1">
    <g id="patch_5">
     <path d="M 266.5125 37.164 
L 633.4875 37.164 
Q 635.8875 37.164 635.8875 34.764 
L 635.8875 11.424 
Q 635.8875 9.024 633.4875 9.024 
L 266.5125 9.024 
Q 264.1125 9.024 264.1125 11.424 
L 264.1125 34.764 
Q 264.1125 37.164 266.5125 37.164 
z
" style="fill: #ffffff; opacity: 0.8; stroke: #cccccc; stroke-linejoin: miter"/>
    </g>
    <g id="patch_6">
     <path d="M 268.9125 32.364 
L 304.9125 32.364 
L 304.9125 13.824 
L 268.9125 13.824 
z
" style="fill: #fcffa4; fill-opacity: 0.3"/>
    </g>
    <g id="line2d_24">
     <path d="M 268.9125 20.364 
L 286.9125 20.364 
L 304.9125 20.364 
" style="fill: none; stroke: #fcffa4; stroke-linecap: square"/>
    </g>
    <g id="text_14">
     <!-- 1 -->
     <g transform="translate(314.5125 26.904) scale(0.12 -0.12)">
      <use xlink:href="#DejaVuSans-31"/>
     </g>
    </g>
    <g id="patch_7">
     <path d="M 346.1475 32.364 
L 382.1475 32.364 
L 382.1475 13.824 
L 346.1475 13.824 
z
" style="fill: #f98e09; fill-opacity: 0.3"/>
    </g>
    <g id="line2d_25">
     <path d="M 346.1475 20.364 
L 364.1475 20.364 
L 382.1475 20.364 
" style="fill: none; stroke: #f98e09; stroke-linecap: square"/>
    </g>
    <g id="text_15">
     <!-- 2 -->
     <g transform="translate(391.7475 26.904) scale(0.12 -0.12)">
      <use xlink:href="#DejaVuSans-32"/>
     </g>
    </g>
    <g id="patch_8">
     <path d="M 423.3825 32.364 
L 459.3825 32.364 
L 459.3825 13.824 
L 423.3825 13.824 
z
" style="fill: #bc3754; fill-opacity: 0.3"/>
    </g>
    <g id="line2d_26">
     <path d="M 423.3825 20.364 
L 441.3825 20.364 
L 459.3825 20.364 
" style="fill: none; stroke: #bc3754; stroke-linecap: square"/>
    </g>
    <g id="text_16">
     <!-- 3 -->
     <g transform="translate(468.9825 26.904) scale(0.12 -0.12)">
      <defs>
       <path id="DejaVuSans-33" d="M 2597 2516 
Q 3050 2419 3304 2112 
Q 3559 1806 3559 1356 
Q 3559 666 3084 287 
Q 2609 -91 1734 -91 
Q 1441 -91 1130 -33 
Q 819 25 488 141 
L 488 750 
Q 750 597 1062 519 
Q 1375 441 1716 441 
Q 2309 441 2620 675 
Q 2931 909 2931 1356 
Q 2931 1769 2642 2001 
Q 2353 2234 1838 2234 
L 1294 2234 
L 1294 2753 
L 1863 2753 
Q 2328 2753 2575 2939 
Q 2822 3125 2822 3475 
Q 2822 3834 2567 4026 
Q 2313 4219 1838 4219 
Q 1578 4219 1281 4162 
Q 984 4106 628 3988 
L 628 4550 
Q 988 4650 1302 4700 
Q 1616 4750 1894 4750 
Q 2613 4750 3031 4423 
Q 3450 4097 3450 3541 
Q 3450 3153 3228 2886 
Q 3006 2619 2597 2516 
z
" transform="scale(0.015625)"/>
      </defs>
      <use xlink:href="#DejaVuSans-33"/>
     </g>
    </g>
    <g id="patch_9">
     <path d="M 500.6175 32.364 
L 536.6175 32.364 
L 536.6175 13.824 
L 500.6175 13.824 
z
" style="fill: #57106e; fill-opacity: 0.3"/>
    </g>
    <g id="line2d_27">
     <path d="M 500.6175 20.364 
L 518.6175 20.364 
L 536.6175 20.364 
" style="fill: none; stroke: #57106e; stroke-linecap: square"/>
    </g>
    <g id="text_17">
     <!-- 4 -->
     <g transform="translate(546.2175 26.904) scale(0.12 -0.12)">
      <use xlink:href="#DejaVuSans-34"/>
     </g>
    </g>
    <g id="patch_10">
     <path d="M 577.8525 32.364 
L 613.8525 32.364 
L 613.8525 13.824 
L 577.8525 13.824 
z
" style="fill: #000004; fill-opacity: 0.3"/>
    </g>
    <g id="line2d_28">
     <path d="M 577.8525 20.364 
L 595.8525 20.364 
L 613.8525 20.364 
" style="fill: none; stroke: #000004; stroke-linecap: square"/>
    </g>
    <g id="text_18">
     <!-- 5 -->
     <g transform="translate(623.4525 26.904) scale(0.12 -0.12)">
      <use xlink:href="#DejaVuSans-35"/>
     </g>
    </g>
   </g>
  </g>
  <g id="axes_2">
   <g id="patch_11">
    <path d="M 510.069767 235.872 
L 891 235.872 
L 891 48.9888 
L 510.069767 48.9888 
z
" style="fill: #fcfcfc"/>
   </g>
   <g id="matplotlib.axis_3">
    <g id="xtick_6">
     <g id="line2d_29">
      <path d="M 527.384778 235.872 
L 527.384778 48.9888 
" clip-path="url(#pd75d2790ca)" style="fill: none; stroke: #dcdcdc; stroke-width: 0.5; stroke-linecap: square"/>
     </g>
     <g id="line2d_30">
      <g>
       <use xlink:href="#m07c3b98fb4" x="527.384778" y="235.872" style="stroke: #000000; stroke-width: 0.8"/>
      </g>
     </g>
     <g id="text_19">
      <!-- 0 -->
      <g transform="translate(523.249153 252.749969) scale(0.13 -0.13)">
       <use xlink:href="#DejaVuSans-30"/>
      </g>
     </g>
    </g>
    <g id="xtick_7">
     <g id="line2d_31">
      <path d="M 613.959831 235.872 
L 613.959831 48.9888 
" clip-path="url(#pd75d2790ca)" style="fill: none; stroke: #dcdcdc; stroke-width: 0.5; stroke-linecap: square"/>
     </g>
     <g id="line2d_32">
      <g>
       <use xlink:href="#m07c3b98fb4" x="613.959831" y="235.872" style="stroke: #000000; stroke-width: 0.8"/>
      </g>
     </g>
     <g id="text_20">
      <!-- 25 -->
      <g transform="translate(605.688581 252.749969) scale(0.13 -0.13)">
       <use xlink:href="#DejaVuSans-32"/>
       <use xlink:href="#DejaVuSans-35" x="63.623047"/>
      </g>
     </g>
    </g>
    <g id="xtick_8">
     <g id="line2d_33">
      <path d="M 700.534884 235.872 
L 700.534884 48.9888 
" clip-path="url(#pd75d2790ca)" style="fill: none; stroke: #dcdcdc; stroke-width: 0.5; stroke-linecap: square"/>
     </g>
     <g id="line2d_34">
      <g>
       <use xlink:href="#m07c3b98fb4" x="700.534884" y="235.872" style="stroke: #000000; stroke-width: 0.8"/>
      </g>
     </g>
     <g id="text_21">
      <!-- 50 -->
      <g transform="translate(692.263634 252.749969) scale(0.13 -0.13)">
       <use xlink:href="#DejaVuSans-35"/>
       <use xlink:href="#DejaVuSans-30" x="63.623047"/>
      </g>
     </g>
    </g>
    <g id="xtick_9">
     <g id="line2d_35">
      <path d="M 787.109937 235.872 
L 787.109937 48.9888 
" clip-path="url(#pd75d2790ca)" style="fill: none; stroke: #dcdcdc; stroke-width: 0.5; stroke-linecap: square"/>
     </g>
     <g id="line2d_36">
      <g>
       <use xlink:href="#m07c3b98fb4" x="787.109937" y="235.872" style="stroke: #000000; stroke-width: 0.8"/>
      </g>
     </g>
     <g id="text_22">
      <!-- 75 -->
      <g transform="translate(778.838687 252.749969) scale(0.13 -0.13)">
       <use xlink:href="#DejaVuSans-37"/>
       <use xlink:href="#DejaVuSans-35" x="63.623047"/>
      </g>
     </g>
    </g>
    <g id="xtick_10">
     <g id="line2d_37">
      <path d="M 873.684989 235.872 
L 873.684989 48.9888 
" clip-path="url(#pd75d2790ca)" style="fill: none; stroke: #dcdcdc; stroke-width: 0.5; stroke-linecap: square"/>
     </g>
     <g id="line2d_38">
      <g>
       <use xlink:href="#m07c3b98fb4" x="873.684989" y="235.872" style="stroke: #000000; stroke-width: 0.8"/>
      </g>
     </g>
     <g id="text_23">
      <!-- 100 -->
      <g transform="translate(861.278114 252.749969) scale(0.13 -0.13)">
       <use xlink:href="#DejaVuSans-31"/>
       <use xlink:href="#DejaVuSans-30" x="63.623047"/>
       <use xlink:href="#DejaVuSans-30" x="127.246094"/>
      </g>
     </g>
    </g>
    <g id="text_24">
     <!-- Time step -->
     <g transform="translate(663.577462 270.851219) scale(0.15 -0.15)">
      <use xlink:href="#DejaVuSans-54"/>
      <use xlink:href="#DejaVuSans-69" x="57.958984"/>
      <use xlink:href="#DejaVuSans-6d" x="85.742188"/>
      <use xlink:href="#DejaVuSans-65" x="183.154297"/>
      <use xlink:href="#DejaVuSans-20" x="244.677734"/>
      <use xlink:href="#DejaVuSans-73" x="276.464844"/>
      <use xlink:href="#DejaVuSans-74" x="328.564453"/>
      <use xlink:href="#DejaVuSans-65" x="367.773438"/>
      <use xlink:href="#DejaVuSans-70" x="429.296875"/>
     </g>
    </g>
   </g>
   <g id="matplotlib.axis_4">
    <g id="ytick_5">
     <g id="line2d_39">
      <path d="M 510.069767 235.872 
L 891 235.872 
" clip-path="url(#pd75d2790ca)" style="fill: none; stroke: #dcdcdc; stroke-width: 0.5; stroke-linecap: square"/>
     </g>
    </g>
    <g id="ytick_6">
     <g id="line2d_40">
      <path d="M 510.069767 176.488625 
L 891 176.488625 
" clip-path="url(#pd75d2790ca)" style="fill: none; stroke: #dcdcdc; stroke-width: 0.5; stroke-linecap: square"/>
     </g>
    </g>
    <g id="ytick_7">
     <g id="line2d_41">
      <path d="M 510.069767 117.10525 
L 891 117.10525 
" clip-path="url(#pd75d2790ca)" style="fill: none; stroke: #dcdcdc; stroke-width: 0.5; stroke-linecap: square"/>
     </g>
    </g>
    <g id="ytick_8">
     <g id="line2d_42">
      <path d="M 510.069767 57.721876 
L 891 57.721876 
" clip-path="url(#pd75d2790ca)" style="fill: none; stroke: #dcdcdc; stroke-width: 0.5; stroke-linecap: square"/>
     </g>
    </g>
   </g>
   <g id="PolyCollection_6">
    <defs>
     <path id="m5e09b9a37a" d="M 527.384778 -73.602045 
L 527.384778 -73.602045 
L 544.699789 -75.346431 
L 562.014799 -77.424849 
L 579.32981 -79.889259 
L 596.64482 -86.282004 
L 613.959831 -90.975211 
L 631.274841 -95.882489 
L 648.589852 -100.490036 
L 665.904863 -104.557133 
L 683.219873 -108.318418 
L 700.534884 -112.047466 
L 717.849894 -115.817064 
L 735.164905 -118.755371 
L 752.479915 -121.468921 
L 769.794926 -124.023576 
L 787.109937 -126.408791 
L 804.424947 -128.619685 
L 821.739958 -130.617093 
L 839.054968 -132.346999 
L 856.369979 -133.702533 
L 873.684989 -134.629654 
L 873.684989 -131.625527 
L 873.684989 -131.625527 
L 856.369979 -130.479818 
L 839.054968 -129.046604 
L 821.739958 -127.356552 
L 804.424947 -125.413348 
L 787.109937 -123.218695 
L 769.794926 -120.764514 
L 752.479915 -118.064963 
L 735.164905 -115.119801 
L 717.849894 -111.692211 
L 700.534884 -108.039236 
L 683.219873 -104.368766 
L 665.904863 -99.967108 
L 648.589852 -95.336811 
L 631.274841 -91.196663 
L 613.959831 -87.013569 
L 596.64482 -82.851143 
L 579.32981 -79.889259 
L 562.014799 -77.424849 
L 544.699789 -75.346431 
L 527.384778 -73.602045 
z
"/>
    </defs>
    <g clip-path="url(#pd75d2790ca)">
     <use xlink:href="#m5e09b9a37a" x="0" y="302.4" style="fill: #fcffa4; fill-opacity: 0.3"/>
    </g>
   </g>
   <g id="PolyCollection_7">
    <defs>
     <path id="m4b15820d15" d="M 527.384778 -71.626247 
L 527.384778 -72.203965 
L 544.699789 -72.871289 
L 562.014799 -73.605136 
L 579.32981 -74.418822 
L 596.64482 -76.978678 
L 613.959831 -79.404308 
L 631.274841 -81.85384 
L 648.589852 -84.212539 
L 665.904863 -86.064544 
L 683.219873 -87.730014 
L 700.534884 -89.599398 
L 717.849894 -91.529726 
L 735.164905 -93.438857 
L 752.479915 -95.315105 
L 769.794926 -97.108547 
L 787.109937 -98.92588 
L 804.424947 -100.762917 
L 821.739958 -102.568005 
L 839.054968 -104.315232 
L 856.369979 -105.953933 
L 873.684989 -107.431233 
L 873.684989 -82.936267 
L 873.684989 -82.936267 
L 856.369979 -82.393547 
L 839.054968 -81.807694 
L 821.739958 -81.177827 
L 804.424947 -80.51942 
L 787.109937 -79.831888 
L 769.794926 -79.137108 
L 752.479915 -78.437645 
L 735.164905 -77.735078 
L 717.849894 -77.030356 
L 700.534884 -76.373144 
L 683.219873 -75.76672 
L 665.904863 -75.129607 
L 648.589852 -74.54612 
L 631.274841 -74.047803 
L 613.959831 -73.306604 
L 596.64482 -72.727182 
L 579.32981 -72.506574 
L 562.014799 -72.182336 
L 544.699789 -71.892312 
L 527.384778 -71.626247 
z
"/>
    </defs>
    <g clip-path="url(#pd75d2790ca)">
     <use xlink:href="#m4b15820d15" x="0" y="302.4" style="fill: #f98e09; fill-opacity: 0.3"/>
    </g>
   </g>
   <g id="PolyCollection_8">
    <defs>
     <path id="mdb4b556dbb" d="M 527.384778 -71.534326 
L 527.384778 -71.71166 
L 544.699789 -72.061075 
L 562.014799 -72.436849 
L 579.32981 -72.852908 
L 596.64482 -74.4984 
L 613.959831 -75.763108 
L 631.274841 -76.865423 
L 648.589852 -77.826557 
L 665.904863 -78.628271 
L 683.219873 -79.620226 
L 700.534884 -80.596636 
L 717.849894 -81.540983 
L 735.164905 -82.494055 
L 752.479915 -83.472612 
L 769.794926 -84.467941 
L 787.109937 -85.498689 
L 804.424947 -86.54643 
L 821.739958 -87.59623 
L 839.054968 -88.61708 
L 856.369979 -89.579583 
L 873.684989 -90.457626 
L 873.684989 -77.892178 
L 873.684989 -77.892178 
L 856.369979 -77.770618 
L 839.054968 -77.612285 
L 821.739958 -77.411951 
L 804.424947 -77.167949 
L 787.109937 -76.874883 
L 769.794926 -76.528793 
L 752.479915 -76.133242 
L 735.164905 -75.698424 
L 717.849894 -75.243607 
L 700.534884 -74.775334 
L 683.219873 -74.334796 
L 665.904863 -73.93391 
L 648.589852 -73.480773 
L 631.274841 -73.111215 
L 613.959831 -72.734079 
L 596.64482 -72.435947 
L 579.32981 -72.44422 
L 562.014799 -72.102386 
L 544.699789 -71.80124 
L 527.384778 -71.534326 
z
"/>
    </defs>
    <g clip-path="url(#pd75d2790ca)">
     <use xlink:href="#mdb4b556dbb" x="0" y="302.4" style="fill: #bc3754; fill-opacity: 0.3"/>
    </g>
   </g>
   <g id="PolyCollection_9">
    <defs>
     <path id="m966fd42211" d="M 527.384778 -71.505731 
L 527.384778 -71.566204 
L 544.699789 -71.851765 
L 562.014799 -72.165519 
L 579.32981 -72.5193 
L 596.64482 -73.323051 
L 613.959831 -74.032877 
L 631.274841 -74.555743 
L 648.589852 -75.061709 
L 665.904863 -75.594195 
L 683.219873 -76.155563 
L 700.534884 -76.739786 
L 717.849894 -77.344669 
L 735.164905 -77.966081 
L 752.479915 -78.60292 
L 769.794926 -79.237651 
L 787.109937 -79.860841 
L 804.424947 -80.460602 
L 821.739958 -81.020046 
L 839.054968 -81.524135 
L 856.369979 -81.965215 
L 873.684989 -82.330248 
L 873.684989 -76.554119 
L 873.684989 -76.554119 
L 856.369979 -76.599308 
L 839.054968 -76.628691 
L 821.739958 -76.635992 
L 804.424947 -76.616558 
L 787.109937 -76.556301 
L 769.794926 -76.437674 
L 752.479915 -76.249119 
L 735.164905 -75.980873 
L 717.849894 -75.641364 
L 700.534884 -75.237826 
L 683.219873 -74.790008 
L 665.904863 -74.319626 
L 648.589852 -73.849872 
L 631.274841 -73.381314 
L 613.959831 -72.929071 
L 596.64482 -72.591644 
L 579.32981 -72.448113 
L 562.014799 -72.092914 
L 544.699789 -71.780216 
L 527.384778 -71.505731 
z
"/>
    </defs>
    <g clip-path="url(#pd75d2790ca)">
     <use xlink:href="#m966fd42211" x="0" y="302.4" style="fill: #57106e; fill-opacity: 0.3"/>
    </g>
   </g>
   <g id="PolyCollection_10">
    <defs>
     <path id="m93b3905645" d="M 527.384778 -71.483723 
L 527.384778 -71.496367 
L 544.699789 -71.775943 
L 562.014799 -72.092634 
L 579.32981 -72.44756 
L 596.64482 -72.840913 
L 613.959831 -73.266813 
L 631.274841 -73.71404 
L 648.589852 -74.178377 
L 665.904863 -74.651441 
L 683.219873 -75.119909 
L 700.534884 -75.57633 
L 717.849894 -76.007592 
L 735.164905 -76.398859 
L 752.479915 -76.738502 
L 769.794926 -77.019697 
L 787.109937 -77.228493 
L 804.424947 -77.368759 
L 821.739958 -77.449033 
L 839.054968 -77.489857 
L 856.369979 -77.499806 
L 873.684989 -77.484772 
L 873.684989 -76.317671 
L 873.684989 -76.317671 
L 856.369979 -76.356676 
L 839.054968 -76.370782 
L 821.739958 -76.374699 
L 804.424947 -76.374836 
L 787.109937 -76.357082 
L 769.794926 -76.298416 
L 752.479915 -76.182335 
L 735.164905 -75.993258 
L 717.849894 -75.726944 
L 700.534884 -75.392071 
L 683.219873 -75.001804 
L 665.904863 -74.572751 
L 648.589852 -74.124037 
L 631.274841 -73.673099 
L 613.959831 -73.227911 
L 596.64482 -72.80947 
L 579.32981 -72.417389 
L 562.014799 -72.067345 
L 544.699789 -71.756977 
L 527.384778 -71.483723 
z
"/>
    </defs>
    <g clip-path="url(#pd75d2790ca)">
     <use xlink:href="#m93b3905645" x="0" y="302.4" style="fill: #000004; fill-opacity: 0.3"/>
    </g>
   </g>
   <g id="line2d_43">
    <path d="M 527.384778 228.797955 
L 544.699789 227.053569 
L 562.014799 224.975151 
L 579.32981 222.510741 
L 596.64482 217.833427 
L 613.959831 213.40561 
L 631.274841 208.860424 
L 648.589852 204.486577 
L 665.904863 200.13788 
L 683.219873 196.056408 
L 700.534884 192.356649 
L 717.849894 188.645363 
L 735.164905 185.462414 
L 752.479915 182.633058 
L 769.794926 180.005955 
L 787.109937 177.586257 
L 804.424947 175.383483 
L 821.739958 173.413178 
L 839.054968 171.703199 
L 856.369979 170.308824 
L 873.684989 169.27241 
" clip-path="url(#pd75d2790ca)" style="fill: none; stroke: #fcffa4; stroke-linecap: square"/>
   </g>
   <g id="line2d_44">
    <path d="M 527.384778 230.484894 
L 544.699789 230.018199 
L 562.014799 229.506264 
L 579.32981 228.937302 
L 596.64482 227.54707 
L 613.959831 226.044544 
L 631.274841 224.449179 
L 648.589852 223.020671 
L 665.904863 221.802925 
L 683.219873 220.651633 
L 700.534884 219.413729 
L 717.849894 218.119959 
L 735.164905 216.813033 
L 752.479915 215.523625 
L 769.794926 214.277172 
L 787.109937 213.021116 
L 804.424947 211.758832 
L 821.739958 210.527084 
L 839.054968 209.338537 
L 856.369979 208.22626 
L 873.684989 207.21625 
" clip-path="url(#pd75d2790ca)" style="fill: none; stroke: #f98e09; stroke-linecap: square"/>
   </g>
   <g id="line2d_45">
    <path d="M 527.384778 230.777007 
L 544.699789 230.468843 
L 562.014799 230.130383 
L 579.32981 229.751436 
L 596.64482 228.932826 
L 613.959831 228.151406 
L 631.274841 227.411681 
L 648.589852 226.746335 
L 665.904863 226.11891 
L 683.219873 225.422489 
L 700.534884 224.714015 
L 717.849894 224.007705 
L 735.164905 223.30376 
L 752.479915 222.597073 
L 769.794926 221.901633 
L 787.109937 221.213214 
L 804.424947 220.542811 
L 821.739958 219.89591 
L 839.054968 219.285318 
L 856.369979 218.7249 
L 873.684989 218.225098 
" clip-path="url(#pd75d2790ca)" style="fill: none; stroke: #bc3754; stroke-linecap: square"/>
   </g>
   <g id="line2d_46">
    <path d="M 527.384778 230.864033 
L 544.699789 230.584009 
L 562.014799 230.270784 
L 579.32981 229.916294 
L 596.64482 229.442653 
L 613.959831 228.919026 
L 631.274841 228.431472 
L 648.589852 227.94421 
L 665.904863 227.443089 
L 683.219873 226.927215 
L 700.534884 226.411194 
L 717.849894 225.906983 
L 735.164905 225.426523 
L 752.479915 224.973981 
L 769.794926 224.562338 
L 787.109937 224.191429 
L 804.424947 223.86142 
L 821.739958 223.571981 
L 839.054968 223.323587 
L 856.369979 223.117738 
L 873.684989 222.957816 
" clip-path="url(#pd75d2790ca)" style="fill: none; stroke: #57106e; stroke-linecap: square"/>
   </g>
   <g id="line2d_47">
    <path d="M 527.384778 230.909955 
L 544.699789 230.63354 
L 562.014799 230.320011 
L 579.32981 229.967526 
L 596.64482 229.574809 
L 613.959831 229.152638 
L 631.274841 228.706431 
L 648.589852 228.248793 
L 665.904863 227.787904 
L 683.219873 227.339143 
L 700.534884 226.915799 
L 717.849894 226.532732 
L 735.164905 226.203941 
L 752.479915 225.939581 
L 769.794926 225.740944 
L 787.109937 225.607213 
L 804.424947 225.528203 
L 821.739958 225.488134 
L 839.054968 225.469681 
L 856.369979 225.471759 
L 873.684989 225.498778 
" clip-path="url(#pd75d2790ca)" style="fill: none; stroke: #000004; stroke-linecap: square"/>
   </g>
   <g id="patch_12">
    <path d="M 510.069767 235.872 
L 891 235.872 
" style="fill: none; stroke: #000000; stroke-width: 0.8; stroke-linejoin: miter; stroke-linecap: square"/>
   </g>
   <g id="text_25">
    <!-- BiomassSuccession -->
    <g transform="translate(622.507384 289.674624) scale(0.16 -0.16)">
     <defs>
      <path id="DejaVuSans-53" d="M 3425 4513 
L 3425 3897 
Q 3066 4069 2747 4153 
Q 2428 4238 2131 4238 
Q 1616 4238 1336 4038 
Q 1056 3838 1056 3469 
Q 1056 3159 1242 3001 
Q 1428 2844 1947 2747 
L 2328 2669 
Q 3034 2534 3370 2195 
Q 3706 1856 3706 1288 
Q 3706 609 3251 259 
Q 2797 -91 1919 -91 
Q 1588 -91 1214 -16 
Q 841 59 441 206 
L 441 856 
Q 825 641 1194 531 
Q 1563 422 1919 422 
Q 2459 422 2753 634 
Q 3047 847 3047 1241 
Q 3047 1584 2836 1778 
Q 2625 1972 2144 2069 
L 1759 2144 
Q 1053 2284 737 2584 
Q 422 2884 422 3419 
Q 422 4038 858 4394 
Q 1294 4750 2059 4750 
Q 2388 4750 2728 4690 
Q 3069 4631 3425 4513 
z
" transform="scale(0.015625)"/>
      <path id="DejaVuSans-75" d="M 544 1381 
L 544 3500 
L 1119 3500 
L 1119 1403 
Q 1119 906 1312 657 
Q 1506 409 1894 409 
Q 2359 409 2629 706 
Q 2900 1003 2900 1516 
L 2900 3500 
L 3475 3500 
L 3475 0 
L 2900 0 
L 2900 538 
Q 2691 219 2414 64 
Q 2138 -91 1772 -91 
Q 1169 -91 856 284 
Q 544 659 544 1381 
z
M 1991 3584 
L 1991 3584 
z
" transform="scale(0.015625)"/>
      <path id="DejaVuSans-63" d="M 3122 3366 
L 3122 2828 
Q 2878 2963 2633 3030 
Q 2388 3097 2138 3097 
Q 1578 3097 1268 2742 
Q 959 2388 959 1747 
Q 959 1106 1268 751 
Q 1578 397 2138 397 
Q 2388 397 2633 464 
Q 2878 531 3122 666 
L 3122 134 
Q 2881 22 2623 -34 
Q 2366 -91 2075 -91 
Q 1284 -91 818 406 
Q 353 903 353 1747 
Q 353 2603 823 3093 
Q 1294 3584 2113 3584 
Q 2378 3584 2631 3529 
Q 2884 3475 3122 3366 
z
" transform="scale(0.015625)"/>
     </defs>
     <use xlink:href="#DejaVuSans-42"/>
     <use xlink:href="#DejaVuSans-69" x="68.603516"/>
     <use xlink:href="#DejaVuSans-6f" x="96.386719"/>
     <use xlink:href="#DejaVuSans-6d" x="157.568359"/>
     <use xlink:href="#DejaVuSans-61" x="254.980469"/>
     <use xlink:href="#DejaVuSans-73" x="316.259766"/>
     <use xlink:href="#DejaVuSans-73" x="368.359375"/>
     <use xlink:href="#DejaVuSans-53" x="420.458984"/>
     <use xlink:href="#DejaVuSans-75" x="483.935547"/>
     <use xlink:href="#DejaVuSans-63" x="547.314453"/>
     <use xlink:href="#DejaVuSans-63" x="602.294922"/>
     <use xlink:href="#DejaVuSans-65" x="657.275391"/>
     <use xlink:href="#DejaVuSans-73" x="718.798828"/>
     <use xlink:href="#DejaVuSans-73" x="770.898438"/>
     <use xlink:href="#DejaVuSans-69" x="822.998047"/>
     <use xlink:href="#DejaVuSans-6f" x="850.78125"/>
     <use xlink:href="#DejaVuSans-6e" x="911.962891"/>
    </g>
   </g>
  </g>
 </g>
 <defs>
  <clipPath id="p91e20b090f">
   <rect x="72" y="48.9888" width="380.930233" height="186.8832"/>
  </clipPath>
  <clipPath id="pd75d2790ca">
   <rect x="510.069767" y="48.9888" width="380.930233" height="186.8832"/>
  </clipPath>
 </defs>
</svg>
