<?xml version="1.0" encoding="utf-8" standalone="no"?>
<!DOCTYPE svg PUBLIC "-//W3C//DTD SVG 1.1//EN"
  "http://www.w3.org/Graphics/SVG/1.1/DTD/svg11.dtd">
<svg xmlns:xlink="http://www.w3.org/1999/xlink" width="900pt" height="302.4pt" viewBox="0 0 900 302.4" xmlns="http://www.w3.org/2000/svg" version="1.1">
 <metadata>
  <rdf:RDF xmlns:dc="http://purl.org/dc/elements/1.1/" xmlns:cc="http://creativecommons.org/ns#" xmlns:rdf="http://www.w3.org/1999/02/22-rdf-syntax-ns#">
   <cc:Work>
    <dc:type rdf:resource="http://purl.org/dc/dcmitype/StillImage"/>
    <dc:date>2024-03-04T14:47:01.220519</dc:date>
    <dc:format>image/svg+xml</dc:format>
    <dc:creator>
     <cc:Agent>
      <dc:title>Matplotlib v3.7.1, https://matplotlib.org/</dc:title>
     </cc:Agent>
    </dc:creator>
   </cc:Work>
  </rdf:RDF>
 </metadata>
 <defs>
  <style type="text/css">*{stroke-linejoin: round; stroke-linecap: butt}</style>
 </defs>
 <g id="figure_1">
  <g id="patch_1">
   <path d="M 0 302.4 
L 900 302.4 
L 900 0 
L 0 0 
z
" style="fill: #ffffff"/>
  </g>
  <g id="axes_1">
   <g id="patch_2">
    <path d="M 72 235.872 
L 452.930233 235.872 
L 452.930233 48.9888 
L 72 48.9888 
z
" style="fill: #fcfcfc"/>
   </g>
   <g id="matplotlib.axis_1">
    <g id="xtick_1">
     <g id="line2d_1">
      <path d="M 89.315011 235.872 
L 89.315011 48.9888 
" clip-path="url(#p56f91ff352)" style="fill: none; stroke: #dcdcdc; stroke-width: 0.5; stroke-linecap: square"/>
     </g>
     <g id="line2d_2">
      <defs>
       <path id="m15a92f31ae" d="M 0 0 
L 0 3.5 
" style="stroke: #000000; stroke-width: 0.8"/>
      </defs>
      <g>
       <use xlink:href="#m15a92f31ae" x="89.315011" y="235.872" style="stroke: #000000; stroke-width: 0.8"/>
      </g>
     </g>
     <g id="text_1">
      <!-- 0 -->
      <g transform="translate(85.179386 252.749969) scale(0.13 -0.13)">
       <defs>
        <path id="DejaVuSans-30" d="M 2034 4250 
Q 1547 4250 1301 3770 
Q 1056 3291 1056 2328 
Q 1056 1369 1301 889 
Q 1547 409 2034 409 
Q 2525 409 2770 889 
Q 3016 1369 3016 2328 
Q 3016 3291 2770 3770 
Q 2525 4250 2034 4250 
z
M 2034 4750 
Q 2819 4750 3233 4129 
Q 3647 3509 3647 2328 
Q 3647 1150 3233 529 
Q 2819 -91 2034 -91 
Q 1250 -91 836 529 
Q 422 1150 422 2328 
Q 422 3509 836 4129 
Q 1250 4750 2034 4750 
z
" transform="scale(0.015625)"/>
       </defs>
       <use xlink:href="#DejaVuSans-30"/>
      </g>
     </g>
    </g>
    <g id="xtick_2">
     <g id="line2d_3">
      <path d="M 175.890063 235.872 
L 175.890063 48.9888 
" clip-path="url(#p56f91ff352)" style="fill: none; stroke: #dcdcdc; stroke-width: 0.5; stroke-linecap: square"/>
     </g>
     <g id="line2d_4">
      <g>
       <use xlink:href="#m15a92f31ae" x="175.890063" y="235.872" style="stroke: #000000; stroke-width: 0.8"/>
      </g>
     </g>
     <g id="text_2">
      <!-- 25 -->
      <g transform="translate(167.618813 252.749969) scale(0.13 -0.13)">
       <defs>
        <path id="DejaVuSans-32" d="M 1228 531 
L 3431 531 
L 3431 0 
L 469 0 
L 469 531 
Q 828 903 1448 1529 
Q 2069 2156 2228 2338 
Q 2531 2678 2651 2914 
Q 2772 3150 2772 3378 
Q 2772 3750 2511 3984 
Q 2250 4219 1831 4219 
Q 1534 4219 1204 4116 
Q 875 4013 500 3803 
L 500 4441 
Q 881 4594 1212 4672 
Q 1544 4750 1819 4750 
Q 2544 4750 2975 4387 
Q 3406 4025 3406 3419 
Q 3406 3131 3298 2873 
Q 3191 2616 2906 2266 
Q 2828 2175 2409 1742 
Q 1991 1309 1228 531 
z
" transform="scale(0.015625)"/>
        <path id="DejaVuSans-35" d="M 691 4666 
L 3169 4666 
L 3169 4134 
L 1269 4134 
L 1269 2991 
Q 1406 3038 1543 3061 
Q 1681 3084 1819 3084 
Q 2600 3084 3056 2656 
Q 3513 2228 3513 1497 
Q 3513 744 3044 326 
Q 2575 -91 1722 -91 
Q 1428 -91 1123 -41 
Q 819 9 494 109 
L 494 744 
Q 775 591 1075 516 
Q 1375 441 1709 441 
Q 2250 441 2565 725 
Q 2881 1009 2881 1497 
Q 2881 1984 2565 2268 
Q 2250 2553 1709 2553 
Q 1456 2553 1204 2497 
Q 953 2441 691 2322 
L 691 4666 
z
" transform="scale(0.015625)"/>
       </defs>
       <use xlink:href="#DejaVuSans-32"/>
       <use xlink:href="#DejaVuSans-35" x="63.623047"/>
      </g>
     </g>
    </g>
    <g id="xtick_3">
     <g id="line2d_5">
      <path d="M 262.465116 235.872 
L 262.465116 48.9888 
" clip-path="url(#p56f91ff352)" style="fill: none; stroke: #dcdcdc; stroke-width: 0.5; stroke-linecap: square"/>
     </g>
     <g id="line2d_6">
      <g>
       <use xlink:href="#m15a92f31ae" x="262.465116" y="235.872" style="stroke: #000000; stroke-width: 0.8"/>
      </g>
     </g>
     <g id="text_3">
      <!-- 50 -->
      <g transform="translate(254.193866 252.749969) scale(0.13 -0.13)">
       <use xlink:href="#DejaVuSans-35"/>
       <use xlink:href="#DejaVuSans-30" x="63.623047"/>
      </g>
     </g>
    </g>
    <g id="xtick_4">
     <g id="line2d_7">
      <path d="M 349.040169 235.872 
L 349.040169 48.9888 
" clip-path="url(#p56f91ff352)" style="fill: none; stroke: #dcdcdc; stroke-width: 0.5; stroke-linecap: square"/>
     </g>
     <g id="line2d_8">
      <g>
       <use xlink:href="#m15a92f31ae" x="349.040169" y="235.872" style="stroke: #000000; stroke-width: 0.8"/>
      </g>
     </g>
     <g id="text_4">
      <!-- 75 -->
      <g transform="translate(340.768919 252.749969) scale(0.13 -0.13)">
       <defs>
        <path id="DejaVuSans-37" d="M 525 4666 
L 3525 4666 
L 3525 4397 
L 1831 0 
L 1172 0 
L 2766 4134 
L 525 4134 
L 525 4666 
z
" transform="scale(0.015625)"/>
       </defs>
       <use xlink:href="#DejaVuSans-37"/>
       <use xlink:href="#DejaVuSans-35" x="63.623047"/>
      </g>
     </g>
    </g>
    <g id="xtick_5">
     <g id="line2d_9">
      <path d="M 435.615222 235.872 
L 435.615222 48.9888 
" clip-path="url(#p56f91ff352)" style="fill: none; stroke: #dcdcdc; stroke-width: 0.5; stroke-linecap: square"/>
     </g>
     <g id="line2d_10">
      <g>
       <use xlink:href="#m15a92f31ae" x="435.615222" y="235.872" style="stroke: #000000; stroke-width: 0.8"/>
      </g>
     </g>
     <g id="text_5">
      <!-- 100 -->
      <g transform="translate(423.208347 252.749969) scale(0.13 -0.13)">
       <defs>
        <path id="DejaVuSans-31" d="M 794 531 
L 1825 531 
L 1825 4091 
L 703 3866 
L 703 4441 
L 1819 4666 
L 2450 4666 
L 2450 531 
L 3481 531 
L 3481 0 
L 794 0 
L 794 531 
z
" transform="scale(0.015625)"/>
       </defs>
       <use xlink:href="#DejaVuSans-31"/>
       <use xlink:href="#DejaVuSans-30" x="63.623047"/>
       <use xlink:href="#DejaVuSans-30" x="127.246094"/>
      </g>
     </g>
    </g>
    <g id="text_6">
     <!-- Time step -->
     <g transform="translate(225.507694 270.851219) scale(0.15 -0.15)">
      <defs>
       <path id="DejaVuSans-54" d="M -19 4666 
L 3928 4666 
L 3928 4134 
L 2272 4134 
L 2272 0 
L 1638 0 
L 1638 4134 
L -19 4134 
L -19 4666 
z
" transform="scale(0.015625)"/>
       <path id="DejaVuSans-69" d="M 603 3500 
L 1178 3500 
L 1178 0 
L 603 0 
L 603 3500 
z
M 603 4863 
L 1178 4863 
L 1178 4134 
L 603 4134 
L 603 4863 
z
" transform="scale(0.015625)"/>
       <path id="DejaVuSans-6d" d="M 3328 2828 
Q 3544 3216 3844 3400 
Q 4144 3584 4550 3584 
Q 5097 3584 5394 3201 
Q 5691 2819 5691 2113 
L 5691 0 
L 5113 0 
L 5113 2094 
Q 5113 2597 4934 2840 
Q 4756 3084 4391 3084 
Q 3944 3084 3684 2787 
Q 3425 2491 3425 1978 
L 3425 0 
L 2847 0 
L 2847 2094 
Q 2847 2600 2669 2842 
Q 2491 3084 2119 3084 
Q 1678 3084 1418 2786 
Q 1159 2488 1159 1978 
L 1159 0 
L 581 0 
L 581 3500 
L 1159 3500 
L 1159 2956 
Q 1356 3278 1631 3431 
Q 1906 3584 2284 3584 
Q 2666 3584 2933 3390 
Q 3200 3197 3328 2828 
z
" transform="scale(0.015625)"/>
       <path id="DejaVuSans-65" d="M 3597 1894 
L 3597 1613 
L 953 1613 
Q 991 1019 1311 708 
Q 1631 397 2203 397 
Q 2534 397 2845 478 
Q 3156 559 3463 722 
L 3463 178 
Q 3153 47 2828 -22 
Q 2503 -91 2169 -91 
Q 1331 -91 842 396 
Q 353 884 353 1716 
Q 353 2575 817 3079 
Q 1281 3584 2069 3584 
Q 2775 3584 3186 3129 
Q 3597 2675 3597 1894 
z
M 3022 2063 
Q 3016 2534 2758 2815 
Q 2500 3097 2075 3097 
Q 1594 3097 1305 2825 
Q 1016 2553 972 2059 
L 3022 2063 
z
" transform="scale(0.015625)"/>
       <path id="DejaVuSans-20" transform="scale(0.015625)"/>
       <path id="DejaVuSans-73" d="M 2834 3397 
L 2834 2853 
Q 2591 2978 2328 3040 
Q 2066 3103 1784 3103 
Q 1356 3103 1142 2972 
Q 928 2841 928 2578 
Q 928 2378 1081 2264 
Q 1234 2150 1697 2047 
L 1894 2003 
Q 2506 1872 2764 1633 
Q 3022 1394 3022 966 
Q 3022 478 2636 193 
Q 2250 -91 1575 -91 
Q 1294 -91 989 -36 
Q 684 19 347 128 
L 347 722 
Q 666 556 975 473 
Q 1284 391 1588 391 
Q 1994 391 2212 530 
Q 2431 669 2431 922 
Q 2431 1156 2273 1281 
Q 2116 1406 1581 1522 
L 1381 1569 
Q 847 1681 609 1914 
Q 372 2147 372 2553 
Q 372 3047 722 3315 
Q 1072 3584 1716 3584 
Q 2034 3584 2315 3537 
Q 2597 3491 2834 3397 
z
" transform="scale(0.015625)"/>
       <path id="DejaVuSans-74" d="M 1172 4494 
L 1172 3500 
L 2356 3500 
L 2356 3053 
L 1172 3053 
L 1172 1153 
Q 1172 725 1289 603 
Q 1406 481 1766 481 
L 2356 481 
L 2356 0 
L 1766 0 
Q 1100 0 847 248 
Q 594 497 594 1153 
L 594 3053 
L 172 3053 
L 172 3500 
L 594 3500 
L 594 4494 
L 1172 4494 
z
" transform="scale(0.015625)"/>
       <path id="DejaVuSans-70" d="M 1159 525 
L 1159 -1331 
L 581 -1331 
L 581 3500 
L 1159 3500 
L 1159 2969 
Q 1341 3281 1617 3432 
Q 1894 3584 2278 3584 
Q 2916 3584 3314 3078 
Q 3713 2572 3713 1747 
Q 3713 922 3314 415 
Q 2916 -91 2278 -91 
Q 1894 -91 1617 61 
Q 1341 213 1159 525 
z
M 3116 1747 
Q 3116 2381 2855 2742 
Q 2594 3103 2138 3103 
Q 1681 3103 1420 2742 
Q 1159 2381 1159 1747 
Q 1159 1113 1420 752 
Q 1681 391 2138 391 
Q 2594 391 2855 752 
Q 3116 1113 3116 1747 
z
" transform="scale(0.015625)"/>
      </defs>
      <use xlink:href="#DejaVuSans-54"/>
      <use xlink:href="#DejaVuSans-69" x="57.958984"/>
      <use xlink:href="#DejaVuSans-6d" x="85.742188"/>
      <use xlink:href="#DejaVuSans-65" x="183.154297"/>
      <use xlink:href="#DejaVuSans-20" x="244.677734"/>
      <use xlink:href="#DejaVuSans-73" x="276.464844"/>
      <use xlink:href="#DejaVuSans-74" x="328.564453"/>
      <use xlink:href="#DejaVuSans-65" x="367.773438"/>
      <use xlink:href="#DejaVuSans-70" x="429.296875"/>
     </g>
    </g>
   </g>
   <g id="matplotlib.axis_2">
    <g id="ytick_1">
     <g id="line2d_11">
      <path d="M 72 235.872 
L 452.930233 235.872 
" clip-path="url(#p56f91ff352)" style="fill: none; stroke: #dcdcdc; stroke-width: 0.5; stroke-linecap: square"/>
     </g>
     <g id="line2d_12">
      <defs>
       <path id="m0a1f0cdfb9" d="M 0 0 
L -3.5 0 
" style="stroke: #000000; stroke-width: 0.8"/>
      </defs>
      <g>
       <use xlink:href="#m0a1f0cdfb9" x="72" y="235.872" style="stroke: #000000; stroke-width: 0.8"/>
      </g>
     </g>
     <g id="text_7">
      <!-- 0 -->
      <g transform="translate(56.72875 240.810984) scale(0.13 -0.13)">
       <use xlink:href="#DejaVuSans-30"/>
      </g>
     </g>
    </g>
    <g id="ytick_2">
     <g id="line2d_13">
      <path d="M 72 178.852949 
L 452.930233 178.852949 
" clip-path="url(#p56f91ff352)" style="fill: none; stroke: #dcdcdc; stroke-width: 0.5; stroke-linecap: square"/>
     </g>
     <g id="line2d_14">
      <g>
       <use xlink:href="#m0a1f0cdfb9" x="72" y="178.852949" style="stroke: #000000; stroke-width: 0.8"/>
      </g>
     </g>
     <g id="text_8">
      <!-- 1 -->
      <g transform="translate(56.72875 183.791933) scale(0.13 -0.13)">
       <use xlink:href="#DejaVuSans-31"/>
      </g>
     </g>
    </g>
    <g id="ytick_3">
     <g id="line2d_15">
      <path d="M 72 121.833898 
L 452.930233 121.833898 
" clip-path="url(#p56f91ff352)" style="fill: none; stroke: #dcdcdc; stroke-width: 0.5; stroke-linecap: square"/>
     </g>
     <g id="line2d_16">
      <g>
       <use xlink:href="#m0a1f0cdfb9" x="72" y="121.833898" style="stroke: #000000; stroke-width: 0.8"/>
      </g>
     </g>
     <g id="text_9">
      <!-- 2 -->
      <g transform="translate(56.72875 126.772883) scale(0.13 -0.13)">
       <use xlink:href="#DejaVuSans-32"/>
      </g>
     </g>
    </g>
    <g id="ytick_4">
     <g id="line2d_17">
      <path d="M 72 64.814847 
L 452.930233 64.814847 
" clip-path="url(#p56f91ff352)" style="fill: none; stroke: #dcdcdc; stroke-width: 0.5; stroke-linecap: square"/>
     </g>
     <g id="line2d_18">
      <g>
       <use xlink:href="#m0a1f0cdfb9" x="72" y="64.814847" style="stroke: #000000; stroke-width: 0.8"/>
      </g>
     </g>
     <g id="text_10">
      <!-- 3 -->
      <g transform="translate(56.72875 69.753832) scale(0.13 -0.13)">
       <defs>
        <path id="DejaVuSans-33" d="M 2597 2516 
Q 3050 2419 3304 2112 
Q 3559 1806 3559 1356 
Q 3559 666 3084 287 
Q 2609 -91 1734 -91 
Q 1441 -91 1130 -33 
Q 819 25 488 141 
L 488 750 
Q 750 597 1062 519 
Q 1375 441 1716 441 
Q 2309 441 2620 675 
Q 2931 909 2931 1356 
Q 2931 1769 2642 2001 
Q 2353 2234 1838 2234 
L 1294 2234 
L 1294 2753 
L 1863 2753 
Q 2328 2753 2575 2939 
Q 2822 3125 2822 3475 
Q 2822 3834 2567 4026 
Q 2313 4219 1838 4219 
Q 1578 4219 1281 4162 
Q 984 4106 628 3988 
L 628 4550 
Q 988 4650 1302 4700 
Q 1616 4750 1894 4750 
Q 2613 4750 3031 4423 
Q 3450 4097 3450 3541 
Q 3450 3153 3228 2886 
Q 3006 2619 2597 2516 
z
" transform="scale(0.015625)"/>
       </defs>
       <use xlink:href="#DejaVuSans-33"/>
      </g>
     </g>
    </g>
    <g id="text_11">
     <!-- Biomass POPU.TRE -->
     <g transform="translate(49.609219 213.700322) rotate(-90) scale(0.15 -0.15)">
      <defs>
       <path id="DejaVuSans-42" d="M 1259 2228 
L 1259 519 
L 2272 519 
Q 2781 519 3026 730 
Q 3272 941 3272 1375 
Q 3272 1813 3026 2020 
Q 2781 2228 2272 2228 
L 1259 2228 
z
M 1259 4147 
L 1259 2741 
L 2194 2741 
Q 2656 2741 2882 2914 
Q 3109 3088 3109 3444 
Q 3109 3797 2882 3972 
Q 2656 4147 2194 4147 
L 1259 4147 
z
M 628 4666 
L 2241 4666 
Q 2963 4666 3353 4366 
Q 3744 4066 3744 3513 
Q 3744 3084 3544 2831 
Q 3344 2578 2956 2516 
Q 3422 2416 3680 2098 
Q 3938 1781 3938 1306 
Q 3938 681 3513 340 
Q 3088 0 2303 0 
L 628 0 
L 628 4666 
z
" transform="scale(0.015625)"/>
       <path id="DejaVuSans-6f" d="M 1959 3097 
Q 1497 3097 1228 2736 
Q 959 2375 959 1747 
Q 959 1119 1226 758 
Q 1494 397 1959 397 
Q 2419 397 2687 759 
Q 2956 1122 2956 1747 
Q 2956 2369 2687 2733 
Q 2419 3097 1959 3097 
z
M 1959 3584 
Q 2709 3584 3137 3096 
Q 3566 2609 3566 1747 
Q 3566 888 3137 398 
Q 2709 -91 1959 -91 
Q 1206 -91 779 398 
Q 353 888 353 1747 
Q 353 2609 779 3096 
Q 1206 3584 1959 3584 
z
" transform="scale(0.015625)"/>
       <path id="DejaVuSans-61" d="M 2194 1759 
Q 1497 1759 1228 1600 
Q 959 1441 959 1056 
Q 959 750 1161 570 
Q 1363 391 1709 391 
Q 2188 391 2477 730 
Q 2766 1069 2766 1631 
L 2766 1759 
L 2194 1759 
z
M 3341 1997 
L 3341 0 
L 2766 0 
L 2766 531 
Q 2569 213 2275 61 
Q 1981 -91 1556 -91 
Q 1019 -91 701 211 
Q 384 513 384 1019 
Q 384 1609 779 1909 
Q 1175 2209 1959 2209 
L 2766 2209 
L 2766 2266 
Q 2766 2663 2505 2880 
Q 2244 3097 1772 3097 
Q 1472 3097 1187 3025 
Q 903 2953 641 2809 
L 641 3341 
Q 956 3463 1253 3523 
Q 1550 3584 1831 3584 
Q 2591 3584 2966 3190 
Q 3341 2797 3341 1997 
z
" transform="scale(0.015625)"/>
       <path id="DejaVuSans-50" d="M 1259 4147 
L 1259 2394 
L 2053 2394 
Q 2494 2394 2734 2622 
Q 2975 2850 2975 3272 
Q 2975 3691 2734 3919 
Q 2494 4147 2053 4147 
L 1259 4147 
z
M 628 4666 
L 2053 4666 
Q 2838 4666 3239 4311 
Q 3641 3956 3641 3272 
Q 3641 2581 3239 2228 
Q 2838 1875 2053 1875 
L 1259 1875 
L 1259 0 
L 628 0 
L 628 4666 
z
" transform="scale(0.015625)"/>
       <path id="DejaVuSans-4f" d="M 2522 4238 
Q 1834 4238 1429 3725 
Q 1025 3213 1025 2328 
Q 1025 1447 1429 934 
Q 1834 422 2522 422 
Q 3209 422 3611 934 
Q 4013 1447 4013 2328 
Q 4013 3213 3611 3725 
Q 3209 4238 2522 4238 
z
M 2522 4750 
Q 3503 4750 4090 4092 
Q 4678 3434 4678 2328 
Q 4678 1225 4090 567 
Q 3503 -91 2522 -91 
Q 1538 -91 948 565 
Q 359 1222 359 2328 
Q 359 3434 948 4092 
Q 1538 4750 2522 4750 
z
" transform="scale(0.015625)"/>
       <path id="DejaVuSans-55" d="M 556 4666 
L 1191 4666 
L 1191 1831 
Q 1191 1081 1462 751 
Q 1734 422 2344 422 
Q 2950 422 3222 751 
Q 3494 1081 3494 1831 
L 3494 4666 
L 4128 4666 
L 4128 1753 
Q 4128 841 3676 375 
Q 3225 -91 2344 -91 
Q 1459 -91 1007 375 
Q 556 841 556 1753 
L 556 4666 
z
" transform="scale(0.015625)"/>
       <path id="DejaVuSans-2e" d="M 684 794 
L 1344 794 
L 1344 0 
L 684 0 
L 684 794 
z
" transform="scale(0.015625)"/>
       <path id="DejaVuSans-52" d="M 2841 2188 
Q 3044 2119 3236 1894 
Q 3428 1669 3622 1275 
L 4263 0 
L 3584 0 
L 2988 1197 
Q 2756 1666 2539 1819 
Q 2322 1972 1947 1972 
L 1259 1972 
L 1259 0 
L 628 0 
L 628 4666 
L 2053 4666 
Q 2853 4666 3247 4331 
Q 3641 3997 3641 3322 
Q 3641 2881 3436 2590 
Q 3231 2300 2841 2188 
z
M 1259 4147 
L 1259 2491 
L 2053 2491 
Q 2509 2491 2742 2702 
Q 2975 2913 2975 3322 
Q 2975 3731 2742 3939 
Q 2509 4147 2053 4147 
L 1259 4147 
z
" transform="scale(0.015625)"/>
       <path id="DejaVuSans-45" d="M 628 4666 
L 3578 4666 
L 3578 4134 
L 1259 4134 
L 1259 2753 
L 3481 2753 
L 3481 2222 
L 1259 2222 
L 1259 531 
L 3634 531 
L 3634 0 
L 628 0 
L 628 4666 
z
" transform="scale(0.015625)"/>
      </defs>
      <use xlink:href="#DejaVuSans-42"/>
      <use xlink:href="#DejaVuSans-69" x="68.603516"/>
      <use xlink:href="#DejaVuSans-6f" x="96.386719"/>
      <use xlink:href="#DejaVuSans-6d" x="157.568359"/>
      <use xlink:href="#DejaVuSans-61" x="254.980469"/>
      <use xlink:href="#DejaVuSans-73" x="316.259766"/>
      <use xlink:href="#DejaVuSans-73" x="368.359375"/>
      <use xlink:href="#DejaVuSans-20" x="420.458984"/>
      <use xlink:href="#DejaVuSans-50" x="452.246094"/>
      <use xlink:href="#DejaVuSans-4f" x="512.548828"/>
      <use xlink:href="#DejaVuSans-50" x="591.259766"/>
      <use xlink:href="#DejaVuSans-55" x="651.5625"/>
      <use xlink:href="#DejaVuSans-2e" x="724.755859"/>
      <use xlink:href="#DejaVuSans-54" x="756.542969"/>
      <use xlink:href="#DejaVuSans-52" x="817.626953"/>
      <use xlink:href="#DejaVuSans-45" x="887.109375"/>
     </g>
    </g>
    <g id="text_12">
     <!-- 1e4 -->
     <g transform="translate(72 45.9888) scale(0.12 -0.12)">
      <defs>
       <path id="DejaVuSans-34" d="M 2419 4116 
L 825 1625 
L 2419 1625 
L 2419 4116 
z
M 2253 4666 
L 3047 4666 
L 3047 1625 
L 3713 1625 
L 3713 1100 
L 3047 1100 
L 3047 0 
L 2419 0 
L 2419 1100 
L 313 1100 
L 313 1709 
L 2253 4666 
z
" transform="scale(0.015625)"/>
      </defs>
      <use xlink:href="#DejaVuSans-31"/>
      <use xlink:href="#DejaVuSans-65" x="63.623047"/>
      <use xlink:href="#DejaVuSans-34" x="125.146484"/>
     </g>
    </g>
   </g>
   <g id="PolyCollection_1">
    <defs>
     <path id="m4169d883af" d="M 89.315011 -70.892592 
L 89.315011 -71.035247 
L 106.630021 -74.506245 
L 123.945032 -80.945046 
L 141.260042 -91.207567 
L 158.575053 -102.336797 
L 175.890063 -124.083581 
L 193.205074 -143.810713 
L 210.520085 -161.914989 
L 227.835095 -175.980099 
L 245.150106 -186.613589 
L 262.465116 -200.61368 
L 279.780127 -218.487669 
L 297.095137 -218.601037 
L 314.410148 -226.906765 
L 331.725159 -231.409333 
L 349.040169 -231.201417 
L 366.35518 -237.552165 
L 383.67019 -240.135609 
L 400.985201 -244.512 
L 418.300211 -243.30045 
L 435.615222 -198.488347 
L 435.615222 -69.684666 
L 435.615222 -69.684666 
L 418.300211 -159.012432 
L 400.985201 -164.310177 
L 383.67019 -195.523535 
L 366.35518 -188.527235 
L 349.040169 -195.535169 
L 331.725159 -191.064617 
L 314.410148 -184.079204 
L 297.095137 -175.867544 
L 279.780127 -175.064372 
L 262.465116 -197.871975 
L 245.150106 -183.521868 
L 227.835095 -173.693991 
L 210.520085 -159.674449 
L 193.205074 -141.655581 
L 175.890063 -122.377121 
L 158.575053 -100.95527 
L 141.260042 -90.19809 
L 123.945032 -80.35439 
L 106.630021 -74.213377 
L 89.315011 -70.892592 
z
"/>
    </defs>
    <g clip-path="url(#p56f91ff352)">
     <use xlink:href="#m4169d883af" x="0" y="302.4" style="fill: #fcffa4; fill-opacity: 0.3"/>
    </g>
   </g>
   <g id="PolyCollection_2">
    <defs>
     <path id="ma779ad173d" d="M 89.315011 -70.486512 
L 89.315011 -70.900865 
L 106.630021 -73.928981 
L 123.945032 -79.050757 
L 141.260042 -86.580772 
L 158.575053 -94.187922 
L 175.890063 -110.307277 
L 193.205074 -122.387005 
L 210.520085 -134.127434 
L 227.835095 -150.70714 
L 245.150106 -163.151511 
L 262.465116 -179.623392 
L 279.780127 -182.010136 
L 297.095137 -183.993471 
L 314.410148 -196.258542 
L 331.725159 -204.987799 
L 349.040169 -209.668331 
L 366.35518 -214.171202 
L 383.67019 -220.210247 
L 400.985201 -216.414097 
L 418.300211 -216.348898 
L 435.615222 -192.447673 
L 435.615222 -63.735019 
L 435.615222 -63.735019 
L 418.300211 -83.255866 
L 400.985201 -83.881862 
L 383.67019 -87.577583 
L 366.35518 -86.773417 
L 349.040169 -86.078987 
L 331.725159 -86.618764 
L 314.410148 -86.460569 
L 297.095137 -85.688928 
L 279.780127 -91.258114 
L 262.465116 -102.178298 
L 245.150106 -99.351913 
L 227.835095 -111.453738 
L 210.520085 -117.184475 
L 193.205074 -110.807147 
L 175.890063 -102.550059 
L 158.575053 -90.869699 
L 141.260042 -84.27029 
L 123.945032 -77.76838 
L 106.630021 -73.202896 
L 89.315011 -70.486512 
z
"/>
    </defs>
    <g clip-path="url(#p56f91ff352)">
     <use xlink:href="#ma779ad173d" x="0" y="302.4" style="fill: #f98e09; fill-opacity: 0.3"/>
    </g>
   </g>
   <g id="PolyCollection_3">
    <defs>
     <path id="m78348f5085" d="M 89.315011 -70.263612 
L 89.315011 -70.771468 
L 106.630021 -73.458982 
L 123.945032 -77.70916 
L 141.260042 -83.903151 
L 158.575053 -89.886059 
L 175.890063 -101.062887 
L 193.205074 -109.261553 
L 210.520085 -117.755318 
L 227.835095 -125.520923 
L 245.150106 -124.842471 
L 262.465116 -135.12428 
L 279.780127 -133.815065 
L 297.095137 -134.072702 
L 314.410148 -142.86238 
L 331.725159 -147.871739 
L 349.040169 -151.130903 
L 366.35518 -154.62771 
L 383.67019 -159.601029 
L 400.985201 -156.267588 
L 418.300211 -156.917941 
L 435.615222 -141.728441 
L 435.615222 -43.416086 
L 435.615222 -43.416086 
L 418.300211 -45.812922 
L 400.985201 -46.651967 
L 383.67019 -49.067784 
L 366.35518 -50.119551 
L 349.040169 -51.449898 
L 331.725159 -53.098973 
L 314.410148 -56.054664 
L 297.095137 -57.394218 
L 279.780127 -60.598003 
L 262.465116 -65.843336 
L 245.150106 -68.200289 
L 227.835095 -83.583008 
L 210.520085 -97.198127 
L 193.205074 -97.312848 
L 175.890063 -92.836178 
L 158.575053 -85.326164 
L 141.260042 -80.953054 
L 123.945032 -76.018399 
L 106.630021 -72.531355 
L 89.315011 -70.263612 
z
"/>
    </defs>
    <g clip-path="url(#p56f91ff352)">
     <use xlink:href="#m78348f5085" x="0" y="302.4" style="fill: #bc3754; fill-opacity: 0.3"/>
    </g>
   </g>
   <g id="PolyCollection_4">
    <defs>
     <path id="m0523320ee0" d="M 89.315011 -70.061811 
L 89.315011 -70.628826 
L 106.630021 -73.008977 
L 123.945032 -76.552392 
L 141.260042 -81.930624 
L 158.575053 -86.274074 
L 175.890063 -95.057952 
L 193.205074 -101.078185 
L 210.520085 -107.211937 
L 227.835095 -110.401122 
L 245.150106 -107.155539 
L 262.465116 -112.158727 
L 279.780127 -106.576398 
L 297.095137 -103.432847 
L 314.410148 -107.427689 
L 331.725159 -110.368105 
L 349.040169 -111.466315 
L 366.35518 -112.816593 
L 383.67019 -115.66773 
L 400.985201 -111.847265 
L 418.300211 -111.671778 
L 435.615222 -103.087334 
L 435.615222 -46.582703 
L 435.615222 -46.582703 
L 418.300211 -45.0932 
L 400.985201 -46.046062 
L 383.67019 -47.292661 
L 366.35518 -48.815783 
L 349.040169 -50.294104 
L 331.725159 -51.847352 
L 314.410148 -53.652188 
L 297.095137 -55.77086 
L 279.780127 -58.396038 
L 262.465116 -63.214812 
L 245.150106 -64.92207 
L 227.835095 -74.272181 
L 210.520085 -83.989948 
L 193.205074 -88.052722 
L 175.890063 -86.656391 
L 158.575053 -81.819518 
L 141.260042 -78.922264 
L 123.945032 -74.844536 
L 106.630021 -72.019852 
L 89.315011 -70.061811 
z
"/>
    </defs>
    <g clip-path="url(#p56f91ff352)">
     <use xlink:href="#m0523320ee0" x="0" y="302.4" style="fill: #57106e; fill-opacity: 0.3"/>
    </g>
   </g>
   <g id="PolyCollection_5">
    <defs>
     <path id="mc160fec29d" d="M 89.315011 -69.872995 
L 89.315011 -70.499302 
L 106.630021 -72.606771 
L 123.945032 -75.656295 
L 141.260042 -79.957175 
L 158.575053 -83.206779 
L 175.890063 -90.071979 
L 193.205074 -95.33639 
L 210.520085 -99.900488 
L 227.835095 -101.393672 
L 245.150106 -97.259003 
L 262.465116 -100.229778 
L 279.780127 -95.394064 
L 297.095137 -92.780992 
L 314.410148 -95.238889 
L 331.725159 -95.892966 
L 349.040169 -96.604029 
L 366.35518 -96.749309 
L 383.67019 -98.129051 
L 400.985201 -95.974933 
L 418.300211 -94.877681 
L 435.615222 -91.044368 
L 435.615222 -50.569645 
L 435.615222 -50.569645 
L 418.300211 -50.012349 
L 400.985201 -50.543174 
L 383.67019 -50.648606 
L 366.35518 -51.670816 
L 349.040169 -52.847479 
L 331.725159 -53.927091 
L 314.410148 -55.419759 
L 297.095137 -56.983369 
L 279.780127 -58.248892 
L 262.465116 -61.084384 
L 245.150106 -62.765365 
L 227.835095 -69.671273 
L 210.520085 -77.177686 
L 193.205074 -83.05158 
L 175.890063 -82.915785 
L 158.575053 -79.08615 
L 141.260042 -77.064114 
L 123.945032 -73.989718 
L 106.630021 -71.586646 
L 89.315011 -69.872995 
z
"/>
    </defs>
    <g clip-path="url(#p56f91ff352)">
     <use xlink:href="#mc160fec29d" x="0" y="302.4" style="fill: #000004; fill-opacity: 0.3"/>
    </g>
   </g>
   <g id="line2d_19">
    <path d="M 89.315011 231.436081 
L 106.630021 228.040189 
L 123.945032 221.750282 
L 141.260042 211.697171 
L 158.575053 200.753967 
L 175.890063 179.169649 
L 193.205074 159.666853 
L 210.520085 141.605281 
L 227.835095 127.562955 
L 245.150106 117.332271 
L 262.465116 103.157172 
L 279.780127 105.623979 
L 297.095137 105.165709 
L 314.410148 96.907016 
L 331.725159 91.163025 
L 349.040169 89.031707 
L 366.35518 89.3603 
L 383.67019 84.570428 
L 400.985201 97.988911 
L 418.300211 101.243559 
L 435.615222 168.313493 
" clip-path="url(#p56f91ff352)" style="fill: none; stroke: #fcffa4; stroke-linecap: square"/>
   </g>
   <g id="line2d_20">
    <path d="M 89.315011 231.706311 
L 106.630021 228.834061 
L 123.945032 223.990432 
L 141.260042 216.974469 
L 158.575053 209.87119 
L 175.890063 195.971332 
L 193.205074 185.802924 
L 210.520085 176.744046 
L 227.835095 171.319561 
L 245.150106 171.148288 
L 262.465116 161.499155 
L 279.780127 165.765875 
L 297.095137 167.5588 
L 314.410148 161.040444 
L 331.725159 156.596718 
L 349.040169 154.526341 
L 366.35518 151.92769 
L 383.67019 148.506085 
L 400.985201 152.252021 
L 418.300211 152.597618 
L 435.615222 174.308654 
" clip-path="url(#p56f91ff352)" style="fill: none; stroke: #f98e09; stroke-linecap: square"/>
   </g>
   <g id="line2d_21">
    <path d="M 89.315011 231.88246 
L 106.630021 229.404831 
L 123.945032 225.536221 
L 141.260042 219.971898 
L 158.575053 214.793888 
L 175.890063 205.450467 
L 193.205074 199.1128 
L 210.520085 194.923278 
L 227.835095 197.848034 
L 245.150106 205.87862 
L 262.465116 201.916192 
L 279.780127 205.193466 
L 297.095137 206.66654 
L 314.410148 202.941478 
L 331.725159 201.914644 
L 349.040169 201.109599 
L 366.35518 200.026369 
L 383.67019 198.065594 
L 400.985201 200.940222 
L 418.300211 201.034568 
L 435.615222 209.827737 
" clip-path="url(#p56f91ff352)" style="fill: none; stroke: #bc3754; stroke-linecap: square"/>
   </g>
   <g id="line2d_22">
    <path d="M 89.315011 232.054682 
L 106.630021 229.885586 
L 123.945032 226.701536 
L 141.260042 221.973556 
L 158.575053 218.353204 
L 175.890063 211.542828 
L 193.205074 207.834547 
L 210.520085 206.799058 
L 227.835095 210.063348 
L 245.150106 216.361195 
L 262.465116 214.713231 
L 279.780127 219.913782 
L 297.095137 222.798146 
L 314.410148 221.860061 
L 331.725159 221.292272 
L 349.040169 221.51979 
L 366.35518 221.583812 
L 383.67019 220.919804 
L 400.985201 223.453336 
L 418.300211 224.017511 
L 435.615222 227.564982 
" clip-path="url(#p56f91ff352)" style="fill: none; stroke: #57106e; stroke-linecap: square"/>
   </g>
   <g id="line2d_23">
    <path d="M 89.315011 232.213852 
L 106.630021 230.303291 
L 123.945032 227.576994 
L 141.260042 223.889355 
L 158.575053 221.253536 
L 175.890063 215.906118 
L 193.205074 213.206015 
L 210.520085 213.860913 
L 227.835095 216.867528 
L 245.150106 222.387816 
L 262.465116 221.742919 
L 279.780127 225.578522 
L 297.095137 227.51782 
L 314.410148 227.070676 
L 331.725159 227.489971 
L 349.040169 227.674246 
L 366.35518 228.189937 
L 383.67019 228.011171 
L 400.985201 229.140947 
L 418.300211 229.954985 
L 435.615222 231.592994 
" clip-path="url(#p56f91ff352)" style="fill: none; stroke: #000004; stroke-linecap: square"/>
   </g>
   <g id="patch_3">
    <path d="M 72 235.872 
L 72 48.9888 
" style="fill: none; stroke: #000000; stroke-width: 0.8; stroke-linejoin: miter; stroke-linecap: square"/>
   </g>
   <g id="patch_4">
    <path d="M 72 235.872 
L 452.930233 235.872 
" style="fill: none; stroke: #000000; stroke-width: 0.8; stroke-linejoin: miter; stroke-linecap: square"/>
   </g>
   <g id="text_13">
    <!-- PnET -->
    <g transform="translate(242.770116 289.674624) scale(0.16 -0.16)">
     <defs>
      <path id="DejaVuSans-6e" d="M 3513 2113 
L 3513 0 
L 2938 0 
L 2938 2094 
Q 2938 2591 2744 2837 
Q 2550 3084 2163 3084 
Q 1697 3084 1428 2787 
Q 1159 2491 1159 1978 
L 1159 0 
L 581 0 
L 581 3500 
L 1159 3500 
L 1159 2956 
Q 1366 3272 1645 3428 
Q 1925 3584 2291 3584 
Q 2894 3584 3203 3211 
Q 3513 2838 3513 2113 
z
" transform="scale(0.015625)"/>
     </defs>
     <use xlink:href="#DejaVuSans-50"/>
     <use xlink:href="#DejaVuSans-6e" x="58.552734"/>
     <use xlink:href="#DejaVuSans-45" x="121.931641"/>
     <use xlink:href="#DejaVuSans-54" x="185.115234"/>
    </g>
   </g>
   <g id="legend_1">
    <g id="patch_5">
     <path d="M 266.5125 37.164 
L 633.4875 37.164 
Q 635.8875 37.164 635.8875 34.764 
L 635.8875 11.424 
Q 635.8875 9.024 633.4875 9.024 
L 266.5125 9.024 
Q 264.1125 9.024 264.1125 11.424 
L 264.1125 34.764 
Q 264.1125 37.164 266.5125 37.164 
z
" style="fill: #ffffff; opacity: 0.8; stroke: #cccccc; stroke-linejoin: miter"/>
    </g>
    <g id="patch_6">
     <path d="M 268.9125 32.364 
L 304.9125 32.364 
L 304.9125 13.824 
L 268.9125 13.824 
z
" style="fill: #fcffa4; fill-opacity: 0.3"/>
    </g>
    <g id="line2d_24">
     <path d="M 268.9125 20.364 
L 286.9125 20.364 
L 304.9125 20.364 
" style="fill: none; stroke: #fcffa4; stroke-linecap: square"/>
    </g>
    <g id="text_14">
     <!-- 1 -->
     <g transform="translate(314.5125 26.904) scale(0.12 -0.12)">
      <use xlink:href="#DejaVuSans-31"/>
     </g>
    </g>
    <g id="patch_7">
     <path d="M 346.1475 32.364 
L 382.1475 32.364 
L 382.1475 13.824 
L 346.1475 13.824 
z
" style="fill: #f98e09; fill-opacity: 0.3"/>
    </g>
    <g id="line2d_25">
     <path d="M 346.1475 20.364 
L 364.1475 20.364 
L 382.1475 20.364 
" style="fill: none; stroke: #f98e09; stroke-linecap: square"/>
    </g>
    <g id="text_15">
     <!-- 2 -->
     <g transform="translate(391.7475 26.904) scale(0.12 -0.12)">
      <use xlink:href="#DejaVuSans-32"/>
     </g>
    </g>
    <g id="patch_8">
     <path d="M 423.3825 32.364 
L 459.3825 32.364 
L 459.3825 13.824 
L 423.3825 13.824 
z
" style="fill: #bc3754; fill-opacity: 0.3"/>
    </g>
    <g id="line2d_26">
     <path d="M 423.3825 20.364 
L 441.3825 20.364 
L 459.3825 20.364 
" style="fill: none; stroke: #bc3754; stroke-linecap: square"/>
    </g>
    <g id="text_16">
     <!-- 3 -->
     <g transform="translate(468.9825 26.904) scale(0.12 -0.12)">
      <use xlink:href="#DejaVuSans-33"/>
     </g>
    </g>
    <g id="patch_9">
     <path d="M 500.6175 32.364 
L 536.6175 32.364 
L 536.6175 13.824 
L 500.6175 13.824 
z
" style="fill: #57106e; fill-opacity: 0.3"/>
    </g>
    <g id="line2d_27">
     <path d="M 500.6175 20.364 
L 518.6175 20.364 
L 536.6175 20.364 
" style="fill: none; stroke: #57106e; stroke-linecap: square"/>
    </g>
    <g id="text_17">
     <!-- 4 -->
     <g transform="translate(546.2175 26.904) scale(0.12 -0.12)">
      <use xlink:href="#DejaVuSans-34"/>
     </g>
    </g>
    <g id="patch_10">
     <path d="M 577.8525 32.364 
L 613.8525 32.364 
L 613.8525 13.824 
L 577.8525 13.824 
z
" style="fill: #000004; fill-opacity: 0.3"/>
    </g>
    <g id="line2d_28">
     <path d="M 577.8525 20.364 
L 595.8525 20.364 
L 613.8525 20.364 
" style="fill: none; stroke: #000004; stroke-linecap: square"/>
    </g>
    <g id="text_18">
     <!-- 5 -->
     <g transform="translate(623.4525 26.904) scale(0.12 -0.12)">
      <use xlink:href="#DejaVuSans-35"/>
     </g>
    </g>
   </g>
  </g>
  <g id="axes_2">
   <g id="patch_11">
    <path d="M 510.069767 235.872 
L 891 235.872 
L 891 48.9888 
L 510.069767 48.9888 
z
" style="fill: #fcfcfc"/>
   </g>
   <g id="matplotlib.axis_3">
    <g id="xtick_6">
     <g id="line2d_29">
      <path d="M 527.384778 235.872 
L 527.384778 48.9888 
" clip-path="url(#p8fbb06b4ae)" style="fill: none; stroke: #dcdcdc; stroke-width: 0.5; stroke-linecap: square"/>
     </g>
     <g id="line2d_30">
      <g>
       <use xlink:href="#m15a92f31ae" x="527.384778" y="235.872" style="stroke: #000000; stroke-width: 0.8"/>
      </g>
     </g>
     <g id="text_19">
      <!-- 0 -->
      <g transform="translate(523.249153 252.749969) scale(0.13 -0.13)">
       <use xlink:href="#DejaVuSans-30"/>
      </g>
     </g>
    </g>
    <g id="xtick_7">
     <g id="line2d_31">
      <path d="M 613.959831 235.872 
L 613.959831 48.9888 
" clip-path="url(#p8fbb06b4ae)" style="fill: none; stroke: #dcdcdc; stroke-width: 0.5; stroke-linecap: square"/>
     </g>
     <g id="line2d_32">
      <g>
       <use xlink:href="#m15a92f31ae" x="613.959831" y="235.872" style="stroke: #000000; stroke-width: 0.8"/>
      </g>
     </g>
     <g id="text_20">
      <!-- 25 -->
      <g transform="translate(605.688581 252.749969) scale(0.13 -0.13)">
       <use xlink:href="#DejaVuSans-32"/>
       <use xlink:href="#DejaVuSans-35" x="63.623047"/>
      </g>
     </g>
    </g>
    <g id="xtick_8">
     <g id="line2d_33">
      <path d="M 700.534884 235.872 
L 700.534884 48.9888 
" clip-path="url(#p8fbb06b4ae)" style="fill: none; stroke: #dcdcdc; stroke-width: 0.5; stroke-linecap: square"/>
     </g>
     <g id="line2d_34">
      <g>
       <use xlink:href="#m15a92f31ae" x="700.534884" y="235.872" style="stroke: #000000; stroke-width: 0.8"/>
      </g>
     </g>
     <g id="text_21">
      <!-- 50 -->
      <g transform="translate(692.263634 252.749969) scale(0.13 -0.13)">
       <use xlink:href="#DejaVuSans-35"/>
       <use xlink:href="#DejaVuSans-30" x="63.623047"/>
      </g>
     </g>
    </g>
    <g id="xtick_9">
     <g id="line2d_35">
      <path d="M 787.109937 235.872 
L 787.109937 48.9888 
" clip-path="url(#p8fbb06b4ae)" style="fill: none; stroke: #dcdcdc; stroke-width: 0.5; stroke-linecap: square"/>
     </g>
     <g id="line2d_36">
      <g>
       <use xlink:href="#m15a92f31ae" x="787.109937" y="235.872" style="stroke: #000000; stroke-width: 0.8"/>
      </g>
     </g>
     <g id="text_22">
      <!-- 75 -->
      <g transform="translate(778.838687 252.749969) scale(0.13 -0.13)">
       <use xlink:href="#DejaVuSans-37"/>
       <use xlink:href="#DejaVuSans-35" x="63.623047"/>
      </g>
     </g>
    </g>
    <g id="xtick_10">
     <g id="line2d_37">
      <path d="M 873.684989 235.872 
L 873.684989 48.9888 
" clip-path="url(#p8fbb06b4ae)" style="fill: none; stroke: #dcdcdc; stroke-width: 0.5; stroke-linecap: square"/>
     </g>
     <g id="line2d_38">
      <g>
       <use xlink:href="#m15a92f31ae" x="873.684989" y="235.872" style="stroke: #000000; stroke-width: 0.8"/>
      </g>
     </g>
     <g id="text_23">
      <!-- 100 -->
      <g transform="translate(861.278114 252.749969) scale(0.13 -0.13)">
       <use xlink:href="#DejaVuSans-31"/>
       <use xlink:href="#DejaVuSans-30" x="63.623047"/>
       <use xlink:href="#DejaVuSans-30" x="127.246094"/>
      </g>
     </g>
    </g>
    <g id="text_24">
     <!-- Time step -->
     <g transform="translate(663.577462 270.851219) scale(0.15 -0.15)">
      <use xlink:href="#DejaVuSans-54"/>
      <use xlink:href="#DejaVuSans-69" x="57.958984"/>
      <use xlink:href="#DejaVuSans-6d" x="85.742188"/>
      <use xlink:href="#DejaVuSans-65" x="183.154297"/>
      <use xlink:href="#DejaVuSans-20" x="244.677734"/>
      <use xlink:href="#DejaVuSans-73" x="276.464844"/>
      <use xlink:href="#DejaVuSans-74" x="328.564453"/>
      <use xlink:href="#DejaVuSans-65" x="367.773438"/>
      <use xlink:href="#DejaVuSans-70" x="429.296875"/>
     </g>
    </g>
   </g>
   <g id="matplotlib.axis_4">
    <g id="ytick_5">
     <g id="line2d_39">
      <path d="M 510.069767 235.872 
L 891 235.872 
" clip-path="url(#p8fbb06b4ae)" style="fill: none; stroke: #dcdcdc; stroke-width: 0.5; stroke-linecap: square"/>
     </g>
    </g>
    <g id="ytick_6">
     <g id="line2d_40">
      <path d="M 510.069767 178.852949 
L 891 178.852949 
" clip-path="url(#p8fbb06b4ae)" style="fill: none; stroke: #dcdcdc; stroke-width: 0.5; stroke-linecap: square"/>
     </g>
    </g>
    <g id="ytick_7">
     <g id="line2d_41">
      <path d="M 510.069767 121.833898 
L 891 121.833898 
" clip-path="url(#p8fbb06b4ae)" style="fill: none; stroke: #dcdcdc; stroke-width: 0.5; stroke-linecap: square"/>
     </g>
    </g>
    <g id="ytick_8">
     <g id="line2d_42">
      <path d="M 510.069767 64.814847 
L 891 64.814847 
" clip-path="url(#p8fbb06b4ae)" style="fill: none; stroke: #dcdcdc; stroke-width: 0.5; stroke-linecap: square"/>
     </g>
    </g>
   </g>
   <g id="PolyCollection_6">
    <defs>
     <path id="m64a8a5fd66" d="M 527.384778 -91.781738 
L 527.384778 -91.781738 
L 544.699789 -96.023955 
L 562.014799 -98.720956 
L 579.32981 -100.499951 
L 596.64482 -101.703052 
L 613.959831 -102.535531 
L 631.274841 -103.111423 
L 648.589852 -103.510556 
L 665.904863 -103.784248 
L 683.219873 -103.978113 
L 700.534884 -104.114958 
L 717.849894 -104.211891 
L 735.164905 -104.280314 
L 752.479915 -104.331631 
L 769.794926 -104.36014 
L 787.109937 -104.38865 
L 804.424947 -104.394352 
L 821.739958 -104.394352 
L 839.054968 -104.394352 
L 856.369979 -104.365842 
L 873.684989 -104.251804 
L 873.684989 -104.251804 
L 873.684989 -104.251804 
L 856.369979 -104.365842 
L 839.054968 -104.394352 
L 821.739958 -104.394352 
L 804.424947 -104.394352 
L 787.109937 -104.38865 
L 769.794926 -104.36014 
L 752.479915 -104.331631 
L 735.164905 -104.280314 
L 717.849894 -104.211891 
L 700.534884 -104.114958 
L 683.219873 -103.978113 
L 665.904863 -103.784248 
L 648.589852 -103.510556 
L 631.274841 -103.111423 
L 613.959831 -102.535531 
L 596.64482 -101.703052 
L 579.32981 -100.499951 
L 562.014799 -98.720956 
L 544.699789 -96.023955 
L 527.384778 -91.781738 
z
"/>
    </defs>
    <g clip-path="url(#p8fbb06b4ae)">
     <use xlink:href="#m64a8a5fd66" x="0" y="302.4" style="fill: #fcffa4; fill-opacity: 0.3"/>
    </g>
   </g>
   <g id="PolyCollection_7">
    <defs>
     <path id="m7e6b78833a" d="M 527.384778 -83.363326 
L 527.384778 -88.867598 
L 544.699789 -93.575244 
L 562.014799 -96.728633 
L 579.32981 -98.816127 
L 596.64482 -100.20846 
L 613.959831 -101.104062 
L 631.274841 -101.602067 
L 648.589852 -101.842701 
L 665.904863 -101.936213 
L 683.219873 -101.982069 
L 700.534884 -102.003477 
L 717.849894 -102.01823 
L 735.164905 -102.028125 
L 752.479915 -102.036407 
L 769.794926 -102.040561 
L 787.109937 -102.044723 
L 804.424947 -102.04639 
L 821.739958 -102.04639 
L 839.054968 -102.034872 
L 856.369979 -101.983312 
L 873.684989 -101.841123 
L 873.684989 -88.145533 
L 873.684989 -88.145533 
L 856.369979 -88.229879 
L 839.054968 -88.259502 
L 821.739958 -88.263702 
L 804.424947 -88.263702 
L 787.109937 -88.26352 
L 769.794926 -88.263059 
L 752.479915 -88.26259 
L 735.164905 -88.261626 
L 717.849894 -88.260425 
L 700.534884 -88.258535 
L 683.219873 -88.255348 
L 665.904863 -88.246527 
L 648.589852 -88.226001 
L 631.274841 -88.160211 
L 613.959831 -88.006535 
L 596.64482 -87.714846 
L 579.32981 -87.257543 
L 562.014799 -86.571137 
L 544.699789 -85.526753 
L 527.384778 -83.363326 
z
"/>
    </defs>
    <g clip-path="url(#p8fbb06b4ae)">
     <use xlink:href="#m7e6b78833a" x="0" y="302.4" style="fill: #f98e09; fill-opacity: 0.3"/>
    </g>
   </g>
   <g id="PolyCollection_8">
    <defs>
     <path id="m0716cd42f1" d="M 527.384778 -79.303889 
L 527.384778 -84.363072 
L 544.699789 -88.086234 
L 562.014799 -90.5343 
L 579.32981 -92.159938 
L 596.64482 -93.235814 
L 613.959831 -93.885144 
L 631.274841 -94.15672 
L 648.589852 -94.245133 
L 665.904863 -94.268098 
L 683.219873 -94.273826 
L 700.534884 -94.275024 
L 717.849894 -94.275664 
L 735.164905 -94.275865 
L 752.479915 -94.276025 
L 769.794926 -94.276025 
L 787.109937 -94.276025 
L 804.424947 -94.276025 
L 821.739958 -94.276025 
L 839.054968 -94.267489 
L 856.369979 -94.227314 
L 873.684989 -94.108793 
L 873.684989 -80.038533 
L 873.684989 -80.038533 
L 856.369979 -80.08752 
L 839.054968 -80.098738 
L 821.739958 -80.098584 
L 804.424947 -80.098584 
L 787.109937 -80.098584 
L 769.794926 -80.098584 
L 752.479915 -80.098584 
L 735.164905 -80.098594 
L 717.849894 -80.098606 
L 700.534884 -80.098641 
L 683.219873 -80.098707 
L 665.904863 -80.099111 
L 648.589852 -80.100665 
L 631.274841 -80.104607 
L 613.959831 -80.110345 
L 596.64482 -80.115625 
L 579.32981 -80.122261 
L 562.014799 -80.131277 
L 544.699789 -80.135907 
L 527.384778 -79.303889 
z
"/>
    </defs>
    <g clip-path="url(#p8fbb06b4ae)">
     <use xlink:href="#m0716cd42f1" x="0" y="302.4" style="fill: #bc3754; fill-opacity: 0.3"/>
    </g>
   </g>
   <g id="PolyCollection_9">
    <defs>
     <path id="m22d92d841a" d="M 527.384778 -77.367217 
L 527.384778 -80.676332 
L 544.699789 -83.118492 
L 562.014799 -84.608983 
L 579.32981 -85.605468 
L 596.64482 -86.251087 
L 613.959831 -86.613619 
L 631.274841 -86.721681 
L 648.589852 -86.737434 
L 665.904863 -86.737837 
L 683.219873 -86.737837 
L 700.534884 -86.737837 
L 717.849894 -86.737837 
L 735.164905 -86.737837 
L 752.479915 -86.737837 
L 769.794926 -86.737837 
L 787.109937 -86.737837 
L 804.424947 -86.737837 
L 821.739958 -86.737837 
L 839.054968 -86.734162 
L 856.369979 -86.707702 
L 873.684989 -86.628761 
L 873.684989 -76.559879 
L 873.684989 -76.559879 
L 856.369979 -76.59146 
L 839.054968 -76.595381 
L 821.739958 -76.594364 
L 804.424947 -76.594364 
L 787.109937 -76.594364 
L 769.794926 -76.594364 
L 752.479915 -76.594364 
L 735.164905 -76.594364 
L 717.849894 -76.594364 
L 700.534884 -76.594364 
L 683.219873 -76.594364 
L 665.904863 -76.594364 
L 648.589852 -76.594482 
L 631.274841 -76.599031 
L 613.959831 -76.629353 
L 596.64482 -76.729454 
L 579.32981 -76.907603 
L 562.014799 -77.182389 
L 544.699789 -77.592748 
L 527.384778 -77.367217 
z
"/>
    </defs>
    <g clip-path="url(#p8fbb06b4ae)">
     <use xlink:href="#m22d92d841a" x="0" y="302.4" style="fill: #57106e; fill-opacity: 0.3"/>
    </g>
   </g>
   <g id="PolyCollection_10">
    <defs>
     <path id="me1f497de27" d="M 527.384778 -76.836075 
L 527.384778 -77.094782 
L 544.699789 -77.61785 
L 562.014799 -77.61785 
L 579.32981 -77.61785 
L 596.64482 -77.61785 
L 613.959831 -77.61785 
L 631.274841 -77.61785 
L 648.589852 -77.61785 
L 665.904863 -77.61785 
L 683.219873 -77.61785 
L 700.534884 -77.61785 
L 717.849894 -77.61785 
L 735.164905 -77.61785 
L 752.479915 -77.61785 
L 769.794926 -77.61785 
L 787.109937 -77.61785 
L 804.424947 -77.61785 
L 821.739958 -77.61785 
L 839.054968 -77.61785 
L 856.369979 -77.612148 
L 873.684989 -77.572234 
L 873.684989 -77.296837 
L 873.684989 -77.296837 
L 856.369979 -77.33675 
L 839.054968 -77.342452 
L 821.739958 -77.342452 
L 804.424947 -77.342452 
L 787.109937 -77.342452 
L 769.794926 -77.342452 
L 752.479915 -77.342452 
L 735.164905 -77.342452 
L 717.849894 -77.342452 
L 700.534884 -77.342452 
L 683.219873 -77.342452 
L 665.904863 -77.342452 
L 648.589852 -77.342452 
L 631.274841 -77.342452 
L 613.959831 -77.342452 
L 596.64482 -77.342452 
L 579.32981 -77.342452 
L 562.014799 -77.342452 
L 544.699789 -77.342452 
L 527.384778 -76.836075 
z
"/>
    </defs>
    <g clip-path="url(#p8fbb06b4ae)">
     <use xlink:href="#me1f497de27" x="0" y="302.4" style="fill: #000004; fill-opacity: 0.3"/>
    </g>
   </g>
   <g id="line2d_43">
    <path d="M 527.384778 210.618262 
L 544.699789 206.376045 
L 562.014799 203.679044 
L 579.32981 201.900049 
L 596.64482 200.696948 
L 613.959831 199.864469 
L 631.274841 199.288577 
L 648.589852 198.889444 
L 665.904863 198.615752 
L 683.219873 198.421887 
L 700.534884 198.285042 
L 717.849894 198.188109 
L 735.164905 198.119686 
L 752.479915 198.068369 
L 769.794926 198.03986 
L 787.109937 198.01135 
L 804.424947 198.005648 
L 821.739958 198.005648 
L 839.054968 198.005648 
L 856.369979 198.034158 
L 873.684989 198.148196 
" clip-path="url(#p8fbb06b4ae)" style="fill: none; stroke: #fcffa4; stroke-linecap: square"/>
   </g>
   <g id="line2d_44">
    <path d="M 527.384778 216.284538 
L 544.699789 212.849002 
L 562.014799 210.750115 
L 579.32981 209.363165 
L 596.64482 208.438347 
L 613.959831 207.844702 
L 631.274841 207.518861 
L 648.589852 207.365649 
L 665.904863 207.30863 
L 683.219873 207.281292 
L 700.534884 207.268994 
L 717.849894 207.260672 
L 735.164905 207.255125 
L 752.479915 207.250501 
L 769.794926 207.24819 
L 787.109937 207.245878 
L 804.424947 207.244954 
L 821.739958 207.244954 
L 839.054968 207.252813 
L 856.369979 207.293404 
L 873.684989 207.406672 
" clip-path="url(#p8fbb06b4ae)" style="fill: none; stroke: #f98e09; stroke-linecap: square"/>
   </g>
   <g id="line2d_45">
    <path d="M 527.384778 220.56652 
L 544.699789 218.28893 
L 562.014799 217.067211 
L 579.32981 216.2589 
L 596.64482 215.724281 
L 613.959831 215.402255 
L 631.274841 215.269337 
L 648.589852 215.227101 
L 665.904863 215.216396 
L 683.219873 215.213734 
L 700.534884 215.213167 
L 717.849894 215.212865 
L 735.164905 215.212771 
L 752.479915 215.212695 
L 769.794926 215.212695 
L 787.109937 215.212695 
L 804.424947 215.212695 
L 821.739958 215.212695 
L 839.054968 215.216887 
L 856.369979 215.242583 
L 873.684989 215.326337 
" clip-path="url(#p8fbb06b4ae)" style="fill: none; stroke: #bc3754; stroke-linecap: square"/>
   </g>
   <g id="line2d_46">
    <path d="M 527.384778 223.378226 
L 544.699789 222.04438 
L 562.014799 221.504314 
L 579.32981 221.143465 
L 596.64482 220.909729 
L 613.959831 220.778514 
L 631.274841 220.739644 
L 648.589852 220.734042 
L 665.904863 220.733899 
L 683.219873 220.733899 
L 700.534884 220.733899 
L 717.849894 220.733899 
L 735.164905 220.733899 
L 752.479915 220.733899 
L 769.794926 220.733899 
L 787.109937 220.733899 
L 804.424947 220.733899 
L 821.739958 220.733899 
L 839.054968 220.735228 
L 856.369979 220.750419 
L 873.684989 220.80568 
" clip-path="url(#p8fbb06b4ae)" style="fill: none; stroke: #57106e; stroke-linecap: square"/>
   </g>
   <g id="line2d_47">
    <path d="M 527.384778 225.434572 
L 544.699789 224.919849 
L 562.014799 224.919849 
L 579.32981 224.919849 
L 596.64482 224.919849 
L 613.959831 224.919849 
L 631.274841 224.919849 
L 648.589852 224.919849 
L 665.904863 224.919849 
L 683.219873 224.919849 
L 700.534884 224.919849 
L 717.849894 224.919849 
L 735.164905 224.919849 
L 752.479915 224.919849 
L 769.794926 224.919849 
L 787.109937 224.919849 
L 804.424947 224.919849 
L 821.739958 224.919849 
L 839.054968 224.919849 
L 856.369979 224.925551 
L 873.684989 224.965464 
" clip-path="url(#p8fbb06b4ae)" style="fill: none; stroke: #000004; stroke-linecap: square"/>
   </g>
   <g id="patch_12">
    <path d="M 510.069767 235.872 
L 891 235.872 
" style="fill: none; stroke: #000000; stroke-width: 0.8; stroke-linejoin: miter; stroke-linecap: square"/>
   </g>
   <g id="text_25">
    <!-- BiomassSuccession -->
    <g transform="translate(622.507384 289.674624) scale(0.16 -0.16)">
     <defs>
      <path id="DejaVuSans-53" d="M 3425 4513 
L 3425 3897 
Q 3066 4069 2747 4153 
Q 2428 4238 2131 4238 
Q 1616 4238 1336 4038 
Q 1056 3838 1056 3469 
Q 1056 3159 1242 3001 
Q 1428 2844 1947 2747 
L 2328 2669 
Q 3034 2534 3370 2195 
Q 3706 1856 3706 1288 
Q 3706 609 3251 259 
Q 2797 -91 1919 -91 
Q 1588 -91 1214 -16 
Q 841 59 441 206 
L 441 856 
Q 825 641 1194 531 
Q 1563 422 1919 422 
Q 2459 422 2753 634 
Q 3047 847 3047 1241 
Q 3047 1584 2836 1778 
Q 2625 1972 2144 2069 
L 1759 2144 
Q 1053 2284 737 2584 
Q 422 2884 422 3419 
Q 422 4038 858 4394 
Q 1294 4750 2059 4750 
Q 2388 4750 2728 4690 
Q 3069 4631 3425 4513 
z
" transform="scale(0.015625)"/>
      <path id="DejaVuSans-75" d="M 544 1381 
L 544 3500 
L 1119 3500 
L 1119 1403 
Q 1119 906 1312 657 
Q 1506 409 1894 409 
Q 2359 409 2629 706 
Q 2900 1003 2900 1516 
L 2900 3500 
L 3475 3500 
L 3475 0 
L 2900 0 
L 2900 538 
Q 2691 219 2414 64 
Q 2138 -91 1772 -91 
Q 1169 -91 856 284 
Q 544 659 544 1381 
z
M 1991 3584 
L 1991 3584 
z
" transform="scale(0.015625)"/>
      <path id="DejaVuSans-63" d="M 3122 3366 
L 3122 2828 
Q 2878 2963 2633 3030 
Q 2388 3097 2138 3097 
Q 1578 3097 1268 2742 
Q 959 2388 959 1747 
Q 959 1106 1268 751 
Q 1578 397 2138 397 
Q 2388 397 2633 464 
Q 2878 531 3122 666 
L 3122 134 
Q 2881 22 2623 -34 
Q 2366 -91 2075 -91 
Q 1284 -91 818 406 
Q 353 903 353 1747 
Q 353 2603 823 3093 
Q 1294 3584 2113 3584 
Q 2378 3584 2631 3529 
Q 2884 3475 3122 3366 
z
" transform="scale(0.015625)"/>
     </defs>
     <use xlink:href="#DejaVuSans-42"/>
     <use xlink:href="#DejaVuSans-69" x="68.603516"/>
     <use xlink:href="#DejaVuSans-6f" x="96.386719"/>
     <use xlink:href="#DejaVuSans-6d" x="157.568359"/>
     <use xlink:href="#DejaVuSans-61" x="254.980469"/>
     <use xlink:href="#DejaVuSans-73" x="316.259766"/>
     <use xlink:href="#DejaVuSans-73" x="368.359375"/>
     <use xlink:href="#DejaVuSans-53" x="420.458984"/>
     <use xlink:href="#DejaVuSans-75" x="483.935547"/>
     <use xlink:href="#DejaVuSans-63" x="547.314453"/>
     <use xlink:href="#DejaVuSans-63" x="602.294922"/>
     <use xlink:href="#DejaVuSans-65" x="657.275391"/>
     <use xlink:href="#DejaVuSans-73" x="718.798828"/>
     <use xlink:href="#DejaVuSans-73" x="770.898438"/>
     <use xlink:href="#DejaVuSans-69" x="822.998047"/>
     <use xlink:href="#DejaVuSans-6f" x="850.78125"/>
     <use xlink:href="#DejaVuSans-6e" x="911.962891"/>
    </g>
   </g>
  </g>
 </g>
 <defs>
  <clipPath id="p56f91ff352">
   <rect x="72" y="48.9888" width="380.930233" height="186.8832"/>
  </clipPath>
  <clipPath id="p8fbb06b4ae">
   <rect x="510.069767" y="48.9888" width="380.930233" height="186.8832"/>
  </clipPath>
 </defs>
</svg>
