<?xml version="1.0" encoding="utf-8" standalone="no"?>
<!DOCTYPE svg PUBLIC "-//W3C//DTD SVG 1.1//EN"
  "http://www.w3.org/Graphics/SVG/1.1/DTD/svg11.dtd">
<svg xmlns:xlink="http://www.w3.org/1999/xlink" width="900pt" height="302.4pt" viewBox="0 0 900 302.4" xmlns="http://www.w3.org/2000/svg" version="1.1">
 <metadata>
  <rdf:RDF xmlns:dc="http://purl.org/dc/elements/1.1/" xmlns:cc="http://creativecommons.org/ns#" xmlns:rdf="http://www.w3.org/1999/02/22-rdf-syntax-ns#">
   <cc:Work>
    <dc:type rdf:resource="http://purl.org/dc/dcmitype/StillImage"/>
    <dc:date>2024-02-23T15:27:17.629791</dc:date>
    <dc:format>image/svg+xml</dc:format>
    <dc:creator>
     <cc:Agent>
      <dc:title>Matplotlib v3.7.1, https://matplotlib.org/</dc:title>
     </cc:Agent>
    </dc:creator>
   </cc:Work>
  </rdf:RDF>
 </metadata>
 <defs>
  <style type="text/css">*{stroke-linejoin: round; stroke-linecap: butt}</style>
 </defs>
 <g id="figure_1">
  <g id="patch_1">
   <path d="M 0 302.4 
L 900 302.4 
L 900 0 
L 0 0 
z
" style="fill: #ffffff"/>
  </g>
  <g id="axes_1">
   <g id="patch_2">
    <path d="M 72 235.872 
L 452.930233 235.872 
L 452.930233 48.9888 
L 72 48.9888 
z
" style="fill: #fcfcfc"/>
   </g>
   <g id="matplotlib.axis_1">
    <g id="xtick_1">
     <g id="line2d_1">
      <path d="M 89.315011 235.872 
L 89.315011 48.9888 
" clip-path="url(#p17a56e3e58)" style="fill: none; stroke: #dcdcdc; stroke-width: 0.5; stroke-linecap: square"/>
     </g>
     <g id="line2d_2">
      <defs>
       <path id="m82f40473a9" d="M 0 0 
L 0 3.5 
" style="stroke: #000000; stroke-width: 0.8"/>
      </defs>
      <g>
       <use xlink:href="#m82f40473a9" x="89.315011" y="235.872" style="stroke: #000000; stroke-width: 0.8"/>
      </g>
     </g>
     <g id="text_1">
      <!-- 0 -->
      <g transform="translate(85.179386 252.749969) scale(0.13 -0.13)">
       <defs>
        <path id="DejaVuSans-30" d="M 2034 4250 
Q 1547 4250 1301 3770 
Q 1056 3291 1056 2328 
Q 1056 1369 1301 889 
Q 1547 409 2034 409 
Q 2525 409 2770 889 
Q 3016 1369 3016 2328 
Q 3016 3291 2770 3770 
Q 2525 4250 2034 4250 
z
M 2034 4750 
Q 2819 4750 3233 4129 
Q 3647 3509 3647 2328 
Q 3647 1150 3233 529 
Q 2819 -91 2034 -91 
Q 1250 -91 836 529 
Q 422 1150 422 2328 
Q 422 3509 836 4129 
Q 1250 4750 2034 4750 
z
" transform="scale(0.015625)"/>
       </defs>
       <use xlink:href="#DejaVuSans-30"/>
      </g>
     </g>
    </g>
    <g id="xtick_2">
     <g id="line2d_3">
      <path d="M 175.890063 235.872 
L 175.890063 48.9888 
" clip-path="url(#p17a56e3e58)" style="fill: none; stroke: #dcdcdc; stroke-width: 0.5; stroke-linecap: square"/>
     </g>
     <g id="line2d_4">
      <g>
       <use xlink:href="#m82f40473a9" x="175.890063" y="235.872" style="stroke: #000000; stroke-width: 0.8"/>
      </g>
     </g>
     <g id="text_2">
      <!-- 25 -->
      <g transform="translate(167.618813 252.749969) scale(0.13 -0.13)">
       <defs>
        <path id="DejaVuSans-32" d="M 1228 531 
L 3431 531 
L 3431 0 
L 469 0 
L 469 531 
Q 828 903 1448 1529 
Q 2069 2156 2228 2338 
Q 2531 2678 2651 2914 
Q 2772 3150 2772 3378 
Q 2772 3750 2511 3984 
Q 2250 4219 1831 4219 
Q 1534 4219 1204 4116 
Q 875 4013 500 3803 
L 500 4441 
Q 881 4594 1212 4672 
Q 1544 4750 1819 4750 
Q 2544 4750 2975 4387 
Q 3406 4025 3406 3419 
Q 3406 3131 3298 2873 
Q 3191 2616 2906 2266 
Q 2828 2175 2409 1742 
Q 1991 1309 1228 531 
z
" transform="scale(0.015625)"/>
        <path id="DejaVuSans-35" d="M 691 4666 
L 3169 4666 
L 3169 4134 
L 1269 4134 
L 1269 2991 
Q 1406 3038 1543 3061 
Q 1681 3084 1819 3084 
Q 2600 3084 3056 2656 
Q 3513 2228 3513 1497 
Q 3513 744 3044 326 
Q 2575 -91 1722 -91 
Q 1428 -91 1123 -41 
Q 819 9 494 109 
L 494 744 
Q 775 591 1075 516 
Q 1375 441 1709 441 
Q 2250 441 2565 725 
Q 2881 1009 2881 1497 
Q 2881 1984 2565 2268 
Q 2250 2553 1709 2553 
Q 1456 2553 1204 2497 
Q 953 2441 691 2322 
L 691 4666 
z
" transform="scale(0.015625)"/>
       </defs>
       <use xlink:href="#DejaVuSans-32"/>
       <use xlink:href="#DejaVuSans-35" x="63.623047"/>
      </g>
     </g>
    </g>
    <g id="xtick_3">
     <g id="line2d_5">
      <path d="M 262.465116 235.872 
L 262.465116 48.9888 
" clip-path="url(#p17a56e3e58)" style="fill: none; stroke: #dcdcdc; stroke-width: 0.5; stroke-linecap: square"/>
     </g>
     <g id="line2d_6">
      <g>
       <use xlink:href="#m82f40473a9" x="262.465116" y="235.872" style="stroke: #000000; stroke-width: 0.8"/>
      </g>
     </g>
     <g id="text_3">
      <!-- 50 -->
      <g transform="translate(254.193866 252.749969) scale(0.13 -0.13)">
       <use xlink:href="#DejaVuSans-35"/>
       <use xlink:href="#DejaVuSans-30" x="63.623047"/>
      </g>
     </g>
    </g>
    <g id="xtick_4">
     <g id="line2d_7">
      <path d="M 349.040169 235.872 
L 349.040169 48.9888 
" clip-path="url(#p17a56e3e58)" style="fill: none; stroke: #dcdcdc; stroke-width: 0.5; stroke-linecap: square"/>
     </g>
     <g id="line2d_8">
      <g>
       <use xlink:href="#m82f40473a9" x="349.040169" y="235.872" style="stroke: #000000; stroke-width: 0.8"/>
      </g>
     </g>
     <g id="text_4">
      <!-- 75 -->
      <g transform="translate(340.768919 252.749969) scale(0.13 -0.13)">
       <defs>
        <path id="DejaVuSans-37" d="M 525 4666 
L 3525 4666 
L 3525 4397 
L 1831 0 
L 1172 0 
L 2766 4134 
L 525 4134 
L 525 4666 
z
" transform="scale(0.015625)"/>
       </defs>
       <use xlink:href="#DejaVuSans-37"/>
       <use xlink:href="#DejaVuSans-35" x="63.623047"/>
      </g>
     </g>
    </g>
    <g id="xtick_5">
     <g id="line2d_9">
      <path d="M 435.615222 235.872 
L 435.615222 48.9888 
" clip-path="url(#p17a56e3e58)" style="fill: none; stroke: #dcdcdc; stroke-width: 0.5; stroke-linecap: square"/>
     </g>
     <g id="line2d_10">
      <g>
       <use xlink:href="#m82f40473a9" x="435.615222" y="235.872" style="stroke: #000000; stroke-width: 0.8"/>
      </g>
     </g>
     <g id="text_5">
      <!-- 100 -->
      <g transform="translate(423.208347 252.749969) scale(0.13 -0.13)">
       <defs>
        <path id="DejaVuSans-31" d="M 794 531 
L 1825 531 
L 1825 4091 
L 703 3866 
L 703 4441 
L 1819 4666 
L 2450 4666 
L 2450 531 
L 3481 531 
L 3481 0 
L 794 0 
L 794 531 
z
" transform="scale(0.015625)"/>
       </defs>
       <use xlink:href="#DejaVuSans-31"/>
       <use xlink:href="#DejaVuSans-30" x="63.623047"/>
       <use xlink:href="#DejaVuSans-30" x="127.246094"/>
      </g>
     </g>
    </g>
    <g id="text_6">
     <!-- Time step -->
     <g transform="translate(225.507694 270.851219) scale(0.15 -0.15)">
      <defs>
       <path id="DejaVuSans-54" d="M -19 4666 
L 3928 4666 
L 3928 4134 
L 2272 4134 
L 2272 0 
L 1638 0 
L 1638 4134 
L -19 4134 
L -19 4666 
z
" transform="scale(0.015625)"/>
       <path id="DejaVuSans-69" d="M 603 3500 
L 1178 3500 
L 1178 0 
L 603 0 
L 603 3500 
z
M 603 4863 
L 1178 4863 
L 1178 4134 
L 603 4134 
L 603 4863 
z
" transform="scale(0.015625)"/>
       <path id="DejaVuSans-6d" d="M 3328 2828 
Q 3544 3216 3844 3400 
Q 4144 3584 4550 3584 
Q 5097 3584 5394 3201 
Q 5691 2819 5691 2113 
L 5691 0 
L 5113 0 
L 5113 2094 
Q 5113 2597 4934 2840 
Q 4756 3084 4391 3084 
Q 3944 3084 3684 2787 
Q 3425 2491 3425 1978 
L 3425 0 
L 2847 0 
L 2847 2094 
Q 2847 2600 2669 2842 
Q 2491 3084 2119 3084 
Q 1678 3084 1418 2786 
Q 1159 2488 1159 1978 
L 1159 0 
L 581 0 
L 581 3500 
L 1159 3500 
L 1159 2956 
Q 1356 3278 1631 3431 
Q 1906 3584 2284 3584 
Q 2666 3584 2933 3390 
Q 3200 3197 3328 2828 
z
" transform="scale(0.015625)"/>
       <path id="DejaVuSans-65" d="M 3597 1894 
L 3597 1613 
L 953 1613 
Q 991 1019 1311 708 
Q 1631 397 2203 397 
Q 2534 397 2845 478 
Q 3156 559 3463 722 
L 3463 178 
Q 3153 47 2828 -22 
Q 2503 -91 2169 -91 
Q 1331 -91 842 396 
Q 353 884 353 1716 
Q 353 2575 817 3079 
Q 1281 3584 2069 3584 
Q 2775 3584 3186 3129 
Q 3597 2675 3597 1894 
z
M 3022 2063 
Q 3016 2534 2758 2815 
Q 2500 3097 2075 3097 
Q 1594 3097 1305 2825 
Q 1016 2553 972 2059 
L 3022 2063 
z
" transform="scale(0.015625)"/>
       <path id="DejaVuSans-20" transform="scale(0.015625)"/>
       <path id="DejaVuSans-73" d="M 2834 3397 
L 2834 2853 
Q 2591 2978 2328 3040 
Q 2066 3103 1784 3103 
Q 1356 3103 1142 2972 
Q 928 2841 928 2578 
Q 928 2378 1081 2264 
Q 1234 2150 1697 2047 
L 1894 2003 
Q 2506 1872 2764 1633 
Q 3022 1394 3022 966 
Q 3022 478 2636 193 
Q 2250 -91 1575 -91 
Q 1294 -91 989 -36 
Q 684 19 347 128 
L 347 722 
Q 666 556 975 473 
Q 1284 391 1588 391 
Q 1994 391 2212 530 
Q 2431 669 2431 922 
Q 2431 1156 2273 1281 
Q 2116 1406 1581 1522 
L 1381 1569 
Q 847 1681 609 1914 
Q 372 2147 372 2553 
Q 372 3047 722 3315 
Q 1072 3584 1716 3584 
Q 2034 3584 2315 3537 
Q 2597 3491 2834 3397 
z
" transform="scale(0.015625)"/>
       <path id="DejaVuSans-74" d="M 1172 4494 
L 1172 3500 
L 2356 3500 
L 2356 3053 
L 1172 3053 
L 1172 1153 
Q 1172 725 1289 603 
Q 1406 481 1766 481 
L 2356 481 
L 2356 0 
L 1766 0 
Q 1100 0 847 248 
Q 594 497 594 1153 
L 594 3053 
L 172 3053 
L 172 3500 
L 594 3500 
L 594 4494 
L 1172 4494 
z
" transform="scale(0.015625)"/>
       <path id="DejaVuSans-70" d="M 1159 525 
L 1159 -1331 
L 581 -1331 
L 581 3500 
L 1159 3500 
L 1159 2969 
Q 1341 3281 1617 3432 
Q 1894 3584 2278 3584 
Q 2916 3584 3314 3078 
Q 3713 2572 3713 1747 
Q 3713 922 3314 415 
Q 2916 -91 2278 -91 
Q 1894 -91 1617 61 
Q 1341 213 1159 525 
z
M 3116 1747 
Q 3116 2381 2855 2742 
Q 2594 3103 2138 3103 
Q 1681 3103 1420 2742 
Q 1159 2381 1159 1747 
Q 1159 1113 1420 752 
Q 1681 391 2138 391 
Q 2594 391 2855 752 
Q 3116 1113 3116 1747 
z
" transform="scale(0.015625)"/>
      </defs>
      <use xlink:href="#DejaVuSans-54"/>
      <use xlink:href="#DejaVuSans-69" x="57.958984"/>
      <use xlink:href="#DejaVuSans-6d" x="85.742188"/>
      <use xlink:href="#DejaVuSans-65" x="183.154297"/>
      <use xlink:href="#DejaVuSans-20" x="244.677734"/>
      <use xlink:href="#DejaVuSans-73" x="276.464844"/>
      <use xlink:href="#DejaVuSans-74" x="328.564453"/>
      <use xlink:href="#DejaVuSans-65" x="367.773438"/>
      <use xlink:href="#DejaVuSans-70" x="429.296875"/>
     </g>
    </g>
   </g>
   <g id="matplotlib.axis_2">
    <g id="ytick_1">
     <g id="line2d_11">
      <path d="M 72 235.872 
L 452.930233 235.872 
" clip-path="url(#p17a56e3e58)" style="fill: none; stroke: #dcdcdc; stroke-width: 0.5; stroke-linecap: square"/>
     </g>
     <g id="line2d_12">
      <defs>
       <path id="m929f18d71c" d="M 0 0 
L -3.5 0 
" style="stroke: #000000; stroke-width: 0.8"/>
      </defs>
      <g>
       <use xlink:href="#m929f18d71c" x="72" y="235.872" style="stroke: #000000; stroke-width: 0.8"/>
      </g>
     </g>
     <g id="text_7">
      <!-- 0.0 -->
      <g transform="translate(44.325937 240.810984) scale(0.13 -0.13)">
       <defs>
        <path id="DejaVuSans-2e" d="M 684 794 
L 1344 794 
L 1344 0 
L 684 0 
L 684 794 
z
" transform="scale(0.015625)"/>
       </defs>
       <use xlink:href="#DejaVuSans-30"/>
       <use xlink:href="#DejaVuSans-2e" x="63.623047"/>
       <use xlink:href="#DejaVuSans-30" x="95.410156"/>
      </g>
     </g>
    </g>
    <g id="ytick_2">
     <g id="line2d_13">
      <path d="M 72 182.029177 
L 452.930233 182.029177 
" clip-path="url(#p17a56e3e58)" style="fill: none; stroke: #dcdcdc; stroke-width: 0.5; stroke-linecap: square"/>
     </g>
     <g id="line2d_14">
      <g>
       <use xlink:href="#m929f18d71c" x="72" y="182.029177" style="stroke: #000000; stroke-width: 0.8"/>
      </g>
     </g>
     <g id="text_8">
      <!-- 0.5 -->
      <g transform="translate(44.325937 186.968162) scale(0.13 -0.13)">
       <use xlink:href="#DejaVuSans-30"/>
       <use xlink:href="#DejaVuSans-2e" x="63.623047"/>
       <use xlink:href="#DejaVuSans-35" x="95.410156"/>
      </g>
     </g>
    </g>
    <g id="ytick_3">
     <g id="line2d_15">
      <path d="M 72 128.186354 
L 452.930233 128.186354 
" clip-path="url(#p17a56e3e58)" style="fill: none; stroke: #dcdcdc; stroke-width: 0.5; stroke-linecap: square"/>
     </g>
     <g id="line2d_16">
      <g>
       <use xlink:href="#m929f18d71c" x="72" y="128.186354" style="stroke: #000000; stroke-width: 0.8"/>
      </g>
     </g>
     <g id="text_9">
      <!-- 1.0 -->
      <g transform="translate(44.325937 133.125339) scale(0.13 -0.13)">
       <use xlink:href="#DejaVuSans-31"/>
       <use xlink:href="#DejaVuSans-2e" x="63.623047"/>
       <use xlink:href="#DejaVuSans-30" x="95.410156"/>
      </g>
     </g>
    </g>
    <g id="ytick_4">
     <g id="line2d_17">
      <path d="M 72 74.343531 
L 452.930233 74.343531 
" clip-path="url(#p17a56e3e58)" style="fill: none; stroke: #dcdcdc; stroke-width: 0.5; stroke-linecap: square"/>
     </g>
     <g id="line2d_18">
      <g>
       <use xlink:href="#m929f18d71c" x="72" y="74.343531" style="stroke: #000000; stroke-width: 0.8"/>
      </g>
     </g>
     <g id="text_10">
      <!-- 1.5 -->
      <g transform="translate(44.325937 79.282516) scale(0.13 -0.13)">
       <use xlink:href="#DejaVuSans-31"/>
       <use xlink:href="#DejaVuSans-2e" x="63.623047"/>
       <use xlink:href="#DejaVuSans-35" x="95.410156"/>
      </g>
     </g>
    </g>
    <g id="text_11">
     <!-- Biomass POPU.TRE -->
     <g transform="translate(37.206406 213.700322) rotate(-90) scale(0.15 -0.15)">
      <defs>
       <path id="DejaVuSans-42" d="M 1259 2228 
L 1259 519 
L 2272 519 
Q 2781 519 3026 730 
Q 3272 941 3272 1375 
Q 3272 1813 3026 2020 
Q 2781 2228 2272 2228 
L 1259 2228 
z
M 1259 4147 
L 1259 2741 
L 2194 2741 
Q 2656 2741 2882 2914 
Q 3109 3088 3109 3444 
Q 3109 3797 2882 3972 
Q 2656 4147 2194 4147 
L 1259 4147 
z
M 628 4666 
L 2241 4666 
Q 2963 4666 3353 4366 
Q 3744 4066 3744 3513 
Q 3744 3084 3544 2831 
Q 3344 2578 2956 2516 
Q 3422 2416 3680 2098 
Q 3938 1781 3938 1306 
Q 3938 681 3513 340 
Q 3088 0 2303 0 
L 628 0 
L 628 4666 
z
" transform="scale(0.015625)"/>
       <path id="DejaVuSans-6f" d="M 1959 3097 
Q 1497 3097 1228 2736 
Q 959 2375 959 1747 
Q 959 1119 1226 758 
Q 1494 397 1959 397 
Q 2419 397 2687 759 
Q 2956 1122 2956 1747 
Q 2956 2369 2687 2733 
Q 2419 3097 1959 3097 
z
M 1959 3584 
Q 2709 3584 3137 3096 
Q 3566 2609 3566 1747 
Q 3566 888 3137 398 
Q 2709 -91 1959 -91 
Q 1206 -91 779 398 
Q 353 888 353 1747 
Q 353 2609 779 3096 
Q 1206 3584 1959 3584 
z
" transform="scale(0.015625)"/>
       <path id="DejaVuSans-61" d="M 2194 1759 
Q 1497 1759 1228 1600 
Q 959 1441 959 1056 
Q 959 750 1161 570 
Q 1363 391 1709 391 
Q 2188 391 2477 730 
Q 2766 1069 2766 1631 
L 2766 1759 
L 2194 1759 
z
M 3341 1997 
L 3341 0 
L 2766 0 
L 2766 531 
Q 2569 213 2275 61 
Q 1981 -91 1556 -91 
Q 1019 -91 701 211 
Q 384 513 384 1019 
Q 384 1609 779 1909 
Q 1175 2209 1959 2209 
L 2766 2209 
L 2766 2266 
Q 2766 2663 2505 2880 
Q 2244 3097 1772 3097 
Q 1472 3097 1187 3025 
Q 903 2953 641 2809 
L 641 3341 
Q 956 3463 1253 3523 
Q 1550 3584 1831 3584 
Q 2591 3584 2966 3190 
Q 3341 2797 3341 1997 
z
" transform="scale(0.015625)"/>
       <path id="DejaVuSans-50" d="M 1259 4147 
L 1259 2394 
L 2053 2394 
Q 2494 2394 2734 2622 
Q 2975 2850 2975 3272 
Q 2975 3691 2734 3919 
Q 2494 4147 2053 4147 
L 1259 4147 
z
M 628 4666 
L 2053 4666 
Q 2838 4666 3239 4311 
Q 3641 3956 3641 3272 
Q 3641 2581 3239 2228 
Q 2838 1875 2053 1875 
L 1259 1875 
L 1259 0 
L 628 0 
L 628 4666 
z
" transform="scale(0.015625)"/>
       <path id="DejaVuSans-4f" d="M 2522 4238 
Q 1834 4238 1429 3725 
Q 1025 3213 1025 2328 
Q 1025 1447 1429 934 
Q 1834 422 2522 422 
Q 3209 422 3611 934 
Q 4013 1447 4013 2328 
Q 4013 3213 3611 3725 
Q 3209 4238 2522 4238 
z
M 2522 4750 
Q 3503 4750 4090 4092 
Q 4678 3434 4678 2328 
Q 4678 1225 4090 567 
Q 3503 -91 2522 -91 
Q 1538 -91 948 565 
Q 359 1222 359 2328 
Q 359 3434 948 4092 
Q 1538 4750 2522 4750 
z
" transform="scale(0.015625)"/>
       <path id="DejaVuSans-55" d="M 556 4666 
L 1191 4666 
L 1191 1831 
Q 1191 1081 1462 751 
Q 1734 422 2344 422 
Q 2950 422 3222 751 
Q 3494 1081 3494 1831 
L 3494 4666 
L 4128 4666 
L 4128 1753 
Q 4128 841 3676 375 
Q 3225 -91 2344 -91 
Q 1459 -91 1007 375 
Q 556 841 556 1753 
L 556 4666 
z
" transform="scale(0.015625)"/>
       <path id="DejaVuSans-52" d="M 2841 2188 
Q 3044 2119 3236 1894 
Q 3428 1669 3622 1275 
L 4263 0 
L 3584 0 
L 2988 1197 
Q 2756 1666 2539 1819 
Q 2322 1972 1947 1972 
L 1259 1972 
L 1259 0 
L 628 0 
L 628 4666 
L 2053 4666 
Q 2853 4666 3247 4331 
Q 3641 3997 3641 3322 
Q 3641 2881 3436 2590 
Q 3231 2300 2841 2188 
z
M 1259 4147 
L 1259 2491 
L 2053 2491 
Q 2509 2491 2742 2702 
Q 2975 2913 2975 3322 
Q 2975 3731 2742 3939 
Q 2509 4147 2053 4147 
L 1259 4147 
z
" transform="scale(0.015625)"/>
       <path id="DejaVuSans-45" d="M 628 4666 
L 3578 4666 
L 3578 4134 
L 1259 4134 
L 1259 2753 
L 3481 2753 
L 3481 2222 
L 1259 2222 
L 1259 531 
L 3634 531 
L 3634 0 
L 628 0 
L 628 4666 
z
" transform="scale(0.015625)"/>
      </defs>
      <use xlink:href="#DejaVuSans-42"/>
      <use xlink:href="#DejaVuSans-69" x="68.603516"/>
      <use xlink:href="#DejaVuSans-6f" x="96.386719"/>
      <use xlink:href="#DejaVuSans-6d" x="157.568359"/>
      <use xlink:href="#DejaVuSans-61" x="254.980469"/>
      <use xlink:href="#DejaVuSans-73" x="316.259766"/>
      <use xlink:href="#DejaVuSans-73" x="368.359375"/>
      <use xlink:href="#DejaVuSans-20" x="420.458984"/>
      <use xlink:href="#DejaVuSans-50" x="452.246094"/>
      <use xlink:href="#DejaVuSans-4f" x="512.548828"/>
      <use xlink:href="#DejaVuSans-50" x="591.259766"/>
      <use xlink:href="#DejaVuSans-55" x="651.5625"/>
      <use xlink:href="#DejaVuSans-2e" x="724.755859"/>
      <use xlink:href="#DejaVuSans-54" x="756.542969"/>
      <use xlink:href="#DejaVuSans-52" x="817.626953"/>
      <use xlink:href="#DejaVuSans-45" x="887.109375"/>
     </g>
    </g>
    <g id="text_12">
     <!-- 1e4 -->
     <g transform="translate(72 45.9888) scale(0.12 -0.12)">
      <defs>
       <path id="DejaVuSans-34" d="M 2419 4116 
L 825 1625 
L 2419 1625 
L 2419 4116 
z
M 2253 4666 
L 3047 4666 
L 3047 1625 
L 3713 1625 
L 3713 1100 
L 3047 1100 
L 3047 0 
L 2419 0 
L 2419 1100 
L 313 1100 
L 313 1709 
L 2253 4666 
z
" transform="scale(0.015625)"/>
      </defs>
      <use xlink:href="#DejaVuSans-31"/>
      <use xlink:href="#DejaVuSans-65" x="63.623047"/>
      <use xlink:href="#DejaVuSans-34" x="125.146484"/>
     </g>
    </g>
   </g>
   <g id="PolyCollection_1">
    <defs>
     <path id="m2f157e175b" d="M 89.315011 -64.874465 
L 89.315011 -71.700142 
L 106.630021 -75.659991 
L 123.945032 -82.994707 
L 141.260042 -94.717174 
L 158.575053 -107.476712 
L 175.890063 -132.640264 
L 193.205074 -155.378621 
L 210.520085 -176.434634 
L 227.835095 -192.805167 
L 245.150106 -204.736475 
L 262.465116 -221.259488 
L 279.780127 -220.123508 
L 297.095137 -220.597344 
L 314.410148 -230.133916 
L 331.725159 -236.596623 
L 349.040169 -238.770206 
L 366.35518 -239.316862 
L 383.67019 -244.512 
L 400.985201 -232.811696 
L 418.300211 -229.71887 
L 435.615222 -169.528145 
L 435.615222 -17.115807 
L 435.615222 -17.115807 
L 418.300211 -10.125496 
L 400.985201 -9.614282 
L 383.67019 -8.557628 
L 366.35518 -9.953401 
L 349.040169 -10.760699 
L 331.725159 -11.243704 
L 314.410148 -13.150231 
L 297.095137 -16.135941 
L 279.780127 -16.246272 
L 262.465116 -17.066984 
L 245.150106 -22.346194 
L 227.835095 -26.162441 
L 210.520085 -31.394488 
L 193.205074 -38.123916 
L 175.890063 -45.392498 
L 158.575053 -53.435195 
L 141.260042 -57.514495 
L 123.945032 -61.262754 
L 106.630021 -63.608264 
L 89.315011 -64.874465 
z
"/>
    </defs>
    <g clip-path="url(#p17a56e3e58)">
     <use xlink:href="#m2f157e175b" x="0" y="302.4" style="fill: #fcffa4; fill-opacity: 0.3"/>
    </g>
   </g>
   <g id="PolyCollection_2">
    <defs>
     <path id="m138f12c204" d="M 89.315011 -65.633088 
L 89.315011 -73.2447 
L 106.630021 -77.876829 
L 123.945032 -85.689444 
L 141.260042 -97.015362 
L 158.575053 -108.481349 
L 175.890063 -131.063772 
L 193.205074 -147.651145 
L 210.520085 -162.630681 
L 227.835095 -174.666662 
L 245.150106 -181.22395 
L 262.465116 -199.60079 
L 279.780127 -198.000284 
L 297.095137 -198.336975 
L 314.410148 -211.73364 
L 331.725159 -221.159769 
L 349.040169 -226.039865 
L 366.35518 -231.080124 
L 383.67019 -237.804046 
L 400.985201 -232.703053 
L 418.300211 -232.467088 
L 435.615222 -202.374828 
L 435.615222 -16.719462 
L 435.615222 -16.719462 
L 418.300211 -16.969614 
L 400.985201 -17.216641 
L 383.67019 -17.350807 
L 366.35518 -19.29284 
L 349.040169 -20.701336 
L 331.725159 -22.687961 
L 314.410148 -25.90373 
L 297.095137 -30.19062 
L 279.780127 -33.033027 
L 262.465116 -37.395506 
L 245.150106 -42.287131 
L 227.835095 -48.605056 
L 210.520085 -53.06001 
L 193.205074 -55.379246 
L 175.890063 -57.755689 
L 158.575053 -60.912268 
L 141.260042 -62.451017 
L 123.945032 -63.971726 
L 106.630021 -65.015092 
L 89.315011 -65.633088 
z
"/>
    </defs>
    <g clip-path="url(#p17a56e3e58)">
     <use xlink:href="#m138f12c204" x="0" y="302.4" style="fill: #f98e09; fill-opacity: 0.3"/>
    </g>
   </g>
   <g id="PolyCollection_3">
    <defs>
     <path id="m12d512a100" d="M 89.315011 -67.375194 
L 89.315011 -74.782612 
L 106.630021 -79.917175 
L 123.945032 -87.944979 
L 141.260042 -99.510122 
L 158.575053 -110.326137 
L 175.890063 -129.970029 
L 193.205074 -143.526007 
L 210.520085 -153.958416 
L 227.835095 -156.600308 
L 245.150106 -150.695896 
L 262.465116 -165.000756 
L 279.780127 -162.269721 
L 297.095137 -162.247406 
L 314.410148 -174.687245 
L 331.725159 -181.560341 
L 349.040169 -186.072005 
L 366.35518 -190.95517 
L 383.67019 -197.969266 
L 400.985201 -193.049002 
L 418.300211 -193.924787 
L 435.615222 -172.29116 
L 435.615222 -20.182678 
L 435.615222 -20.182678 
L 418.300211 -18.609939 
L 400.985201 -19.700966 
L 383.67019 -21.33893 
L 366.35518 -23.879679 
L 349.040169 -26.291544 
L 331.725159 -28.966565 
L 314.410148 -33.497024 
L 297.095137 -37.438441 
L 279.780127 -40.776823 
L 262.465116 -45.522617 
L 245.150106 -50.787526 
L 227.835095 -63.204233 
L 210.520085 -72.518715 
L 193.205074 -73.393076 
L 175.890063 -72.490188 
L 158.575053 -70.817836 
L 141.260042 -69.820649 
L 123.945032 -68.691249 
L 106.630021 -67.893137 
L 89.315011 -67.375194 
z
"/>
    </defs>
    <g clip-path="url(#p17a56e3e58)">
     <use xlink:href="#m12d512a100" x="0" y="302.4" style="fill: #bc3754; fill-opacity: 0.3"/>
    </g>
   </g>
   <g id="PolyCollection_4">
    <defs>
     <path id="m0f7fa3078e" d="M 89.315011 -69.347311 
L 89.315011 -75.214814 
L 106.630021 -80.16537 
L 123.945032 -87.44998 
L 141.260042 -98.31407 
L 158.575053 -106.735444 
L 175.890063 -122.956589 
L 193.205074 -132.714151 
L 210.520085 -139.834217 
L 227.835095 -141.642614 
L 245.150106 -134.50819 
L 262.465116 -142.710479 
L 279.780127 -132.984026 
L 297.095137 -127.640792 
L 314.410148 -134.235113 
L 331.725159 -139.088786 
L 349.040169 -140.894856 
L 366.35518 -143.125699 
L 383.67019 -147.843709 
L 400.985201 -141.543592 
L 418.300211 -141.270776 
L 435.615222 -127.126174 
L 435.615222 -30.968763 
L 435.615222 -30.968763 
L 418.300211 -27.516915 
L 400.985201 -28.944627 
L 383.67019 -30.281059 
L 366.35518 -32.997625 
L 349.040169 -35.42144 
L 331.725159 -37.913296 
L 314.410148 -41.055541 
L 297.095137 -44.822296 
L 279.780127 -48.173085 
L 262.465116 -54.122087 
L 245.150106 -57.357095 
L 227.835095 -69.205583 
L 210.520085 -80.853174 
L 193.205074 -84.852079 
L 175.890063 -83.432173 
L 158.575053 -79.125548 
L 141.260042 -76.634489 
L 123.945032 -73.247547 
L 106.630021 -70.934824 
L 89.315011 -69.347311 
z
"/>
    </defs>
    <g clip-path="url(#p17a56e3e58)">
     <use xlink:href="#m0f7fa3078e" x="0" y="302.4" style="fill: #57106e; fill-opacity: 0.3"/>
    </g>
   </g>
   <g id="PolyCollection_5">
    <defs>
     <path id="mf3d960b83d" d="M 89.315011 -72.845326 
L 89.315011 -74.028164 
L 106.630021 -78.00831 
L 123.945032 -83.767612 
L 141.260042 -91.890214 
L 158.575053 -98.027385 
L 175.890063 -110.992938 
L 193.205074 -120.935256 
L 210.520085 -129.554968 
L 227.835095 -132.374982 
L 245.150106 -124.566285 
L 262.465116 -130.176863 
L 279.780127 -121.044178 
L 297.095137 -116.109154 
L 314.410148 -120.751116 
L 331.725159 -121.986399 
L 349.040169 -123.329308 
L 366.35518 -123.603681 
L 383.67019 -126.20945 
L 400.985201 -122.141202 
L 418.300211 -120.068943 
L 435.615222 -112.829382 
L 435.615222 -36.389199 
L 435.615222 -36.389199 
L 418.300211 -35.336696 
L 400.985201 -36.339207 
L 383.67019 -36.538326 
L 366.35518 -38.468862 
L 349.040169 -40.691097 
L 331.725159 -42.730042 
L 314.410148 -45.54908 
L 297.095137 -48.5021 
L 279.780127 -50.892155 
L 262.465116 -56.247238 
L 245.150106 -59.421924 
L 227.835095 -72.464356 
L 210.520085 -86.640898 
L 193.205074 -97.734278 
L 175.890063 -97.477818 
L 158.575053 -90.245205 
L 141.260042 -86.426407 
L 123.945032 -80.62013 
L 106.630021 -76.081712 
L 89.315011 -72.845326 
z
"/>
    </defs>
    <g clip-path="url(#p17a56e3e58)">
     <use xlink:href="#mf3d960b83d" x="0" y="302.4" style="fill: #000004; fill-opacity: 0.3"/>
    </g>
   </g>
   <g id="line2d_19">
    <path d="M 89.315011 234.112697 
L 106.630021 232.765872 
L 123.945032 230.27127 
L 141.260042 226.284165 
L 158.575053 221.944046 
L 175.890063 213.383619 
L 193.205074 205.648731 
L 210.520085 198.485439 
L 227.835095 192.916196 
L 245.150106 188.858665 
L 262.465116 183.236764 
L 279.780127 184.21511 
L 297.095137 184.033358 
L 314.410148 180.757927 
L 331.725159 178.479837 
L 349.040169 177.634547 
L 366.35518 177.764869 
L 383.67019 175.865186 
L 400.985201 181.187011 
L 418.300211 182.477817 
L 435.615222 209.078024 
" clip-path="url(#p17a56e3e58)" style="fill: none; stroke: #fcffa4; stroke-linecap: square"/>
   </g>
   <g id="line2d_20">
    <path d="M 89.315011 232.961106 
L 106.630021 230.95404 
L 123.945032 227.569415 
L 141.260042 222.666811 
L 158.575053 217.703192 
L 175.890063 207.99027 
L 193.205074 200.884804 
L 210.520085 194.554655 
L 227.835095 190.764141 
L 245.150106 190.64446 
L 262.465116 183.901852 
L 279.780127 186.883345 
L 297.095137 188.136202 
L 314.410148 183.581315 
L 331.725159 180.476135 
L 349.040169 179.0294 
L 366.35518 177.213518 
L 383.67019 174.822574 
L 400.985201 177.440153 
L 418.300211 177.681649 
L 435.615222 192.852855 
" clip-path="url(#p17a56e3e58)" style="fill: none; stroke: #f98e09; stroke-linecap: square"/>
   </g>
   <g id="line2d_21">
    <path d="M 89.315011 231.321097 
L 106.630021 228.494844 
L 123.945032 224.081886 
L 141.260042 217.734614 
L 158.575053 211.828014 
L 175.890063 201.169891 
L 193.205074 193.940459 
L 210.520085 189.161434 
L 227.835095 192.49773 
L 245.150106 201.658289 
L 262.465116 197.138313 
L 279.780127 200.876728 
L 297.095137 202.557076 
L 314.410148 198.307865 
L 331.725159 197.136547 
L 349.040169 196.218225 
L 366.35518 194.982576 
L 383.67019 192.745902 
L 400.985201 196.025016 
L 418.300211 196.132637 
L 435.615222 206.163081 
" clip-path="url(#p17a56e3e58)" style="fill: none; stroke: #bc3754; stroke-linecap: square"/>
   </g>
   <g id="line2d_22">
    <path d="M 89.315011 230.118937 
L 106.630021 226.849903 
L 123.945032 222.051237 
L 141.260042 214.92572 
L 158.575053 209.469504 
L 175.890063 199.205619 
L 193.205074 193.616885 
L 210.520085 192.056305 
L 227.835095 196.975902 
L 245.150106 206.467358 
L 262.465116 203.983717 
L 279.780127 211.821445 
L 297.095137 216.168456 
L 314.410148 214.754673 
L 331.725159 213.898959 
L 349.040169 214.241852 
L 366.35518 214.338338 
L 383.67019 213.337616 
L 400.985201 217.15589 
L 418.300211 218.006155 
L 435.615222 223.352531 
" clip-path="url(#p17a56e3e58)" style="fill: none; stroke: #57106e; stroke-linecap: square"/>
   </g>
   <g id="line2d_23">
    <path d="M 89.315011 228.963255 
L 106.630021 225.354989 
L 123.945032 220.206129 
L 141.260042 213.241689 
L 158.575053 208.263705 
L 175.890063 198.164622 
L 193.205074 193.065233 
L 210.520085 194.302067 
L 227.835095 199.980331 
L 245.150106 210.405895 
L 262.465116 209.187949 
L 279.780127 216.431833 
L 297.095137 220.094373 
L 314.410148 219.249902 
L 331.725159 220.041779 
L 349.040169 220.389798 
L 366.35518 221.363728 
L 383.67019 221.026112 
L 400.985201 223.159796 
L 418.300211 224.697181 
L 435.615222 227.790709 
" clip-path="url(#p17a56e3e58)" style="fill: none; stroke: #000004; stroke-linecap: square"/>
   </g>
   <g id="patch_3">
    <path d="M 72 235.872 
L 72 48.9888 
" style="fill: none; stroke: #000000; stroke-width: 0.8; stroke-linejoin: miter; stroke-linecap: square"/>
   </g>
   <g id="patch_4">
    <path d="M 72 235.872 
L 452.930233 235.872 
" style="fill: none; stroke: #000000; stroke-width: 0.8; stroke-linejoin: miter; stroke-linecap: square"/>
   </g>
   <g id="text_13">
    <!-- PnET -->
    <g transform="translate(242.770116 289.674624) scale(0.16 -0.16)">
     <defs>
      <path id="DejaVuSans-6e" d="M 3513 2113 
L 3513 0 
L 2938 0 
L 2938 2094 
Q 2938 2591 2744 2837 
Q 2550 3084 2163 3084 
Q 1697 3084 1428 2787 
Q 1159 2491 1159 1978 
L 1159 0 
L 581 0 
L 581 3500 
L 1159 3500 
L 1159 2956 
Q 1366 3272 1645 3428 
Q 1925 3584 2291 3584 
Q 2894 3584 3203 3211 
Q 3513 2838 3513 2113 
z
" transform="scale(0.015625)"/>
     </defs>
     <use xlink:href="#DejaVuSans-50"/>
     <use xlink:href="#DejaVuSans-6e" x="58.552734"/>
     <use xlink:href="#DejaVuSans-45" x="121.931641"/>
     <use xlink:href="#DejaVuSans-54" x="185.115234"/>
    </g>
   </g>
   <g id="legend_1">
    <g id="patch_5">
     <path d="M 266.5125 37.164 
L 633.4875 37.164 
Q 635.8875 37.164 635.8875 34.764 
L 635.8875 11.424 
Q 635.8875 9.024 633.4875 9.024 
L 266.5125 9.024 
Q 264.1125 9.024 264.1125 11.424 
L 264.1125 34.764 
Q 264.1125 37.164 266.5125 37.164 
z
" style="fill: #ffffff; opacity: 0.8; stroke: #cccccc; stroke-linejoin: miter"/>
    </g>
    <g id="patch_6">
     <path d="M 268.9125 32.364 
L 304.9125 32.364 
L 304.9125 13.824 
L 268.9125 13.824 
z
" style="fill: #fcffa4; fill-opacity: 0.3"/>
    </g>
    <g id="line2d_24">
     <path d="M 268.9125 20.364 
L 286.9125 20.364 
L 304.9125 20.364 
" style="fill: none; stroke: #fcffa4; stroke-linecap: square"/>
    </g>
    <g id="text_14">
     <!-- 1 -->
     <g transform="translate(314.5125 26.904) scale(0.12 -0.12)">
      <use xlink:href="#DejaVuSans-31"/>
     </g>
    </g>
    <g id="patch_7">
     <path d="M 346.1475 32.364 
L 382.1475 32.364 
L 382.1475 13.824 
L 346.1475 13.824 
z
" style="fill: #f98e09; fill-opacity: 0.3"/>
    </g>
    <g id="line2d_25">
     <path d="M 346.1475 20.364 
L 364.1475 20.364 
L 382.1475 20.364 
" style="fill: none; stroke: #f98e09; stroke-linecap: square"/>
    </g>
    <g id="text_15">
     <!-- 2 -->
     <g transform="translate(391.7475 26.904) scale(0.12 -0.12)">
      <use xlink:href="#DejaVuSans-32"/>
     </g>
    </g>
    <g id="patch_8">
     <path d="M 423.3825 32.364 
L 459.3825 32.364 
L 459.3825 13.824 
L 423.3825 13.824 
z
" style="fill: #bc3754; fill-opacity: 0.3"/>
    </g>
    <g id="line2d_26">
     <path d="M 423.3825 20.364 
L 441.3825 20.364 
L 459.3825 20.364 
" style="fill: none; stroke: #bc3754; stroke-linecap: square"/>
    </g>
    <g id="text_16">
     <!-- 3 -->
     <g transform="translate(468.9825 26.904) scale(0.12 -0.12)">
      <defs>
       <path id="DejaVuSans-33" d="M 2597 2516 
Q 3050 2419 3304 2112 
Q 3559 1806 3559 1356 
Q 3559 666 3084 287 
Q 2609 -91 1734 -91 
Q 1441 -91 1130 -33 
Q 819 25 488 141 
L 488 750 
Q 750 597 1062 519 
Q 1375 441 1716 441 
Q 2309 441 2620 675 
Q 2931 909 2931 1356 
Q 2931 1769 2642 2001 
Q 2353 2234 1838 2234 
L 1294 2234 
L 1294 2753 
L 1863 2753 
Q 2328 2753 2575 2939 
Q 2822 3125 2822 3475 
Q 2822 3834 2567 4026 
Q 2313 4219 1838 4219 
Q 1578 4219 1281 4162 
Q 984 4106 628 3988 
L 628 4550 
Q 988 4650 1302 4700 
Q 1616 4750 1894 4750 
Q 2613 4750 3031 4423 
Q 3450 4097 3450 3541 
Q 3450 3153 3228 2886 
Q 3006 2619 2597 2516 
z
" transform="scale(0.015625)"/>
      </defs>
      <use xlink:href="#DejaVuSans-33"/>
     </g>
    </g>
    <g id="patch_9">
     <path d="M 500.6175 32.364 
L 536.6175 32.364 
L 536.6175 13.824 
L 500.6175 13.824 
z
" style="fill: #57106e; fill-opacity: 0.3"/>
    </g>
    <g id="line2d_27">
     <path d="M 500.6175 20.364 
L 518.6175 20.364 
L 536.6175 20.364 
" style="fill: none; stroke: #57106e; stroke-linecap: square"/>
    </g>
    <g id="text_17">
     <!-- 4 -->
     <g transform="translate(546.2175 26.904) scale(0.12 -0.12)">
      <use xlink:href="#DejaVuSans-34"/>
     </g>
    </g>
    <g id="patch_10">
     <path d="M 577.8525 32.364 
L 613.8525 32.364 
L 613.8525 13.824 
L 577.8525 13.824 
z
" style="fill: #000004; fill-opacity: 0.3"/>
    </g>
    <g id="line2d_28">
     <path d="M 577.8525 20.364 
L 595.8525 20.364 
L 613.8525 20.364 
" style="fill: none; stroke: #000004; stroke-linecap: square"/>
    </g>
    <g id="text_18">
     <!-- 5 -->
     <g transform="translate(623.4525 26.904) scale(0.12 -0.12)">
      <use xlink:href="#DejaVuSans-35"/>
     </g>
    </g>
   </g>
  </g>
  <g id="axes_2">
   <g id="patch_11">
    <path d="M 510.069767 235.872 
L 891 235.872 
L 891 48.9888 
L 510.069767 48.9888 
z
" style="fill: #fcfcfc"/>
   </g>
   <g id="matplotlib.axis_3">
    <g id="xtick_6">
     <g id="line2d_29">
      <path d="M 527.384778 235.872 
L 527.384778 48.9888 
" clip-path="url(#p3433925411)" style="fill: none; stroke: #dcdcdc; stroke-width: 0.5; stroke-linecap: square"/>
     </g>
     <g id="line2d_30">
      <g>
       <use xlink:href="#m82f40473a9" x="527.384778" y="235.872" style="stroke: #000000; stroke-width: 0.8"/>
      </g>
     </g>
     <g id="text_19">
      <!-- 0 -->
      <g transform="translate(523.249153 252.749969) scale(0.13 -0.13)">
       <use xlink:href="#DejaVuSans-30"/>
      </g>
     </g>
    </g>
    <g id="xtick_7">
     <g id="line2d_31">
      <path d="M 613.959831 235.872 
L 613.959831 48.9888 
" clip-path="url(#p3433925411)" style="fill: none; stroke: #dcdcdc; stroke-width: 0.5; stroke-linecap: square"/>
     </g>
     <g id="line2d_32">
      <g>
       <use xlink:href="#m82f40473a9" x="613.959831" y="235.872" style="stroke: #000000; stroke-width: 0.8"/>
      </g>
     </g>
     <g id="text_20">
      <!-- 25 -->
      <g transform="translate(605.688581 252.749969) scale(0.13 -0.13)">
       <use xlink:href="#DejaVuSans-32"/>
       <use xlink:href="#DejaVuSans-35" x="63.623047"/>
      </g>
     </g>
    </g>
    <g id="xtick_8">
     <g id="line2d_33">
      <path d="M 700.534884 235.872 
L 700.534884 48.9888 
" clip-path="url(#p3433925411)" style="fill: none; stroke: #dcdcdc; stroke-width: 0.5; stroke-linecap: square"/>
     </g>
     <g id="line2d_34">
      <g>
       <use xlink:href="#m82f40473a9" x="700.534884" y="235.872" style="stroke: #000000; stroke-width: 0.8"/>
      </g>
     </g>
     <g id="text_21">
      <!-- 50 -->
      <g transform="translate(692.263634 252.749969) scale(0.13 -0.13)">
       <use xlink:href="#DejaVuSans-35"/>
       <use xlink:href="#DejaVuSans-30" x="63.623047"/>
      </g>
     </g>
    </g>
    <g id="xtick_9">
     <g id="line2d_35">
      <path d="M 787.109937 235.872 
L 787.109937 48.9888 
" clip-path="url(#p3433925411)" style="fill: none; stroke: #dcdcdc; stroke-width: 0.5; stroke-linecap: square"/>
     </g>
     <g id="line2d_36">
      <g>
       <use xlink:href="#m82f40473a9" x="787.109937" y="235.872" style="stroke: #000000; stroke-width: 0.8"/>
      </g>
     </g>
     <g id="text_22">
      <!-- 75 -->
      <g transform="translate(778.838687 252.749969) scale(0.13 -0.13)">
       <use xlink:href="#DejaVuSans-37"/>
       <use xlink:href="#DejaVuSans-35" x="63.623047"/>
      </g>
     </g>
    </g>
    <g id="xtick_10">
     <g id="line2d_37">
      <path d="M 873.684989 235.872 
L 873.684989 48.9888 
" clip-path="url(#p3433925411)" style="fill: none; stroke: #dcdcdc; stroke-width: 0.5; stroke-linecap: square"/>
     </g>
     <g id="line2d_38">
      <g>
       <use xlink:href="#m82f40473a9" x="873.684989" y="235.872" style="stroke: #000000; stroke-width: 0.8"/>
      </g>
     </g>
     <g id="text_23">
      <!-- 100 -->
      <g transform="translate(861.278114 252.749969) scale(0.13 -0.13)">
       <use xlink:href="#DejaVuSans-31"/>
       <use xlink:href="#DejaVuSans-30" x="63.623047"/>
       <use xlink:href="#DejaVuSans-30" x="127.246094"/>
      </g>
     </g>
    </g>
    <g id="text_24">
     <!-- Time step -->
     <g transform="translate(663.577462 270.851219) scale(0.15 -0.15)">
      <use xlink:href="#DejaVuSans-54"/>
      <use xlink:href="#DejaVuSans-69" x="57.958984"/>
      <use xlink:href="#DejaVuSans-6d" x="85.742188"/>
      <use xlink:href="#DejaVuSans-65" x="183.154297"/>
      <use xlink:href="#DejaVuSans-20" x="244.677734"/>
      <use xlink:href="#DejaVuSans-73" x="276.464844"/>
      <use xlink:href="#DejaVuSans-74" x="328.564453"/>
      <use xlink:href="#DejaVuSans-65" x="367.773438"/>
      <use xlink:href="#DejaVuSans-70" x="429.296875"/>
     </g>
    </g>
   </g>
   <g id="matplotlib.axis_4">
    <g id="ytick_5">
     <g id="line2d_39">
      <path d="M 510.069767 235.872 
L 891 235.872 
" clip-path="url(#p3433925411)" style="fill: none; stroke: #dcdcdc; stroke-width: 0.5; stroke-linecap: square"/>
     </g>
    </g>
    <g id="ytick_6">
     <g id="line2d_40">
      <path d="M 510.069767 182.029177 
L 891 182.029177 
" clip-path="url(#p3433925411)" style="fill: none; stroke: #dcdcdc; stroke-width: 0.5; stroke-linecap: square"/>
     </g>
    </g>
    <g id="ytick_7">
     <g id="line2d_41">
      <path d="M 510.069767 128.186354 
L 891 128.186354 
" clip-path="url(#p3433925411)" style="fill: none; stroke: #dcdcdc; stroke-width: 0.5; stroke-linecap: square"/>
     </g>
    </g>
    <g id="ytick_8">
     <g id="line2d_42">
      <path d="M 510.069767 74.343531 
L 891 74.343531 
" clip-path="url(#p3433925411)" style="fill: none; stroke: #dcdcdc; stroke-width: 0.5; stroke-linecap: square"/>
     </g>
    </g>
   </g>
   <g id="PolyCollection_6">
    <defs>
     <path id="mc68796e8e4" d="M 527.384778 -57.117586 
L 527.384778 -95.969882 
L 544.699789 -100.91564 
L 562.014799 -104.059918 
L 579.32981 -106.133946 
L 596.64482 -107.536573 
L 613.959831 -108.507112 
L 631.274841 -109.178511 
L 648.589852 -109.643838 
L 665.904863 -109.962919 
L 683.219873 -110.188935 
L 700.534884 -110.348476 
L 717.849894 -110.461484 
L 735.164905 -110.541254 
L 752.479915 -110.601082 
L 769.794926 -110.634319 
L 787.109937 -110.667557 
L 804.424947 -110.674204 
L 821.739958 -110.674204 
L 839.054968 -110.674204 
L 856.369979 -110.640967 
L 873.684989 -110.508016 
L 873.684989 -52.47081 
L 873.684989 -52.47081 
L 856.369979 -52.428315 
L 839.054968 -52.417691 
L 821.739958 -52.417691 
L 804.424947 -52.417691 
L 787.109937 -52.419816 
L 769.794926 -52.43044 
L 752.479915 -52.441063 
L 735.164905 -52.460186 
L 717.849894 -52.485683 
L 700.534884 -52.521803 
L 683.219873 -52.572796 
L 665.904863 -52.645037 
L 648.589852 -52.747024 
L 631.274841 -52.895755 
L 613.959831 -53.110352 
L 596.64482 -53.420562 
L 579.32981 -53.86888 
L 562.014799 -54.531794 
L 544.699789 -55.53679 
L 527.384778 -57.117586 
z
"/>
    </defs>
    <g clip-path="url(#p3433925411)">
     <use xlink:href="#mc68796e8e4" x="0" y="302.4" style="fill: #fcffa4; fill-opacity: 0.3"/>
    </g>
   </g>
   <g id="PolyCollection_7">
    <defs>
     <path id="mc12f189ff5" d="M 527.384778 -62.077389 
L 527.384778 -98.353206 
L 544.699789 -104.111807 
L 562.014799 -107.720607 
L 579.32981 -110.118299 
L 596.64482 -111.721611 
L 613.959831 -112.75304 
L 631.274841 -113.321806 
L 648.589852 -113.591523 
L 665.904863 -113.693244 
L 683.219873 -113.742363 
L 700.534884 -113.76472 
L 717.849894 -113.779939 
L 735.164905 -113.790105 
L 752.479915 -113.798589 
L 769.794926 -113.802835 
L 787.109937 -113.807084 
L 804.424947 -113.808785 
L 821.739958 -113.808785 
L 839.054968 -113.795215 
L 856.369979 -113.727775 
L 873.684989 -113.54015 
L 873.684989 -59.297771 
L 873.684989 -59.297771 
L 856.369979 -59.268443 
L 839.054968 -59.257732 
L 821.739958 -59.255146 
L 804.424947 -59.255146 
L 787.109937 -59.255554 
L 769.794926 -59.256573 
L 752.479915 -59.257589 
L 735.164905 -59.259612 
L 717.849894 -59.262025 
L 700.534884 -59.265613 
L 683.219873 -59.270783 
L 665.904863 -59.281695 
L 648.589852 -59.303729 
L 631.274841 -59.359324 
L 613.959831 -59.472709 
L 596.64482 -59.674485 
L 579.32981 -59.98531 
L 562.014799 -60.444661 
L 544.699789 -61.120147 
L 527.384778 -62.077389 
z
"/>
    </defs>
    <g clip-path="url(#p3433925411)">
     <use xlink:href="#mc12f189ff5" x="0" y="302.4" style="fill: #f98e09; fill-opacity: 0.3"/>
    </g>
   </g>
   <g id="PolyCollection_8">
    <defs>
     <path id="m705631ea7f" d="M 527.384778 -69.370868 
L 527.384778 -98.603322 
L 544.699789 -103.841914 
L 562.014799 -106.95155 
L 579.32981 -109.055605 
L 596.64482 -110.463412 
L 613.959831 -111.317647 
L 631.274841 -111.673836 
L 648.589852 -111.788644 
L 665.904863 -111.818146 
L 683.219873 -111.825496 
L 700.534884 -111.827046 
L 717.849894 -111.827872 
L 735.164905 -111.828131 
L 752.479915 -111.828338 
L 769.794926 -111.828338 
L 787.109937 -111.828338 
L 804.424947 -111.828338 
L 821.739958 -111.828338 
L 839.054968 -111.817106 
L 856.369979 -111.756785 
L 873.684989 -111.568904 
L 873.684989 -68.360331 
L 873.684989 -68.360331 
L 856.369979 -68.363528 
L 839.054968 -68.361831 
L 821.739958 -68.360161 
L 804.424947 -68.360161 
L 787.109937 -68.360161 
L 769.794926 -68.360161 
L 752.479915 -68.360161 
L 735.164905 -68.360196 
L 717.849894 -68.36024 
L 700.534884 -68.360377 
L 683.219873 -68.360634 
L 665.904863 -68.361911 
L 648.589852 -68.366989 
L 631.274841 -68.385441 
L 613.959831 -68.438387 
L 596.64482 -68.557948 
L 579.32981 -68.746064 
L 562.014799 -69.006024 
L 544.699789 -69.328411 
L 527.384778 -69.370868 
z
"/>
    </defs>
    <g clip-path="url(#p3433925411)">
     <use xlink:href="#m705631ea7f" x="0" y="302.4" style="fill: #bc3754; fill-opacity: 0.3"/>
    </g>
   </g>
   <g id="PolyCollection_9">
    <defs>
     <path id="m49d31af63e" d="M 527.384778 -75.48116 
L 527.384778 -95.233458 
L 544.699789 -98.841825 
L 562.014799 -100.748626 
L 579.32981 -102.087797 
L 596.64482 -102.978139 
L 613.959831 -103.484989 
L 631.274841 -103.636702 
L 648.589852 -103.658781 
L 665.904863 -103.659346 
L 683.219873 -103.659346 
L 700.534884 -103.659346 
L 717.849894 -103.659346 
L 735.164905 -103.659346 
L 752.479915 -103.659346 
L 769.794926 -103.659346 
L 787.109937 -103.659346 
L 804.424947 -103.659346 
L 821.739958 -103.659346 
L 839.054968 -103.65417 
L 856.369979 -103.610681 
L 873.684989 -103.469933 
L 873.684989 -74.998827 
L 873.684989 -74.998827 
L 856.369979 -75.024647 
L 839.054968 -75.026946 
L 821.739958 -75.025776 
L 804.424947 -75.025776 
L 787.109937 -75.025776 
L 769.794926 -75.025776 
L 752.479915 -75.025776 
L 735.164905 -75.025776 
L 717.849894 -75.025776 
L 700.534884 -75.025776 
L 683.219873 -75.025776 
L 665.904863 -75.025776 
L 648.589852 -75.02591 
L 631.274841 -75.031104 
L 613.959831 -75.065655 
L 596.64482 -75.176997 
L 579.32981 -75.362817 
L 562.014799 -75.614319 
L 544.699789 -75.893258 
L 527.384778 -75.48116 
z
"/>
    </defs>
    <g clip-path="url(#p3433925411)">
     <use xlink:href="#m49d31af63e" x="0" y="302.4" style="fill: #57106e; fill-opacity: 0.3"/>
    </g>
   </g>
   <g id="PolyCollection_10">
    <defs>
     <path id="m96e3a9b93c" d="M 527.384778 -85.995733 
L 527.384778 -86.484326 
L 544.699789 -87.472186 
L 562.014799 -87.472186 
L 579.32981 -87.472186 
L 596.64482 -87.472186 
L 613.959831 -87.472186 
L 631.274841 -87.472186 
L 648.589852 -87.472186 
L 665.904863 -87.472186 
L 683.219873 -87.472186 
L 700.534884 -87.472186 
L 717.849894 -87.472186 
L 735.164905 -87.472186 
L 752.479915 -87.472186 
L 769.794926 -87.472186 
L 787.109937 -87.472186 
L 804.424947 -87.472186 
L 821.739958 -87.472186 
L 839.054968 -87.472186 
L 856.369979 -87.461418 
L 873.684989 -87.386038 
L 873.684989 -86.865925 
L 873.684989 -86.865925 
L 856.369979 -86.941305 
L 839.054968 -86.952073 
L 821.739958 -86.952073 
L 804.424947 -86.952073 
L 787.109937 -86.952073 
L 769.794926 -86.952073 
L 752.479915 -86.952073 
L 735.164905 -86.952073 
L 717.849894 -86.952073 
L 700.534884 -86.952073 
L 683.219873 -86.952073 
L 665.904863 -86.952073 
L 648.589852 -86.952073 
L 631.274841 -86.952073 
L 613.959831 -86.952073 
L 596.64482 -86.952073 
L 579.32981 -86.952073 
L 562.014799 -86.952073 
L 544.699789 -86.952073 
L 527.384778 -85.995733 
z
"/>
    </defs>
    <g clip-path="url(#p3433925411)">
     <use xlink:href="#m96e3a9b93c" x="0" y="302.4" style="fill: #000004; fill-opacity: 0.3"/>
    </g>
   </g>
   <g id="line2d_43">
    <path d="M 527.384778 225.856266 
L 544.699789 224.173785 
L 562.014799 223.104144 
L 579.32981 222.398587 
L 596.64482 221.921432 
L 613.959831 221.591268 
L 631.274841 221.362867 
L 648.589852 221.204569 
L 665.904863 221.096022 
L 683.219873 221.019134 
L 700.534884 220.964861 
L 717.849894 220.926417 
L 735.164905 220.89928 
L 752.479915 220.878928 
L 769.794926 220.867621 
L 787.109937 220.856314 
L 804.424947 220.854052 
L 821.739958 220.854052 
L 839.054968 220.854052 
L 856.369979 220.865359 
L 873.684989 220.910587 
" clip-path="url(#p3433925411)" style="fill: none; stroke: #fcffa4; stroke-linecap: square"/>
   </g>
   <g id="line2d_44">
    <path d="M 527.384778 222.184702 
L 544.699789 219.784023 
L 562.014799 218.317366 
L 579.32981 217.348195 
L 596.64482 216.701952 
L 613.959831 216.287125 
L 631.274841 216.059435 
L 648.589852 215.952374 
L 665.904863 215.91253 
L 683.219873 215.893427 
L 700.534884 215.884833 
L 717.849894 215.879018 
L 735.164905 215.875142 
L 752.479915 215.871911 
L 769.794926 215.870296 
L 787.109937 215.868681 
L 804.424947 215.868034 
L 821.739958 215.868034 
L 839.054968 215.873526 
L 856.369979 215.901891 
L 873.684989 215.98104 
" clip-path="url(#p3433925411)" style="fill: none; stroke: #f98e09; stroke-linecap: square"/>
   </g>
   <g id="line2d_45">
    <path d="M 527.384778 218.412905 
L 544.699789 215.814838 
L 562.014799 214.421213 
L 579.32981 213.499166 
L 596.64482 212.88932 
L 613.959831 212.521983 
L 631.274841 212.370362 
L 648.589852 212.322183 
L 665.904863 212.309972 
L 683.219873 212.306935 
L 700.534884 212.306289 
L 717.849894 212.305944 
L 735.164905 212.305836 
L 752.479915 212.30575 
L 769.794926 212.30575 
L 787.109937 212.30575 
L 804.424947 212.30575 
L 821.739958 212.30575 
L 839.054968 212.310531 
L 856.369979 212.339844 
L 873.684989 212.435382 
" clip-path="url(#p3433925411)" style="fill: none; stroke: #bc3754; stroke-linecap: square"/>
   </g>
   <g id="line2d_46">
    <path d="M 527.384778 217.042691 
L 544.699789 215.032458 
L 562.014799 214.218527 
L 579.32981 213.674693 
L 596.64482 213.322432 
L 613.959831 213.124678 
L 631.274841 213.066097 
L 648.589852 213.057654 
L 665.904863 213.057439 
L 683.219873 213.057439 
L 700.534884 213.057439 
L 717.849894 213.057439 
L 735.164905 213.057439 
L 752.479915 213.057439 
L 769.794926 213.057439 
L 787.109937 213.057439 
L 804.424947 213.057439 
L 821.739958 213.057439 
L 839.054968 213.059442 
L 856.369979 213.082336 
L 873.684989 213.16562 
" clip-path="url(#p3433925411)" style="fill: none; stroke: #57106e; stroke-linecap: square"/>
   </g>
   <g id="line2d_47">
    <path d="M 527.384778 216.15997 
L 544.699789 215.18787 
L 562.014799 215.18787 
L 579.32981 215.18787 
L 596.64482 215.18787 
L 613.959831 215.18787 
L 631.274841 215.18787 
L 648.589852 215.18787 
L 665.904863 215.18787 
L 683.219873 215.18787 
L 700.534884 215.18787 
L 717.849894 215.18787 
L 735.164905 215.18787 
L 752.479915 215.18787 
L 769.794926 215.18787 
L 787.109937 215.18787 
L 804.424947 215.18787 
L 821.739958 215.18787 
L 839.054968 215.18787 
L 856.369979 215.198639 
L 873.684989 215.274019 
" clip-path="url(#p3433925411)" style="fill: none; stroke: #000004; stroke-linecap: square"/>
   </g>
   <g id="patch_12">
    <path d="M 510.069767 235.872 
L 891 235.872 
" style="fill: none; stroke: #000000; stroke-width: 0.8; stroke-linejoin: miter; stroke-linecap: square"/>
   </g>
   <g id="text_25">
    <!-- BiomassSuccession -->
    <g transform="translate(622.507384 289.674624) scale(0.16 -0.16)">
     <defs>
      <path id="DejaVuSans-53" d="M 3425 4513 
L 3425 3897 
Q 3066 4069 2747 4153 
Q 2428 4238 2131 4238 
Q 1616 4238 1336 4038 
Q 1056 3838 1056 3469 
Q 1056 3159 1242 3001 
Q 1428 2844 1947 2747 
L 2328 2669 
Q 3034 2534 3370 2195 
Q 3706 1856 3706 1288 
Q 3706 609 3251 259 
Q 2797 -91 1919 -91 
Q 1588 -91 1214 -16 
Q 841 59 441 206 
L 441 856 
Q 825 641 1194 531 
Q 1563 422 1919 422 
Q 2459 422 2753 634 
Q 3047 847 3047 1241 
Q 3047 1584 2836 1778 
Q 2625 1972 2144 2069 
L 1759 2144 
Q 1053 2284 737 2584 
Q 422 2884 422 3419 
Q 422 4038 858 4394 
Q 1294 4750 2059 4750 
Q 2388 4750 2728 4690 
Q 3069 4631 3425 4513 
z
" transform="scale(0.015625)"/>
      <path id="DejaVuSans-75" d="M 544 1381 
L 544 3500 
L 1119 3500 
L 1119 1403 
Q 1119 906 1312 657 
Q 1506 409 1894 409 
Q 2359 409 2629 706 
Q 2900 1003 2900 1516 
L 2900 3500 
L 3475 3500 
L 3475 0 
L 2900 0 
L 2900 538 
Q 2691 219 2414 64 
Q 2138 -91 1772 -91 
Q 1169 -91 856 284 
Q 544 659 544 1381 
z
M 1991 3584 
L 1991 3584 
z
" transform="scale(0.015625)"/>
      <path id="DejaVuSans-63" d="M 3122 3366 
L 3122 2828 
Q 2878 2963 2633 3030 
Q 2388 3097 2138 3097 
Q 1578 3097 1268 2742 
Q 959 2388 959 1747 
Q 959 1106 1268 751 
Q 1578 397 2138 397 
Q 2388 397 2633 464 
Q 2878 531 3122 666 
L 3122 134 
Q 2881 22 2623 -34 
Q 2366 -91 2075 -91 
Q 1284 -91 818 406 
Q 353 903 353 1747 
Q 353 2603 823 3093 
Q 1294 3584 2113 3584 
Q 2378 3584 2631 3529 
Q 2884 3475 3122 3366 
z
" transform="scale(0.015625)"/>
     </defs>
     <use xlink:href="#DejaVuSans-42"/>
     <use xlink:href="#DejaVuSans-69" x="68.603516"/>
     <use xlink:href="#DejaVuSans-6f" x="96.386719"/>
     <use xlink:href="#DejaVuSans-6d" x="157.568359"/>
     <use xlink:href="#DejaVuSans-61" x="254.980469"/>
     <use xlink:href="#DejaVuSans-73" x="316.259766"/>
     <use xlink:href="#DejaVuSans-73" x="368.359375"/>
     <use xlink:href="#DejaVuSans-53" x="420.458984"/>
     <use xlink:href="#DejaVuSans-75" x="483.935547"/>
     <use xlink:href="#DejaVuSans-63" x="547.314453"/>
     <use xlink:href="#DejaVuSans-63" x="602.294922"/>
     <use xlink:href="#DejaVuSans-65" x="657.275391"/>
     <use xlink:href="#DejaVuSans-73" x="718.798828"/>
     <use xlink:href="#DejaVuSans-73" x="770.898438"/>
     <use xlink:href="#DejaVuSans-69" x="822.998047"/>
     <use xlink:href="#DejaVuSans-6f" x="850.78125"/>
     <use xlink:href="#DejaVuSans-6e" x="911.962891"/>
    </g>
   </g>
  </g>
 </g>
 <defs>
  <clipPath id="p17a56e3e58">
   <rect x="72" y="48.9888" width="380.930233" height="186.8832"/>
  </clipPath>
  <clipPath id="p3433925411">
   <rect x="510.069767" y="48.9888" width="380.930233" height="186.8832"/>
  </clipPath>
 </defs>
</svg>
