<?xml version="1.0" encoding="utf-8" standalone="no"?>
<!DOCTYPE svg PUBLIC "-//W3C//DTD SVG 1.1//EN"
  "http://www.w3.org/Graphics/SVG/1.1/DTD/svg11.dtd">
<svg xmlns:xlink="http://www.w3.org/1999/xlink" width="900pt" height="302.4pt" viewBox="0 0 900 302.4" xmlns="http://www.w3.org/2000/svg" version="1.1">
 <metadata>
  <rdf:RDF xmlns:dc="http://purl.org/dc/elements/1.1/" xmlns:cc="http://creativecommons.org/ns#" xmlns:rdf="http://www.w3.org/1999/02/22-rdf-syntax-ns#">
   <cc:Work>
    <dc:type rdf:resource="http://purl.org/dc/dcmitype/StillImage"/>
    <dc:date>2024-03-04T14:47:00.361663</dc:date>
    <dc:format>image/svg+xml</dc:format>
    <dc:creator>
     <cc:Agent>
      <dc:title>Matplotlib v3.7.1, https://matplotlib.org/</dc:title>
     </cc:Agent>
    </dc:creator>
   </cc:Work>
  </rdf:RDF>
 </metadata>
 <defs>
  <style type="text/css">*{stroke-linejoin: round; stroke-linecap: butt}</style>
 </defs>
 <g id="figure_1">
  <g id="patch_1">
   <path d="M 0 302.4 
L 900 302.4 
L 900 0 
L 0 0 
z
" style="fill: #ffffff"/>
  </g>
  <g id="axes_1">
   <g id="patch_2">
    <path d="M 72 235.872 
L 452.930233 235.872 
L 452.930233 48.9888 
L 72 48.9888 
z
" style="fill: #fcfcfc"/>
   </g>
   <g id="matplotlib.axis_1">
    <g id="xtick_1">
     <g id="line2d_1">
      <path d="M 89.315011 235.872 
L 89.315011 48.9888 
" clip-path="url(#pe835784c1f)" style="fill: none; stroke: #dcdcdc; stroke-width: 0.5; stroke-linecap: square"/>
     </g>
     <g id="line2d_2">
      <defs>
       <path id="mf315081ec6" d="M 0 0 
L 0 3.5 
" style="stroke: #000000; stroke-width: 0.8"/>
      </defs>
      <g>
       <use xlink:href="#mf315081ec6" x="89.315011" y="235.872" style="stroke: #000000; stroke-width: 0.8"/>
      </g>
     </g>
     <g id="text_1">
      <!-- 0 -->
      <g transform="translate(85.179386 252.749969) scale(0.13 -0.13)">
       <defs>
        <path id="DejaVuSans-30" d="M 2034 4250 
Q 1547 4250 1301 3770 
Q 1056 3291 1056 2328 
Q 1056 1369 1301 889 
Q 1547 409 2034 409 
Q 2525 409 2770 889 
Q 3016 1369 3016 2328 
Q 3016 3291 2770 3770 
Q 2525 4250 2034 4250 
z
M 2034 4750 
Q 2819 4750 3233 4129 
Q 3647 3509 3647 2328 
Q 3647 1150 3233 529 
Q 2819 -91 2034 -91 
Q 1250 -91 836 529 
Q 422 1150 422 2328 
Q 422 3509 836 4129 
Q 1250 4750 2034 4750 
z
" transform="scale(0.015625)"/>
       </defs>
       <use xlink:href="#DejaVuSans-30"/>
      </g>
     </g>
    </g>
    <g id="xtick_2">
     <g id="line2d_3">
      <path d="M 175.890063 235.872 
L 175.890063 48.9888 
" clip-path="url(#pe835784c1f)" style="fill: none; stroke: #dcdcdc; stroke-width: 0.5; stroke-linecap: square"/>
     </g>
     <g id="line2d_4">
      <g>
       <use xlink:href="#mf315081ec6" x="175.890063" y="235.872" style="stroke: #000000; stroke-width: 0.8"/>
      </g>
     </g>
     <g id="text_2">
      <!-- 25 -->
      <g transform="translate(167.618813 252.749969) scale(0.13 -0.13)">
       <defs>
        <path id="DejaVuSans-32" d="M 1228 531 
L 3431 531 
L 3431 0 
L 469 0 
L 469 531 
Q 828 903 1448 1529 
Q 2069 2156 2228 2338 
Q 2531 2678 2651 2914 
Q 2772 3150 2772 3378 
Q 2772 3750 2511 3984 
Q 2250 4219 1831 4219 
Q 1534 4219 1204 4116 
Q 875 4013 500 3803 
L 500 4441 
Q 881 4594 1212 4672 
Q 1544 4750 1819 4750 
Q 2544 4750 2975 4387 
Q 3406 4025 3406 3419 
Q 3406 3131 3298 2873 
Q 3191 2616 2906 2266 
Q 2828 2175 2409 1742 
Q 1991 1309 1228 531 
z
" transform="scale(0.015625)"/>
        <path id="DejaVuSans-35" d="M 691 4666 
L 3169 4666 
L 3169 4134 
L 1269 4134 
L 1269 2991 
Q 1406 3038 1543 3061 
Q 1681 3084 1819 3084 
Q 2600 3084 3056 2656 
Q 3513 2228 3513 1497 
Q 3513 744 3044 326 
Q 2575 -91 1722 -91 
Q 1428 -91 1123 -41 
Q 819 9 494 109 
L 494 744 
Q 775 591 1075 516 
Q 1375 441 1709 441 
Q 2250 441 2565 725 
Q 2881 1009 2881 1497 
Q 2881 1984 2565 2268 
Q 2250 2553 1709 2553 
Q 1456 2553 1204 2497 
Q 953 2441 691 2322 
L 691 4666 
z
" transform="scale(0.015625)"/>
       </defs>
       <use xlink:href="#DejaVuSans-32"/>
       <use xlink:href="#DejaVuSans-35" x="63.623047"/>
      </g>
     </g>
    </g>
    <g id="xtick_3">
     <g id="line2d_5">
      <path d="M 262.465116 235.872 
L 262.465116 48.9888 
" clip-path="url(#pe835784c1f)" style="fill: none; stroke: #dcdcdc; stroke-width: 0.5; stroke-linecap: square"/>
     </g>
     <g id="line2d_6">
      <g>
       <use xlink:href="#mf315081ec6" x="262.465116" y="235.872" style="stroke: #000000; stroke-width: 0.8"/>
      </g>
     </g>
     <g id="text_3">
      <!-- 50 -->
      <g transform="translate(254.193866 252.749969) scale(0.13 -0.13)">
       <use xlink:href="#DejaVuSans-35"/>
       <use xlink:href="#DejaVuSans-30" x="63.623047"/>
      </g>
     </g>
    </g>
    <g id="xtick_4">
     <g id="line2d_7">
      <path d="M 349.040169 235.872 
L 349.040169 48.9888 
" clip-path="url(#pe835784c1f)" style="fill: none; stroke: #dcdcdc; stroke-width: 0.5; stroke-linecap: square"/>
     </g>
     <g id="line2d_8">
      <g>
       <use xlink:href="#mf315081ec6" x="349.040169" y="235.872" style="stroke: #000000; stroke-width: 0.8"/>
      </g>
     </g>
     <g id="text_4">
      <!-- 75 -->
      <g transform="translate(340.768919 252.749969) scale(0.13 -0.13)">
       <defs>
        <path id="DejaVuSans-37" d="M 525 4666 
L 3525 4666 
L 3525 4397 
L 1831 0 
L 1172 0 
L 2766 4134 
L 525 4134 
L 525 4666 
z
" transform="scale(0.015625)"/>
       </defs>
       <use xlink:href="#DejaVuSans-37"/>
       <use xlink:href="#DejaVuSans-35" x="63.623047"/>
      </g>
     </g>
    </g>
    <g id="xtick_5">
     <g id="line2d_9">
      <path d="M 435.615222 235.872 
L 435.615222 48.9888 
" clip-path="url(#pe835784c1f)" style="fill: none; stroke: #dcdcdc; stroke-width: 0.5; stroke-linecap: square"/>
     </g>
     <g id="line2d_10">
      <g>
       <use xlink:href="#mf315081ec6" x="435.615222" y="235.872" style="stroke: #000000; stroke-width: 0.8"/>
      </g>
     </g>
     <g id="text_5">
      <!-- 100 -->
      <g transform="translate(423.208347 252.749969) scale(0.13 -0.13)">
       <defs>
        <path id="DejaVuSans-31" d="M 794 531 
L 1825 531 
L 1825 4091 
L 703 3866 
L 703 4441 
L 1819 4666 
L 2450 4666 
L 2450 531 
L 3481 531 
L 3481 0 
L 794 0 
L 794 531 
z
" transform="scale(0.015625)"/>
       </defs>
       <use xlink:href="#DejaVuSans-31"/>
       <use xlink:href="#DejaVuSans-30" x="63.623047"/>
       <use xlink:href="#DejaVuSans-30" x="127.246094"/>
      </g>
     </g>
    </g>
    <g id="text_6">
     <!-- Time step -->
     <g transform="translate(225.507694 270.851219) scale(0.15 -0.15)">
      <defs>
       <path id="DejaVuSans-54" d="M -19 4666 
L 3928 4666 
L 3928 4134 
L 2272 4134 
L 2272 0 
L 1638 0 
L 1638 4134 
L -19 4134 
L -19 4666 
z
" transform="scale(0.015625)"/>
       <path id="DejaVuSans-69" d="M 603 3500 
L 1178 3500 
L 1178 0 
L 603 0 
L 603 3500 
z
M 603 4863 
L 1178 4863 
L 1178 4134 
L 603 4134 
L 603 4863 
z
" transform="scale(0.015625)"/>
       <path id="DejaVuSans-6d" d="M 3328 2828 
Q 3544 3216 3844 3400 
Q 4144 3584 4550 3584 
Q 5097 3584 5394 3201 
Q 5691 2819 5691 2113 
L 5691 0 
L 5113 0 
L 5113 2094 
Q 5113 2597 4934 2840 
Q 4756 3084 4391 3084 
Q 3944 3084 3684 2787 
Q 3425 2491 3425 1978 
L 3425 0 
L 2847 0 
L 2847 2094 
Q 2847 2600 2669 2842 
Q 2491 3084 2119 3084 
Q 1678 3084 1418 2786 
Q 1159 2488 1159 1978 
L 1159 0 
L 581 0 
L 581 3500 
L 1159 3500 
L 1159 2956 
Q 1356 3278 1631 3431 
Q 1906 3584 2284 3584 
Q 2666 3584 2933 3390 
Q 3200 3197 3328 2828 
z
" transform="scale(0.015625)"/>
       <path id="DejaVuSans-65" d="M 3597 1894 
L 3597 1613 
L 953 1613 
Q 991 1019 1311 708 
Q 1631 397 2203 397 
Q 2534 397 2845 478 
Q 3156 559 3463 722 
L 3463 178 
Q 3153 47 2828 -22 
Q 2503 -91 2169 -91 
Q 1331 -91 842 396 
Q 353 884 353 1716 
Q 353 2575 817 3079 
Q 1281 3584 2069 3584 
Q 2775 3584 3186 3129 
Q 3597 2675 3597 1894 
z
M 3022 2063 
Q 3016 2534 2758 2815 
Q 2500 3097 2075 3097 
Q 1594 3097 1305 2825 
Q 1016 2553 972 2059 
L 3022 2063 
z
" transform="scale(0.015625)"/>
       <path id="DejaVuSans-20" transform="scale(0.015625)"/>
       <path id="DejaVuSans-73" d="M 2834 3397 
L 2834 2853 
Q 2591 2978 2328 3040 
Q 2066 3103 1784 3103 
Q 1356 3103 1142 2972 
Q 928 2841 928 2578 
Q 928 2378 1081 2264 
Q 1234 2150 1697 2047 
L 1894 2003 
Q 2506 1872 2764 1633 
Q 3022 1394 3022 966 
Q 3022 478 2636 193 
Q 2250 -91 1575 -91 
Q 1294 -91 989 -36 
Q 684 19 347 128 
L 347 722 
Q 666 556 975 473 
Q 1284 391 1588 391 
Q 1994 391 2212 530 
Q 2431 669 2431 922 
Q 2431 1156 2273 1281 
Q 2116 1406 1581 1522 
L 1381 1569 
Q 847 1681 609 1914 
Q 372 2147 372 2553 
Q 372 3047 722 3315 
Q 1072 3584 1716 3584 
Q 2034 3584 2315 3537 
Q 2597 3491 2834 3397 
z
" transform="scale(0.015625)"/>
       <path id="DejaVuSans-74" d="M 1172 4494 
L 1172 3500 
L 2356 3500 
L 2356 3053 
L 1172 3053 
L 1172 1153 
Q 1172 725 1289 603 
Q 1406 481 1766 481 
L 2356 481 
L 2356 0 
L 1766 0 
Q 1100 0 847 248 
Q 594 497 594 1153 
L 594 3053 
L 172 3053 
L 172 3500 
L 594 3500 
L 594 4494 
L 1172 4494 
z
" transform="scale(0.015625)"/>
       <path id="DejaVuSans-70" d="M 1159 525 
L 1159 -1331 
L 581 -1331 
L 581 3500 
L 1159 3500 
L 1159 2969 
Q 1341 3281 1617 3432 
Q 1894 3584 2278 3584 
Q 2916 3584 3314 3078 
Q 3713 2572 3713 1747 
Q 3713 922 3314 415 
Q 2916 -91 2278 -91 
Q 1894 -91 1617 61 
Q 1341 213 1159 525 
z
M 3116 1747 
Q 3116 2381 2855 2742 
Q 2594 3103 2138 3103 
Q 1681 3103 1420 2742 
Q 1159 2381 1159 1747 
Q 1159 1113 1420 752 
Q 1681 391 2138 391 
Q 2594 391 2855 752 
Q 3116 1113 3116 1747 
z
" transform="scale(0.015625)"/>
      </defs>
      <use xlink:href="#DejaVuSans-54"/>
      <use xlink:href="#DejaVuSans-69" x="57.958984"/>
      <use xlink:href="#DejaVuSans-6d" x="85.742188"/>
      <use xlink:href="#DejaVuSans-65" x="183.154297"/>
      <use xlink:href="#DejaVuSans-20" x="244.677734"/>
      <use xlink:href="#DejaVuSans-73" x="276.464844"/>
      <use xlink:href="#DejaVuSans-74" x="328.564453"/>
      <use xlink:href="#DejaVuSans-65" x="367.773438"/>
      <use xlink:href="#DejaVuSans-70" x="429.296875"/>
     </g>
    </g>
   </g>
   <g id="matplotlib.axis_2">
    <g id="ytick_1">
     <g id="line2d_11">
      <path d="M 72 235.872 
L 452.930233 235.872 
" clip-path="url(#pe835784c1f)" style="fill: none; stroke: #dcdcdc; stroke-width: 0.5; stroke-linecap: square"/>
     </g>
     <g id="line2d_12">
      <defs>
       <path id="m14f2987024" d="M 0 0 
L -3.5 0 
" style="stroke: #000000; stroke-width: 0.8"/>
      </defs>
      <g>
       <use xlink:href="#m14f2987024" x="72" y="235.872" style="stroke: #000000; stroke-width: 0.8"/>
      </g>
     </g>
     <g id="text_7">
      <!-- 0.0 -->
      <g transform="translate(44.325937 240.810984) scale(0.13 -0.13)">
       <defs>
        <path id="DejaVuSans-2e" d="M 684 794 
L 1344 794 
L 1344 0 
L 684 0 
L 684 794 
z
" transform="scale(0.015625)"/>
       </defs>
       <use xlink:href="#DejaVuSans-30"/>
       <use xlink:href="#DejaVuSans-2e" x="63.623047"/>
       <use xlink:href="#DejaVuSans-30" x="95.410156"/>
      </g>
     </g>
    </g>
    <g id="ytick_2">
     <g id="line2d_13">
      <path d="M 72 180.319062 
L 452.930233 180.319062 
" clip-path="url(#pe835784c1f)" style="fill: none; stroke: #dcdcdc; stroke-width: 0.5; stroke-linecap: square"/>
     </g>
     <g id="line2d_14">
      <g>
       <use xlink:href="#m14f2987024" x="72" y="180.319062" style="stroke: #000000; stroke-width: 0.8"/>
      </g>
     </g>
     <g id="text_8">
      <!-- 0.5 -->
      <g transform="translate(44.325937 185.258046) scale(0.13 -0.13)">
       <use xlink:href="#DejaVuSans-30"/>
       <use xlink:href="#DejaVuSans-2e" x="63.623047"/>
       <use xlink:href="#DejaVuSans-35" x="95.410156"/>
      </g>
     </g>
    </g>
    <g id="ytick_3">
     <g id="line2d_15">
      <path d="M 72 124.766124 
L 452.930233 124.766124 
" clip-path="url(#pe835784c1f)" style="fill: none; stroke: #dcdcdc; stroke-width: 0.5; stroke-linecap: square"/>
     </g>
     <g id="line2d_16">
      <g>
       <use xlink:href="#m14f2987024" x="72" y="124.766124" style="stroke: #000000; stroke-width: 0.8"/>
      </g>
     </g>
     <g id="text_9">
      <!-- 1.0 -->
      <g transform="translate(44.325937 129.705109) scale(0.13 -0.13)">
       <use xlink:href="#DejaVuSans-31"/>
       <use xlink:href="#DejaVuSans-2e" x="63.623047"/>
       <use xlink:href="#DejaVuSans-30" x="95.410156"/>
      </g>
     </g>
    </g>
    <g id="ytick_4">
     <g id="line2d_17">
      <path d="M 72 69.213186 
L 452.930233 69.213186 
" clip-path="url(#pe835784c1f)" style="fill: none; stroke: #dcdcdc; stroke-width: 0.5; stroke-linecap: square"/>
     </g>
     <g id="line2d_18">
      <g>
       <use xlink:href="#m14f2987024" x="72" y="69.213186" style="stroke: #000000; stroke-width: 0.8"/>
      </g>
     </g>
     <g id="text_10">
      <!-- 1.5 -->
      <g transform="translate(44.325937 74.152171) scale(0.13 -0.13)">
       <use xlink:href="#DejaVuSans-31"/>
       <use xlink:href="#DejaVuSans-2e" x="63.623047"/>
       <use xlink:href="#DejaVuSans-35" x="95.410156"/>
      </g>
     </g>
    </g>
    <g id="text_11">
     <!-- Biomass ABIE.BAL -->
     <g transform="translate(37.206406 210.414384) rotate(-90) scale(0.15 -0.15)">
      <defs>
       <path id="DejaVuSans-42" d="M 1259 2228 
L 1259 519 
L 2272 519 
Q 2781 519 3026 730 
Q 3272 941 3272 1375 
Q 3272 1813 3026 2020 
Q 2781 2228 2272 2228 
L 1259 2228 
z
M 1259 4147 
L 1259 2741 
L 2194 2741 
Q 2656 2741 2882 2914 
Q 3109 3088 3109 3444 
Q 3109 3797 2882 3972 
Q 2656 4147 2194 4147 
L 1259 4147 
z
M 628 4666 
L 2241 4666 
Q 2963 4666 3353 4366 
Q 3744 4066 3744 3513 
Q 3744 3084 3544 2831 
Q 3344 2578 2956 2516 
Q 3422 2416 3680 2098 
Q 3938 1781 3938 1306 
Q 3938 681 3513 340 
Q 3088 0 2303 0 
L 628 0 
L 628 4666 
z
" transform="scale(0.015625)"/>
       <path id="DejaVuSans-6f" d="M 1959 3097 
Q 1497 3097 1228 2736 
Q 959 2375 959 1747 
Q 959 1119 1226 758 
Q 1494 397 1959 397 
Q 2419 397 2687 759 
Q 2956 1122 2956 1747 
Q 2956 2369 2687 2733 
Q 2419 3097 1959 3097 
z
M 1959 3584 
Q 2709 3584 3137 3096 
Q 3566 2609 3566 1747 
Q 3566 888 3137 398 
Q 2709 -91 1959 -91 
Q 1206 -91 779 398 
Q 353 888 353 1747 
Q 353 2609 779 3096 
Q 1206 3584 1959 3584 
z
" transform="scale(0.015625)"/>
       <path id="DejaVuSans-61" d="M 2194 1759 
Q 1497 1759 1228 1600 
Q 959 1441 959 1056 
Q 959 750 1161 570 
Q 1363 391 1709 391 
Q 2188 391 2477 730 
Q 2766 1069 2766 1631 
L 2766 1759 
L 2194 1759 
z
M 3341 1997 
L 3341 0 
L 2766 0 
L 2766 531 
Q 2569 213 2275 61 
Q 1981 -91 1556 -91 
Q 1019 -91 701 211 
Q 384 513 384 1019 
Q 384 1609 779 1909 
Q 1175 2209 1959 2209 
L 2766 2209 
L 2766 2266 
Q 2766 2663 2505 2880 
Q 2244 3097 1772 3097 
Q 1472 3097 1187 3025 
Q 903 2953 641 2809 
L 641 3341 
Q 956 3463 1253 3523 
Q 1550 3584 1831 3584 
Q 2591 3584 2966 3190 
Q 3341 2797 3341 1997 
z
" transform="scale(0.015625)"/>
       <path id="DejaVuSans-41" d="M 2188 4044 
L 1331 1722 
L 3047 1722 
L 2188 4044 
z
M 1831 4666 
L 2547 4666 
L 4325 0 
L 3669 0 
L 3244 1197 
L 1141 1197 
L 716 0 
L 50 0 
L 1831 4666 
z
" transform="scale(0.015625)"/>
       <path id="DejaVuSans-49" d="M 628 4666 
L 1259 4666 
L 1259 0 
L 628 0 
L 628 4666 
z
" transform="scale(0.015625)"/>
       <path id="DejaVuSans-45" d="M 628 4666 
L 3578 4666 
L 3578 4134 
L 1259 4134 
L 1259 2753 
L 3481 2753 
L 3481 2222 
L 1259 2222 
L 1259 531 
L 3634 531 
L 3634 0 
L 628 0 
L 628 4666 
z
" transform="scale(0.015625)"/>
       <path id="DejaVuSans-4c" d="M 628 4666 
L 1259 4666 
L 1259 531 
L 3531 531 
L 3531 0 
L 628 0 
L 628 4666 
z
" transform="scale(0.015625)"/>
      </defs>
      <use xlink:href="#DejaVuSans-42"/>
      <use xlink:href="#DejaVuSans-69" x="68.603516"/>
      <use xlink:href="#DejaVuSans-6f" x="96.386719"/>
      <use xlink:href="#DejaVuSans-6d" x="157.568359"/>
      <use xlink:href="#DejaVuSans-61" x="254.980469"/>
      <use xlink:href="#DejaVuSans-73" x="316.259766"/>
      <use xlink:href="#DejaVuSans-73" x="368.359375"/>
      <use xlink:href="#DejaVuSans-20" x="420.458984"/>
      <use xlink:href="#DejaVuSans-41" x="452.246094"/>
      <use xlink:href="#DejaVuSans-42" x="520.654297"/>
      <use xlink:href="#DejaVuSans-49" x="589.257812"/>
      <use xlink:href="#DejaVuSans-45" x="618.75"/>
      <use xlink:href="#DejaVuSans-2e" x="681.933594"/>
      <use xlink:href="#DejaVuSans-42" x="713.720703"/>
      <use xlink:href="#DejaVuSans-41" x="782.324219"/>
      <use xlink:href="#DejaVuSans-4c" x="850.732422"/>
     </g>
    </g>
    <g id="text_12">
     <!-- 1e4 -->
     <g transform="translate(72 45.9888) scale(0.12 -0.12)">
      <defs>
       <path id="DejaVuSans-34" d="M 2419 4116 
L 825 1625 
L 2419 1625 
L 2419 4116 
z
M 2253 4666 
L 3047 4666 
L 3047 1625 
L 3713 1625 
L 3713 1100 
L 3047 1100 
L 3047 0 
L 2419 0 
L 2419 1100 
L 313 1100 
L 313 1709 
L 2253 4666 
z
" transform="scale(0.015625)"/>
      </defs>
      <use xlink:href="#DejaVuSans-31"/>
      <use xlink:href="#DejaVuSans-65" x="63.623047"/>
      <use xlink:href="#DejaVuSans-34" x="125.146484"/>
     </g>
    </g>
   </g>
   <g id="PolyCollection_1">
    <defs>
     <path id="m7cfe01e9c7" d="M 89.315011 -72.418486 
L 89.315011 -72.578699 
L 106.630021 -76.234592 
L 123.945032 -82.295679 
L 141.260042 -90.855564 
L 158.575053 -100.758039 
L 175.890063 -117.560637 
L 193.205074 -135.242608 
L 210.520085 -154.715802 
L 227.835095 -172.868403 
L 245.150106 -185.39042 
L 262.465116 -202.037303 
L 279.780127 -209.748134 
L 297.095137 -219.072069 
L 314.410148 -229.138021 
L 331.725159 -236.034932 
L 349.040169 -241.375631 
L 366.35518 -243.768197 
L 383.67019 -244.512 
L 400.985201 -239.026821 
L 418.300211 -235.903117 
L 435.615222 -227.074439 
L 435.615222 -225.265546 
L 435.615222 -225.265546 
L 418.300211 -234.056102 
L 400.985201 -237.159504 
L 383.67019 -242.285908 
L 366.35518 -241.232168 
L 349.040169 -238.6336 
L 331.725159 -232.868674 
L 314.410148 -225.834202 
L 297.095137 -215.574898 
L 279.780127 -205.779561 
L 262.465116 -199.849395 
L 245.150106 -182.793444 
L 227.835095 -170.558914 
L 210.520085 -152.243331 
L 193.205074 -133.007453 
L 175.890063 -115.972613 
L 158.575053 -99.653147 
L 141.260042 -90.073693 
L 123.945032 -81.787985 
L 106.630021 -75.935933 
L 89.315011 -72.418486 
z
"/>
    </defs>
    <g clip-path="url(#pe835784c1f)">
     <use xlink:href="#m7cfe01e9c7" x="0" y="302.4" style="fill: #fcffa4; fill-opacity: 0.3"/>
    </g>
   </g>
   <g id="PolyCollection_2">
    <defs>
     <path id="m7c93d267dc" d="M 89.315011 -72.041076 
L 89.315011 -72.453709 
L 106.630021 -75.738516 
L 123.945032 -80.868637 
L 141.260042 -87.528051 
L 158.575053 -94.980916 
L 175.890063 -107.39406 
L 193.205074 -118.787843 
L 210.520085 -130.821212 
L 227.835095 -142.595815 
L 245.150106 -151.791126 
L 262.465116 -164.431812 
L 279.780127 -169.496352 
L 297.095137 -177.328784 
L 314.410148 -186.607813 
L 331.725159 -193.400582 
L 349.040169 -199.722747 
L 366.35518 -204.022518 
L 383.67019 -207.037021 
L 400.985201 -202.728936 
L 418.300211 -202.25598 
L 435.615222 -195.175613 
L 435.615222 -65.308392 
L 435.615222 -65.308392 
L 418.300211 -69.16548 
L 400.985201 -72.14357 
L 383.67019 -81.39446 
L 366.35518 -83.409203 
L 349.040169 -84.578397 
L 331.725159 -89.096106 
L 314.410148 -100.053123 
L 297.095137 -100.104181 
L 279.780127 -100.314363 
L 262.465116 -112.731407 
L 245.150106 -116.718685 
L 227.835095 -120.747959 
L 210.520085 -116.321296 
L 193.205074 -108.830368 
L 175.890063 -101.130655 
L 158.575053 -91.840763 
L 141.260042 -85.555339 
L 123.945032 -79.654668 
L 106.630021 -75.052204 
L 89.315011 -72.041076 
z
"/>
    </defs>
    <g clip-path="url(#pe835784c1f)">
     <use xlink:href="#m7c93d267dc" x="0" y="302.4" style="fill: #f98e09; fill-opacity: 0.3"/>
    </g>
   </g>
   <g id="PolyCollection_3">
    <defs>
     <path id="mb7e7a49926" d="M 89.315011 -71.78179 
L 89.315011 -72.358086 
L 106.630021 -75.370788 
L 123.945032 -79.784622 
L 141.260042 -85.293261 
L 158.575053 -91.23978 
L 175.890063 -100.451007 
L 193.205074 -107.479169 
L 210.520085 -114.953763 
L 227.835095 -122.080856 
L 245.150106 -128.685298 
L 262.465116 -137.466072 
L 279.780127 -141.415749 
L 297.095137 -148.037391 
L 314.410148 -154.908728 
L 331.725159 -159.329467 
L 349.040169 -163.386568 
L 366.35518 -164.127684 
L 383.67019 -164.630388 
L 400.985201 -157.958959 
L 418.300211 -155.797191 
L 435.615222 -146.579673 
L 435.615222 -49.838653 
L 435.615222 -49.838653 
L 418.300211 -55.290053 
L 400.985201 -58.898203 
L 383.67019 -68.72828 
L 366.35518 -74.657287 
L 349.040169 -82.157821 
L 331.725159 -86.211206 
L 314.410148 -90.188992 
L 297.095137 -92.157501 
L 279.780127 -95.127515 
L 262.465116 -98.083434 
L 245.150106 -98.508194 
L 227.835095 -103.759777 
L 210.520085 -101.319377 
L 193.205074 -97.779391 
L 175.890063 -93.744118 
L 158.575053 -87.53292 
L 141.260042 -82.930033 
L 123.945032 -78.206169 
L 106.630021 -74.413499 
L 89.315011 -71.78179 
z
"/>
    </defs>
    <g clip-path="url(#pe835784c1f)">
     <use xlink:href="#mb7e7a49926" x="0" y="302.4" style="fill: #bc3754; fill-opacity: 0.3"/>
    </g>
   </g>
   <g id="PolyCollection_4">
    <defs>
     <path id="m2511d7403b" d="M 89.315011 -71.642084 
L 89.315011 -72.2977 
L 106.630021 -75.102513 
L 123.945032 -78.962103 
L 141.260042 -83.859565 
L 158.575053 -88.588314 
L 175.890063 -95.409232 
L 193.205074 -100.572467 
L 210.520085 -106.580428 
L 227.835095 -112.770568 
L 245.150106 -117.661228 
L 262.465116 -124.956502 
L 279.780127 -128.100107 
L 297.095137 -134.365684 
L 314.410148 -141.446854 
L 331.725159 -146.062806 
L 349.040169 -149.841696 
L 366.35518 -151.651933 
L 383.67019 -150.789348 
L 400.985201 -143.638557 
L 418.300211 -140.792297 
L 435.615222 -132.412503 
L 435.615222 -51.093047 
L 435.615222 -51.093047 
L 418.300211 -56.61566 
L 400.985201 -60.815553 
L 383.67019 -71.233888 
L 366.35518 -80.045961 
L 349.040169 -84.055867 
L 331.725159 -87.359156 
L 314.410148 -91.133028 
L 297.095137 -91.005637 
L 279.780127 -90.221659 
L 262.465116 -91.573059 
L 245.150106 -90.197824 
L 227.835095 -93.253195 
L 210.520085 -92.368386 
L 193.205074 -91.199814 
L 175.890063 -89.164465 
L 158.575053 -84.875193 
L 141.260042 -81.335283 
L 123.945032 -77.27217 
L 106.630021 -74.025802 
L 89.315011 -71.642084 
z
"/>
    </defs>
    <g clip-path="url(#pe835784c1f)">
     <use xlink:href="#m2511d7403b" x="0" y="302.4" style="fill: #57106e; fill-opacity: 0.3"/>
    </g>
   </g>
   <g id="PolyCollection_5">
    <defs>
     <path id="m8799369f19" d="M 89.315011 -71.473171 
L 89.315011 -72.16167 
L 106.630021 -74.77106 
L 123.945032 -78.258205 
L 141.260042 -82.594751 
L 158.575053 -86.33404 
L 175.890063 -91.68411 
L 193.205074 -95.348053 
L 210.520085 -99.848236 
L 227.835095 -105.174873 
L 245.150106 -109.311759 
L 262.465116 -115.627357 
L 279.780127 -118.842427 
L 297.095137 -123.907062 
L 314.410148 -129.385679 
L 331.725159 -133.260456 
L 349.040169 -137.307811 
L 366.35518 -138.025953 
L 383.67019 -137.258267 
L 400.985201 -129.12148 
L 418.300211 -126.343093 
L 435.615222 -115.944264 
L 435.615222 -52.806127 
L 435.615222 -52.806127 
L 418.300211 -58.406499 
L 400.985201 -61.775659 
L 383.67019 -70.856133 
L 366.35518 -76.855866 
L 349.040169 -82.993698 
L 331.725159 -85.425645 
L 314.410148 -87.257948 
L 297.095137 -88.156103 
L 279.780127 -87.20991 
L 262.465116 -88.551262 
L 245.150106 -87.425265 
L 227.835095 -87.675811 
L 210.520085 -86.802963 
L 193.205074 -86.401146 
L 175.890063 -85.852525 
L 158.575053 -82.564537 
L 141.260042 -80.021971 
L 123.945032 -76.634562 
L 106.630021 -73.685286 
L 89.315011 -71.473171 
z
"/>
    </defs>
    <g clip-path="url(#pe835784c1f)">
     <use xlink:href="#m8799369f19" x="0" y="302.4" style="fill: #000004; fill-opacity: 0.3"/>
    </g>
   </g>
   <g id="line2d_19">
    <path d="M 89.315011 229.901408 
L 106.630021 226.314737 
L 123.945032 220.358168 
L 141.260042 211.935372 
L 158.575053 202.194407 
L 175.890063 185.633375 
L 193.205074 168.274969 
L 210.520085 148.920434 
L 227.835095 130.686341 
L 245.150106 118.308068 
L 262.465116 101.456651 
L 279.780127 94.636152 
L 297.095137 85.076517 
L 314.410148 74.913889 
L 331.725159 67.948197 
L 349.040169 62.395385 
L 366.35518 59.899817 
L 383.67019 59.001046 
L 400.985201 64.306837 
L 418.300211 67.420391 
L 435.615222 76.230008 
" clip-path="url(#pe835784c1f)" style="fill: none; stroke: #fcffa4; stroke-linecap: square"/>
   </g>
   <g id="line2d_20">
    <path d="M 89.315011 230.152608 
L 106.630021 227.00464 
L 123.945032 222.138348 
L 141.260042 215.858305 
L 158.575053 208.98916 
L 175.890063 198.137643 
L 193.205074 188.590895 
L 210.520085 178.828746 
L 227.835095 170.728113 
L 245.150106 168.145095 
L 262.465116 163.81839 
L 279.780127 167.494642 
L 297.095137 163.683517 
L 314.410148 159.069532 
L 331.725159 161.151656 
L 349.040169 160.249428 
L 366.35518 158.68414 
L 383.67019 158.18426 
L 400.985201 164.963747 
L 418.300211 166.68927 
L 435.615222 172.157997 
" clip-path="url(#pe835784c1f)" style="fill: none; stroke: #f98e09; stroke-linecap: square"/>
   </g>
   <g id="line2d_21">
    <path d="M 89.315011 230.330062 
L 106.630021 227.507857 
L 123.945032 223.404604 
L 141.260042 218.288353 
L 158.575053 213.01365 
L 175.890063 205.302438 
L 193.205074 199.77072 
L 210.520085 194.26343 
L 227.835095 189.479683 
L 245.150106 188.803254 
L 262.465116 184.625247 
L 279.780127 184.128368 
L 297.095137 182.302554 
L 314.410148 179.85114 
L 331.725159 179.629664 
L 349.040169 179.627805 
L 366.35518 183.007515 
L 383.67019 185.720666 
L 400.985201 193.971419 
L 418.300211 196.856378 
L 435.615222 204.190837 
" clip-path="url(#pe835784c1f)" style="fill: none; stroke: #bc3754; stroke-linecap: square"/>
   </g>
   <g id="line2d_22">
    <path d="M 89.315011 230.430108 
L 106.630021 227.835842 
L 123.945032 224.282864 
L 141.260042 219.802576 
L 158.575053 215.668247 
L 175.890063 210.113151 
L 193.205074 206.51386 
L 210.520085 202.925593 
L 227.835095 199.388118 
L 245.150106 198.470474 
L 262.465116 194.135219 
L 279.780127 193.239117 
L 297.095137 189.714339 
L 314.410148 186.110059 
L 331.725159 185.689019 
L 349.040169 185.451218 
L 366.35518 186.551053 
L 383.67019 191.388382 
L 400.985201 200.172945 
L 418.300211 203.696022 
L 435.615222 210.647225 
" clip-path="url(#pe835784c1f)" style="fill: none; stroke: #57106e; stroke-linecap: square"/>
   </g>
   <g id="line2d_23">
    <path d="M 89.315011 230.582579 
L 106.630021 228.171827 
L 123.945032 224.953617 
L 141.260042 221.091639 
L 158.575053 217.950711 
L 175.890063 213.631683 
L 193.205074 211.525401 
L 210.520085 209.074401 
L 227.835095 205.974658 
L 245.150106 204.031488 
L 262.465116 200.31069 
L 279.780127 199.373831 
L 297.095137 196.368417 
L 314.410148 194.078186 
L 331.725159 193.056949 
L 349.040169 192.249245 
L 366.35518 194.959091 
L 383.67019 198.3428 
L 400.985201 206.951431 
L 418.300211 210.025204 
L 435.615222 218.024804 
" clip-path="url(#pe835784c1f)" style="fill: none; stroke: #000004; stroke-linecap: square"/>
   </g>
   <g id="patch_3">
    <path d="M 72 235.872 
L 72 48.9888 
" style="fill: none; stroke: #000000; stroke-width: 0.8; stroke-linejoin: miter; stroke-linecap: square"/>
   </g>
   <g id="patch_4">
    <path d="M 72 235.872 
L 452.930233 235.872 
" style="fill: none; stroke: #000000; stroke-width: 0.8; stroke-linejoin: miter; stroke-linecap: square"/>
   </g>
   <g id="text_13">
    <!-- PnET -->
    <g transform="translate(242.770116 289.674624) scale(0.16 -0.16)">
     <defs>
      <path id="DejaVuSans-50" d="M 1259 4147 
L 1259 2394 
L 2053 2394 
Q 2494 2394 2734 2622 
Q 2975 2850 2975 3272 
Q 2975 3691 2734 3919 
Q 2494 4147 2053 4147 
L 1259 4147 
z
M 628 4666 
L 2053 4666 
Q 2838 4666 3239 4311 
Q 3641 3956 3641 3272 
Q 3641 2581 3239 2228 
Q 2838 1875 2053 1875 
L 1259 1875 
L 1259 0 
L 628 0 
L 628 4666 
z
" transform="scale(0.015625)"/>
      <path id="DejaVuSans-6e" d="M 3513 2113 
L 3513 0 
L 2938 0 
L 2938 2094 
Q 2938 2591 2744 2837 
Q 2550 3084 2163 3084 
Q 1697 3084 1428 2787 
Q 1159 2491 1159 1978 
L 1159 0 
L 581 0 
L 581 3500 
L 1159 3500 
L 1159 2956 
Q 1366 3272 1645 3428 
Q 1925 3584 2291 3584 
Q 2894 3584 3203 3211 
Q 3513 2838 3513 2113 
z
" transform="scale(0.015625)"/>
     </defs>
     <use xlink:href="#DejaVuSans-50"/>
     <use xlink:href="#DejaVuSans-6e" x="58.552734"/>
     <use xlink:href="#DejaVuSans-45" x="121.931641"/>
     <use xlink:href="#DejaVuSans-54" x="185.115234"/>
    </g>
   </g>
   <g id="legend_1">
    <g id="patch_5">
     <path d="M 266.5125 37.164 
L 633.4875 37.164 
Q 635.8875 37.164 635.8875 34.764 
L 635.8875 11.424 
Q 635.8875 9.024 633.4875 9.024 
L 266.5125 9.024 
Q 264.1125 9.024 264.1125 11.424 
L 264.1125 34.764 
Q 264.1125 37.164 266.5125 37.164 
z
" style="fill: #ffffff; opacity: 0.8; stroke: #cccccc; stroke-linejoin: miter"/>
    </g>
    <g id="patch_6">
     <path d="M 268.9125 32.364 
L 304.9125 32.364 
L 304.9125 13.824 
L 268.9125 13.824 
z
" style="fill: #fcffa4; fill-opacity: 0.3"/>
    </g>
    <g id="line2d_24">
     <path d="M 268.9125 20.364 
L 286.9125 20.364 
L 304.9125 20.364 
" style="fill: none; stroke: #fcffa4; stroke-linecap: square"/>
    </g>
    <g id="text_14">
     <!-- 1 -->
     <g transform="translate(314.5125 26.904) scale(0.12 -0.12)">
      <use xlink:href="#DejaVuSans-31"/>
     </g>
    </g>
    <g id="patch_7">
     <path d="M 346.1475 32.364 
L 382.1475 32.364 
L 382.1475 13.824 
L 346.1475 13.824 
z
" style="fill: #f98e09; fill-opacity: 0.3"/>
    </g>
    <g id="line2d_25">
     <path d="M 346.1475 20.364 
L 364.1475 20.364 
L 382.1475 20.364 
" style="fill: none; stroke: #f98e09; stroke-linecap: square"/>
    </g>
    <g id="text_15">
     <!-- 2 -->
     <g transform="translate(391.7475 26.904) scale(0.12 -0.12)">
      <use xlink:href="#DejaVuSans-32"/>
     </g>
    </g>
    <g id="patch_8">
     <path d="M 423.3825 32.364 
L 459.3825 32.364 
L 459.3825 13.824 
L 423.3825 13.824 
z
" style="fill: #bc3754; fill-opacity: 0.3"/>
    </g>
    <g id="line2d_26">
     <path d="M 423.3825 20.364 
L 441.3825 20.364 
L 459.3825 20.364 
" style="fill: none; stroke: #bc3754; stroke-linecap: square"/>
    </g>
    <g id="text_16">
     <!-- 3 -->
     <g transform="translate(468.9825 26.904) scale(0.12 -0.12)">
      <defs>
       <path id="DejaVuSans-33" d="M 2597 2516 
Q 3050 2419 3304 2112 
Q 3559 1806 3559 1356 
Q 3559 666 3084 287 
Q 2609 -91 1734 -91 
Q 1441 -91 1130 -33 
Q 819 25 488 141 
L 488 750 
Q 750 597 1062 519 
Q 1375 441 1716 441 
Q 2309 441 2620 675 
Q 2931 909 2931 1356 
Q 2931 1769 2642 2001 
Q 2353 2234 1838 2234 
L 1294 2234 
L 1294 2753 
L 1863 2753 
Q 2328 2753 2575 2939 
Q 2822 3125 2822 3475 
Q 2822 3834 2567 4026 
Q 2313 4219 1838 4219 
Q 1578 4219 1281 4162 
Q 984 4106 628 3988 
L 628 4550 
Q 988 4650 1302 4700 
Q 1616 4750 1894 4750 
Q 2613 4750 3031 4423 
Q 3450 4097 3450 3541 
Q 3450 3153 3228 2886 
Q 3006 2619 2597 2516 
z
" transform="scale(0.015625)"/>
      </defs>
      <use xlink:href="#DejaVuSans-33"/>
     </g>
    </g>
    <g id="patch_9">
     <path d="M 500.6175 32.364 
L 536.6175 32.364 
L 536.6175 13.824 
L 500.6175 13.824 
z
" style="fill: #57106e; fill-opacity: 0.3"/>
    </g>
    <g id="line2d_27">
     <path d="M 500.6175 20.364 
L 518.6175 20.364 
L 536.6175 20.364 
" style="fill: none; stroke: #57106e; stroke-linecap: square"/>
    </g>
    <g id="text_17">
     <!-- 4 -->
     <g transform="translate(546.2175 26.904) scale(0.12 -0.12)">
      <use xlink:href="#DejaVuSans-34"/>
     </g>
    </g>
    <g id="patch_10">
     <path d="M 577.8525 32.364 
L 613.8525 32.364 
L 613.8525 13.824 
L 577.8525 13.824 
z
" style="fill: #000004; fill-opacity: 0.3"/>
    </g>
    <g id="line2d_28">
     <path d="M 577.8525 20.364 
L 595.8525 20.364 
L 613.8525 20.364 
" style="fill: none; stroke: #000004; stroke-linecap: square"/>
    </g>
    <g id="text_18">
     <!-- 5 -->
     <g transform="translate(623.4525 26.904) scale(0.12 -0.12)">
      <use xlink:href="#DejaVuSans-35"/>
     </g>
    </g>
   </g>
  </g>
  <g id="axes_2">
   <g id="patch_11">
    <path d="M 510.069767 235.872 
L 891 235.872 
L 891 48.9888 
L 510.069767 48.9888 
z
" style="fill: #fcfcfc"/>
   </g>
   <g id="matplotlib.axis_3">
    <g id="xtick_6">
     <g id="line2d_29">
      <path d="M 527.384778 235.872 
L 527.384778 48.9888 
" clip-path="url(#p359537d381)" style="fill: none; stroke: #dcdcdc; stroke-width: 0.5; stroke-linecap: square"/>
     </g>
     <g id="line2d_30">
      <g>
       <use xlink:href="#mf315081ec6" x="527.384778" y="235.872" style="stroke: #000000; stroke-width: 0.8"/>
      </g>
     </g>
     <g id="text_19">
      <!-- 0 -->
      <g transform="translate(523.249153 252.749969) scale(0.13 -0.13)">
       <use xlink:href="#DejaVuSans-30"/>
      </g>
     </g>
    </g>
    <g id="xtick_7">
     <g id="line2d_31">
      <path d="M 613.959831 235.872 
L 613.959831 48.9888 
" clip-path="url(#p359537d381)" style="fill: none; stroke: #dcdcdc; stroke-width: 0.5; stroke-linecap: square"/>
     </g>
     <g id="line2d_32">
      <g>
       <use xlink:href="#mf315081ec6" x="613.959831" y="235.872" style="stroke: #000000; stroke-width: 0.8"/>
      </g>
     </g>
     <g id="text_20">
      <!-- 25 -->
      <g transform="translate(605.688581 252.749969) scale(0.13 -0.13)">
       <use xlink:href="#DejaVuSans-32"/>
       <use xlink:href="#DejaVuSans-35" x="63.623047"/>
      </g>
     </g>
    </g>
    <g id="xtick_8">
     <g id="line2d_33">
      <path d="M 700.534884 235.872 
L 700.534884 48.9888 
" clip-path="url(#p359537d381)" style="fill: none; stroke: #dcdcdc; stroke-width: 0.5; stroke-linecap: square"/>
     </g>
     <g id="line2d_34">
      <g>
       <use xlink:href="#mf315081ec6" x="700.534884" y="235.872" style="stroke: #000000; stroke-width: 0.8"/>
      </g>
     </g>
     <g id="text_21">
      <!-- 50 -->
      <g transform="translate(692.263634 252.749969) scale(0.13 -0.13)">
       <use xlink:href="#DejaVuSans-35"/>
       <use xlink:href="#DejaVuSans-30" x="63.623047"/>
      </g>
     </g>
    </g>
    <g id="xtick_9">
     <g id="line2d_35">
      <path d="M 787.109937 235.872 
L 787.109937 48.9888 
" clip-path="url(#p359537d381)" style="fill: none; stroke: #dcdcdc; stroke-width: 0.5; stroke-linecap: square"/>
     </g>
     <g id="line2d_36">
      <g>
       <use xlink:href="#mf315081ec6" x="787.109937" y="235.872" style="stroke: #000000; stroke-width: 0.8"/>
      </g>
     </g>
     <g id="text_22">
      <!-- 75 -->
      <g transform="translate(778.838687 252.749969) scale(0.13 -0.13)">
       <use xlink:href="#DejaVuSans-37"/>
       <use xlink:href="#DejaVuSans-35" x="63.623047"/>
      </g>
     </g>
    </g>
    <g id="xtick_10">
     <g id="line2d_37">
      <path d="M 873.684989 235.872 
L 873.684989 48.9888 
" clip-path="url(#p359537d381)" style="fill: none; stroke: #dcdcdc; stroke-width: 0.5; stroke-linecap: square"/>
     </g>
     <g id="line2d_38">
      <g>
       <use xlink:href="#mf315081ec6" x="873.684989" y="235.872" style="stroke: #000000; stroke-width: 0.8"/>
      </g>
     </g>
     <g id="text_23">
      <!-- 100 -->
      <g transform="translate(861.278114 252.749969) scale(0.13 -0.13)">
       <use xlink:href="#DejaVuSans-31"/>
       <use xlink:href="#DejaVuSans-30" x="63.623047"/>
       <use xlink:href="#DejaVuSans-30" x="127.246094"/>
      </g>
     </g>
    </g>
    <g id="text_24">
     <!-- Time step -->
     <g transform="translate(663.577462 270.851219) scale(0.15 -0.15)">
      <use xlink:href="#DejaVuSans-54"/>
      <use xlink:href="#DejaVuSans-69" x="57.958984"/>
      <use xlink:href="#DejaVuSans-6d" x="85.742188"/>
      <use xlink:href="#DejaVuSans-65" x="183.154297"/>
      <use xlink:href="#DejaVuSans-20" x="244.677734"/>
      <use xlink:href="#DejaVuSans-73" x="276.464844"/>
      <use xlink:href="#DejaVuSans-74" x="328.564453"/>
      <use xlink:href="#DejaVuSans-65" x="367.773438"/>
      <use xlink:href="#DejaVuSans-70" x="429.296875"/>
     </g>
    </g>
   </g>
   <g id="matplotlib.axis_4">
    <g id="ytick_5">
     <g id="line2d_39">
      <path d="M 510.069767 235.872 
L 891 235.872 
" clip-path="url(#p359537d381)" style="fill: none; stroke: #dcdcdc; stroke-width: 0.5; stroke-linecap: square"/>
     </g>
    </g>
    <g id="ytick_6">
     <g id="line2d_40">
      <path d="M 510.069767 180.319062 
L 891 180.319062 
" clip-path="url(#p359537d381)" style="fill: none; stroke: #dcdcdc; stroke-width: 0.5; stroke-linecap: square"/>
     </g>
    </g>
    <g id="ytick_7">
     <g id="line2d_41">
      <path d="M 510.069767 124.766124 
L 891 124.766124 
" clip-path="url(#p359537d381)" style="fill: none; stroke: #dcdcdc; stroke-width: 0.5; stroke-linecap: square"/>
     </g>
    </g>
    <g id="ytick_8">
     <g id="line2d_42">
      <path d="M 510.069767 69.213186 
L 891 69.213186 
" clip-path="url(#p359537d381)" style="fill: none; stroke: #dcdcdc; stroke-width: 0.5; stroke-linecap: square"/>
     </g>
    </g>
   </g>
   <g id="PolyCollection_6">
    <defs>
     <path id="mfe4ace678f" d="M 527.384778 -94.104478 
L 527.384778 -94.104478 
L 544.699789 -99.004247 
L 562.014799 -102.170765 
L 579.32981 -104.303998 
L 596.64482 -108.495926 
L 613.959831 -111.97519 
L 631.274841 -113.744496 
L 648.589852 -115.093232 
L 665.904863 -116.724232 
L 683.219873 -118.501157 
L 700.534884 -120.11255 
L 717.849894 -121.15511 
L 735.164905 -122.673649 
L 752.479915 -123.990988 
L 769.794926 -125.463547 
L 787.109937 -126.907426 
L 804.424947 -128.027413 
L 821.739958 -129.267689 
L 839.054968 -130.344103 
L 856.369979 -131.333482 
L 873.684989 -132.339845 
L 873.684989 -124.286599 
L 873.684989 -124.286599 
L 856.369979 -123.428757 
L 839.054968 -122.315107 
L 821.739958 -121.171345 
L 804.424947 -120.125429 
L 787.109937 -118.946927 
L 769.794926 -117.604745 
L 752.479915 -116.869641 
L 735.164905 -115.715036 
L 717.849894 -114.618596 
L 700.534884 -113.396538 
L 683.219873 -112.278394 
L 665.904863 -111.22762 
L 648.589852 -110.286141 
L 631.274841 -109.275118 
L 613.959831 -107.826021 
L 596.64482 -105.583009 
L 579.32981 -104.303998 
L 562.014799 -102.170765 
L 544.699789 -99.004247 
L 527.384778 -94.104478 
z
"/>
    </defs>
    <g clip-path="url(#p359537d381)">
     <use xlink:href="#mfe4ace678f" x="0" y="302.4" style="fill: #fcffa4; fill-opacity: 0.3"/>
    </g>
   </g>
   <g id="PolyCollection_7">
    <defs>
     <path id="m5bed452bd3" d="M 527.384778 -75.860692 
L 527.384778 -86.850669 
L 544.699789 -91.185136 
L 562.014799 -93.897729 
L 579.32981 -95.530801 
L 596.64482 -97.825449 
L 613.959831 -99.785133 
L 631.274841 -101.196425 
L 648.589852 -102.399533 
L 665.904863 -103.607785 
L 683.219873 -104.780429 
L 700.534884 -105.868099 
L 717.849894 -106.943299 
L 735.164905 -108.097779 
L 752.479915 -109.058993 
L 769.794926 -109.942935 
L 787.109937 -110.690177 
L 804.424947 -111.542181 
L 821.739958 -112.274172 
L 839.054968 -113.085163 
L 856.369979 -113.726953 
L 873.684989 -114.376303 
L 873.684989 -87.304073 
L 873.684989 -87.304073 
L 856.369979 -86.753672 
L 839.054968 -86.175702 
L 821.739958 -85.523847 
L 804.424947 -84.825699 
L 787.109937 -84.167625 
L 769.794926 -83.518107 
L 752.479915 -82.998652 
L 735.164905 -82.344069 
L 717.849894 -81.593107 
L 700.534884 -80.78778 
L 683.219873 -80.129693 
L 665.904863 -79.445186 
L 648.589852 -78.690183 
L 631.274841 -77.999296 
L 613.959831 -77.226275 
L 596.64482 -76.470551 
L 579.32981 -75.855764 
L 562.014799 -75.856205 
L 544.699789 -75.858199 
L 527.384778 -75.860692 
z
"/>
    </defs>
    <g clip-path="url(#p359537d381)">
     <use xlink:href="#m5bed452bd3" x="0" y="302.4" style="fill: #f98e09; fill-opacity: 0.3"/>
    </g>
   </g>
   <g id="PolyCollection_8">
    <defs>
     <path id="m35c235d266" d="M 527.384778 -73.400896 
L 527.384778 -78.928678 
L 544.699789 -80.789862 
L 562.014799 -81.921788 
L 579.32981 -82.496453 
L 596.64482 -83.926498 
L 613.959831 -85.134778 
L 631.274841 -86.155357 
L 648.589852 -86.917547 
L 665.904863 -87.894436 
L 683.219873 -88.847622 
L 700.534884 -89.84235 
L 717.849894 -90.640075 
L 735.164905 -91.414719 
L 752.479915 -92.175995 
L 769.794926 -92.772834 
L 787.109937 -93.533897 
L 804.424947 -94.211793 
L 821.739958 -94.977931 
L 839.054968 -95.602931 
L 856.369979 -96.113445 
L 873.684989 -96.736703 
L 873.684989 -82.026032 
L 873.684989 -82.026032 
L 856.369979 -81.489958 
L 839.054968 -80.930177 
L 821.739958 -80.31378 
L 804.424947 -79.69891 
L 787.109937 -79.11449 
L 769.794926 -78.48604 
L 752.479915 -77.969598 
L 735.164905 -77.400362 
L 717.849894 -76.803424 
L 700.534884 -76.20451 
L 683.219873 -75.632644 
L 665.904863 -75.068354 
L 648.589852 -74.496887 
L 631.274841 -73.891095 
L 613.959831 -73.316577 
L 596.64482 -72.63851 
L 579.32981 -72.114547 
L 562.014799 -72.322333 
L 544.699789 -72.731151 
L 527.384778 -73.400896 
z
"/>
    </defs>
    <g clip-path="url(#p359537d381)">
     <use xlink:href="#m35c235d266" x="0" y="302.4" style="fill: #bc3754; fill-opacity: 0.3"/>
    </g>
   </g>
   <g id="PolyCollection_9">
    <defs>
     <path id="m62da8b3b0d" d="M 527.384778 -73.749723 
L 527.384778 -74.264391 
L 544.699789 -74.264391 
L 562.014799 -74.264391 
L 579.32981 -74.264391 
L 596.64482 -75.582252 
L 613.959831 -76.534774 
L 631.274841 -77.436327 
L 648.589852 -78.253604 
L 665.904863 -79.012099 
L 683.219873 -79.78277 
L 700.534884 -80.578712 
L 717.849894 -81.323579 
L 735.164905 -82.104344 
L 752.479915 -82.69492 
L 769.794926 -83.384697 
L 787.109937 -84.047203 
L 804.424947 -84.62542 
L 821.739958 -85.261029 
L 839.054968 -85.907244 
L 856.369979 -86.457263 
L 873.684989 -87.052283 
L 873.684989 -81.803492 
L 873.684989 -81.803492 
L 856.369979 -81.326439 
L 839.054968 -80.840671 
L 821.739958 -80.376389 
L 804.424947 -79.838777 
L 787.109937 -79.314261 
L 769.794926 -78.865539 
L 752.479915 -78.45112 
L 735.164905 -77.886702 
L 717.849894 -77.356755 
L 700.534884 -76.822301 
L 683.219873 -76.257745 
L 665.904863 -75.834829 
L 648.589852 -75.297182 
L 631.274841 -74.830582 
L 613.959831 -74.400608 
L 596.64482 -73.962817 
L 579.32981 -73.749723 
L 562.014799 -73.749723 
L 544.699789 -73.749723 
L 527.384778 -73.749723 
z
"/>
    </defs>
    <g clip-path="url(#p359537d381)">
     <use xlink:href="#m62da8b3b0d" x="0" y="302.4" style="fill: #57106e; fill-opacity: 0.3"/>
    </g>
   </g>
   <g id="PolyCollection_10">
    <defs>
     <path id="m1f5f233c99" d="M 527.384778 -73.376268 
L 527.384778 -73.541212 
L 544.699789 -73.541212 
L 562.014799 -73.541212 
L 579.32981 -73.541212 
L 596.64482 -74.850733 
L 613.959831 -75.756091 
L 631.274841 -76.503222 
L 648.589852 -77.337573 
L 665.904863 -78.037663 
L 683.219873 -78.784775 
L 700.534884 -79.460713 
L 717.849894 -80.152982 
L 735.164905 -80.774953 
L 752.479915 -81.339153 
L 769.794926 -81.995387 
L 787.109937 -82.592506 
L 804.424947 -83.192902 
L 821.739958 -83.781997 
L 839.054968 -84.373403 
L 856.369979 -84.971066 
L 873.684989 -85.554204 
L 873.684989 -80.880668 
L 873.684989 -80.880668 
L 856.369979 -80.383901 
L 839.054968 -79.921169 
L 821.739958 -79.470091 
L 804.424947 -79.090654 
L 787.109937 -78.599368 
L 769.794926 -78.092229 
L 752.479915 -77.646603 
L 735.164905 -77.127832 
L 717.849894 -76.731317 
L 700.534884 -76.201066 
L 683.219873 -75.689105 
L 665.904863 -75.222318 
L 648.589852 -74.78704 
L 631.274841 -74.334518 
L 613.959831 -73.87895 
L 596.64482 -73.444282 
L 579.32981 -73.376268 
L 562.014799 -73.376268 
L 544.699789 -73.376268 
L 527.384778 -73.376268 
z
"/>
    </defs>
    <g clip-path="url(#p359537d381)">
     <use xlink:href="#m1f5f233c99" x="0" y="302.4" style="fill: #000004; fill-opacity: 0.3"/>
    </g>
   </g>
   <g id="line2d_43">
    <path d="M 527.384778 208.295522 
L 544.699789 203.395753 
L 562.014799 200.229235 
L 579.32981 198.096002 
L 596.64482 195.360532 
L 613.959831 192.499394 
L 631.274841 190.890193 
L 648.589852 189.710313 
L 665.904863 188.424074 
L 683.219873 187.010225 
L 700.534884 185.645456 
L 717.849894 184.513147 
L 735.164905 183.205657 
L 752.479915 181.969686 
L 769.794926 180.865854 
L 787.109937 179.472824 
L 804.424947 178.323579 
L 821.739958 177.180483 
L 839.054968 176.070395 
L 856.369979 175.01888 
L 873.684989 174.086778 
" clip-path="url(#p359537d381)" style="fill: none; stroke: #fcffa4; stroke-linecap: square"/>
   </g>
   <g id="line2d_44">
    <path d="M 527.384778 221.04432 
L 544.699789 218.878332 
L 562.014799 217.523033 
L 579.32981 216.706717 
L 596.64482 215.252 
L 613.959831 213.894296 
L 631.274841 212.802139 
L 648.589852 211.855142 
L 665.904863 210.873515 
L 683.219873 209.944939 
L 700.534884 209.07206 
L 717.849894 208.131797 
L 735.164905 207.179076 
L 752.479915 206.371177 
L 769.794926 205.669479 
L 787.109937 204.971099 
L 804.424947 204.21606 
L 821.739958 203.50099 
L 839.054968 202.769567 
L 856.369979 202.159688 
L 873.684989 201.559812 
" clip-path="url(#p359537d381)" style="fill: none; stroke: #f98e09; stroke-linecap: square"/>
   </g>
   <g id="line2d_45">
    <path d="M 527.384778 226.235213 
L 544.699789 225.639494 
L 562.014799 225.27794 
L 579.32981 225.0945 
L 596.64482 224.117496 
L 613.959831 223.174322 
L 631.274841 222.376774 
L 648.589852 221.692783 
L 665.904863 220.918605 
L 683.219873 220.159867 
L 700.534884 219.37657 
L 717.849894 218.678251 
L 735.164905 217.992459 
L 752.479915 217.327203 
L 769.794926 216.770563 
L 787.109937 216.075806 
L 804.424947 215.444648 
L 821.739958 214.754145 
L 839.054968 214.133446 
L 856.369979 213.598299 
L 873.684989 213.018632 
" clip-path="url(#p359537d381)" style="fill: none; stroke: #bc3754; stroke-linecap: square"/>
   </g>
   <g id="line2d_46">
    <path d="M 527.384778 228.392943 
L 544.699789 228.392943 
L 562.014799 228.392943 
L 579.32981 228.392943 
L 596.64482 227.627466 
L 613.959831 226.932309 
L 631.274841 226.266545 
L 648.589852 225.624607 
L 665.904863 224.976536 
L 683.219873 224.379743 
L 700.534884 223.699493 
L 717.849894 223.059833 
L 735.164905 222.404477 
L 752.479915 221.82698 
L 769.794926 221.274882 
L 787.109937 220.719268 
L 804.424947 220.167902 
L 821.739958 219.581291 
L 839.054968 219.026043 
L 856.369979 218.508149 
L 873.684989 217.972112 
" clip-path="url(#p359537d381)" style="fill: none; stroke: #57106e; stroke-linecap: square"/>
   </g>
   <g id="line2d_47">
    <path d="M 527.384778 228.94126 
L 544.699789 228.94126 
L 562.014799 228.94126 
L 579.32981 228.94126 
L 596.64482 228.252492 
L 613.959831 227.582479 
L 631.274841 226.98113 
L 648.589852 226.337694 
L 665.904863 225.770009 
L 683.219873 225.16306 
L 700.534884 224.56911 
L 717.849894 223.95785 
L 735.164905 223.448608 
L 752.479915 222.907122 
L 769.794926 222.356192 
L 787.109937 221.804063 
L 804.424947 221.258222 
L 821.739958 220.773956 
L 839.054968 220.252714 
L 856.369979 219.722517 
L 873.684989 219.182564 
" clip-path="url(#p359537d381)" style="fill: none; stroke: #000004; stroke-linecap: square"/>
   </g>
   <g id="patch_12">
    <path d="M 510.069767 235.872 
L 891 235.872 
" style="fill: none; stroke: #000000; stroke-width: 0.8; stroke-linejoin: miter; stroke-linecap: square"/>
   </g>
   <g id="text_25">
    <!-- BiomassSuccession -->
    <g transform="translate(622.507384 289.674624) scale(0.16 -0.16)">
     <defs>
      <path id="DejaVuSans-53" d="M 3425 4513 
L 3425 3897 
Q 3066 4069 2747 4153 
Q 2428 4238 2131 4238 
Q 1616 4238 1336 4038 
Q 1056 3838 1056 3469 
Q 1056 3159 1242 3001 
Q 1428 2844 1947 2747 
L 2328 2669 
Q 3034 2534 3370 2195 
Q 3706 1856 3706 1288 
Q 3706 609 3251 259 
Q 2797 -91 1919 -91 
Q 1588 -91 1214 -16 
Q 841 59 441 206 
L 441 856 
Q 825 641 1194 531 
Q 1563 422 1919 422 
Q 2459 422 2753 634 
Q 3047 847 3047 1241 
Q 3047 1584 2836 1778 
Q 2625 1972 2144 2069 
L 1759 2144 
Q 1053 2284 737 2584 
Q 422 2884 422 3419 
Q 422 4038 858 4394 
Q 1294 4750 2059 4750 
Q 2388 4750 2728 4690 
Q 3069 4631 3425 4513 
z
" transform="scale(0.015625)"/>
      <path id="DejaVuSans-75" d="M 544 1381 
L 544 3500 
L 1119 3500 
L 1119 1403 
Q 1119 906 1312 657 
Q 1506 409 1894 409 
Q 2359 409 2629 706 
Q 2900 1003 2900 1516 
L 2900 3500 
L 3475 3500 
L 3475 0 
L 2900 0 
L 2900 538 
Q 2691 219 2414 64 
Q 2138 -91 1772 -91 
Q 1169 -91 856 284 
Q 544 659 544 1381 
z
M 1991 3584 
L 1991 3584 
z
" transform="scale(0.015625)"/>
      <path id="DejaVuSans-63" d="M 3122 3366 
L 3122 2828 
Q 2878 2963 2633 3030 
Q 2388 3097 2138 3097 
Q 1578 3097 1268 2742 
Q 959 2388 959 1747 
Q 959 1106 1268 751 
Q 1578 397 2138 397 
Q 2388 397 2633 464 
Q 2878 531 3122 666 
L 3122 134 
Q 2881 22 2623 -34 
Q 2366 -91 2075 -91 
Q 1284 -91 818 406 
Q 353 903 353 1747 
Q 353 2603 823 3093 
Q 1294 3584 2113 3584 
Q 2378 3584 2631 3529 
Q 2884 3475 3122 3366 
z
" transform="scale(0.015625)"/>
     </defs>
     <use xlink:href="#DejaVuSans-42"/>
     <use xlink:href="#DejaVuSans-69" x="68.603516"/>
     <use xlink:href="#DejaVuSans-6f" x="96.386719"/>
     <use xlink:href="#DejaVuSans-6d" x="157.568359"/>
     <use xlink:href="#DejaVuSans-61" x="254.980469"/>
     <use xlink:href="#DejaVuSans-73" x="316.259766"/>
     <use xlink:href="#DejaVuSans-73" x="368.359375"/>
     <use xlink:href="#DejaVuSans-53" x="420.458984"/>
     <use xlink:href="#DejaVuSans-75" x="483.935547"/>
     <use xlink:href="#DejaVuSans-63" x="547.314453"/>
     <use xlink:href="#DejaVuSans-63" x="602.294922"/>
     <use xlink:href="#DejaVuSans-65" x="657.275391"/>
     <use xlink:href="#DejaVuSans-73" x="718.798828"/>
     <use xlink:href="#DejaVuSans-73" x="770.898438"/>
     <use xlink:href="#DejaVuSans-69" x="822.998047"/>
     <use xlink:href="#DejaVuSans-6f" x="850.78125"/>
     <use xlink:href="#DejaVuSans-6e" x="911.962891"/>
    </g>
   </g>
  </g>
 </g>
 <defs>
  <clipPath id="pe835784c1f">
   <rect x="72" y="48.9888" width="380.930233" height="186.8832"/>
  </clipPath>
  <clipPath id="p359537d381">
   <rect x="510.069767" y="48.9888" width="380.930233" height="186.8832"/>
  </clipPath>
 </defs>
</svg>
