<?xml version="1.0" encoding="utf-8" standalone="no"?>
<!DOCTYPE svg PUBLIC "-//W3C//DTD SVG 1.1//EN"
  "http://www.w3.org/Graphics/SVG/1.1/DTD/svg11.dtd">
<svg xmlns:xlink="http://www.w3.org/1999/xlink" width="900pt" height="302.4pt" viewBox="0 0 900 302.4" xmlns="http://www.w3.org/2000/svg" version="1.1">
 <metadata>
  <rdf:RDF xmlns:dc="http://purl.org/dc/elements/1.1/" xmlns:cc="http://creativecommons.org/ns#" xmlns:rdf="http://www.w3.org/1999/02/22-rdf-syntax-ns#">
   <cc:Work>
    <dc:type rdf:resource="http://purl.org/dc/dcmitype/StillImage"/>
    <dc:date>2024-03-04T14:47:00.838915</dc:date>
    <dc:format>image/svg+xml</dc:format>
    <dc:creator>
     <cc:Agent>
      <dc:title>Matplotlib v3.7.1, https://matplotlib.org/</dc:title>
     </cc:Agent>
    </dc:creator>
   </cc:Work>
  </rdf:RDF>
 </metadata>
 <defs>
  <style type="text/css">*{stroke-linejoin: round; stroke-linecap: butt}</style>
 </defs>
 <g id="figure_1">
  <g id="patch_1">
   <path d="M 0 302.4 
L 900 302.4 
L 900 0 
L 0 0 
z
" style="fill: #ffffff"/>
  </g>
  <g id="axes_1">
   <g id="patch_2">
    <path d="M 72 235.872 
L 452.930233 235.872 
L 452.930233 48.9888 
L 72 48.9888 
z
" style="fill: #fcfcfc"/>
   </g>
   <g id="matplotlib.axis_1">
    <g id="xtick_1">
     <g id="line2d_1">
      <path d="M 89.315011 235.872 
L 89.315011 48.9888 
" clip-path="url(#pe589911b90)" style="fill: none; stroke: #dcdcdc; stroke-width: 0.5; stroke-linecap: square"/>
     </g>
     <g id="line2d_2">
      <defs>
       <path id="m328fb59809" d="M 0 0 
L 0 3.5 
" style="stroke: #000000; stroke-width: 0.8"/>
      </defs>
      <g>
       <use xlink:href="#m328fb59809" x="89.315011" y="235.872" style="stroke: #000000; stroke-width: 0.8"/>
      </g>
     </g>
     <g id="text_1">
      <!-- 0 -->
      <g transform="translate(85.179386 252.749969) scale(0.13 -0.13)">
       <defs>
        <path id="DejaVuSans-30" d="M 2034 4250 
Q 1547 4250 1301 3770 
Q 1056 3291 1056 2328 
Q 1056 1369 1301 889 
Q 1547 409 2034 409 
Q 2525 409 2770 889 
Q 3016 1369 3016 2328 
Q 3016 3291 2770 3770 
Q 2525 4250 2034 4250 
z
M 2034 4750 
Q 2819 4750 3233 4129 
Q 3647 3509 3647 2328 
Q 3647 1150 3233 529 
Q 2819 -91 2034 -91 
Q 1250 -91 836 529 
Q 422 1150 422 2328 
Q 422 3509 836 4129 
Q 1250 4750 2034 4750 
z
" transform="scale(0.015625)"/>
       </defs>
       <use xlink:href="#DejaVuSans-30"/>
      </g>
     </g>
    </g>
    <g id="xtick_2">
     <g id="line2d_3">
      <path d="M 175.890063 235.872 
L 175.890063 48.9888 
" clip-path="url(#pe589911b90)" style="fill: none; stroke: #dcdcdc; stroke-width: 0.5; stroke-linecap: square"/>
     </g>
     <g id="line2d_4">
      <g>
       <use xlink:href="#m328fb59809" x="175.890063" y="235.872" style="stroke: #000000; stroke-width: 0.8"/>
      </g>
     </g>
     <g id="text_2">
      <!-- 25 -->
      <g transform="translate(167.618813 252.749969) scale(0.13 -0.13)">
       <defs>
        <path id="DejaVuSans-32" d="M 1228 531 
L 3431 531 
L 3431 0 
L 469 0 
L 469 531 
Q 828 903 1448 1529 
Q 2069 2156 2228 2338 
Q 2531 2678 2651 2914 
Q 2772 3150 2772 3378 
Q 2772 3750 2511 3984 
Q 2250 4219 1831 4219 
Q 1534 4219 1204 4116 
Q 875 4013 500 3803 
L 500 4441 
Q 881 4594 1212 4672 
Q 1544 4750 1819 4750 
Q 2544 4750 2975 4387 
Q 3406 4025 3406 3419 
Q 3406 3131 3298 2873 
Q 3191 2616 2906 2266 
Q 2828 2175 2409 1742 
Q 1991 1309 1228 531 
z
" transform="scale(0.015625)"/>
        <path id="DejaVuSans-35" d="M 691 4666 
L 3169 4666 
L 3169 4134 
L 1269 4134 
L 1269 2991 
Q 1406 3038 1543 3061 
Q 1681 3084 1819 3084 
Q 2600 3084 3056 2656 
Q 3513 2228 3513 1497 
Q 3513 744 3044 326 
Q 2575 -91 1722 -91 
Q 1428 -91 1123 -41 
Q 819 9 494 109 
L 494 744 
Q 775 591 1075 516 
Q 1375 441 1709 441 
Q 2250 441 2565 725 
Q 2881 1009 2881 1497 
Q 2881 1984 2565 2268 
Q 2250 2553 1709 2553 
Q 1456 2553 1204 2497 
Q 953 2441 691 2322 
L 691 4666 
z
" transform="scale(0.015625)"/>
       </defs>
       <use xlink:href="#DejaVuSans-32"/>
       <use xlink:href="#DejaVuSans-35" x="63.623047"/>
      </g>
     </g>
    </g>
    <g id="xtick_3">
     <g id="line2d_5">
      <path d="M 262.465116 235.872 
L 262.465116 48.9888 
" clip-path="url(#pe589911b90)" style="fill: none; stroke: #dcdcdc; stroke-width: 0.5; stroke-linecap: square"/>
     </g>
     <g id="line2d_6">
      <g>
       <use xlink:href="#m328fb59809" x="262.465116" y="235.872" style="stroke: #000000; stroke-width: 0.8"/>
      </g>
     </g>
     <g id="text_3">
      <!-- 50 -->
      <g transform="translate(254.193866 252.749969) scale(0.13 -0.13)">
       <use xlink:href="#DejaVuSans-35"/>
       <use xlink:href="#DejaVuSans-30" x="63.623047"/>
      </g>
     </g>
    </g>
    <g id="xtick_4">
     <g id="line2d_7">
      <path d="M 349.040169 235.872 
L 349.040169 48.9888 
" clip-path="url(#pe589911b90)" style="fill: none; stroke: #dcdcdc; stroke-width: 0.5; stroke-linecap: square"/>
     </g>
     <g id="line2d_8">
      <g>
       <use xlink:href="#m328fb59809" x="349.040169" y="235.872" style="stroke: #000000; stroke-width: 0.8"/>
      </g>
     </g>
     <g id="text_4">
      <!-- 75 -->
      <g transform="translate(340.768919 252.749969) scale(0.13 -0.13)">
       <defs>
        <path id="DejaVuSans-37" d="M 525 4666 
L 3525 4666 
L 3525 4397 
L 1831 0 
L 1172 0 
L 2766 4134 
L 525 4134 
L 525 4666 
z
" transform="scale(0.015625)"/>
       </defs>
       <use xlink:href="#DejaVuSans-37"/>
       <use xlink:href="#DejaVuSans-35" x="63.623047"/>
      </g>
     </g>
    </g>
    <g id="xtick_5">
     <g id="line2d_9">
      <path d="M 435.615222 235.872 
L 435.615222 48.9888 
" clip-path="url(#pe589911b90)" style="fill: none; stroke: #dcdcdc; stroke-width: 0.5; stroke-linecap: square"/>
     </g>
     <g id="line2d_10">
      <g>
       <use xlink:href="#m328fb59809" x="435.615222" y="235.872" style="stroke: #000000; stroke-width: 0.8"/>
      </g>
     </g>
     <g id="text_5">
      <!-- 100 -->
      <g transform="translate(423.208347 252.749969) scale(0.13 -0.13)">
       <defs>
        <path id="DejaVuSans-31" d="M 794 531 
L 1825 531 
L 1825 4091 
L 703 3866 
L 703 4441 
L 1819 4666 
L 2450 4666 
L 2450 531 
L 3481 531 
L 3481 0 
L 794 0 
L 794 531 
z
" transform="scale(0.015625)"/>
       </defs>
       <use xlink:href="#DejaVuSans-31"/>
       <use xlink:href="#DejaVuSans-30" x="63.623047"/>
       <use xlink:href="#DejaVuSans-30" x="127.246094"/>
      </g>
     </g>
    </g>
    <g id="text_6">
     <!-- Time step -->
     <g transform="translate(225.507694 270.851219) scale(0.15 -0.15)">
      <defs>
       <path id="DejaVuSans-54" d="M -19 4666 
L 3928 4666 
L 3928 4134 
L 2272 4134 
L 2272 0 
L 1638 0 
L 1638 4134 
L -19 4134 
L -19 4666 
z
" transform="scale(0.015625)"/>
       <path id="DejaVuSans-69" d="M 603 3500 
L 1178 3500 
L 1178 0 
L 603 0 
L 603 3500 
z
M 603 4863 
L 1178 4863 
L 1178 4134 
L 603 4134 
L 603 4863 
z
" transform="scale(0.015625)"/>
       <path id="DejaVuSans-6d" d="M 3328 2828 
Q 3544 3216 3844 3400 
Q 4144 3584 4550 3584 
Q 5097 3584 5394 3201 
Q 5691 2819 5691 2113 
L 5691 0 
L 5113 0 
L 5113 2094 
Q 5113 2597 4934 2840 
Q 4756 3084 4391 3084 
Q 3944 3084 3684 2787 
Q 3425 2491 3425 1978 
L 3425 0 
L 2847 0 
L 2847 2094 
Q 2847 2600 2669 2842 
Q 2491 3084 2119 3084 
Q 1678 3084 1418 2786 
Q 1159 2488 1159 1978 
L 1159 0 
L 581 0 
L 581 3500 
L 1159 3500 
L 1159 2956 
Q 1356 3278 1631 3431 
Q 1906 3584 2284 3584 
Q 2666 3584 2933 3390 
Q 3200 3197 3328 2828 
z
" transform="scale(0.015625)"/>
       <path id="DejaVuSans-65" d="M 3597 1894 
L 3597 1613 
L 953 1613 
Q 991 1019 1311 708 
Q 1631 397 2203 397 
Q 2534 397 2845 478 
Q 3156 559 3463 722 
L 3463 178 
Q 3153 47 2828 -22 
Q 2503 -91 2169 -91 
Q 1331 -91 842 396 
Q 353 884 353 1716 
Q 353 2575 817 3079 
Q 1281 3584 2069 3584 
Q 2775 3584 3186 3129 
Q 3597 2675 3597 1894 
z
M 3022 2063 
Q 3016 2534 2758 2815 
Q 2500 3097 2075 3097 
Q 1594 3097 1305 2825 
Q 1016 2553 972 2059 
L 3022 2063 
z
" transform="scale(0.015625)"/>
       <path id="DejaVuSans-20" transform="scale(0.015625)"/>
       <path id="DejaVuSans-73" d="M 2834 3397 
L 2834 2853 
Q 2591 2978 2328 3040 
Q 2066 3103 1784 3103 
Q 1356 3103 1142 2972 
Q 928 2841 928 2578 
Q 928 2378 1081 2264 
Q 1234 2150 1697 2047 
L 1894 2003 
Q 2506 1872 2764 1633 
Q 3022 1394 3022 966 
Q 3022 478 2636 193 
Q 2250 -91 1575 -91 
Q 1294 -91 989 -36 
Q 684 19 347 128 
L 347 722 
Q 666 556 975 473 
Q 1284 391 1588 391 
Q 1994 391 2212 530 
Q 2431 669 2431 922 
Q 2431 1156 2273 1281 
Q 2116 1406 1581 1522 
L 1381 1569 
Q 847 1681 609 1914 
Q 372 2147 372 2553 
Q 372 3047 722 3315 
Q 1072 3584 1716 3584 
Q 2034 3584 2315 3537 
Q 2597 3491 2834 3397 
z
" transform="scale(0.015625)"/>
       <path id="DejaVuSans-74" d="M 1172 4494 
L 1172 3500 
L 2356 3500 
L 2356 3053 
L 1172 3053 
L 1172 1153 
Q 1172 725 1289 603 
Q 1406 481 1766 481 
L 2356 481 
L 2356 0 
L 1766 0 
Q 1100 0 847 248 
Q 594 497 594 1153 
L 594 3053 
L 172 3053 
L 172 3500 
L 594 3500 
L 594 4494 
L 1172 4494 
z
" transform="scale(0.015625)"/>
       <path id="DejaVuSans-70" d="M 1159 525 
L 1159 -1331 
L 581 -1331 
L 581 3500 
L 1159 3500 
L 1159 2969 
Q 1341 3281 1617 3432 
Q 1894 3584 2278 3584 
Q 2916 3584 3314 3078 
Q 3713 2572 3713 1747 
Q 3713 922 3314 415 
Q 2916 -91 2278 -91 
Q 1894 -91 1617 61 
Q 1341 213 1159 525 
z
M 3116 1747 
Q 3116 2381 2855 2742 
Q 2594 3103 2138 3103 
Q 1681 3103 1420 2742 
Q 1159 2381 1159 1747 
Q 1159 1113 1420 752 
Q 1681 391 2138 391 
Q 2594 391 2855 752 
Q 3116 1113 3116 1747 
z
" transform="scale(0.015625)"/>
      </defs>
      <use xlink:href="#DejaVuSans-54"/>
      <use xlink:href="#DejaVuSans-69" x="57.958984"/>
      <use xlink:href="#DejaVuSans-6d" x="85.742188"/>
      <use xlink:href="#DejaVuSans-65" x="183.154297"/>
      <use xlink:href="#DejaVuSans-20" x="244.677734"/>
      <use xlink:href="#DejaVuSans-73" x="276.464844"/>
      <use xlink:href="#DejaVuSans-74" x="328.564453"/>
      <use xlink:href="#DejaVuSans-65" x="367.773438"/>
      <use xlink:href="#DejaVuSans-70" x="429.296875"/>
     </g>
    </g>
   </g>
   <g id="matplotlib.axis_2">
    <g id="ytick_1">
     <g id="line2d_11">
      <path d="M 72 235.872 
L 452.930233 235.872 
" clip-path="url(#pe589911b90)" style="fill: none; stroke: #dcdcdc; stroke-width: 0.5; stroke-linecap: square"/>
     </g>
     <g id="line2d_12">
      <defs>
       <path id="me9d502b9f5" d="M 0 0 
L -3.5 0 
" style="stroke: #000000; stroke-width: 0.8"/>
      </defs>
      <g>
       <use xlink:href="#me9d502b9f5" x="72" y="235.872" style="stroke: #000000; stroke-width: 0.8"/>
      </g>
     </g>
     <g id="text_7">
      <!-- 0.0 -->
      <g transform="translate(44.325937 240.810984) scale(0.13 -0.13)">
       <defs>
        <path id="DejaVuSans-2e" d="M 684 794 
L 1344 794 
L 1344 0 
L 684 0 
L 684 794 
z
" transform="scale(0.015625)"/>
       </defs>
       <use xlink:href="#DejaVuSans-30"/>
       <use xlink:href="#DejaVuSans-2e" x="63.623047"/>
       <use xlink:href="#DejaVuSans-30" x="95.410156"/>
      </g>
     </g>
    </g>
    <g id="ytick_2">
     <g id="line2d_13">
      <path d="M 72 177.860487 
L 452.930233 177.860487 
" clip-path="url(#pe589911b90)" style="fill: none; stroke: #dcdcdc; stroke-width: 0.5; stroke-linecap: square"/>
     </g>
     <g id="line2d_14">
      <g>
       <use xlink:href="#me9d502b9f5" x="72" y="177.860487" style="stroke: #000000; stroke-width: 0.8"/>
      </g>
     </g>
     <g id="text_8">
      <!-- 0.5 -->
      <g transform="translate(44.325937 182.799472) scale(0.13 -0.13)">
       <use xlink:href="#DejaVuSans-30"/>
       <use xlink:href="#DejaVuSans-2e" x="63.623047"/>
       <use xlink:href="#DejaVuSans-35" x="95.410156"/>
      </g>
     </g>
    </g>
    <g id="ytick_3">
     <g id="line2d_15">
      <path d="M 72 119.848975 
L 452.930233 119.848975 
" clip-path="url(#pe589911b90)" style="fill: none; stroke: #dcdcdc; stroke-width: 0.5; stroke-linecap: square"/>
     </g>
     <g id="line2d_16">
      <g>
       <use xlink:href="#me9d502b9f5" x="72" y="119.848975" style="stroke: #000000; stroke-width: 0.8"/>
      </g>
     </g>
     <g id="text_9">
      <!-- 1.0 -->
      <g transform="translate(44.325937 124.787959) scale(0.13 -0.13)">
       <use xlink:href="#DejaVuSans-31"/>
       <use xlink:href="#DejaVuSans-2e" x="63.623047"/>
       <use xlink:href="#DejaVuSans-30" x="95.410156"/>
      </g>
     </g>
    </g>
    <g id="ytick_4">
     <g id="line2d_17">
      <path d="M 72 61.837462 
L 452.930233 61.837462 
" clip-path="url(#pe589911b90)" style="fill: none; stroke: #dcdcdc; stroke-width: 0.5; stroke-linecap: square"/>
     </g>
     <g id="line2d_18">
      <g>
       <use xlink:href="#me9d502b9f5" x="72" y="61.837462" style="stroke: #000000; stroke-width: 0.8"/>
      </g>
     </g>
     <g id="text_10">
      <!-- 1.5 -->
      <g transform="translate(44.325937 66.776446) scale(0.13 -0.13)">
       <use xlink:href="#DejaVuSans-31"/>
       <use xlink:href="#DejaVuSans-2e" x="63.623047"/>
       <use xlink:href="#DejaVuSans-35" x="95.410156"/>
      </g>
     </g>
    </g>
    <g id="text_11">
     <!-- Biomass PINU.BAN -->
     <g transform="translate(37.206406 212.453447) rotate(-90) scale(0.15 -0.15)">
      <defs>
       <path id="DejaVuSans-42" d="M 1259 2228 
L 1259 519 
L 2272 519 
Q 2781 519 3026 730 
Q 3272 941 3272 1375 
Q 3272 1813 3026 2020 
Q 2781 2228 2272 2228 
L 1259 2228 
z
M 1259 4147 
L 1259 2741 
L 2194 2741 
Q 2656 2741 2882 2914 
Q 3109 3088 3109 3444 
Q 3109 3797 2882 3972 
Q 2656 4147 2194 4147 
L 1259 4147 
z
M 628 4666 
L 2241 4666 
Q 2963 4666 3353 4366 
Q 3744 4066 3744 3513 
Q 3744 3084 3544 2831 
Q 3344 2578 2956 2516 
Q 3422 2416 3680 2098 
Q 3938 1781 3938 1306 
Q 3938 681 3513 340 
Q 3088 0 2303 0 
L 628 0 
L 628 4666 
z
" transform="scale(0.015625)"/>
       <path id="DejaVuSans-6f" d="M 1959 3097 
Q 1497 3097 1228 2736 
Q 959 2375 959 1747 
Q 959 1119 1226 758 
Q 1494 397 1959 397 
Q 2419 397 2687 759 
Q 2956 1122 2956 1747 
Q 2956 2369 2687 2733 
Q 2419 3097 1959 3097 
z
M 1959 3584 
Q 2709 3584 3137 3096 
Q 3566 2609 3566 1747 
Q 3566 888 3137 398 
Q 2709 -91 1959 -91 
Q 1206 -91 779 398 
Q 353 888 353 1747 
Q 353 2609 779 3096 
Q 1206 3584 1959 3584 
z
" transform="scale(0.015625)"/>
       <path id="DejaVuSans-61" d="M 2194 1759 
Q 1497 1759 1228 1600 
Q 959 1441 959 1056 
Q 959 750 1161 570 
Q 1363 391 1709 391 
Q 2188 391 2477 730 
Q 2766 1069 2766 1631 
L 2766 1759 
L 2194 1759 
z
M 3341 1997 
L 3341 0 
L 2766 0 
L 2766 531 
Q 2569 213 2275 61 
Q 1981 -91 1556 -91 
Q 1019 -91 701 211 
Q 384 513 384 1019 
Q 384 1609 779 1909 
Q 1175 2209 1959 2209 
L 2766 2209 
L 2766 2266 
Q 2766 2663 2505 2880 
Q 2244 3097 1772 3097 
Q 1472 3097 1187 3025 
Q 903 2953 641 2809 
L 641 3341 
Q 956 3463 1253 3523 
Q 1550 3584 1831 3584 
Q 2591 3584 2966 3190 
Q 3341 2797 3341 1997 
z
" transform="scale(0.015625)"/>
       <path id="DejaVuSans-50" d="M 1259 4147 
L 1259 2394 
L 2053 2394 
Q 2494 2394 2734 2622 
Q 2975 2850 2975 3272 
Q 2975 3691 2734 3919 
Q 2494 4147 2053 4147 
L 1259 4147 
z
M 628 4666 
L 2053 4666 
Q 2838 4666 3239 4311 
Q 3641 3956 3641 3272 
Q 3641 2581 3239 2228 
Q 2838 1875 2053 1875 
L 1259 1875 
L 1259 0 
L 628 0 
L 628 4666 
z
" transform="scale(0.015625)"/>
       <path id="DejaVuSans-49" d="M 628 4666 
L 1259 4666 
L 1259 0 
L 628 0 
L 628 4666 
z
" transform="scale(0.015625)"/>
       <path id="DejaVuSans-4e" d="M 628 4666 
L 1478 4666 
L 3547 763 
L 3547 4666 
L 4159 4666 
L 4159 0 
L 3309 0 
L 1241 3903 
L 1241 0 
L 628 0 
L 628 4666 
z
" transform="scale(0.015625)"/>
       <path id="DejaVuSans-55" d="M 556 4666 
L 1191 4666 
L 1191 1831 
Q 1191 1081 1462 751 
Q 1734 422 2344 422 
Q 2950 422 3222 751 
Q 3494 1081 3494 1831 
L 3494 4666 
L 4128 4666 
L 4128 1753 
Q 4128 841 3676 375 
Q 3225 -91 2344 -91 
Q 1459 -91 1007 375 
Q 556 841 556 1753 
L 556 4666 
z
" transform="scale(0.015625)"/>
       <path id="DejaVuSans-41" d="M 2188 4044 
L 1331 1722 
L 3047 1722 
L 2188 4044 
z
M 1831 4666 
L 2547 4666 
L 4325 0 
L 3669 0 
L 3244 1197 
L 1141 1197 
L 716 0 
L 50 0 
L 1831 4666 
z
" transform="scale(0.015625)"/>
      </defs>
      <use xlink:href="#DejaVuSans-42"/>
      <use xlink:href="#DejaVuSans-69" x="68.603516"/>
      <use xlink:href="#DejaVuSans-6f" x="96.386719"/>
      <use xlink:href="#DejaVuSans-6d" x="157.568359"/>
      <use xlink:href="#DejaVuSans-61" x="254.980469"/>
      <use xlink:href="#DejaVuSans-73" x="316.259766"/>
      <use xlink:href="#DejaVuSans-73" x="368.359375"/>
      <use xlink:href="#DejaVuSans-20" x="420.458984"/>
      <use xlink:href="#DejaVuSans-50" x="452.246094"/>
      <use xlink:href="#DejaVuSans-49" x="512.548828"/>
      <use xlink:href="#DejaVuSans-4e" x="542.041016"/>
      <use xlink:href="#DejaVuSans-55" x="616.845703"/>
      <use xlink:href="#DejaVuSans-2e" x="690.039062"/>
      <use xlink:href="#DejaVuSans-42" x="721.826172"/>
      <use xlink:href="#DejaVuSans-41" x="790.429688"/>
      <use xlink:href="#DejaVuSans-4e" x="858.837891"/>
     </g>
    </g>
    <g id="text_12">
     <!-- 1e4 -->
     <g transform="translate(72 45.9888) scale(0.12 -0.12)">
      <defs>
       <path id="DejaVuSans-34" d="M 2419 4116 
L 825 1625 
L 2419 1625 
L 2419 4116 
z
M 2253 4666 
L 3047 4666 
L 3047 1625 
L 3713 1625 
L 3713 1100 
L 3047 1100 
L 3047 0 
L 2419 0 
L 2419 1100 
L 313 1100 
L 313 1709 
L 2253 4666 
z
" transform="scale(0.015625)"/>
      </defs>
      <use xlink:href="#DejaVuSans-31"/>
      <use xlink:href="#DejaVuSans-65" x="63.623047"/>
      <use xlink:href="#DejaVuSans-34" x="125.146484"/>
     </g>
    </g>
   </g>
   <g id="PolyCollection_1">
    <defs>
     <path id="mbb74511f8d" d="M 89.315011 -71.708286 
L 89.315011 -71.839608 
L 106.630021 -75.069182 
L 123.945032 -80.323004 
L 141.260042 -88.4089 
L 158.575053 -97.125601 
L 175.890063 -112.561998 
L 193.205074 -129.769372 
L 210.520085 -147.708609 
L 227.835095 -167.016851 
L 245.150106 -182.897259 
L 262.465116 -202.144897 
L 279.780127 -207.896583 
L 297.095137 -216.479603 
L 314.410148 -225.885677 
L 331.725159 -232.226034 
L 349.040169 -237.820843 
L 366.35518 -242.752496 
L 383.67019 -244.512 
L 400.985201 -240.688143 
L 418.300211 -238.98661 
L 435.615222 -231.874549 
L 435.615222 -229.216535 
L 435.615222 -229.216535 
L 418.300211 -236.385999 
L 400.985201 -237.7932 
L 383.67019 -241.810908 
L 366.35518 -239.541228 
L 349.040169 -234.241015 
L 331.725159 -228.227606 
L 314.410148 -222.304785 
L 297.095137 -212.862122 
L 279.780127 -204.617708 
L 262.465116 -199.405673 
L 245.150106 -180.125022 
L 227.835095 -164.385971 
L 210.520085 -145.280809 
L 193.205074 -127.818236 
L 175.890063 -111.024494 
L 158.575053 -96.051484 
L 141.260042 -87.648873 
L 123.945032 -79.86191 
L 106.630021 -74.808564 
L 89.315011 -71.708286 
z
"/>
    </defs>
    <g clip-path="url(#pe589911b90)">
     <use xlink:href="#mbb74511f8d" x="0" y="302.4" style="fill: #fcffa4; fill-opacity: 0.3"/>
    </g>
   </g>
   <g id="PolyCollection_2">
    <defs>
     <path id="mca7a1d1ac6" d="M 89.315011 -71.373814 
L 89.315011 -71.723726 
L 106.630021 -74.608098 
L 123.945032 -78.849942 
L 141.260042 -84.644356 
L 158.575053 -90.335844 
L 175.890063 -99.905376 
L 193.205074 -108.813371 
L 210.520085 -116.707459 
L 227.835095 -125.886431 
L 245.150106 -131.709489 
L 262.465116 -137.317572 
L 279.780127 -131.985231 
L 297.095137 -129.426822 
L 314.410148 -123.985219 
L 331.725159 -113.094115 
L 349.040169 -109.875038 
L 366.35518 -105.684103 
L 383.67019 -101.214575 
L 400.985201 -93.837143 
L 418.300211 -93.065682 
L 435.615222 -90.20118 
L 435.615222 -51.378855 
L 435.615222 -51.378855 
L 418.300211 -50.605795 
L 400.985201 -50.672978 
L 383.67019 -49.97759 
L 366.35518 -50.35795 
L 349.040169 -51.246931 
L 331.725159 -52.080842 
L 314.410148 -61.504865 
L 297.095137 -68.148195 
L 279.780127 -72.675893 
L 262.465116 -84.713711 
L 245.150106 -90.633166 
L 227.835095 -101.141662 
L 210.520085 -104.754303 
L 193.205074 -100.831698 
L 175.890063 -94.879288 
L 158.575053 -87.516141 
L 141.260042 -82.917396 
L 123.945032 -77.809555 
L 106.630021 -73.975945 
L 89.315011 -71.373814 
z
"/>
    </defs>
    <g clip-path="url(#pe589911b90)">
     <use xlink:href="#mca7a1d1ac6" x="0" y="302.4" style="fill: #f98e09; fill-opacity: 0.3"/>
    </g>
   </g>
   <g id="PolyCollection_3">
    <defs>
     <path id="m2f3fe31393" d="M 89.315011 -71.152525 
L 89.315011 -71.614013 
L 106.630021 -74.203083 
L 123.945032 -77.71569 
L 141.260042 -82.434645 
L 158.575053 -86.687484 
L 175.890063 -93.065999 
L 193.205074 -97.74932 
L 210.520085 -102.088351 
L 227.835095 -107.057733 
L 245.150106 -111.144519 
L 262.465116 -115.575904 
L 279.780127 -111.966745 
L 297.095137 -113.140236 
L 314.410148 -112.496808 
L 331.725159 -108.309981 
L 349.040169 -103.387642 
L 366.35518 -99.12013 
L 383.67019 -95.950867 
L 400.985201 -91.873249 
L 418.300211 -90.101856 
L 435.615222 -84.98537 
L 435.615222 -54.89011 
L 435.615222 -54.89011 
L 418.300211 -53.965634 
L 400.985201 -53.745331 
L 383.67019 -53.339783 
L 366.35518 -53.457393 
L 349.040169 -54.252181 
L 331.725159 -56.863709 
L 314.410148 -60.721487 
L 297.095137 -64.278957 
L 279.780127 -66.104773 
L 262.465116 -73.808449 
L 245.150106 -78.368522 
L 227.835095 -86.089305 
L 210.520085 -88.882647 
L 193.205074 -89.611827 
L 175.890063 -87.055155 
L 158.575053 -83.299628 
L 141.260042 -80.249073 
L 123.945032 -76.42661 
L 106.630021 -73.415655 
L 89.315011 -71.152525 
z
"/>
    </defs>
    <g clip-path="url(#pe589911b90)">
     <use xlink:href="#m2f3fe31393" x="0" y="302.4" style="fill: #bc3754; fill-opacity: 0.3"/>
    </g>
   </g>
   <g id="PolyCollection_4">
    <defs>
     <path id="mdec52b9c5a" d="M 89.315011 -70.994009 
L 89.315011 -71.477099 
L 106.630021 -73.776733 
L 123.945032 -76.696319 
L 141.260042 -80.893963 
L 158.575053 -83.678234 
L 175.890063 -88.15902 
L 193.205074 -91.786628 
L 210.520085 -94.43761 
L 227.835095 -96.699856 
L 245.150106 -98.735273 
L 262.465116 -101.385674 
L 279.780127 -98.919616 
L 297.095137 -98.78519 
L 314.410148 -98.404367 
L 331.725159 -95.558344 
L 349.040169 -93.330214 
L 366.35518 -89.469311 
L 383.67019 -84.272528 
L 400.985201 -80.171114 
L 418.300211 -77.783684 
L 435.615222 -75.874983 
L 435.615222 -60.016596 
L 435.615222 -60.016596 
L 418.300211 -59.262515 
L 400.985201 -58.724088 
L 383.67019 -57.606132 
L 366.35518 -57.445742 
L 349.040169 -58.602528 
L 331.725159 -60.023541 
L 314.410148 -62.323738 
L 297.095137 -64.055353 
L 279.780127 -65.97924 
L 262.465116 -70.461646 
L 245.150106 -72.814069 
L 227.835095 -75.672168 
L 210.520085 -77.296843 
L 193.205074 -80.927211 
L 175.890063 -82.096884 
L 158.575053 -80.276831 
L 141.260042 -78.330169 
L 123.945032 -75.358933 
L 106.630021 -72.951046 
L 89.315011 -70.994009 
z
"/>
    </defs>
    <g clip-path="url(#pe589911b90)">
     <use xlink:href="#mdec52b9c5a" x="0" y="302.4" style="fill: #57106e; fill-opacity: 0.3"/>
    </g>
   </g>
   <g id="PolyCollection_5">
    <defs>
     <path id="m104010a5e3" d="M 89.315011 -70.863884 
L 89.315011 -71.383947 
L 106.630021 -73.465424 
L 123.945032 -76.163079 
L 141.260042 -79.679663 
L 158.575053 -81.625936 
L 175.890063 -85.382023 
L 193.205074 -87.982382 
L 210.520085 -89.592532 
L 227.835095 -91.378791 
L 245.150106 -92.515537 
L 262.465116 -94.449205 
L 279.780127 -92.964545 
L 297.095137 -92.233735 
L 314.410148 -91.0213 
L 331.725159 -88.243094 
L 349.040169 -86.63003 
L 366.35518 -85.113579 
L 383.67019 -82.992497 
L 400.985201 -79.264663 
L 418.300211 -77.037692 
L 435.615222 -75.047537 
L 435.615222 -60.770326 
L 435.615222 -60.770326 
L 418.300211 -59.990974 
L 400.985201 -59.405307 
L 383.67019 -58.615289 
L 366.35518 -58.797264 
L 349.040169 -59.865086 
L 331.725159 -60.827826 
L 314.410148 -62.251853 
L 297.095137 -64.118987 
L 279.780127 -66.09825 
L 262.465116 -68.676454 
L 245.150106 -70.252977 
L 227.835095 -71.937838 
L 210.520085 -73.917313 
L 193.205074 -76.813074 
L 175.890063 -78.773388 
L 158.575053 -78.428763 
L 141.260042 -77.116099 
L 123.945032 -74.745683 
L 106.630021 -72.629178 
L 89.315011 -70.863884 
z
"/>
    </defs>
    <g clip-path="url(#pe589911b90)">
     <use xlink:href="#m104010a5e3" x="0" y="302.4" style="fill: #000004; fill-opacity: 0.3"/>
    </g>
   </g>
   <g id="line2d_19">
    <path d="M 89.315011 230.626053 
L 106.630021 227.461127 
L 123.945032 222.307543 
L 141.260042 214.371113 
L 158.575053 205.811458 
L 175.890063 190.606754 
L 193.205074 173.606196 
L 210.520085 155.905291 
L 227.835095 136.698589 
L 245.150106 120.888859 
L 262.465116 101.624715 
L 279.780127 96.142854 
L 297.095137 87.729138 
L 314.410148 78.304769 
L 331.725159 72.17318 
L 349.040169 66.369071 
L 366.35518 61.253138 
L 383.67019 59.238546 
L 400.985201 63.159328 
L 418.300211 64.713695 
L 435.615222 71.854458 
" clip-path="url(#pe589911b90)" style="fill: none; stroke: #fcffa4; stroke-linecap: square"/>
   </g>
   <g id="line2d_20">
    <path d="M 89.315011 230.85123 
L 106.630021 228.107979 
L 123.945032 224.070251 
L 141.260042 218.619124 
L 158.575053 213.474007 
L 175.890063 205.007668 
L 193.205074 197.577465 
L 210.520085 191.669119 
L 227.835095 188.885954 
L 245.150106 191.228673 
L 262.465116 191.384358 
L 279.780127 200.069438 
L 297.095137 203.612491 
L 314.410148 209.654958 
L 331.725159 219.812522 
L 349.040169 221.839015 
L 366.35518 224.378973 
L 383.67019 226.803918 
L 400.985201 230.14494 
L 418.300211 230.564262 
L 435.615222 231.609982 
" clip-path="url(#pe589911b90)" style="fill: none; stroke: #f98e09; stroke-linecap: square"/>
   </g>
   <g id="line2d_21">
    <path d="M 89.315011 231.016731 
L 106.630021 228.590631 
L 123.945032 225.32885 
L 141.260042 221.058141 
L 158.575053 217.406444 
L 175.890063 212.339423 
L 193.205074 208.719426 
L 210.520085 206.914501 
L 227.835095 205.826481 
L 245.150106 207.64348 
L 262.465116 207.707824 
L 279.780127 213.364241 
L 297.095137 213.690403 
L 314.410148 215.790853 
L 331.725159 219.813155 
L 349.040169 223.580088 
L 366.35518 226.111239 
L 383.67019 227.754675 
L 400.985201 229.59071 
L 418.300211 230.366255 
L 435.615222 232.46226 
" clip-path="url(#pe589911b90)" style="fill: none; stroke: #bc3754; stroke-linecap: square"/>
   </g>
   <g id="line2d_22">
    <path d="M 89.315011 231.164446 
L 106.630021 229.03611 
L 123.945032 226.372374 
L 141.260042 222.787934 
L 158.575053 220.422467 
L 175.890063 217.272048 
L 193.205074 216.04308 
L 210.520085 216.532774 
L 227.835095 216.213988 
L 245.150106 216.625329 
L 262.465116 216.47634 
L 279.780127 219.950572 
L 297.095137 220.979729 
L 314.410148 222.035947 
L 331.725159 224.609058 
L 349.040169 226.433629 
L 366.35518 228.942474 
L 383.67019 231.46067 
L 400.985201 232.952399 
L 418.300211 233.876901 
L 435.615222 234.45421 
" clip-path="url(#pe589911b90)" style="fill: none; stroke: #57106e; stroke-linecap: square"/>
   </g>
   <g id="line2d_23">
    <path d="M 89.315011 231.276085 
L 106.630021 229.352699 
L 123.945032 226.945619 
L 141.260042 224.002119 
L 158.575053 222.372651 
L 175.890063 220.322295 
L 193.205074 220.002272 
L 210.520085 220.645077 
L 227.835095 220.741685 
L 245.150106 221.015743 
L 262.465116 220.83717 
L 279.780127 222.868602 
L 297.095137 224.223639 
L 314.410148 225.763424 
L 331.725159 227.86454 
L 349.040169 229.152442 
L 366.35518 230.444579 
L 383.67019 231.596107 
L 400.985201 233.065015 
L 418.300211 233.885667 
L 435.615222 234.491069 
" clip-path="url(#pe589911b90)" style="fill: none; stroke: #000004; stroke-linecap: square"/>
   </g>
   <g id="patch_3">
    <path d="M 72 235.872 
L 72 48.9888 
" style="fill: none; stroke: #000000; stroke-width: 0.8; stroke-linejoin: miter; stroke-linecap: square"/>
   </g>
   <g id="patch_4">
    <path d="M 72 235.872 
L 452.930233 235.872 
" style="fill: none; stroke: #000000; stroke-width: 0.8; stroke-linejoin: miter; stroke-linecap: square"/>
   </g>
   <g id="text_13">
    <!-- PnET -->
    <g transform="translate(242.770116 289.674624) scale(0.16 -0.16)">
     <defs>
      <path id="DejaVuSans-6e" d="M 3513 2113 
L 3513 0 
L 2938 0 
L 2938 2094 
Q 2938 2591 2744 2837 
Q 2550 3084 2163 3084 
Q 1697 3084 1428 2787 
Q 1159 2491 1159 1978 
L 1159 0 
L 581 0 
L 581 3500 
L 1159 3500 
L 1159 2956 
Q 1366 3272 1645 3428 
Q 1925 3584 2291 3584 
Q 2894 3584 3203 3211 
Q 3513 2838 3513 2113 
z
" transform="scale(0.015625)"/>
      <path id="DejaVuSans-45" d="M 628 4666 
L 3578 4666 
L 3578 4134 
L 1259 4134 
L 1259 2753 
L 3481 2753 
L 3481 2222 
L 1259 2222 
L 1259 531 
L 3634 531 
L 3634 0 
L 628 0 
L 628 4666 
z
" transform="scale(0.015625)"/>
     </defs>
     <use xlink:href="#DejaVuSans-50"/>
     <use xlink:href="#DejaVuSans-6e" x="58.552734"/>
     <use xlink:href="#DejaVuSans-45" x="121.931641"/>
     <use xlink:href="#DejaVuSans-54" x="185.115234"/>
    </g>
   </g>
   <g id="legend_1">
    <g id="patch_5">
     <path d="M 266.5125 37.164 
L 633.4875 37.164 
Q 635.8875 37.164 635.8875 34.764 
L 635.8875 11.424 
Q 635.8875 9.024 633.4875 9.024 
L 266.5125 9.024 
Q 264.1125 9.024 264.1125 11.424 
L 264.1125 34.764 
Q 264.1125 37.164 266.5125 37.164 
z
" style="fill: #ffffff; opacity: 0.8; stroke: #cccccc; stroke-linejoin: miter"/>
    </g>
    <g id="patch_6">
     <path d="M 268.9125 32.364 
L 304.9125 32.364 
L 304.9125 13.824 
L 268.9125 13.824 
z
" style="fill: #fcffa4; fill-opacity: 0.3"/>
    </g>
    <g id="line2d_24">
     <path d="M 268.9125 20.364 
L 286.9125 20.364 
L 304.9125 20.364 
" style="fill: none; stroke: #fcffa4; stroke-linecap: square"/>
    </g>
    <g id="text_14">
     <!-- 1 -->
     <g transform="translate(314.5125 26.904) scale(0.12 -0.12)">
      <use xlink:href="#DejaVuSans-31"/>
     </g>
    </g>
    <g id="patch_7">
     <path d="M 346.1475 32.364 
L 382.1475 32.364 
L 382.1475 13.824 
L 346.1475 13.824 
z
" style="fill: #f98e09; fill-opacity: 0.3"/>
    </g>
    <g id="line2d_25">
     <path d="M 346.1475 20.364 
L 364.1475 20.364 
L 382.1475 20.364 
" style="fill: none; stroke: #f98e09; stroke-linecap: square"/>
    </g>
    <g id="text_15">
     <!-- 2 -->
     <g transform="translate(391.7475 26.904) scale(0.12 -0.12)">
      <use xlink:href="#DejaVuSans-32"/>
     </g>
    </g>
    <g id="patch_8">
     <path d="M 423.3825 32.364 
L 459.3825 32.364 
L 459.3825 13.824 
L 423.3825 13.824 
z
" style="fill: #bc3754; fill-opacity: 0.3"/>
    </g>
    <g id="line2d_26">
     <path d="M 423.3825 20.364 
L 441.3825 20.364 
L 459.3825 20.364 
" style="fill: none; stroke: #bc3754; stroke-linecap: square"/>
    </g>
    <g id="text_16">
     <!-- 3 -->
     <g transform="translate(468.9825 26.904) scale(0.12 -0.12)">
      <defs>
       <path id="DejaVuSans-33" d="M 2597 2516 
Q 3050 2419 3304 2112 
Q 3559 1806 3559 1356 
Q 3559 666 3084 287 
Q 2609 -91 1734 -91 
Q 1441 -91 1130 -33 
Q 819 25 488 141 
L 488 750 
Q 750 597 1062 519 
Q 1375 441 1716 441 
Q 2309 441 2620 675 
Q 2931 909 2931 1356 
Q 2931 1769 2642 2001 
Q 2353 2234 1838 2234 
L 1294 2234 
L 1294 2753 
L 1863 2753 
Q 2328 2753 2575 2939 
Q 2822 3125 2822 3475 
Q 2822 3834 2567 4026 
Q 2313 4219 1838 4219 
Q 1578 4219 1281 4162 
Q 984 4106 628 3988 
L 628 4550 
Q 988 4650 1302 4700 
Q 1616 4750 1894 4750 
Q 2613 4750 3031 4423 
Q 3450 4097 3450 3541 
Q 3450 3153 3228 2886 
Q 3006 2619 2597 2516 
z
" transform="scale(0.015625)"/>
      </defs>
      <use xlink:href="#DejaVuSans-33"/>
     </g>
    </g>
    <g id="patch_9">
     <path d="M 500.6175 32.364 
L 536.6175 32.364 
L 536.6175 13.824 
L 500.6175 13.824 
z
" style="fill: #57106e; fill-opacity: 0.3"/>
    </g>
    <g id="line2d_27">
     <path d="M 500.6175 20.364 
L 518.6175 20.364 
L 536.6175 20.364 
" style="fill: none; stroke: #57106e; stroke-linecap: square"/>
    </g>
    <g id="text_17">
     <!-- 4 -->
     <g transform="translate(546.2175 26.904) scale(0.12 -0.12)">
      <use xlink:href="#DejaVuSans-34"/>
     </g>
    </g>
    <g id="patch_10">
     <path d="M 577.8525 32.364 
L 613.8525 32.364 
L 613.8525 13.824 
L 577.8525 13.824 
z
" style="fill: #000004; fill-opacity: 0.3"/>
    </g>
    <g id="line2d_28">
     <path d="M 577.8525 20.364 
L 595.8525 20.364 
L 613.8525 20.364 
" style="fill: none; stroke: #000004; stroke-linecap: square"/>
    </g>
    <g id="text_18">
     <!-- 5 -->
     <g transform="translate(623.4525 26.904) scale(0.12 -0.12)">
      <use xlink:href="#DejaVuSans-35"/>
     </g>
    </g>
   </g>
  </g>
  <g id="axes_2">
   <g id="patch_11">
    <path d="M 510.069767 235.872 
L 891 235.872 
L 891 48.9888 
L 510.069767 48.9888 
z
" style="fill: #fcfcfc"/>
   </g>
   <g id="matplotlib.axis_3">
    <g id="xtick_6">
     <g id="line2d_29">
      <path d="M 527.384778 235.872 
L 527.384778 48.9888 
" clip-path="url(#p42bead60b8)" style="fill: none; stroke: #dcdcdc; stroke-width: 0.5; stroke-linecap: square"/>
     </g>
     <g id="line2d_30">
      <g>
       <use xlink:href="#m328fb59809" x="527.384778" y="235.872" style="stroke: #000000; stroke-width: 0.8"/>
      </g>
     </g>
     <g id="text_19">
      <!-- 0 -->
      <g transform="translate(523.249153 252.749969) scale(0.13 -0.13)">
       <use xlink:href="#DejaVuSans-30"/>
      </g>
     </g>
    </g>
    <g id="xtick_7">
     <g id="line2d_31">
      <path d="M 613.959831 235.872 
L 613.959831 48.9888 
" clip-path="url(#p42bead60b8)" style="fill: none; stroke: #dcdcdc; stroke-width: 0.5; stroke-linecap: square"/>
     </g>
     <g id="line2d_32">
      <g>
       <use xlink:href="#m328fb59809" x="613.959831" y="235.872" style="stroke: #000000; stroke-width: 0.8"/>
      </g>
     </g>
     <g id="text_20">
      <!-- 25 -->
      <g transform="translate(605.688581 252.749969) scale(0.13 -0.13)">
       <use xlink:href="#DejaVuSans-32"/>
       <use xlink:href="#DejaVuSans-35" x="63.623047"/>
      </g>
     </g>
    </g>
    <g id="xtick_8">
     <g id="line2d_33">
      <path d="M 700.534884 235.872 
L 700.534884 48.9888 
" clip-path="url(#p42bead60b8)" style="fill: none; stroke: #dcdcdc; stroke-width: 0.5; stroke-linecap: square"/>
     </g>
     <g id="line2d_34">
      <g>
       <use xlink:href="#m328fb59809" x="700.534884" y="235.872" style="stroke: #000000; stroke-width: 0.8"/>
      </g>
     </g>
     <g id="text_21">
      <!-- 50 -->
      <g transform="translate(692.263634 252.749969) scale(0.13 -0.13)">
       <use xlink:href="#DejaVuSans-35"/>
       <use xlink:href="#DejaVuSans-30" x="63.623047"/>
      </g>
     </g>
    </g>
    <g id="xtick_9">
     <g id="line2d_35">
      <path d="M 787.109937 235.872 
L 787.109937 48.9888 
" clip-path="url(#p42bead60b8)" style="fill: none; stroke: #dcdcdc; stroke-width: 0.5; stroke-linecap: square"/>
     </g>
     <g id="line2d_36">
      <g>
       <use xlink:href="#m328fb59809" x="787.109937" y="235.872" style="stroke: #000000; stroke-width: 0.8"/>
      </g>
     </g>
     <g id="text_22">
      <!-- 75 -->
      <g transform="translate(778.838687 252.749969) scale(0.13 -0.13)">
       <use xlink:href="#DejaVuSans-37"/>
       <use xlink:href="#DejaVuSans-35" x="63.623047"/>
      </g>
     </g>
    </g>
    <g id="xtick_10">
     <g id="line2d_37">
      <path d="M 873.684989 235.872 
L 873.684989 48.9888 
" clip-path="url(#p42bead60b8)" style="fill: none; stroke: #dcdcdc; stroke-width: 0.5; stroke-linecap: square"/>
     </g>
     <g id="line2d_38">
      <g>
       <use xlink:href="#m328fb59809" x="873.684989" y="235.872" style="stroke: #000000; stroke-width: 0.8"/>
      </g>
     </g>
     <g id="text_23">
      <!-- 100 -->
      <g transform="translate(861.278114 252.749969) scale(0.13 -0.13)">
       <use xlink:href="#DejaVuSans-31"/>
       <use xlink:href="#DejaVuSans-30" x="63.623047"/>
       <use xlink:href="#DejaVuSans-30" x="127.246094"/>
      </g>
     </g>
    </g>
    <g id="text_24">
     <!-- Time step -->
     <g transform="translate(663.577462 270.851219) scale(0.15 -0.15)">
      <use xlink:href="#DejaVuSans-54"/>
      <use xlink:href="#DejaVuSans-69" x="57.958984"/>
      <use xlink:href="#DejaVuSans-6d" x="85.742188"/>
      <use xlink:href="#DejaVuSans-65" x="183.154297"/>
      <use xlink:href="#DejaVuSans-20" x="244.677734"/>
      <use xlink:href="#DejaVuSans-73" x="276.464844"/>
      <use xlink:href="#DejaVuSans-74" x="328.564453"/>
      <use xlink:href="#DejaVuSans-65" x="367.773438"/>
      <use xlink:href="#DejaVuSans-70" x="429.296875"/>
     </g>
    </g>
   </g>
   <g id="matplotlib.axis_4">
    <g id="ytick_5">
     <g id="line2d_39">
      <path d="M 510.069767 235.872 
L 891 235.872 
" clip-path="url(#p42bead60b8)" style="fill: none; stroke: #dcdcdc; stroke-width: 0.5; stroke-linecap: square"/>
     </g>
    </g>
    <g id="ytick_6">
     <g id="line2d_40">
      <path d="M 510.069767 177.860487 
L 891 177.860487 
" clip-path="url(#p42bead60b8)" style="fill: none; stroke: #dcdcdc; stroke-width: 0.5; stroke-linecap: square"/>
     </g>
    </g>
    <g id="ytick_7">
     <g id="line2d_41">
      <path d="M 510.069767 119.848975 
L 891 119.848975 
" clip-path="url(#p42bead60b8)" style="fill: none; stroke: #dcdcdc; stroke-width: 0.5; stroke-linecap: square"/>
     </g>
    </g>
    <g id="ytick_8">
     <g id="line2d_42">
      <path d="M 510.069767 61.837462 
L 891 61.837462 
" clip-path="url(#p42bead60b8)" style="fill: none; stroke: #dcdcdc; stroke-width: 0.5; stroke-linecap: square"/>
     </g>
    </g>
   </g>
   <g id="PolyCollection_6">
    <defs>
     <path id="md0efb6eb88" d="M 527.384778 -125.780959 
L 527.384778 -125.780959 
L 544.699789 -137.406466 
L 562.014799 -145.226418 
L 579.32981 -150.714307 
L 596.64482 -154.635885 
L 613.959831 -157.47845 
L 631.274841 -159.578466 
L 648.589852 -161.133175 
L 665.904863 -162.293405 
L 683.219873 -163.151976 
L 700.534884 -163.790102 
L 717.849894 -164.265797 
L 735.164905 -164.625468 
L 752.479915 -164.892321 
L 769.794926 -165.08956 
L 787.109937 -165.24039 
L 804.424947 -165.344811 
L 821.739958 -165.402822 
L 839.054968 -165.402822 
L 856.369979 -165.356413 
L 873.684989 -165.066355 
L 873.684989 -165.066355 
L 873.684989 -165.066355 
L 856.369979 -165.356413 
L 839.054968 -165.402822 
L 821.739958 -165.402822 
L 804.424947 -165.344811 
L 787.109937 -165.24039 
L 769.794926 -165.08956 
L 752.479915 -164.892321 
L 735.164905 -164.625468 
L 717.849894 -164.265797 
L 700.534884 -163.790102 
L 683.219873 -163.151976 
L 665.904863 -162.293405 
L 648.589852 -161.133175 
L 631.274841 -159.578466 
L 613.959831 -157.47845 
L 596.64482 -154.635885 
L 579.32981 -150.714307 
L 562.014799 -145.226418 
L 544.699789 -137.406466 
L 527.384778 -125.780959 
z
"/>
    </defs>
    <g clip-path="url(#p42bead60b8)">
     <use xlink:href="#md0efb6eb88" x="0" y="302.4" style="fill: #fcffa4; fill-opacity: 0.3"/>
    </g>
   </g>
   <g id="PolyCollection_7">
    <defs>
     <path id="m92eaa97472" d="M 527.384778 -109.19647 
L 527.384778 -119.035614 
L 544.699789 -131.205474 
L 562.014799 -139.504562 
L 579.32981 -145.302085 
L 596.64482 -149.403063 
L 613.959831 -152.307875 
L 631.274841 -154.300184 
L 648.589852 -155.634876 
L 665.904863 -156.492587 
L 683.219873 -157.000104 
L 700.534884 -157.265371 
L 717.849894 -157.434845 
L 735.164905 -157.552358 
L 752.479915 -157.638303 
L 769.794926 -157.703896 
L 787.109937 -157.753274 
L 804.424947 -157.786432 
L 821.739958 -157.804503 
L 839.054968 -157.774164 
L 856.369979 -157.645982 
L 873.684989 -157.300268 
L 873.684989 -141.106325 
L 873.684989 -141.106325 
L 856.369979 -141.34287 
L 839.054968 -141.413566 
L 821.739958 -141.42661 
L 804.424947 -141.393353 
L 787.109937 -141.333189 
L 769.794926 -141.25923 
L 752.479915 -141.153814 
L 735.164905 -141.00847 
L 717.849894 -140.812721 
L 700.534884 -140.541686 
L 683.219873 -140.149026 
L 665.904863 -139.552685 
L 648.589852 -138.659962 
L 631.274841 -137.381992 
L 613.959831 -135.573285 
L 596.64482 -133.063606 
L 579.32981 -129.626871 
L 562.014799 -124.914095 
L 544.699789 -118.415328 
L 527.384778 -109.19647 
z
"/>
    </defs>
    <g clip-path="url(#p42bead60b8)">
     <use xlink:href="#m92eaa97472" x="0" y="302.4" style="fill: #f98e09; fill-opacity: 0.3"/>
    </g>
   </g>
   <g id="PolyCollection_8">
    <defs>
     <path id="m86242980fa" d="M 527.384778 -100.66122 
L 527.384778 -109.544969 
L 544.699789 -120.348563 
L 562.014799 -127.970633 
L 579.32981 -133.38607 
L 596.64482 -137.245928 
L 613.959831 -139.949027 
L 631.274841 -141.725671 
L 648.589852 -142.818336 
L 665.904863 -143.432934 
L 683.219873 -143.742168 
L 700.534884 -143.870929 
L 717.849894 -143.938966 
L 735.164905 -143.977186 
L 752.479915 -144.003344 
L 769.794926 -144.019629 
L 787.109937 -144.031643 
L 804.424947 -144.04128 
L 821.739958 -144.04651 
L 839.054968 -144.014515 
L 856.369979 -143.89568 
L 873.684989 -143.56913 
L 873.684989 -126.87474 
L 873.684989 -126.87474 
L 856.369979 -127.085388 
L 839.054968 -127.147845 
L 821.739958 -127.155584 
L 804.424947 -127.136368 
L 787.109937 -127.099673 
L 769.794926 -127.052628 
L 752.479915 -126.988822 
L 735.164905 -126.900897 
L 717.849894 -126.786386 
L 700.534884 -126.620592 
L 683.219873 -126.378933 
L 665.904863 -125.981164 
L 648.589852 -125.319276 
L 631.274841 -124.278592 
L 613.959831 -122.736822 
L 596.64482 -120.545223 
L 579.32981 -117.543969 
L 562.014799 -113.489599 
L 544.699789 -108.062377 
L 527.384778 -100.66122 
z
"/>
    </defs>
    <g clip-path="url(#p42bead60b8)">
     <use xlink:href="#m86242980fa" x="0" y="302.4" style="fill: #bc3754; fill-opacity: 0.3"/>
    </g>
   </g>
   <g id="PolyCollection_9">
    <defs>
     <path id="mca5fcab47f" d="M 527.384778 -96.166896 
L 527.384778 -101.957753 
L 544.699789 -110.981814 
L 562.014799 -117.577989 
L 579.32981 -122.364782 
L 596.64482 -125.802927 
L 613.959831 -128.191207 
L 631.274841 -129.684623 
L 648.589852 -130.51305 
L 665.904863 -130.864393 
L 683.219873 -130.963022 
L 700.534884 -130.988432 
L 717.849894 -131.000296 
L 735.164905 -131.004548 
L 752.479915 -131.006007 
L 769.794926 -131.006444 
L 787.109937 -131.006686 
L 804.424947 -131.00677 
L 821.739958 -131.00677 
L 839.054968 -130.978765 
L 856.369979 -130.878979 
L 873.684989 -130.607555 
L 873.684989 -117.672956 
L 873.684989 -117.672956 
L 856.369979 -117.885028 
L 839.054968 -117.961551 
L 821.739958 -117.970051 
L 804.424947 -117.970051 
L 787.109937 -117.969962 
L 769.794926 -117.969686 
L 752.479915 -117.969145 
L 735.164905 -117.967322 
L 717.849894 -117.962361 
L 700.534884 -117.94889 
L 683.219873 -117.917699 
L 665.904863 -117.785261 
L 648.589852 -117.445936 
L 631.274841 -116.747407 
L 613.959831 -115.541086 
L 596.64482 -113.650621 
L 579.32981 -110.975476 
L 562.014799 -107.346194 
L 544.699789 -102.543381 
L 527.384778 -96.166896 
z
"/>
    </defs>
    <g clip-path="url(#p42bead60b8)">
     <use xlink:href="#mca5fcab47f" x="0" y="302.4" style="fill: #57106e; fill-opacity: 0.3"/>
    </g>
   </g>
   <g id="PolyCollection_10">
    <defs>
     <path id="m5db9dda6c0" d="M 527.384778 -94.314259 
L 527.384778 -94.896654 
L 544.699789 -101.301989 
L 562.014799 -106.171534 
L 579.32981 -109.815502 
L 596.64482 -112.479971 
L 613.959831 -114.3017 
L 631.274841 -115.424231 
L 648.589852 -116.012278 
L 665.904863 -116.204178 
L 683.219873 -116.228351 
L 700.534884 -116.228351 
L 717.849894 -116.228351 
L 735.164905 -116.228351 
L 752.479915 -116.228351 
L 769.794926 -116.228351 
L 787.109937 -116.228351 
L 804.424947 -116.228351 
L 821.739958 -116.228351 
L 839.054968 -116.215999 
L 856.369979 -116.140481 
L 873.684989 -115.943241 
L 873.684989 -114.813938 
L 873.684989 -114.813938 
L 856.369979 -115.011177 
L 839.054968 -115.079806 
L 821.739958 -115.088245 
L 804.424947 -115.088245 
L 787.109937 -115.088245 
L 769.794926 -115.088245 
L 752.479915 -115.088245 
L 735.164905 -115.088245 
L 717.849894 -115.088245 
L 700.534884 -115.088245 
L 683.219873 -115.088245 
L 665.904863 -115.090838 
L 648.589852 -115.044705 
L 631.274841 -114.671989 
L 613.959831 -113.677563 
L 596.64482 -111.85784 
L 579.32981 -109.189798 
L 562.014799 -105.536382 
L 544.699789 -100.673451 
L 527.384778 -94.314259 
z
"/>
    </defs>
    <g clip-path="url(#p42bead60b8)">
     <use xlink:href="#m5db9dda6c0" x="0" y="302.4" style="fill: #000004; fill-opacity: 0.3"/>
    </g>
   </g>
   <g id="line2d_43">
    <path d="M 527.384778 176.619041 
L 544.699789 164.993534 
L 562.014799 157.173582 
L 579.32981 151.685693 
L 596.64482 147.764115 
L 613.959831 144.92155 
L 631.274841 142.821534 
L 648.589852 141.266825 
L 665.904863 140.106595 
L 683.219873 139.248024 
L 700.534884 138.609898 
L 717.849894 138.134203 
L 735.164905 137.774532 
L 752.479915 137.507679 
L 769.794926 137.31044 
L 787.109937 137.15961 
L 804.424947 137.055189 
L 821.739958 136.997178 
L 839.054968 136.997178 
L 856.369979 137.043587 
L 873.684989 137.333645 
" clip-path="url(#p42bead60b8)" style="fill: none; stroke: #fcffa4; stroke-linecap: square"/>
   </g>
   <g id="line2d_44">
    <path d="M 527.384778 188.283958 
L 544.699789 177.589599 
L 562.014799 170.190672 
L 579.32981 164.935522 
L 596.64482 161.166666 
L 613.959831 158.45942 
L 631.274841 156.558912 
L 648.589852 155.252581 
L 665.904863 154.377364 
L 683.219873 153.825435 
L 700.534884 153.496472 
L 717.849894 153.276217 
L 735.164905 153.119586 
L 752.479915 153.003941 
L 769.794926 152.918437 
L 787.109937 152.856769 
L 804.424947 152.810107 
L 821.739958 152.784443 
L 839.054968 152.806135 
L 856.369979 152.905574 
L 873.684989 153.196704 
" clip-path="url(#p42bead60b8)" style="fill: none; stroke: #f98e09; stroke-linecap: square"/>
   </g>
   <g id="line2d_45">
    <path d="M 527.384778 197.296905 
L 544.699789 188.19453 
L 562.014799 181.669884 
L 579.32981 176.934981 
L 596.64482 173.504424 
L 613.959831 171.057076 
L 631.274841 169.397869 
L 648.589852 168.331194 
L 665.904863 167.692951 
L 683.219873 167.33945 
L 700.534884 167.15424 
L 717.849894 167.037324 
L 735.164905 166.960958 
L 752.479915 166.903917 
L 769.794926 166.863872 
L 787.109937 166.834342 
L 804.424947 166.811176 
L 821.739958 166.798953 
L 839.054968 166.81882 
L 856.369979 166.909466 
L 873.684989 167.178065 
" clip-path="url(#p42bead60b8)" style="fill: none; stroke: #bc3754; stroke-linecap: square"/>
   </g>
   <g id="line2d_46">
    <path d="M 527.384778 203.337675 
L 544.699789 195.637403 
L 562.014799 189.937908 
L 579.32981 185.729871 
L 596.64482 182.673226 
L 613.959831 180.533854 
L 631.274841 179.183985 
L 648.589852 178.420507 
L 665.904863 178.075173 
L 683.219873 177.959639 
L 700.534884 177.931339 
L 717.849894 177.918672 
L 735.164905 177.914065 
L 752.479915 177.912424 
L 769.794926 177.911935 
L 787.109937 177.911676 
L 804.424947 177.911589 
L 821.739958 177.911589 
L 839.054968 177.929842 
L 856.369979 178.017996 
L 873.684989 178.259745 
" clip-path="url(#p42bead60b8)" style="fill: none; stroke: #57106e; stroke-linecap: square"/>
   </g>
   <g id="line2d_47">
    <path d="M 527.384778 207.794544 
L 544.699789 201.41228 
L 562.014799 196.546042 
L 579.32981 192.89735 
L 596.64482 190.231094 
L 613.959831 188.410368 
L 631.274841 187.35189 
L 648.589852 186.871508 
L 665.904863 186.752492 
L 683.219873 186.741702 
L 700.534884 186.741702 
L 717.849894 186.741702 
L 735.164905 186.741702 
L 752.479915 186.741702 
L 769.794926 186.741702 
L 787.109937 186.741702 
L 804.424947 186.741702 
L 821.739958 186.741702 
L 839.054968 186.752097 
L 856.369979 186.824171 
L 873.684989 187.02141 
" clip-path="url(#p42bead60b8)" style="fill: none; stroke: #000004; stroke-linecap: square"/>
   </g>
   <g id="patch_12">
    <path d="M 510.069767 235.872 
L 891 235.872 
" style="fill: none; stroke: #000000; stroke-width: 0.8; stroke-linejoin: miter; stroke-linecap: square"/>
   </g>
   <g id="text_25">
    <!-- BiomassSuccession -->
    <g transform="translate(622.507384 289.674624) scale(0.16 -0.16)">
     <defs>
      <path id="DejaVuSans-53" d="M 3425 4513 
L 3425 3897 
Q 3066 4069 2747 4153 
Q 2428 4238 2131 4238 
Q 1616 4238 1336 4038 
Q 1056 3838 1056 3469 
Q 1056 3159 1242 3001 
Q 1428 2844 1947 2747 
L 2328 2669 
Q 3034 2534 3370 2195 
Q 3706 1856 3706 1288 
Q 3706 609 3251 259 
Q 2797 -91 1919 -91 
Q 1588 -91 1214 -16 
Q 841 59 441 206 
L 441 856 
Q 825 641 1194 531 
Q 1563 422 1919 422 
Q 2459 422 2753 634 
Q 3047 847 3047 1241 
Q 3047 1584 2836 1778 
Q 2625 1972 2144 2069 
L 1759 2144 
Q 1053 2284 737 2584 
Q 422 2884 422 3419 
Q 422 4038 858 4394 
Q 1294 4750 2059 4750 
Q 2388 4750 2728 4690 
Q 3069 4631 3425 4513 
z
" transform="scale(0.015625)"/>
      <path id="DejaVuSans-75" d="M 544 1381 
L 544 3500 
L 1119 3500 
L 1119 1403 
Q 1119 906 1312 657 
Q 1506 409 1894 409 
Q 2359 409 2629 706 
Q 2900 1003 2900 1516 
L 2900 3500 
L 3475 3500 
L 3475 0 
L 2900 0 
L 2900 538 
Q 2691 219 2414 64 
Q 2138 -91 1772 -91 
Q 1169 -91 856 284 
Q 544 659 544 1381 
z
M 1991 3584 
L 1991 3584 
z
" transform="scale(0.015625)"/>
      <path id="DejaVuSans-63" d="M 3122 3366 
L 3122 2828 
Q 2878 2963 2633 3030 
Q 2388 3097 2138 3097 
Q 1578 3097 1268 2742 
Q 959 2388 959 1747 
Q 959 1106 1268 751 
Q 1578 397 2138 397 
Q 2388 397 2633 464 
Q 2878 531 3122 666 
L 3122 134 
Q 2881 22 2623 -34 
Q 2366 -91 2075 -91 
Q 1284 -91 818 406 
Q 353 903 353 1747 
Q 353 2603 823 3093 
Q 1294 3584 2113 3584 
Q 2378 3584 2631 3529 
Q 2884 3475 3122 3366 
z
" transform="scale(0.015625)"/>
     </defs>
     <use xlink:href="#DejaVuSans-42"/>
     <use xlink:href="#DejaVuSans-69" x="68.603516"/>
     <use xlink:href="#DejaVuSans-6f" x="96.386719"/>
     <use xlink:href="#DejaVuSans-6d" x="157.568359"/>
     <use xlink:href="#DejaVuSans-61" x="254.980469"/>
     <use xlink:href="#DejaVuSans-73" x="316.259766"/>
     <use xlink:href="#DejaVuSans-73" x="368.359375"/>
     <use xlink:href="#DejaVuSans-53" x="420.458984"/>
     <use xlink:href="#DejaVuSans-75" x="483.935547"/>
     <use xlink:href="#DejaVuSans-63" x="547.314453"/>
     <use xlink:href="#DejaVuSans-63" x="602.294922"/>
     <use xlink:href="#DejaVuSans-65" x="657.275391"/>
     <use xlink:href="#DejaVuSans-73" x="718.798828"/>
     <use xlink:href="#DejaVuSans-73" x="770.898438"/>
     <use xlink:href="#DejaVuSans-69" x="822.998047"/>
     <use xlink:href="#DejaVuSans-6f" x="850.78125"/>
     <use xlink:href="#DejaVuSans-6e" x="911.962891"/>
    </g>
   </g>
  </g>
 </g>
 <defs>
  <clipPath id="pe589911b90">
   <rect x="72" y="48.9888" width="380.930233" height="186.8832"/>
  </clipPath>
  <clipPath id="p42bead60b8">
   <rect x="510.069767" y="48.9888" width="380.930233" height="186.8832"/>
  </clipPath>
 </defs>
</svg>
