<?xml version="1.0" encoding="utf-8" standalone="no"?>
<!DOCTYPE svg PUBLIC "-//W3C//DTD SVG 1.1//EN"
  "http://www.w3.org/Graphics/SVG/1.1/DTD/svg11.dtd">
<svg xmlns:xlink="http://www.w3.org/1999/xlink" width="900pt" height="302.4pt" viewBox="0 0 900 302.4" xmlns="http://www.w3.org/2000/svg" version="1.1">
 <metadata>
  <rdf:RDF xmlns:dc="http://purl.org/dc/elements/1.1/" xmlns:cc="http://creativecommons.org/ns#" xmlns:rdf="http://www.w3.org/1999/02/22-rdf-syntax-ns#">
   <cc:Work>
    <dc:type rdf:resource="http://purl.org/dc/dcmitype/StillImage"/>
    <dc:date>2024-02-23T15:27:17.078335</dc:date>
    <dc:format>image/svg+xml</dc:format>
    <dc:creator>
     <cc:Agent>
      <dc:title>Matplotlib v3.7.1, https://matplotlib.org/</dc:title>
     </cc:Agent>
    </dc:creator>
   </cc:Work>
  </rdf:RDF>
 </metadata>
 <defs>
  <style type="text/css">*{stroke-linejoin: round; stroke-linecap: butt}</style>
 </defs>
 <g id="figure_1">
  <g id="patch_1">
   <path d="M 0 302.4 
L 900 302.4 
L 900 0 
L 0 0 
z
" style="fill: #ffffff"/>
  </g>
  <g id="axes_1">
   <g id="patch_2">
    <path d="M 72 235.872 
L 452.930233 235.872 
L 452.930233 48.9888 
L 72 48.9888 
z
" style="fill: #fcfcfc"/>
   </g>
   <g id="matplotlib.axis_1">
    <g id="xtick_1">
     <g id="line2d_1">
      <path d="M 89.315011 235.872 
L 89.315011 48.9888 
" clip-path="url(#pb49c151b72)" style="fill: none; stroke: #dcdcdc; stroke-width: 0.5; stroke-linecap: square"/>
     </g>
     <g id="line2d_2">
      <defs>
       <path id="m6bdea79417" d="M 0 0 
L 0 3.5 
" style="stroke: #000000; stroke-width: 0.8"/>
      </defs>
      <g>
       <use xlink:href="#m6bdea79417" x="89.315011" y="235.872" style="stroke: #000000; stroke-width: 0.8"/>
      </g>
     </g>
     <g id="text_1">
      <!-- 0 -->
      <g transform="translate(85.179386 252.749969) scale(0.13 -0.13)">
       <defs>
        <path id="DejaVuSans-30" d="M 2034 4250 
Q 1547 4250 1301 3770 
Q 1056 3291 1056 2328 
Q 1056 1369 1301 889 
Q 1547 409 2034 409 
Q 2525 409 2770 889 
Q 3016 1369 3016 2328 
Q 3016 3291 2770 3770 
Q 2525 4250 2034 4250 
z
M 2034 4750 
Q 2819 4750 3233 4129 
Q 3647 3509 3647 2328 
Q 3647 1150 3233 529 
Q 2819 -91 2034 -91 
Q 1250 -91 836 529 
Q 422 1150 422 2328 
Q 422 3509 836 4129 
Q 1250 4750 2034 4750 
z
" transform="scale(0.015625)"/>
       </defs>
       <use xlink:href="#DejaVuSans-30"/>
      </g>
     </g>
    </g>
    <g id="xtick_2">
     <g id="line2d_3">
      <path d="M 175.890063 235.872 
L 175.890063 48.9888 
" clip-path="url(#pb49c151b72)" style="fill: none; stroke: #dcdcdc; stroke-width: 0.5; stroke-linecap: square"/>
     </g>
     <g id="line2d_4">
      <g>
       <use xlink:href="#m6bdea79417" x="175.890063" y="235.872" style="stroke: #000000; stroke-width: 0.8"/>
      </g>
     </g>
     <g id="text_2">
      <!-- 25 -->
      <g transform="translate(167.618813 252.749969) scale(0.13 -0.13)">
       <defs>
        <path id="DejaVuSans-32" d="M 1228 531 
L 3431 531 
L 3431 0 
L 469 0 
L 469 531 
Q 828 903 1448 1529 
Q 2069 2156 2228 2338 
Q 2531 2678 2651 2914 
Q 2772 3150 2772 3378 
Q 2772 3750 2511 3984 
Q 2250 4219 1831 4219 
Q 1534 4219 1204 4116 
Q 875 4013 500 3803 
L 500 4441 
Q 881 4594 1212 4672 
Q 1544 4750 1819 4750 
Q 2544 4750 2975 4387 
Q 3406 4025 3406 3419 
Q 3406 3131 3298 2873 
Q 3191 2616 2906 2266 
Q 2828 2175 2409 1742 
Q 1991 1309 1228 531 
z
" transform="scale(0.015625)"/>
        <path id="DejaVuSans-35" d="M 691 4666 
L 3169 4666 
L 3169 4134 
L 1269 4134 
L 1269 2991 
Q 1406 3038 1543 3061 
Q 1681 3084 1819 3084 
Q 2600 3084 3056 2656 
Q 3513 2228 3513 1497 
Q 3513 744 3044 326 
Q 2575 -91 1722 -91 
Q 1428 -91 1123 -41 
Q 819 9 494 109 
L 494 744 
Q 775 591 1075 516 
Q 1375 441 1709 441 
Q 2250 441 2565 725 
Q 2881 1009 2881 1497 
Q 2881 1984 2565 2268 
Q 2250 2553 1709 2553 
Q 1456 2553 1204 2497 
Q 953 2441 691 2322 
L 691 4666 
z
" transform="scale(0.015625)"/>
       </defs>
       <use xlink:href="#DejaVuSans-32"/>
       <use xlink:href="#DejaVuSans-35" x="63.623047"/>
      </g>
     </g>
    </g>
    <g id="xtick_3">
     <g id="line2d_5">
      <path d="M 262.465116 235.872 
L 262.465116 48.9888 
" clip-path="url(#pb49c151b72)" style="fill: none; stroke: #dcdcdc; stroke-width: 0.5; stroke-linecap: square"/>
     </g>
     <g id="line2d_6">
      <g>
       <use xlink:href="#m6bdea79417" x="262.465116" y="235.872" style="stroke: #000000; stroke-width: 0.8"/>
      </g>
     </g>
     <g id="text_3">
      <!-- 50 -->
      <g transform="translate(254.193866 252.749969) scale(0.13 -0.13)">
       <use xlink:href="#DejaVuSans-35"/>
       <use xlink:href="#DejaVuSans-30" x="63.623047"/>
      </g>
     </g>
    </g>
    <g id="xtick_4">
     <g id="line2d_7">
      <path d="M 349.040169 235.872 
L 349.040169 48.9888 
" clip-path="url(#pb49c151b72)" style="fill: none; stroke: #dcdcdc; stroke-width: 0.5; stroke-linecap: square"/>
     </g>
     <g id="line2d_8">
      <g>
       <use xlink:href="#m6bdea79417" x="349.040169" y="235.872" style="stroke: #000000; stroke-width: 0.8"/>
      </g>
     </g>
     <g id="text_4">
      <!-- 75 -->
      <g transform="translate(340.768919 252.749969) scale(0.13 -0.13)">
       <defs>
        <path id="DejaVuSans-37" d="M 525 4666 
L 3525 4666 
L 3525 4397 
L 1831 0 
L 1172 0 
L 2766 4134 
L 525 4134 
L 525 4666 
z
" transform="scale(0.015625)"/>
       </defs>
       <use xlink:href="#DejaVuSans-37"/>
       <use xlink:href="#DejaVuSans-35" x="63.623047"/>
      </g>
     </g>
    </g>
    <g id="xtick_5">
     <g id="line2d_9">
      <path d="M 435.615222 235.872 
L 435.615222 48.9888 
" clip-path="url(#pb49c151b72)" style="fill: none; stroke: #dcdcdc; stroke-width: 0.5; stroke-linecap: square"/>
     </g>
     <g id="line2d_10">
      <g>
       <use xlink:href="#m6bdea79417" x="435.615222" y="235.872" style="stroke: #000000; stroke-width: 0.8"/>
      </g>
     </g>
     <g id="text_5">
      <!-- 100 -->
      <g transform="translate(423.208347 252.749969) scale(0.13 -0.13)">
       <defs>
        <path id="DejaVuSans-31" d="M 794 531 
L 1825 531 
L 1825 4091 
L 703 3866 
L 703 4441 
L 1819 4666 
L 2450 4666 
L 2450 531 
L 3481 531 
L 3481 0 
L 794 0 
L 794 531 
z
" transform="scale(0.015625)"/>
       </defs>
       <use xlink:href="#DejaVuSans-31"/>
       <use xlink:href="#DejaVuSans-30" x="63.623047"/>
       <use xlink:href="#DejaVuSans-30" x="127.246094"/>
      </g>
     </g>
    </g>
    <g id="text_6">
     <!-- Time step -->
     <g transform="translate(225.507694 270.851219) scale(0.15 -0.15)">
      <defs>
       <path id="DejaVuSans-54" d="M -19 4666 
L 3928 4666 
L 3928 4134 
L 2272 4134 
L 2272 0 
L 1638 0 
L 1638 4134 
L -19 4134 
L -19 4666 
z
" transform="scale(0.015625)"/>
       <path id="DejaVuSans-69" d="M 603 3500 
L 1178 3500 
L 1178 0 
L 603 0 
L 603 3500 
z
M 603 4863 
L 1178 4863 
L 1178 4134 
L 603 4134 
L 603 4863 
z
" transform="scale(0.015625)"/>
       <path id="DejaVuSans-6d" d="M 3328 2828 
Q 3544 3216 3844 3400 
Q 4144 3584 4550 3584 
Q 5097 3584 5394 3201 
Q 5691 2819 5691 2113 
L 5691 0 
L 5113 0 
L 5113 2094 
Q 5113 2597 4934 2840 
Q 4756 3084 4391 3084 
Q 3944 3084 3684 2787 
Q 3425 2491 3425 1978 
L 3425 0 
L 2847 0 
L 2847 2094 
Q 2847 2600 2669 2842 
Q 2491 3084 2119 3084 
Q 1678 3084 1418 2786 
Q 1159 2488 1159 1978 
L 1159 0 
L 581 0 
L 581 3500 
L 1159 3500 
L 1159 2956 
Q 1356 3278 1631 3431 
Q 1906 3584 2284 3584 
Q 2666 3584 2933 3390 
Q 3200 3197 3328 2828 
z
" transform="scale(0.015625)"/>
       <path id="DejaVuSans-65" d="M 3597 1894 
L 3597 1613 
L 953 1613 
Q 991 1019 1311 708 
Q 1631 397 2203 397 
Q 2534 397 2845 478 
Q 3156 559 3463 722 
L 3463 178 
Q 3153 47 2828 -22 
Q 2503 -91 2169 -91 
Q 1331 -91 842 396 
Q 353 884 353 1716 
Q 353 2575 817 3079 
Q 1281 3584 2069 3584 
Q 2775 3584 3186 3129 
Q 3597 2675 3597 1894 
z
M 3022 2063 
Q 3016 2534 2758 2815 
Q 2500 3097 2075 3097 
Q 1594 3097 1305 2825 
Q 1016 2553 972 2059 
L 3022 2063 
z
" transform="scale(0.015625)"/>
       <path id="DejaVuSans-20" transform="scale(0.015625)"/>
       <path id="DejaVuSans-73" d="M 2834 3397 
L 2834 2853 
Q 2591 2978 2328 3040 
Q 2066 3103 1784 3103 
Q 1356 3103 1142 2972 
Q 928 2841 928 2578 
Q 928 2378 1081 2264 
Q 1234 2150 1697 2047 
L 1894 2003 
Q 2506 1872 2764 1633 
Q 3022 1394 3022 966 
Q 3022 478 2636 193 
Q 2250 -91 1575 -91 
Q 1294 -91 989 -36 
Q 684 19 347 128 
L 347 722 
Q 666 556 975 473 
Q 1284 391 1588 391 
Q 1994 391 2212 530 
Q 2431 669 2431 922 
Q 2431 1156 2273 1281 
Q 2116 1406 1581 1522 
L 1381 1569 
Q 847 1681 609 1914 
Q 372 2147 372 2553 
Q 372 3047 722 3315 
Q 1072 3584 1716 3584 
Q 2034 3584 2315 3537 
Q 2597 3491 2834 3397 
z
" transform="scale(0.015625)"/>
       <path id="DejaVuSans-74" d="M 1172 4494 
L 1172 3500 
L 2356 3500 
L 2356 3053 
L 1172 3053 
L 1172 1153 
Q 1172 725 1289 603 
Q 1406 481 1766 481 
L 2356 481 
L 2356 0 
L 1766 0 
Q 1100 0 847 248 
Q 594 497 594 1153 
L 594 3053 
L 172 3053 
L 172 3500 
L 594 3500 
L 594 4494 
L 1172 4494 
z
" transform="scale(0.015625)"/>
       <path id="DejaVuSans-70" d="M 1159 525 
L 1159 -1331 
L 581 -1331 
L 581 3500 
L 1159 3500 
L 1159 2969 
Q 1341 3281 1617 3432 
Q 1894 3584 2278 3584 
Q 2916 3584 3314 3078 
Q 3713 2572 3713 1747 
Q 3713 922 3314 415 
Q 2916 -91 2278 -91 
Q 1894 -91 1617 61 
Q 1341 213 1159 525 
z
M 3116 1747 
Q 3116 2381 2855 2742 
Q 2594 3103 2138 3103 
Q 1681 3103 1420 2742 
Q 1159 2381 1159 1747 
Q 1159 1113 1420 752 
Q 1681 391 2138 391 
Q 2594 391 2855 752 
Q 3116 1113 3116 1747 
z
" transform="scale(0.015625)"/>
      </defs>
      <use xlink:href="#DejaVuSans-54"/>
      <use xlink:href="#DejaVuSans-69" x="57.958984"/>
      <use xlink:href="#DejaVuSans-6d" x="85.742188"/>
      <use xlink:href="#DejaVuSans-65" x="183.154297"/>
      <use xlink:href="#DejaVuSans-20" x="244.677734"/>
      <use xlink:href="#DejaVuSans-73" x="276.464844"/>
      <use xlink:href="#DejaVuSans-74" x="328.564453"/>
      <use xlink:href="#DejaVuSans-65" x="367.773438"/>
      <use xlink:href="#DejaVuSans-70" x="429.296875"/>
     </g>
    </g>
   </g>
   <g id="matplotlib.axis_2">
    <g id="ytick_1">
     <g id="line2d_11">
      <path d="M 72 235.872 
L 452.930233 235.872 
" clip-path="url(#pb49c151b72)" style="fill: none; stroke: #dcdcdc; stroke-width: 0.5; stroke-linecap: square"/>
     </g>
     <g id="line2d_12">
      <defs>
       <path id="mbba3a3b899" d="M 0 0 
L -3.5 0 
" style="stroke: #000000; stroke-width: 0.8"/>
      </defs>
      <g>
       <use xlink:href="#mbba3a3b899" x="72" y="235.872" style="stroke: #000000; stroke-width: 0.8"/>
      </g>
     </g>
     <g id="text_7">
      <!-- 0.0 -->
      <g transform="translate(44.325937 240.810984) scale(0.13 -0.13)">
       <defs>
        <path id="DejaVuSans-2e" d="M 684 794 
L 1344 794 
L 1344 0 
L 684 0 
L 684 794 
z
" transform="scale(0.015625)"/>
       </defs>
       <use xlink:href="#DejaVuSans-30"/>
       <use xlink:href="#DejaVuSans-2e" x="63.623047"/>
       <use xlink:href="#DejaVuSans-30" x="95.410156"/>
      </g>
     </g>
    </g>
    <g id="ytick_2">
     <g id="line2d_13">
      <path d="M 72 182.058156 
L 452.930233 182.058156 
" clip-path="url(#pb49c151b72)" style="fill: none; stroke: #dcdcdc; stroke-width: 0.5; stroke-linecap: square"/>
     </g>
     <g id="line2d_14">
      <g>
       <use xlink:href="#mbba3a3b899" x="72" y="182.058156" style="stroke: #000000; stroke-width: 0.8"/>
      </g>
     </g>
     <g id="text_8">
      <!-- 0.5 -->
      <g transform="translate(44.325937 186.99714) scale(0.13 -0.13)">
       <use xlink:href="#DejaVuSans-30"/>
       <use xlink:href="#DejaVuSans-2e" x="63.623047"/>
       <use xlink:href="#DejaVuSans-35" x="95.410156"/>
      </g>
     </g>
    </g>
    <g id="ytick_3">
     <g id="line2d_15">
      <path d="M 72 128.244311 
L 452.930233 128.244311 
" clip-path="url(#pb49c151b72)" style="fill: none; stroke: #dcdcdc; stroke-width: 0.5; stroke-linecap: square"/>
     </g>
     <g id="line2d_16">
      <g>
       <use xlink:href="#mbba3a3b899" x="72" y="128.244311" style="stroke: #000000; stroke-width: 0.8"/>
      </g>
     </g>
     <g id="text_9">
      <!-- 1.0 -->
      <g transform="translate(44.325937 133.183296) scale(0.13 -0.13)">
       <use xlink:href="#DejaVuSans-31"/>
       <use xlink:href="#DejaVuSans-2e" x="63.623047"/>
       <use xlink:href="#DejaVuSans-30" x="95.410156"/>
      </g>
     </g>
    </g>
    <g id="ytick_4">
     <g id="line2d_17">
      <path d="M 72 74.430467 
L 452.930233 74.430467 
" clip-path="url(#pb49c151b72)" style="fill: none; stroke: #dcdcdc; stroke-width: 0.5; stroke-linecap: square"/>
     </g>
     <g id="line2d_18">
      <g>
       <use xlink:href="#mbba3a3b899" x="72" y="74.430467" style="stroke: #000000; stroke-width: 0.8"/>
      </g>
     </g>
     <g id="text_10">
      <!-- 1.5 -->
      <g transform="translate(44.325937 79.369452) scale(0.13 -0.13)">
       <use xlink:href="#DejaVuSans-31"/>
       <use xlink:href="#DejaVuSans-2e" x="63.623047"/>
       <use xlink:href="#DejaVuSans-35" x="95.410156"/>
      </g>
     </g>
    </g>
    <g id="text_11">
     <!-- Biomass PICE.GLA -->
     <g transform="translate(37.206406 210.731963) rotate(-90) scale(0.15 -0.15)">
      <defs>
       <path id="DejaVuSans-42" d="M 1259 2228 
L 1259 519 
L 2272 519 
Q 2781 519 3026 730 
Q 3272 941 3272 1375 
Q 3272 1813 3026 2020 
Q 2781 2228 2272 2228 
L 1259 2228 
z
M 1259 4147 
L 1259 2741 
L 2194 2741 
Q 2656 2741 2882 2914 
Q 3109 3088 3109 3444 
Q 3109 3797 2882 3972 
Q 2656 4147 2194 4147 
L 1259 4147 
z
M 628 4666 
L 2241 4666 
Q 2963 4666 3353 4366 
Q 3744 4066 3744 3513 
Q 3744 3084 3544 2831 
Q 3344 2578 2956 2516 
Q 3422 2416 3680 2098 
Q 3938 1781 3938 1306 
Q 3938 681 3513 340 
Q 3088 0 2303 0 
L 628 0 
L 628 4666 
z
" transform="scale(0.015625)"/>
       <path id="DejaVuSans-6f" d="M 1959 3097 
Q 1497 3097 1228 2736 
Q 959 2375 959 1747 
Q 959 1119 1226 758 
Q 1494 397 1959 397 
Q 2419 397 2687 759 
Q 2956 1122 2956 1747 
Q 2956 2369 2687 2733 
Q 2419 3097 1959 3097 
z
M 1959 3584 
Q 2709 3584 3137 3096 
Q 3566 2609 3566 1747 
Q 3566 888 3137 398 
Q 2709 -91 1959 -91 
Q 1206 -91 779 398 
Q 353 888 353 1747 
Q 353 2609 779 3096 
Q 1206 3584 1959 3584 
z
" transform="scale(0.015625)"/>
       <path id="DejaVuSans-61" d="M 2194 1759 
Q 1497 1759 1228 1600 
Q 959 1441 959 1056 
Q 959 750 1161 570 
Q 1363 391 1709 391 
Q 2188 391 2477 730 
Q 2766 1069 2766 1631 
L 2766 1759 
L 2194 1759 
z
M 3341 1997 
L 3341 0 
L 2766 0 
L 2766 531 
Q 2569 213 2275 61 
Q 1981 -91 1556 -91 
Q 1019 -91 701 211 
Q 384 513 384 1019 
Q 384 1609 779 1909 
Q 1175 2209 1959 2209 
L 2766 2209 
L 2766 2266 
Q 2766 2663 2505 2880 
Q 2244 3097 1772 3097 
Q 1472 3097 1187 3025 
Q 903 2953 641 2809 
L 641 3341 
Q 956 3463 1253 3523 
Q 1550 3584 1831 3584 
Q 2591 3584 2966 3190 
Q 3341 2797 3341 1997 
z
" transform="scale(0.015625)"/>
       <path id="DejaVuSans-50" d="M 1259 4147 
L 1259 2394 
L 2053 2394 
Q 2494 2394 2734 2622 
Q 2975 2850 2975 3272 
Q 2975 3691 2734 3919 
Q 2494 4147 2053 4147 
L 1259 4147 
z
M 628 4666 
L 2053 4666 
Q 2838 4666 3239 4311 
Q 3641 3956 3641 3272 
Q 3641 2581 3239 2228 
Q 2838 1875 2053 1875 
L 1259 1875 
L 1259 0 
L 628 0 
L 628 4666 
z
" transform="scale(0.015625)"/>
       <path id="DejaVuSans-49" d="M 628 4666 
L 1259 4666 
L 1259 0 
L 628 0 
L 628 4666 
z
" transform="scale(0.015625)"/>
       <path id="DejaVuSans-43" d="M 4122 4306 
L 4122 3641 
Q 3803 3938 3442 4084 
Q 3081 4231 2675 4231 
Q 1875 4231 1450 3742 
Q 1025 3253 1025 2328 
Q 1025 1406 1450 917 
Q 1875 428 2675 428 
Q 3081 428 3442 575 
Q 3803 722 4122 1019 
L 4122 359 
Q 3791 134 3420 21 
Q 3050 -91 2638 -91 
Q 1578 -91 968 557 
Q 359 1206 359 2328 
Q 359 3453 968 4101 
Q 1578 4750 2638 4750 
Q 3056 4750 3426 4639 
Q 3797 4528 4122 4306 
z
" transform="scale(0.015625)"/>
       <path id="DejaVuSans-45" d="M 628 4666 
L 3578 4666 
L 3578 4134 
L 1259 4134 
L 1259 2753 
L 3481 2753 
L 3481 2222 
L 1259 2222 
L 1259 531 
L 3634 531 
L 3634 0 
L 628 0 
L 628 4666 
z
" transform="scale(0.015625)"/>
       <path id="DejaVuSans-47" d="M 3809 666 
L 3809 1919 
L 2778 1919 
L 2778 2438 
L 4434 2438 
L 4434 434 
Q 4069 175 3628 42 
Q 3188 -91 2688 -91 
Q 1594 -91 976 548 
Q 359 1188 359 2328 
Q 359 3472 976 4111 
Q 1594 4750 2688 4750 
Q 3144 4750 3555 4637 
Q 3966 4525 4313 4306 
L 4313 3634 
Q 3963 3931 3569 4081 
Q 3175 4231 2741 4231 
Q 1884 4231 1454 3753 
Q 1025 3275 1025 2328 
Q 1025 1384 1454 906 
Q 1884 428 2741 428 
Q 3075 428 3337 486 
Q 3600 544 3809 666 
z
" transform="scale(0.015625)"/>
       <path id="DejaVuSans-4c" d="M 628 4666 
L 1259 4666 
L 1259 531 
L 3531 531 
L 3531 0 
L 628 0 
L 628 4666 
z
" transform="scale(0.015625)"/>
       <path id="DejaVuSans-41" d="M 2188 4044 
L 1331 1722 
L 3047 1722 
L 2188 4044 
z
M 1831 4666 
L 2547 4666 
L 4325 0 
L 3669 0 
L 3244 1197 
L 1141 1197 
L 716 0 
L 50 0 
L 1831 4666 
z
" transform="scale(0.015625)"/>
      </defs>
      <use xlink:href="#DejaVuSans-42"/>
      <use xlink:href="#DejaVuSans-69" x="68.603516"/>
      <use xlink:href="#DejaVuSans-6f" x="96.386719"/>
      <use xlink:href="#DejaVuSans-6d" x="157.568359"/>
      <use xlink:href="#DejaVuSans-61" x="254.980469"/>
      <use xlink:href="#DejaVuSans-73" x="316.259766"/>
      <use xlink:href="#DejaVuSans-73" x="368.359375"/>
      <use xlink:href="#DejaVuSans-20" x="420.458984"/>
      <use xlink:href="#DejaVuSans-50" x="452.246094"/>
      <use xlink:href="#DejaVuSans-49" x="512.548828"/>
      <use xlink:href="#DejaVuSans-43" x="542.041016"/>
      <use xlink:href="#DejaVuSans-45" x="611.865234"/>
      <use xlink:href="#DejaVuSans-2e" x="675.048828"/>
      <use xlink:href="#DejaVuSans-47" x="706.835938"/>
      <use xlink:href="#DejaVuSans-4c" x="784.326172"/>
      <use xlink:href="#DejaVuSans-41" x="842.289062"/>
     </g>
    </g>
    <g id="text_12">
     <!-- 1e4 -->
     <g transform="translate(72 45.9888) scale(0.12 -0.12)">
      <defs>
       <path id="DejaVuSans-34" d="M 2419 4116 
L 825 1625 
L 2419 1625 
L 2419 4116 
z
M 2253 4666 
L 3047 4666 
L 3047 1625 
L 3713 1625 
L 3713 1100 
L 3047 1100 
L 3047 0 
L 2419 0 
L 2419 1100 
L 313 1100 
L 313 1709 
L 2253 4666 
z
" transform="scale(0.015625)"/>
      </defs>
      <use xlink:href="#DejaVuSans-31"/>
      <use xlink:href="#DejaVuSans-65" x="63.623047"/>
      <use xlink:href="#DejaVuSans-34" x="125.146484"/>
     </g>
    </g>
   </g>
   <g id="PolyCollection_1">
    <defs>
     <path id="mb07a4d80d1" d="M 89.315011 -65.210888 
L 89.315011 -70.022507 
L 106.630021 -72.553469 
L 123.945032 -76.800202 
L 141.260042 -83.589329 
L 158.575053 -90.882795 
L 175.890063 -103.553444 
L 193.205074 -116.810613 
L 210.520085 -129.372882 
L 227.835095 -141.885985 
L 245.150106 -151.903575 
L 262.465116 -164.34174 
L 279.780127 -168.614836 
L 297.095137 -175.133864 
L 314.410148 -182.524356 
L 331.725159 -188.132715 
L 349.040169 -193.510765 
L 366.35518 -198.956804 
L 383.67019 -202.693192 
L 400.985201 -202.818849 
L 418.300211 -205.86613 
L 435.615222 -205.378091 
L 435.615222 -14.199119 
L 435.615222 -14.199119 
L 418.300211 -14.01515 
L 400.985201 -15.163577 
L 383.67019 -15.210967 
L 366.35518 -16.618981 
L 349.040169 -18.671389 
L 331.725159 -20.697999 
L 314.410148 -22.811386 
L 297.095137 -25.596274 
L 279.780127 -28.05296 
L 262.465116 -29.663089 
L 245.150106 -34.34995 
L 227.835095 -38.125694 
L 210.520085 -42.841127 
L 193.205074 -47.574774 
L 175.890063 -52.571045 
L 158.575053 -57.347332 
L 141.260042 -60.096627 
L 123.945032 -62.656073 
L 106.630021 -64.256843 
L 89.315011 -65.210888 
z
"/>
    </defs>
    <g clip-path="url(#pb49c151b72)">
     <use xlink:href="#mb07a4d80d1" x="0" y="302.4" style="fill: #fcffa4; fill-opacity: 0.3"/>
    </g>
   </g>
   <g id="PolyCollection_2">
    <defs>
     <path id="m7e0e9d34fc" d="M 89.315011 -66.086125 
L 89.315011 -72.107633 
L 106.630021 -75.783286 
L 123.945032 -81.482543 
L 141.260042 -89.859383 
L 158.575053 -98.356235 
L 175.890063 -112.470194 
L 193.205074 -124.899406 
L 210.520085 -135.768716 
L 227.835095 -146.86924 
L 245.150106 -156.087703 
L 262.465116 -168.267261 
L 279.780127 -170.773445 
L 297.095137 -179.106825 
L 314.410148 -189.279907 
L 331.725159 -197.885486 
L 349.040169 -207.431346 
L 366.35518 -217.718661 
L 383.67019 -226.103692 
L 400.985201 -229.147609 
L 418.300211 -236.506506 
L 435.615222 -238.928092 
L 435.615222 -35.879472 
L 435.615222 -35.879472 
L 418.300211 -35.902424 
L 400.985201 -37.063947 
L 383.67019 -38.165356 
L 366.35518 -39.713101 
L 349.040169 -42.117807 
L 331.725159 -45.056447 
L 314.410148 -48.167288 
L 297.095137 -50.912639 
L 279.780127 -53.070427 
L 262.465116 -56.439614 
L 245.150106 -58.485121 
L 227.835095 -59.539292 
L 210.520085 -60.639395 
L 193.205074 -61.699389 
L 175.890063 -62.797127 
L 158.575053 -63.978844 
L 141.260042 -64.670063 
L 123.945032 -65.33934 
L 106.630021 -65.7939 
L 89.315011 -66.086125 
z
"/>
    </defs>
    <g clip-path="url(#pb49c151b72)">
     <use xlink:href="#m7e0e9d34fc" x="0" y="302.4" style="fill: #f98e09; fill-opacity: 0.3"/>
    </g>
   </g>
   <g id="PolyCollection_3">
    <defs>
     <path id="m741cd68a3d" d="M 89.315011 -67.083811 
L 89.315011 -72.925368 
L 106.630021 -76.847149 
L 123.945032 -82.551986 
L 141.260042 -90.664408 
L 158.575053 -98.335206 
L 175.890063 -109.299615 
L 193.205074 -118.707048 
L 210.520085 -126.440868 
L 227.835095 -135.684708 
L 245.150106 -143.501314 
L 262.465116 -155.176637 
L 279.780127 -159.318828 
L 297.095137 -168.256243 
L 314.410148 -179.199493 
L 331.725159 -187.514465 
L 349.040169 -198.318765 
L 366.35518 -210.390589 
L 383.67019 -219.78573 
L 400.985201 -224.69386 
L 418.300211 -234.731716 
L 435.615222 -240.102114 
L 435.615222 -55.914088 
L 435.615222 -55.914088 
L 418.300211 -55.88304 
L 400.985201 -56.831437 
L 383.67019 -58.053792 
L 366.35518 -60.135933 
L 349.040169 -61.398149 
L 331.725159 -63.217043 
L 314.410148 -66.70939 
L 297.095137 -68.553408 
L 279.780127 -69.137365 
L 262.465116 -70.445805 
L 245.150106 -71.327879 
L 227.835095 -71.231999 
L 210.520085 -70.778326 
L 193.205074 -70.641247 
L 175.890063 -70.008093 
L 158.575053 -69.214823 
L 141.260042 -68.591659 
L 123.945032 -67.905044 
L 106.630021 -67.420039 
L 89.315011 -67.083811 
z
"/>
    </defs>
    <g clip-path="url(#pb49c151b72)">
     <use xlink:href="#m741cd68a3d" x="0" y="302.4" style="fill: #bc3754; fill-opacity: 0.3"/>
    </g>
   </g>
   <g id="PolyCollection_4">
    <defs>
     <path id="m128e6a4fd3" d="M 89.315011 -68.912734 
L 89.315011 -73.477601 
L 106.630021 -77.426101 
L 123.945032 -82.844994 
L 141.260042 -90.733652 
L 158.575053 -97.037211 
L 175.890063 -106.606368 
L 193.205074 -114.173437 
L 210.520085 -120.428788 
L 227.835095 -128.428489 
L 245.150106 -136.701303 
L 262.465116 -148.806328 
L 279.780127 -153.834867 
L 297.095137 -163.295812 
L 314.410148 -174.393031 
L 331.725159 -183.945443 
L 349.040169 -194.502675 
L 366.35518 -206.160182 
L 383.67019 -217.009203 
L 400.985201 -223.61803 
L 418.300211 -236.638892 
L 435.615222 -244.512 
L 435.615222 -81.906743 
L 435.615222 -81.906743 
L 418.300211 -80.400183 
L 400.985201 -79.689561 
L 383.67019 -81.179184 
L 366.35518 -82.000663 
L 349.040169 -83.724307 
L 331.725159 -84.708658 
L 314.410148 -85.574741 
L 297.095137 -85.559746 
L 279.780127 -84.67104 
L 262.465116 -86.168917 
L 245.150106 -84.781778 
L 227.835095 -83.590804 
L 210.520085 -82.546679 
L 193.205074 -81.511373 
L 175.890063 -79.750953 
L 158.575053 -76.83857 
L 141.260042 -74.769986 
L 123.945032 -72.096925 
L 106.630021 -70.252929 
L 89.315011 -68.912734 
z
"/>
    </defs>
    <g clip-path="url(#pb49c151b72)">
     <use xlink:href="#m128e6a4fd3" x="0" y="302.4" style="fill: #57106e; fill-opacity: 0.3"/>
    </g>
   </g>
   <g id="PolyCollection_5">
    <defs>
     <path id="m1ccb144f4b" d="M 89.315011 -71.403803 
L 89.315011 -72.726484 
L 106.630021 -76.099559 
L 123.945032 -80.604637 
L 141.260042 -86.920157 
L 158.575053 -91.839146 
L 175.890063 -99.291988 
L 193.205074 -105.711375 
L 210.520085 -112.299635 
L 227.835095 -119.879663 
L 245.150106 -127.385408 
L 262.465116 -138.543836 
L 279.780127 -143.955901 
L 297.095137 -151.687411 
L 314.410148 -161.932264 
L 331.725159 -170.004888 
L 349.040169 -179.098369 
L 366.35518 -190.058577 
L 383.67019 -200.119671 
L 400.985201 -206.650771 
L 418.300211 -219.696748 
L 435.615222 -228.829454 
L 435.615222 -98.435458 
L 435.615222 -98.435458 
L 418.300211 -97.360022 
L 400.985201 -96.141413 
L 383.67019 -97.885534 
L 366.35518 -98.931173 
L 349.040169 -97.888871 
L 331.725159 -98.301576 
L 314.410148 -99.795479 
L 297.095137 -98.443965 
L 279.780127 -97.536545 
L 262.465116 -101.756913 
L 245.150106 -97.774063 
L 227.835095 -95.456284 
L 210.520085 -92.902391 
L 193.205074 -92.07351 
L 175.890063 -89.54529 
L 158.575053 -85.355098 
L 141.260042 -82.060803 
L 123.945032 -77.441737 
L 106.630021 -73.979826 
L 89.315011 -71.403803 
z
"/>
    </defs>
    <g clip-path="url(#pb49c151b72)">
     <use xlink:href="#m1ccb144f4b" x="0" y="302.4" style="fill: #000004; fill-opacity: 0.3"/>
    </g>
   </g>
   <g id="line2d_19">
    <path d="M 89.315011 234.783303 
L 106.630021 233.994844 
L 123.945032 232.671863 
L 141.260042 230.557022 
L 158.575053 228.284937 
L 175.890063 224.337756 
L 193.205074 220.207307 
L 210.520085 216.292995 
L 227.835095 212.394161 
L 245.150106 209.273237 
L 262.465116 205.397586 
L 279.780127 204.066102 
L 297.095137 202.034931 
L 314.410148 199.732129 
L 331.725159 197.984643 
L 349.040169 196.308923 
L 366.35518 194.612108 
L 383.67019 193.44792 
L 400.985201 193.408787 
L 418.300211 192.45936 
L 435.615222 192.611395 
" clip-path="url(#pb49c151b72)" style="fill: none; stroke: #fcffa4; stroke-linecap: square"/>
   </g>
   <g id="line2d_20">
    <path d="M 89.315011 233.303121 
L 106.630021 231.611407 
L 123.945032 228.989059 
L 141.260042 225.135277 
L 158.575053 221.23246 
L 175.890063 214.766339 
L 193.205074 209.100603 
L 210.520085 204.195944 
L 227.835095 199.195734 
L 245.150106 195.113588 
L 262.465116 190.046563 
L 279.780127 190.478064 
L 297.095137 187.390268 
L 314.410148 183.676403 
L 331.725159 180.929034 
L 349.040169 177.625423 
L 366.35518 173.684119 
L 383.67019 170.265476 
L 400.985201 169.294222 
L 418.300211 166.195535 
L 435.615222 164.996218 
" clip-path="url(#pb49c151b72)" style="fill: none; stroke: #f98e09; stroke-linecap: square"/>
   </g>
   <g id="line2d_21">
    <path d="M 89.315011 232.39541 
L 106.630021 230.266406 
L 123.945032 227.171485 
L 141.260042 222.771967 
L 158.575053 218.624986 
L 175.890063 212.746146 
L 193.205074 207.725853 
L 210.520085 203.790403 
L 227.835095 198.941647 
L 245.150106 194.985404 
L 262.465116 189.588779 
L 279.780127 188.171904 
L 297.095137 183.995174 
L 314.410148 179.445558 
L 331.725159 177.034246 
L 349.040169 172.541543 
L 366.35518 167.136739 
L 383.67019 163.480239 
L 400.985201 161.637352 
L 418.300211 157.092622 
L 435.615222 154.391899 
" clip-path="url(#pb49c151b72)" style="fill: none; stroke: #bc3754; stroke-linecap: square"/>
   </g>
   <g id="line2d_22">
    <path d="M 89.315011 231.204833 
L 106.630021 228.560485 
L 123.945032 224.929041 
L 141.260042 219.648181 
L 158.575053 215.462109 
L 175.890063 209.221339 
L 193.205074 204.557595 
L 210.520085 200.912267 
L 227.835095 196.390354 
L 245.150106 191.658459 
L 262.465116 184.912377 
L 279.780127 183.147047 
L 297.095137 177.972221 
L 314.410148 172.416114 
L 331.725159 168.072949 
L 349.040169 163.286509 
L 366.35518 158.319578 
L 383.67019 153.305806 
L 400.985201 150.746205 
L 418.300211 143.880462 
L 435.615222 139.190629 
" clip-path="url(#pb49c151b72)" style="fill: none; stroke: #57106e; stroke-linecap: square"/>
   </g>
   <g id="line2d_23">
    <path d="M 89.315011 230.334857 
L 106.630021 227.360307 
L 123.945032 223.376813 
L 141.260042 217.90952 
L 158.575053 213.802878 
L 175.890063 207.981361 
L 193.205074 203.507558 
L 210.520085 199.798987 
L 227.835095 194.732026 
L 245.150106 189.820265 
L 262.465116 182.249625 
L 279.780127 181.653777 
L 297.095137 177.334312 
L 314.410148 171.536128 
L 331.725159 168.246768 
L 349.040169 163.90638 
L 366.35518 157.905125 
L 383.67019 153.397397 
L 400.985201 151.003908 
L 418.300211 143.871615 
L 435.615222 138.767544 
" clip-path="url(#pb49c151b72)" style="fill: none; stroke: #000004; stroke-linecap: square"/>
   </g>
   <g id="patch_3">
    <path d="M 72 235.872 
L 72 48.9888 
" style="fill: none; stroke: #000000; stroke-width: 0.8; stroke-linejoin: miter; stroke-linecap: square"/>
   </g>
   <g id="patch_4">
    <path d="M 72 235.872 
L 452.930233 235.872 
" style="fill: none; stroke: #000000; stroke-width: 0.8; stroke-linejoin: miter; stroke-linecap: square"/>
   </g>
   <g id="text_13">
    <!-- PnET -->
    <g transform="translate(242.770116 289.674624) scale(0.16 -0.16)">
     <defs>
      <path id="DejaVuSans-6e" d="M 3513 2113 
L 3513 0 
L 2938 0 
L 2938 2094 
Q 2938 2591 2744 2837 
Q 2550 3084 2163 3084 
Q 1697 3084 1428 2787 
Q 1159 2491 1159 1978 
L 1159 0 
L 581 0 
L 581 3500 
L 1159 3500 
L 1159 2956 
Q 1366 3272 1645 3428 
Q 1925 3584 2291 3584 
Q 2894 3584 3203 3211 
Q 3513 2838 3513 2113 
z
" transform="scale(0.015625)"/>
     </defs>
     <use xlink:href="#DejaVuSans-50"/>
     <use xlink:href="#DejaVuSans-6e" x="58.552734"/>
     <use xlink:href="#DejaVuSans-45" x="121.931641"/>
     <use xlink:href="#DejaVuSans-54" x="185.115234"/>
    </g>
   </g>
   <g id="legend_1">
    <g id="patch_5">
     <path d="M 266.5125 37.164 
L 633.4875 37.164 
Q 635.8875 37.164 635.8875 34.764 
L 635.8875 11.424 
Q 635.8875 9.024 633.4875 9.024 
L 266.5125 9.024 
Q 264.1125 9.024 264.1125 11.424 
L 264.1125 34.764 
Q 264.1125 37.164 266.5125 37.164 
z
" style="fill: #ffffff; opacity: 0.8; stroke: #cccccc; stroke-linejoin: miter"/>
    </g>
    <g id="patch_6">
     <path d="M 268.9125 32.364 
L 304.9125 32.364 
L 304.9125 13.824 
L 268.9125 13.824 
z
" style="fill: #fcffa4; fill-opacity: 0.3"/>
    </g>
    <g id="line2d_24">
     <path d="M 268.9125 20.364 
L 286.9125 20.364 
L 304.9125 20.364 
" style="fill: none; stroke: #fcffa4; stroke-linecap: square"/>
    </g>
    <g id="text_14">
     <!-- 1 -->
     <g transform="translate(314.5125 26.904) scale(0.12 -0.12)">
      <use xlink:href="#DejaVuSans-31"/>
     </g>
    </g>
    <g id="patch_7">
     <path d="M 346.1475 32.364 
L 382.1475 32.364 
L 382.1475 13.824 
L 346.1475 13.824 
z
" style="fill: #f98e09; fill-opacity: 0.3"/>
    </g>
    <g id="line2d_25">
     <path d="M 346.1475 20.364 
L 364.1475 20.364 
L 382.1475 20.364 
" style="fill: none; stroke: #f98e09; stroke-linecap: square"/>
    </g>
    <g id="text_15">
     <!-- 2 -->
     <g transform="translate(391.7475 26.904) scale(0.12 -0.12)">
      <use xlink:href="#DejaVuSans-32"/>
     </g>
    </g>
    <g id="patch_8">
     <path d="M 423.3825 32.364 
L 459.3825 32.364 
L 459.3825 13.824 
L 423.3825 13.824 
z
" style="fill: #bc3754; fill-opacity: 0.3"/>
    </g>
    <g id="line2d_26">
     <path d="M 423.3825 20.364 
L 441.3825 20.364 
L 459.3825 20.364 
" style="fill: none; stroke: #bc3754; stroke-linecap: square"/>
    </g>
    <g id="text_16">
     <!-- 3 -->
     <g transform="translate(468.9825 26.904) scale(0.12 -0.12)">
      <defs>
       <path id="DejaVuSans-33" d="M 2597 2516 
Q 3050 2419 3304 2112 
Q 3559 1806 3559 1356 
Q 3559 666 3084 287 
Q 2609 -91 1734 -91 
Q 1441 -91 1130 -33 
Q 819 25 488 141 
L 488 750 
Q 750 597 1062 519 
Q 1375 441 1716 441 
Q 2309 441 2620 675 
Q 2931 909 2931 1356 
Q 2931 1769 2642 2001 
Q 2353 2234 1838 2234 
L 1294 2234 
L 1294 2753 
L 1863 2753 
Q 2328 2753 2575 2939 
Q 2822 3125 2822 3475 
Q 2822 3834 2567 4026 
Q 2313 4219 1838 4219 
Q 1578 4219 1281 4162 
Q 984 4106 628 3988 
L 628 4550 
Q 988 4650 1302 4700 
Q 1616 4750 1894 4750 
Q 2613 4750 3031 4423 
Q 3450 4097 3450 3541 
Q 3450 3153 3228 2886 
Q 3006 2619 2597 2516 
z
" transform="scale(0.015625)"/>
      </defs>
      <use xlink:href="#DejaVuSans-33"/>
     </g>
    </g>
    <g id="patch_9">
     <path d="M 500.6175 32.364 
L 536.6175 32.364 
L 536.6175 13.824 
L 500.6175 13.824 
z
" style="fill: #57106e; fill-opacity: 0.3"/>
    </g>
    <g id="line2d_27">
     <path d="M 500.6175 20.364 
L 518.6175 20.364 
L 536.6175 20.364 
" style="fill: none; stroke: #57106e; stroke-linecap: square"/>
    </g>
    <g id="text_17">
     <!-- 4 -->
     <g transform="translate(546.2175 26.904) scale(0.12 -0.12)">
      <use xlink:href="#DejaVuSans-34"/>
     </g>
    </g>
    <g id="patch_10">
     <path d="M 577.8525 32.364 
L 613.8525 32.364 
L 613.8525 13.824 
L 577.8525 13.824 
z
" style="fill: #000004; fill-opacity: 0.3"/>
    </g>
    <g id="line2d_28">
     <path d="M 577.8525 20.364 
L 595.8525 20.364 
L 613.8525 20.364 
" style="fill: none; stroke: #000004; stroke-linecap: square"/>
    </g>
    <g id="text_18">
     <!-- 5 -->
     <g transform="translate(623.4525 26.904) scale(0.12 -0.12)">
      <use xlink:href="#DejaVuSans-35"/>
     </g>
    </g>
   </g>
  </g>
  <g id="axes_2">
   <g id="patch_11">
    <path d="M 510.069767 235.872 
L 891 235.872 
L 891 48.9888 
L 510.069767 48.9888 
z
" style="fill: #fcfcfc"/>
   </g>
   <g id="matplotlib.axis_3">
    <g id="xtick_6">
     <g id="line2d_29">
      <path d="M 527.384778 235.872 
L 527.384778 48.9888 
" clip-path="url(#p64ddf2da13)" style="fill: none; stroke: #dcdcdc; stroke-width: 0.5; stroke-linecap: square"/>
     </g>
     <g id="line2d_30">
      <g>
       <use xlink:href="#m6bdea79417" x="527.384778" y="235.872" style="stroke: #000000; stroke-width: 0.8"/>
      </g>
     </g>
     <g id="text_19">
      <!-- 0 -->
      <g transform="translate(523.249153 252.749969) scale(0.13 -0.13)">
       <use xlink:href="#DejaVuSans-30"/>
      </g>
     </g>
    </g>
    <g id="xtick_7">
     <g id="line2d_31">
      <path d="M 613.959831 235.872 
L 613.959831 48.9888 
" clip-path="url(#p64ddf2da13)" style="fill: none; stroke: #dcdcdc; stroke-width: 0.5; stroke-linecap: square"/>
     </g>
     <g id="line2d_32">
      <g>
       <use xlink:href="#m6bdea79417" x="613.959831" y="235.872" style="stroke: #000000; stroke-width: 0.8"/>
      </g>
     </g>
     <g id="text_20">
      <!-- 25 -->
      <g transform="translate(605.688581 252.749969) scale(0.13 -0.13)">
       <use xlink:href="#DejaVuSans-32"/>
       <use xlink:href="#DejaVuSans-35" x="63.623047"/>
      </g>
     </g>
    </g>
    <g id="xtick_8">
     <g id="line2d_33">
      <path d="M 700.534884 235.872 
L 700.534884 48.9888 
" clip-path="url(#p64ddf2da13)" style="fill: none; stroke: #dcdcdc; stroke-width: 0.5; stroke-linecap: square"/>
     </g>
     <g id="line2d_34">
      <g>
       <use xlink:href="#m6bdea79417" x="700.534884" y="235.872" style="stroke: #000000; stroke-width: 0.8"/>
      </g>
     </g>
     <g id="text_21">
      <!-- 50 -->
      <g transform="translate(692.263634 252.749969) scale(0.13 -0.13)">
       <use xlink:href="#DejaVuSans-35"/>
       <use xlink:href="#DejaVuSans-30" x="63.623047"/>
      </g>
     </g>
    </g>
    <g id="xtick_9">
     <g id="line2d_35">
      <path d="M 787.109937 235.872 
L 787.109937 48.9888 
" clip-path="url(#p64ddf2da13)" style="fill: none; stroke: #dcdcdc; stroke-width: 0.5; stroke-linecap: square"/>
     </g>
     <g id="line2d_36">
      <g>
       <use xlink:href="#m6bdea79417" x="787.109937" y="235.872" style="stroke: #000000; stroke-width: 0.8"/>
      </g>
     </g>
     <g id="text_22">
      <!-- 75 -->
      <g transform="translate(778.838687 252.749969) scale(0.13 -0.13)">
       <use xlink:href="#DejaVuSans-37"/>
       <use xlink:href="#DejaVuSans-35" x="63.623047"/>
      </g>
     </g>
    </g>
    <g id="xtick_10">
     <g id="line2d_37">
      <path d="M 873.684989 235.872 
L 873.684989 48.9888 
" clip-path="url(#p64ddf2da13)" style="fill: none; stroke: #dcdcdc; stroke-width: 0.5; stroke-linecap: square"/>
     </g>
     <g id="line2d_38">
      <g>
       <use xlink:href="#m6bdea79417" x="873.684989" y="235.872" style="stroke: #000000; stroke-width: 0.8"/>
      </g>
     </g>
     <g id="text_23">
      <!-- 100 -->
      <g transform="translate(861.278114 252.749969) scale(0.13 -0.13)">
       <use xlink:href="#DejaVuSans-31"/>
       <use xlink:href="#DejaVuSans-30" x="63.623047"/>
       <use xlink:href="#DejaVuSans-30" x="127.246094"/>
      </g>
     </g>
    </g>
    <g id="text_24">
     <!-- Time step -->
     <g transform="translate(663.577462 270.851219) scale(0.15 -0.15)">
      <use xlink:href="#DejaVuSans-54"/>
      <use xlink:href="#DejaVuSans-69" x="57.958984"/>
      <use xlink:href="#DejaVuSans-6d" x="85.742188"/>
      <use xlink:href="#DejaVuSans-65" x="183.154297"/>
      <use xlink:href="#DejaVuSans-20" x="244.677734"/>
      <use xlink:href="#DejaVuSans-73" x="276.464844"/>
      <use xlink:href="#DejaVuSans-74" x="328.564453"/>
      <use xlink:href="#DejaVuSans-65" x="367.773438"/>
      <use xlink:href="#DejaVuSans-70" x="429.296875"/>
     </g>
    </g>
   </g>
   <g id="matplotlib.axis_4">
    <g id="ytick_5">
     <g id="line2d_39">
      <path d="M 510.069767 235.872 
L 891 235.872 
" clip-path="url(#p64ddf2da13)" style="fill: none; stroke: #dcdcdc; stroke-width: 0.5; stroke-linecap: square"/>
     </g>
    </g>
    <g id="ytick_6">
     <g id="line2d_40">
      <path d="M 510.069767 182.058156 
L 891 182.058156 
" clip-path="url(#p64ddf2da13)" style="fill: none; stroke: #dcdcdc; stroke-width: 0.5; stroke-linecap: square"/>
     </g>
    </g>
    <g id="ytick_7">
     <g id="line2d_41">
      <path d="M 510.069767 128.244311 
L 891 128.244311 
" clip-path="url(#p64ddf2da13)" style="fill: none; stroke: #dcdcdc; stroke-width: 0.5; stroke-linecap: square"/>
     </g>
    </g>
    <g id="ytick_8">
     <g id="line2d_42">
      <path d="M 510.069767 74.430467 
L 891 74.430467 
" clip-path="url(#p64ddf2da13)" style="fill: none; stroke: #dcdcdc; stroke-width: 0.5; stroke-linecap: square"/>
     </g>
    </g>
   </g>
   <g id="PolyCollection_6">
    <defs>
     <path id="mf3915dad3e" d="M 527.384778 -64.418841 
L 527.384778 -72.124511 
L 544.699789 -73.504553 
L 562.014799 -75.148859 
L 579.32981 -77.098535 
L 596.64482 -80.852293 
L 613.959831 -84.359074 
L 631.274841 -87.964279 
L 648.589852 -91.427312 
L 665.904863 -94.846749 
L 683.219873 -98.059549 
L 700.534884 -100.984702 
L 717.849894 -103.920094 
L 735.164905 -106.430194 
L 752.479915 -108.664939 
L 769.794926 -110.741072 
L 787.109937 -112.654103 
L 804.424947 -114.39641 
L 821.739958 -115.955205 
L 839.054968 -117.307988 
L 856.369979 -118.410194 
L 873.684989 -119.228258 
L 873.684989 -46.659913 
L 873.684989 -46.659913 
L 856.369979 -46.967046 
L 839.054968 -47.381856 
L 821.739958 -47.891656 
L 804.424947 -48.479133 
L 787.109937 -49.135519 
L 769.794926 -49.855691 
L 752.479915 -50.636718 
L 735.164905 -51.476652 
L 717.849894 -52.417627 
L 700.534884 -53.523434 
L 683.219873 -54.624685 
L 665.904863 -55.825407 
L 648.589852 -57.10103 
L 631.274841 -58.407849 
L 613.959831 -59.772375 
L 596.64482 -61.096337 
L 579.32981 -62.544279 
L 562.014799 -63.279054 
L 544.699789 -63.898744 
L 527.384778 -64.418841 
z
"/>
    </defs>
    <g clip-path="url(#p64ddf2da13)">
     <use xlink:href="#mf3915dad3e" x="0" y="302.4" style="fill: #fcffa4; fill-opacity: 0.3"/>
    </g>
   </g>
   <g id="PolyCollection_7">
    <defs>
     <path id="mc634c0f7c5" d="M 527.384778 -65.956977 
L 527.384778 -73.691478 
L 544.699789 -74.326927 
L 562.014799 -75.030467 
L 579.32981 -75.818044 
L 596.64482 -77.910486 
L 613.959831 -80.141905 
L 631.274841 -82.485263 
L 648.589852 -84.658562 
L 665.904863 -86.451149 
L 683.219873 -88.110239 
L 700.534884 -89.928827 
L 717.849894 -91.820037 
L 735.164905 -93.712691 
L 752.479915 -95.576862 
L 769.794926 -97.369849 
L 787.109937 -99.18125 
L 804.424947 -101.006547 
L 821.739958 -102.793462 
L 839.054968 -104.520295 
L 856.369979 -106.138055 
L 873.684989 -107.602188 
L 873.684989 -60.521195 
L 873.684989 -60.521195 
L 856.369979 -60.749331 
L 839.054968 -61.005945 
L 821.739958 -61.278297 
L 804.424947 -61.557866 
L 787.109937 -61.838447 
L 769.794926 -62.112752 
L 752.479915 -62.380397 
L 735.164905 -62.666659 
L 717.849894 -62.959966 
L 700.534884 -63.26793 
L 683.219873 -63.571637 
L 665.904863 -63.821837 
L 648.589852 -64.124211 
L 631.274841 -64.549378 
L 613.959831 -64.940413 
L 596.64482 -65.33312 
L 579.32981 -65.72427 
L 562.014799 -65.815582 
L 544.699789 -65.892642 
L 527.384778 -65.956977 
z
"/>
    </defs>
    <g clip-path="url(#p64ddf2da13)">
     <use xlink:href="#mc634c0f7c5" x="0" y="302.4" style="fill: #f98e09; fill-opacity: 0.3"/>
    </g>
   </g>
   <g id="PolyCollection_8">
    <defs>
     <path id="m7f6dfe1005" d="M 527.384778 -67.251857 
L 527.384778 -74.521297 
L 544.699789 -75.006055 
L 562.014799 -75.538478 
L 579.32981 -76.134585 
L 596.64482 -77.544248 
L 613.959831 -78.891027 
L 631.274841 -80.150704 
L 648.589852 -81.277814 
L 665.904863 -82.301631 
L 683.219873 -83.479187 
L 700.534884 -84.665279 
L 717.849894 -85.836155 
L 735.164905 -87.008546 
L 752.479915 -88.19547 
L 769.794926 -89.378647 
L 787.109937 -90.57191 
L 804.424947 -91.756652 
L 821.739958 -92.921409 
L 839.054968 -94.038899 
L 856.369979 -95.080813 
L 873.684989 -96.023222 
L 873.684989 -67.225315 
L 873.684989 -67.225315 
L 856.369979 -67.312601 
L 839.054968 -67.395681 
L 821.739958 -67.468494 
L 804.424947 -67.526451 
L 787.109937 -67.564183 
L 769.794926 -67.579611 
L 752.479915 -67.572943 
L 735.164905 -67.550777 
L 717.849894 -67.518772 
L 700.534884 -67.481203 
L 683.219873 -67.455149 
L 665.904863 -67.441181 
L 648.589852 -67.39152 
L 631.274841 -67.380273 
L 613.959831 -67.374334 
L 596.64482 -67.384162 
L 579.32981 -67.393245 
L 562.014799 -67.341002 
L 544.699789 -67.294345 
L 527.384778 -67.251857 
z
"/>
    </defs>
    <g clip-path="url(#p64ddf2da13)">
     <use xlink:href="#m7f6dfe1005" x="0" y="302.4" style="fill: #bc3754; fill-opacity: 0.3"/>
    </g>
   </g>
   <g id="PolyCollection_9">
    <defs>
     <path id="m4c2ffa4eec" d="M 527.384778 -69.586796 
L 527.384778 -75.261453 
L 544.699789 -75.749864 
L 562.014799 -76.296074 
L 579.32981 -76.91422 
L 596.64482 -77.771068 
L 613.959831 -78.718452 
L 631.274841 -79.572472 
L 648.589852 -80.422172 
L 665.904863 -81.298866 
L 683.219873 -82.204351 
L 700.534884 -83.115366 
L 717.849894 -84.014182 
L 735.164905 -84.883866 
L 752.479915 -85.721196 
L 769.794926 -86.506425 
L 787.109937 -87.240482 
L 804.424947 -87.921358 
L 821.739958 -88.543094 
L 839.054968 -89.096884 
L 856.369979 -89.575047 
L 873.684989 -89.964286 
L 873.684989 -73.500712 
L 873.684989 -73.500712 
L 856.369979 -73.513383 
L 839.054968 -73.506834 
L 821.739958 -73.475732 
L 804.424947 -73.415926 
L 787.109937 -73.319731 
L 769.794926 -73.180411 
L 752.479915 -72.996344 
L 735.164905 -72.768075 
L 717.849894 -72.506419 
L 700.534884 -72.217972 
L 683.219873 -71.913914 
L 665.904863 -71.60467 
L 648.589852 -71.301377 
L 631.274841 -71.003723 
L 613.959831 -70.7097 
L 596.64482 -70.424101 
L 579.32981 -70.165668 
L 562.014799 -69.949097 
L 544.699789 -69.757756 
L 527.384778 -69.586796 
z
"/>
    </defs>
    <g clip-path="url(#p64ddf2da13)">
     <use xlink:href="#m4c2ffa4eec" x="0" y="302.4" style="fill: #57106e; fill-opacity: 0.3"/>
    </g>
   </g>
   <g id="PolyCollection_10">
    <defs>
     <path id="m791ab6ddf8" d="M 527.384778 -73.713486 
L 527.384778 -73.73182 
L 544.699789 -74.137187 
L 562.014799 -74.596368 
L 579.32981 -75.110988 
L 596.64482 -75.681325 
L 613.959831 -76.298855 
L 631.274841 -76.947305 
L 648.589852 -77.620565 
L 665.904863 -78.306478 
L 683.219873 -78.985727 
L 700.534884 -79.647509 
L 717.849894 -80.272811 
L 735.164905 -80.840124 
L 752.479915 -81.332585 
L 769.794926 -81.740299 
L 787.109937 -82.043041 
L 804.424947 -82.246417 
L 821.739958 -82.36281 
L 839.054968 -82.422002 
L 856.369979 -82.436427 
L 873.684989 -82.414629 
L 873.684989 -80.722406 
L 873.684989 -80.722406 
L 856.369979 -80.77896 
L 839.054968 -80.799413 
L 821.739958 -80.805093 
L 804.424947 -80.805291 
L 787.109937 -80.779549 
L 769.794926 -80.694487 
L 752.479915 -80.526178 
L 735.164905 -80.252028 
L 717.849894 -79.865889 
L 700.534884 -79.380344 
L 683.219873 -78.814481 
L 665.904863 -78.192383 
L 648.589852 -77.541775 
L 631.274841 -76.887943 
L 613.959831 -76.242449 
L 596.64482 -75.635735 
L 579.32981 -75.067242 
L 562.014799 -74.559701 
L 544.699789 -74.109686 
L 527.384778 -73.713486 
z
"/>
    </defs>
    <g clip-path="url(#p64ddf2da13)">
     <use xlink:href="#m791ab6ddf8" x="0" y="302.4" style="fill: #000004; fill-opacity: 0.3"/>
    </g>
   </g>
   <g id="line2d_43">
    <path d="M 527.384778 234.128324 
L 544.699789 233.698351 
L 562.014799 233.186043 
L 579.32981 232.578593 
L 596.64482 231.425685 
L 613.959831 230.334276 
L 631.274841 229.213936 
L 648.589852 228.135829 
L 665.904863 227.063922 
L 683.219873 226.057883 
L 700.534884 225.145932 
L 717.849894 224.23114 
L 735.164905 223.446577 
L 752.479915 222.749171 
L 769.794926 222.101618 
L 787.109937 221.505189 
L 804.424947 220.962229 
L 821.739958 220.476569 
L 839.054968 220.055078 
L 856.369979 219.71138 
L 873.684989 219.455915 
" clip-path="url(#p64ddf2da13)" style="fill: none; stroke: #fcffa4; stroke-linecap: square"/>
   </g>
   <g id="line2d_44">
    <path d="M 527.384778 232.575773 
L 544.699789 232.290215 
L 562.014799 231.976975 
L 579.32981 231.628843 
L 596.64482 230.778197 
L 613.959831 229.858841 
L 631.274841 228.882679 
L 648.589852 228.008613 
L 665.904863 227.263507 
L 683.219873 226.559062 
L 700.534884 225.801622 
L 717.849894 225.009998 
L 735.164905 224.210325 
L 752.479915 223.421371 
L 769.794926 222.658699 
L 787.109937 221.890152 
L 804.424947 221.117794 
L 821.739958 220.36412 
L 839.054968 219.63688 
L 856.369979 218.956307 
L 873.684989 218.338309 
" clip-path="url(#p64ddf2da13)" style="fill: none; stroke: #f98e09; stroke-linecap: square"/>
   </g>
   <g id="line2d_45">
    <path d="M 527.384778 231.513423 
L 544.699789 231.2498 
L 562.014799 230.96026 
L 579.32981 230.636085 
L 596.64482 229.935795 
L 613.959831 229.267319 
L 631.274841 228.634512 
L 648.589852 228.065333 
L 665.904863 227.528594 
L 683.219873 226.932832 
L 700.534884 226.326759 
L 717.849894 225.722537 
L 735.164905 225.120338 
L 752.479915 224.515794 
L 769.794926 223.920871 
L 787.109937 223.331954 
L 804.424947 222.758449 
L 821.739958 222.205049 
L 839.054968 221.68271 
L 856.369979 221.203293 
L 873.684989 220.775731 
" clip-path="url(#p64ddf2da13)" style="fill: none; stroke: #bc3754; stroke-linecap: square"/>
   </g>
   <g id="line2d_46">
    <path d="M 527.384778 229.975875 
L 544.699789 229.64619 
L 562.014799 229.277415 
L 579.32981 228.860056 
L 596.64482 228.302416 
L 613.959831 227.685924 
L 631.274841 227.111903 
L 648.589852 226.538225 
L 665.904863 225.948232 
L 683.219873 225.340867 
L 700.534884 224.733331 
L 717.849894 224.139699 
L 735.164905 223.57403 
L 752.479915 223.04123 
L 769.794926 222.556582 
L 787.109937 222.119894 
L 804.424947 221.731358 
L 821.739958 221.390587 
L 839.054968 221.098141 
L 856.369979 220.855785 
L 873.684989 220.667501 
" clip-path="url(#p64ddf2da13)" style="fill: none; stroke: #57106e; stroke-linecap: square"/>
   </g>
   <g id="line2d_47">
    <path d="M 527.384778 228.677347 
L 544.699789 228.276563 
L 562.014799 227.821966 
L 579.32981 227.310885 
L 596.64482 226.74147 
L 613.959831 226.129348 
L 631.274841 225.482376 
L 648.589852 224.81883 
L 665.904863 224.15057 
L 683.219873 223.499896 
L 700.534884 222.886074 
L 717.849894 222.33065 
L 735.164905 221.853924 
L 752.479915 221.470619 
L 769.794926 221.182607 
L 787.109937 220.988705 
L 804.424947 220.874146 
L 821.739958 220.816049 
L 839.054968 220.789293 
L 856.369979 220.792306 
L 873.684989 220.831483 
" clip-path="url(#p64ddf2da13)" style="fill: none; stroke: #000004; stroke-linecap: square"/>
   </g>
   <g id="patch_12">
    <path d="M 510.069767 235.872 
L 891 235.872 
" style="fill: none; stroke: #000000; stroke-width: 0.8; stroke-linejoin: miter; stroke-linecap: square"/>
   </g>
   <g id="text_25">
    <!-- BiomassSuccession -->
    <g transform="translate(622.507384 289.674624) scale(0.16 -0.16)">
     <defs>
      <path id="DejaVuSans-53" d="M 3425 4513 
L 3425 3897 
Q 3066 4069 2747 4153 
Q 2428 4238 2131 4238 
Q 1616 4238 1336 4038 
Q 1056 3838 1056 3469 
Q 1056 3159 1242 3001 
Q 1428 2844 1947 2747 
L 2328 2669 
Q 3034 2534 3370 2195 
Q 3706 1856 3706 1288 
Q 3706 609 3251 259 
Q 2797 -91 1919 -91 
Q 1588 -91 1214 -16 
Q 841 59 441 206 
L 441 856 
Q 825 641 1194 531 
Q 1563 422 1919 422 
Q 2459 422 2753 634 
Q 3047 847 3047 1241 
Q 3047 1584 2836 1778 
Q 2625 1972 2144 2069 
L 1759 2144 
Q 1053 2284 737 2584 
Q 422 2884 422 3419 
Q 422 4038 858 4394 
Q 1294 4750 2059 4750 
Q 2388 4750 2728 4690 
Q 3069 4631 3425 4513 
z
" transform="scale(0.015625)"/>
      <path id="DejaVuSans-75" d="M 544 1381 
L 544 3500 
L 1119 3500 
L 1119 1403 
Q 1119 906 1312 657 
Q 1506 409 1894 409 
Q 2359 409 2629 706 
Q 2900 1003 2900 1516 
L 2900 3500 
L 3475 3500 
L 3475 0 
L 2900 0 
L 2900 538 
Q 2691 219 2414 64 
Q 2138 -91 1772 -91 
Q 1169 -91 856 284 
Q 544 659 544 1381 
z
M 1991 3584 
L 1991 3584 
z
" transform="scale(0.015625)"/>
      <path id="DejaVuSans-63" d="M 3122 3366 
L 3122 2828 
Q 2878 2963 2633 3030 
Q 2388 3097 2138 3097 
Q 1578 3097 1268 2742 
Q 959 2388 959 1747 
Q 959 1106 1268 751 
Q 1578 397 2138 397 
Q 2388 397 2633 464 
Q 2878 531 3122 666 
L 3122 134 
Q 2881 22 2623 -34 
Q 2366 -91 2075 -91 
Q 1284 -91 818 406 
Q 353 903 353 1747 
Q 353 2603 823 3093 
Q 1294 3584 2113 3584 
Q 2378 3584 2631 3529 
Q 2884 3475 3122 3366 
z
" transform="scale(0.015625)"/>
     </defs>
     <use xlink:href="#DejaVuSans-42"/>
     <use xlink:href="#DejaVuSans-69" x="68.603516"/>
     <use xlink:href="#DejaVuSans-6f" x="96.386719"/>
     <use xlink:href="#DejaVuSans-6d" x="157.568359"/>
     <use xlink:href="#DejaVuSans-61" x="254.980469"/>
     <use xlink:href="#DejaVuSans-73" x="316.259766"/>
     <use xlink:href="#DejaVuSans-73" x="368.359375"/>
     <use xlink:href="#DejaVuSans-53" x="420.458984"/>
     <use xlink:href="#DejaVuSans-75" x="483.935547"/>
     <use xlink:href="#DejaVuSans-63" x="547.314453"/>
     <use xlink:href="#DejaVuSans-63" x="602.294922"/>
     <use xlink:href="#DejaVuSans-65" x="657.275391"/>
     <use xlink:href="#DejaVuSans-73" x="718.798828"/>
     <use xlink:href="#DejaVuSans-73" x="770.898438"/>
     <use xlink:href="#DejaVuSans-69" x="822.998047"/>
     <use xlink:href="#DejaVuSans-6f" x="850.78125"/>
     <use xlink:href="#DejaVuSans-6e" x="911.962891"/>
    </g>
   </g>
  </g>
 </g>
 <defs>
  <clipPath id="pb49c151b72">
   <rect x="72" y="48.9888" width="380.930233" height="186.8832"/>
  </clipPath>
  <clipPath id="p64ddf2da13">
   <rect x="510.069767" y="48.9888" width="380.930233" height="186.8832"/>
  </clipPath>
 </defs>
</svg>
