<?xml version="1.0" encoding="utf-8" standalone="no"?>
<!DOCTYPE svg PUBLIC "-//W3C//DTD SVG 1.1//EN"
  "http://www.w3.org/Graphics/SVG/1.1/DTD/svg11.dtd">
<svg xmlns:xlink="http://www.w3.org/1999/xlink" width="900pt" height="302.4pt" viewBox="0 0 900 302.4" xmlns="http://www.w3.org/2000/svg" version="1.1">
 <metadata>
  <rdf:RDF xmlns:dc="http://purl.org/dc/elements/1.1/" xmlns:cc="http://creativecommons.org/ns#" xmlns:rdf="http://www.w3.org/1999/02/22-rdf-syntax-ns#">
   <cc:Work>
    <dc:type rdf:resource="http://purl.org/dc/dcmitype/StillImage"/>
    <dc:date>2024-02-23T15:27:17.262333</dc:date>
    <dc:format>image/svg+xml</dc:format>
    <dc:creator>
     <cc:Agent>
      <dc:title>Matplotlib v3.7.1, https://matplotlib.org/</dc:title>
     </cc:Agent>
    </dc:creator>
   </cc:Work>
  </rdf:RDF>
 </metadata>
 <defs>
  <style type="text/css">*{stroke-linejoin: round; stroke-linecap: butt}</style>
 </defs>
 <g id="figure_1">
  <g id="patch_1">
   <path d="M 0 302.4 
L 900 302.4 
L 900 0 
L 0 0 
z
" style="fill: #ffffff"/>
  </g>
  <g id="axes_1">
   <g id="patch_2">
    <path d="M 72 235.872 
L 452.930233 235.872 
L 452.930233 48.9888 
L 72 48.9888 
z
" style="fill: #fcfcfc"/>
   </g>
   <g id="matplotlib.axis_1">
    <g id="xtick_1">
     <g id="line2d_1">
      <path d="M 89.315011 235.872 
L 89.315011 48.9888 
" clip-path="url(#pca83378661)" style="fill: none; stroke: #dcdcdc; stroke-width: 0.5; stroke-linecap: square"/>
     </g>
     <g id="line2d_2">
      <defs>
       <path id="m5487a68e21" d="M 0 0 
L 0 3.5 
" style="stroke: #000000; stroke-width: 0.8"/>
      </defs>
      <g>
       <use xlink:href="#m5487a68e21" x="89.315011" y="235.872" style="stroke: #000000; stroke-width: 0.8"/>
      </g>
     </g>
     <g id="text_1">
      <!-- 0 -->
      <g transform="translate(85.179386 252.749969) scale(0.13 -0.13)">
       <defs>
        <path id="DejaVuSans-30" d="M 2034 4250 
Q 1547 4250 1301 3770 
Q 1056 3291 1056 2328 
Q 1056 1369 1301 889 
Q 1547 409 2034 409 
Q 2525 409 2770 889 
Q 3016 1369 3016 2328 
Q 3016 3291 2770 3770 
Q 2525 4250 2034 4250 
z
M 2034 4750 
Q 2819 4750 3233 4129 
Q 3647 3509 3647 2328 
Q 3647 1150 3233 529 
Q 2819 -91 2034 -91 
Q 1250 -91 836 529 
Q 422 1150 422 2328 
Q 422 3509 836 4129 
Q 1250 4750 2034 4750 
z
" transform="scale(0.015625)"/>
       </defs>
       <use xlink:href="#DejaVuSans-30"/>
      </g>
     </g>
    </g>
    <g id="xtick_2">
     <g id="line2d_3">
      <path d="M 175.890063 235.872 
L 175.890063 48.9888 
" clip-path="url(#pca83378661)" style="fill: none; stroke: #dcdcdc; stroke-width: 0.5; stroke-linecap: square"/>
     </g>
     <g id="line2d_4">
      <g>
       <use xlink:href="#m5487a68e21" x="175.890063" y="235.872" style="stroke: #000000; stroke-width: 0.8"/>
      </g>
     </g>
     <g id="text_2">
      <!-- 25 -->
      <g transform="translate(167.618813 252.749969) scale(0.13 -0.13)">
       <defs>
        <path id="DejaVuSans-32" d="M 1228 531 
L 3431 531 
L 3431 0 
L 469 0 
L 469 531 
Q 828 903 1448 1529 
Q 2069 2156 2228 2338 
Q 2531 2678 2651 2914 
Q 2772 3150 2772 3378 
Q 2772 3750 2511 3984 
Q 2250 4219 1831 4219 
Q 1534 4219 1204 4116 
Q 875 4013 500 3803 
L 500 4441 
Q 881 4594 1212 4672 
Q 1544 4750 1819 4750 
Q 2544 4750 2975 4387 
Q 3406 4025 3406 3419 
Q 3406 3131 3298 2873 
Q 3191 2616 2906 2266 
Q 2828 2175 2409 1742 
Q 1991 1309 1228 531 
z
" transform="scale(0.015625)"/>
        <path id="DejaVuSans-35" d="M 691 4666 
L 3169 4666 
L 3169 4134 
L 1269 4134 
L 1269 2991 
Q 1406 3038 1543 3061 
Q 1681 3084 1819 3084 
Q 2600 3084 3056 2656 
Q 3513 2228 3513 1497 
Q 3513 744 3044 326 
Q 2575 -91 1722 -91 
Q 1428 -91 1123 -41 
Q 819 9 494 109 
L 494 744 
Q 775 591 1075 516 
Q 1375 441 1709 441 
Q 2250 441 2565 725 
Q 2881 1009 2881 1497 
Q 2881 1984 2565 2268 
Q 2250 2553 1709 2553 
Q 1456 2553 1204 2497 
Q 953 2441 691 2322 
L 691 4666 
z
" transform="scale(0.015625)"/>
       </defs>
       <use xlink:href="#DejaVuSans-32"/>
       <use xlink:href="#DejaVuSans-35" x="63.623047"/>
      </g>
     </g>
    </g>
    <g id="xtick_3">
     <g id="line2d_5">
      <path d="M 262.465116 235.872 
L 262.465116 48.9888 
" clip-path="url(#pca83378661)" style="fill: none; stroke: #dcdcdc; stroke-width: 0.5; stroke-linecap: square"/>
     </g>
     <g id="line2d_6">
      <g>
       <use xlink:href="#m5487a68e21" x="262.465116" y="235.872" style="stroke: #000000; stroke-width: 0.8"/>
      </g>
     </g>
     <g id="text_3">
      <!-- 50 -->
      <g transform="translate(254.193866 252.749969) scale(0.13 -0.13)">
       <use xlink:href="#DejaVuSans-35"/>
       <use xlink:href="#DejaVuSans-30" x="63.623047"/>
      </g>
     </g>
    </g>
    <g id="xtick_4">
     <g id="line2d_7">
      <path d="M 349.040169 235.872 
L 349.040169 48.9888 
" clip-path="url(#pca83378661)" style="fill: none; stroke: #dcdcdc; stroke-width: 0.5; stroke-linecap: square"/>
     </g>
     <g id="line2d_8">
      <g>
       <use xlink:href="#m5487a68e21" x="349.040169" y="235.872" style="stroke: #000000; stroke-width: 0.8"/>
      </g>
     </g>
     <g id="text_4">
      <!-- 75 -->
      <g transform="translate(340.768919 252.749969) scale(0.13 -0.13)">
       <defs>
        <path id="DejaVuSans-37" d="M 525 4666 
L 3525 4666 
L 3525 4397 
L 1831 0 
L 1172 0 
L 2766 4134 
L 525 4134 
L 525 4666 
z
" transform="scale(0.015625)"/>
       </defs>
       <use xlink:href="#DejaVuSans-37"/>
       <use xlink:href="#DejaVuSans-35" x="63.623047"/>
      </g>
     </g>
    </g>
    <g id="xtick_5">
     <g id="line2d_9">
      <path d="M 435.615222 235.872 
L 435.615222 48.9888 
" clip-path="url(#pca83378661)" style="fill: none; stroke: #dcdcdc; stroke-width: 0.5; stroke-linecap: square"/>
     </g>
     <g id="line2d_10">
      <g>
       <use xlink:href="#m5487a68e21" x="435.615222" y="235.872" style="stroke: #000000; stroke-width: 0.8"/>
      </g>
     </g>
     <g id="text_5">
      <!-- 100 -->
      <g transform="translate(423.208347 252.749969) scale(0.13 -0.13)">
       <defs>
        <path id="DejaVuSans-31" d="M 794 531 
L 1825 531 
L 1825 4091 
L 703 3866 
L 703 4441 
L 1819 4666 
L 2450 4666 
L 2450 531 
L 3481 531 
L 3481 0 
L 794 0 
L 794 531 
z
" transform="scale(0.015625)"/>
       </defs>
       <use xlink:href="#DejaVuSans-31"/>
       <use xlink:href="#DejaVuSans-30" x="63.623047"/>
       <use xlink:href="#DejaVuSans-30" x="127.246094"/>
      </g>
     </g>
    </g>
    <g id="text_6">
     <!-- Time step -->
     <g transform="translate(225.507694 270.851219) scale(0.15 -0.15)">
      <defs>
       <path id="DejaVuSans-54" d="M -19 4666 
L 3928 4666 
L 3928 4134 
L 2272 4134 
L 2272 0 
L 1638 0 
L 1638 4134 
L -19 4134 
L -19 4666 
z
" transform="scale(0.015625)"/>
       <path id="DejaVuSans-69" d="M 603 3500 
L 1178 3500 
L 1178 0 
L 603 0 
L 603 3500 
z
M 603 4863 
L 1178 4863 
L 1178 4134 
L 603 4134 
L 603 4863 
z
" transform="scale(0.015625)"/>
       <path id="DejaVuSans-6d" d="M 3328 2828 
Q 3544 3216 3844 3400 
Q 4144 3584 4550 3584 
Q 5097 3584 5394 3201 
Q 5691 2819 5691 2113 
L 5691 0 
L 5113 0 
L 5113 2094 
Q 5113 2597 4934 2840 
Q 4756 3084 4391 3084 
Q 3944 3084 3684 2787 
Q 3425 2491 3425 1978 
L 3425 0 
L 2847 0 
L 2847 2094 
Q 2847 2600 2669 2842 
Q 2491 3084 2119 3084 
Q 1678 3084 1418 2786 
Q 1159 2488 1159 1978 
L 1159 0 
L 581 0 
L 581 3500 
L 1159 3500 
L 1159 2956 
Q 1356 3278 1631 3431 
Q 1906 3584 2284 3584 
Q 2666 3584 2933 3390 
Q 3200 3197 3328 2828 
z
" transform="scale(0.015625)"/>
       <path id="DejaVuSans-65" d="M 3597 1894 
L 3597 1613 
L 953 1613 
Q 991 1019 1311 708 
Q 1631 397 2203 397 
Q 2534 397 2845 478 
Q 3156 559 3463 722 
L 3463 178 
Q 3153 47 2828 -22 
Q 2503 -91 2169 -91 
Q 1331 -91 842 396 
Q 353 884 353 1716 
Q 353 2575 817 3079 
Q 1281 3584 2069 3584 
Q 2775 3584 3186 3129 
Q 3597 2675 3597 1894 
z
M 3022 2063 
Q 3016 2534 2758 2815 
Q 2500 3097 2075 3097 
Q 1594 3097 1305 2825 
Q 1016 2553 972 2059 
L 3022 2063 
z
" transform="scale(0.015625)"/>
       <path id="DejaVuSans-20" transform="scale(0.015625)"/>
       <path id="DejaVuSans-73" d="M 2834 3397 
L 2834 2853 
Q 2591 2978 2328 3040 
Q 2066 3103 1784 3103 
Q 1356 3103 1142 2972 
Q 928 2841 928 2578 
Q 928 2378 1081 2264 
Q 1234 2150 1697 2047 
L 1894 2003 
Q 2506 1872 2764 1633 
Q 3022 1394 3022 966 
Q 3022 478 2636 193 
Q 2250 -91 1575 -91 
Q 1294 -91 989 -36 
Q 684 19 347 128 
L 347 722 
Q 666 556 975 473 
Q 1284 391 1588 391 
Q 1994 391 2212 530 
Q 2431 669 2431 922 
Q 2431 1156 2273 1281 
Q 2116 1406 1581 1522 
L 1381 1569 
Q 847 1681 609 1914 
Q 372 2147 372 2553 
Q 372 3047 722 3315 
Q 1072 3584 1716 3584 
Q 2034 3584 2315 3537 
Q 2597 3491 2834 3397 
z
" transform="scale(0.015625)"/>
       <path id="DejaVuSans-74" d="M 1172 4494 
L 1172 3500 
L 2356 3500 
L 2356 3053 
L 1172 3053 
L 1172 1153 
Q 1172 725 1289 603 
Q 1406 481 1766 481 
L 2356 481 
L 2356 0 
L 1766 0 
Q 1100 0 847 248 
Q 594 497 594 1153 
L 594 3053 
L 172 3053 
L 172 3500 
L 594 3500 
L 594 4494 
L 1172 4494 
z
" transform="scale(0.015625)"/>
       <path id="DejaVuSans-70" d="M 1159 525 
L 1159 -1331 
L 581 -1331 
L 581 3500 
L 1159 3500 
L 1159 2969 
Q 1341 3281 1617 3432 
Q 1894 3584 2278 3584 
Q 2916 3584 3314 3078 
Q 3713 2572 3713 1747 
Q 3713 922 3314 415 
Q 2916 -91 2278 -91 
Q 1894 -91 1617 61 
Q 1341 213 1159 525 
z
M 3116 1747 
Q 3116 2381 2855 2742 
Q 2594 3103 2138 3103 
Q 1681 3103 1420 2742 
Q 1159 2381 1159 1747 
Q 1159 1113 1420 752 
Q 1681 391 2138 391 
Q 2594 391 2855 752 
Q 3116 1113 3116 1747 
z
" transform="scale(0.015625)"/>
      </defs>
      <use xlink:href="#DejaVuSans-54"/>
      <use xlink:href="#DejaVuSans-69" x="57.958984"/>
      <use xlink:href="#DejaVuSans-6d" x="85.742188"/>
      <use xlink:href="#DejaVuSans-65" x="183.154297"/>
      <use xlink:href="#DejaVuSans-20" x="244.677734"/>
      <use xlink:href="#DejaVuSans-73" x="276.464844"/>
      <use xlink:href="#DejaVuSans-74" x="328.564453"/>
      <use xlink:href="#DejaVuSans-65" x="367.773438"/>
      <use xlink:href="#DejaVuSans-70" x="429.296875"/>
     </g>
    </g>
   </g>
   <g id="matplotlib.axis_2">
    <g id="ytick_1">
     <g id="line2d_11">
      <path d="M 72 235.872 
L 452.930233 235.872 
" clip-path="url(#pca83378661)" style="fill: none; stroke: #dcdcdc; stroke-width: 0.5; stroke-linecap: square"/>
     </g>
     <g id="line2d_12">
      <defs>
       <path id="mde0d62b544" d="M 0 0 
L -3.5 0 
" style="stroke: #000000; stroke-width: 0.8"/>
      </defs>
      <g>
       <use xlink:href="#mde0d62b544" x="72" y="235.872" style="stroke: #000000; stroke-width: 0.8"/>
      </g>
     </g>
     <g id="text_7">
      <!-- 0.0 -->
      <g transform="translate(44.325937 240.810984) scale(0.13 -0.13)">
       <defs>
        <path id="DejaVuSans-2e" d="M 684 794 
L 1344 794 
L 1344 0 
L 684 0 
L 684 794 
z
" transform="scale(0.015625)"/>
       </defs>
       <use xlink:href="#DejaVuSans-30"/>
       <use xlink:href="#DejaVuSans-2e" x="63.623047"/>
       <use xlink:href="#DejaVuSans-30" x="95.410156"/>
      </g>
     </g>
    </g>
    <g id="ytick_2">
     <g id="line2d_13">
      <path d="M 72 187.719913 
L 452.930233 187.719913 
" clip-path="url(#pca83378661)" style="fill: none; stroke: #dcdcdc; stroke-width: 0.5; stroke-linecap: square"/>
     </g>
     <g id="line2d_14">
      <g>
       <use xlink:href="#mde0d62b544" x="72" y="187.719913" style="stroke: #000000; stroke-width: 0.8"/>
      </g>
     </g>
     <g id="text_8">
      <!-- 2.5 -->
      <g transform="translate(44.325937 192.658898) scale(0.13 -0.13)">
       <use xlink:href="#DejaVuSans-32"/>
       <use xlink:href="#DejaVuSans-2e" x="63.623047"/>
       <use xlink:href="#DejaVuSans-35" x="95.410156"/>
      </g>
     </g>
    </g>
    <g id="ytick_3">
     <g id="line2d_15">
      <path d="M 72 139.567827 
L 452.930233 139.567827 
" clip-path="url(#pca83378661)" style="fill: none; stroke: #dcdcdc; stroke-width: 0.5; stroke-linecap: square"/>
     </g>
     <g id="line2d_16">
      <g>
       <use xlink:href="#mde0d62b544" x="72" y="139.567827" style="stroke: #000000; stroke-width: 0.8"/>
      </g>
     </g>
     <g id="text_9">
      <!-- 5.0 -->
      <g transform="translate(44.325937 144.506811) scale(0.13 -0.13)">
       <use xlink:href="#DejaVuSans-35"/>
       <use xlink:href="#DejaVuSans-2e" x="63.623047"/>
       <use xlink:href="#DejaVuSans-30" x="95.410156"/>
      </g>
     </g>
    </g>
    <g id="ytick_4">
     <g id="line2d_17">
      <path d="M 72 91.41574 
L 452.930233 91.41574 
" clip-path="url(#pca83378661)" style="fill: none; stroke: #dcdcdc; stroke-width: 0.5; stroke-linecap: square"/>
     </g>
     <g id="line2d_18">
      <g>
       <use xlink:href="#mde0d62b544" x="72" y="91.41574" style="stroke: #000000; stroke-width: 0.8"/>
      </g>
     </g>
     <g id="text_10">
      <!-- 7.5 -->
      <g transform="translate(44.325937 96.354725) scale(0.13 -0.13)">
       <use xlink:href="#DejaVuSans-37"/>
       <use xlink:href="#DejaVuSans-2e" x="63.623047"/>
       <use xlink:href="#DejaVuSans-35" x="95.410156"/>
      </g>
     </g>
    </g>
    <g id="text_11">
     <!-- Biomass PINU.BAN -->
     <g transform="translate(37.206406 212.453447) rotate(-90) scale(0.15 -0.15)">
      <defs>
       <path id="DejaVuSans-42" d="M 1259 2228 
L 1259 519 
L 2272 519 
Q 2781 519 3026 730 
Q 3272 941 3272 1375 
Q 3272 1813 3026 2020 
Q 2781 2228 2272 2228 
L 1259 2228 
z
M 1259 4147 
L 1259 2741 
L 2194 2741 
Q 2656 2741 2882 2914 
Q 3109 3088 3109 3444 
Q 3109 3797 2882 3972 
Q 2656 4147 2194 4147 
L 1259 4147 
z
M 628 4666 
L 2241 4666 
Q 2963 4666 3353 4366 
Q 3744 4066 3744 3513 
Q 3744 3084 3544 2831 
Q 3344 2578 2956 2516 
Q 3422 2416 3680 2098 
Q 3938 1781 3938 1306 
Q 3938 681 3513 340 
Q 3088 0 2303 0 
L 628 0 
L 628 4666 
z
" transform="scale(0.015625)"/>
       <path id="DejaVuSans-6f" d="M 1959 3097 
Q 1497 3097 1228 2736 
Q 959 2375 959 1747 
Q 959 1119 1226 758 
Q 1494 397 1959 397 
Q 2419 397 2687 759 
Q 2956 1122 2956 1747 
Q 2956 2369 2687 2733 
Q 2419 3097 1959 3097 
z
M 1959 3584 
Q 2709 3584 3137 3096 
Q 3566 2609 3566 1747 
Q 3566 888 3137 398 
Q 2709 -91 1959 -91 
Q 1206 -91 779 398 
Q 353 888 353 1747 
Q 353 2609 779 3096 
Q 1206 3584 1959 3584 
z
" transform="scale(0.015625)"/>
       <path id="DejaVuSans-61" d="M 2194 1759 
Q 1497 1759 1228 1600 
Q 959 1441 959 1056 
Q 959 750 1161 570 
Q 1363 391 1709 391 
Q 2188 391 2477 730 
Q 2766 1069 2766 1631 
L 2766 1759 
L 2194 1759 
z
M 3341 1997 
L 3341 0 
L 2766 0 
L 2766 531 
Q 2569 213 2275 61 
Q 1981 -91 1556 -91 
Q 1019 -91 701 211 
Q 384 513 384 1019 
Q 384 1609 779 1909 
Q 1175 2209 1959 2209 
L 2766 2209 
L 2766 2266 
Q 2766 2663 2505 2880 
Q 2244 3097 1772 3097 
Q 1472 3097 1187 3025 
Q 903 2953 641 2809 
L 641 3341 
Q 956 3463 1253 3523 
Q 1550 3584 1831 3584 
Q 2591 3584 2966 3190 
Q 3341 2797 3341 1997 
z
" transform="scale(0.015625)"/>
       <path id="DejaVuSans-50" d="M 1259 4147 
L 1259 2394 
L 2053 2394 
Q 2494 2394 2734 2622 
Q 2975 2850 2975 3272 
Q 2975 3691 2734 3919 
Q 2494 4147 2053 4147 
L 1259 4147 
z
M 628 4666 
L 2053 4666 
Q 2838 4666 3239 4311 
Q 3641 3956 3641 3272 
Q 3641 2581 3239 2228 
Q 2838 1875 2053 1875 
L 1259 1875 
L 1259 0 
L 628 0 
L 628 4666 
z
" transform="scale(0.015625)"/>
       <path id="DejaVuSans-49" d="M 628 4666 
L 1259 4666 
L 1259 0 
L 628 0 
L 628 4666 
z
" transform="scale(0.015625)"/>
       <path id="DejaVuSans-4e" d="M 628 4666 
L 1478 4666 
L 3547 763 
L 3547 4666 
L 4159 4666 
L 4159 0 
L 3309 0 
L 1241 3903 
L 1241 0 
L 628 0 
L 628 4666 
z
" transform="scale(0.015625)"/>
       <path id="DejaVuSans-55" d="M 556 4666 
L 1191 4666 
L 1191 1831 
Q 1191 1081 1462 751 
Q 1734 422 2344 422 
Q 2950 422 3222 751 
Q 3494 1081 3494 1831 
L 3494 4666 
L 4128 4666 
L 4128 1753 
Q 4128 841 3676 375 
Q 3225 -91 2344 -91 
Q 1459 -91 1007 375 
Q 556 841 556 1753 
L 556 4666 
z
" transform="scale(0.015625)"/>
       <path id="DejaVuSans-41" d="M 2188 4044 
L 1331 1722 
L 3047 1722 
L 2188 4044 
z
M 1831 4666 
L 2547 4666 
L 4325 0 
L 3669 0 
L 3244 1197 
L 1141 1197 
L 716 0 
L 50 0 
L 1831 4666 
z
" transform="scale(0.015625)"/>
      </defs>
      <use xlink:href="#DejaVuSans-42"/>
      <use xlink:href="#DejaVuSans-69" x="68.603516"/>
      <use xlink:href="#DejaVuSans-6f" x="96.386719"/>
      <use xlink:href="#DejaVuSans-6d" x="157.568359"/>
      <use xlink:href="#DejaVuSans-61" x="254.980469"/>
      <use xlink:href="#DejaVuSans-73" x="316.259766"/>
      <use xlink:href="#DejaVuSans-73" x="368.359375"/>
      <use xlink:href="#DejaVuSans-20" x="420.458984"/>
      <use xlink:href="#DejaVuSans-50" x="452.246094"/>
      <use xlink:href="#DejaVuSans-49" x="512.548828"/>
      <use xlink:href="#DejaVuSans-4e" x="542.041016"/>
      <use xlink:href="#DejaVuSans-55" x="616.845703"/>
      <use xlink:href="#DejaVuSans-2e" x="690.039062"/>
      <use xlink:href="#DejaVuSans-42" x="721.826172"/>
      <use xlink:href="#DejaVuSans-41" x="790.429688"/>
      <use xlink:href="#DejaVuSans-4e" x="858.837891"/>
     </g>
    </g>
    <g id="text_12">
     <!-- 1e3 -->
     <g transform="translate(72 45.9888) scale(0.12 -0.12)">
      <defs>
       <path id="DejaVuSans-33" d="M 2597 2516 
Q 3050 2419 3304 2112 
Q 3559 1806 3559 1356 
Q 3559 666 3084 287 
Q 2609 -91 1734 -91 
Q 1441 -91 1130 -33 
Q 819 25 488 141 
L 488 750 
Q 750 597 1062 519 
Q 1375 441 1716 441 
Q 2309 441 2620 675 
Q 2931 909 2931 1356 
Q 2931 1769 2642 2001 
Q 2353 2234 1838 2234 
L 1294 2234 
L 1294 2753 
L 1863 2753 
Q 2328 2753 2575 2939 
Q 2822 3125 2822 3475 
Q 2822 3834 2567 4026 
Q 2313 4219 1838 4219 
Q 1578 4219 1281 4162 
Q 984 4106 628 3988 
L 628 4550 
Q 988 4650 1302 4700 
Q 1616 4750 1894 4750 
Q 2613 4750 3031 4423 
Q 3450 4097 3450 3541 
Q 3450 3153 3228 2886 
Q 3006 2619 2597 2516 
z
" transform="scale(0.015625)"/>
      </defs>
      <use xlink:href="#DejaVuSans-31"/>
      <use xlink:href="#DejaVuSans-65" x="63.623047"/>
      <use xlink:href="#DejaVuSans-33" x="125.146484"/>
     </g>
    </g>
   </g>
   <g id="PolyCollection_1">
    <defs>
     <path id="m6971d5915b" d="M 89.315011 -64.794888 
L 89.315011 -71.814274 
L 106.630021 -75.003825 
L 123.945032 -80.197484 
L 141.260042 -88.195577 
L 158.575053 -96.821679 
L 175.890063 -112.143719 
L 193.205074 -129.274783 
L 210.520085 -147.111916 
L 227.835095 -166.46459 
L 245.150106 -182.394503 
L 262.465116 -201.804319 
L 279.780127 -207.33017 
L 297.095137 -215.809208 
L 314.410148 -225.304674 
L 331.725159 -231.484706 
L 349.040169 -237.330733 
L 366.35518 -242.483918 
L 383.67019 -244.512 
L 400.985201 -240.562094 
L 418.300211 -238.994934 
L 435.615222 -231.800123 
L 435.615222 -12.347518 
L 435.615222 -12.347518 
L 418.300211 -9.989256 
L 400.985201 -9.474893 
L 383.67019 -8.180594 
L 366.35518 -8.844161 
L 349.040169 -10.532245 
L 331.725159 -12.447059 
L 314.410148 -14.47407 
L 297.095137 -17.586264 
L 279.780127 -20.36656 
L 262.465116 -22.179462 
L 245.150106 -28.541372 
L 227.835095 -33.763109 
L 210.520085 -40.106784 
L 193.205074 -45.954817 
L 175.890063 -51.571138 
L 158.575053 -56.594795 
L 141.260042 -59.423309 
L 123.945032 -62.045934 
L 106.630021 -63.748991 
L 89.315011 -64.794888 
z
"/>
    </defs>
    <g clip-path="url(#pca83378661)">
     <use xlink:href="#m6971d5915b" x="0" y="302.4" style="fill: #fcffa4; fill-opacity: 0.3"/>
    </g>
   </g>
   <g id="PolyCollection_2">
    <defs>
     <path id="mb0167b407c" d="M 89.315011 -65.571782 
L 89.315011 -73.618717 
L 106.630021 -77.495123 
L 123.945032 -83.200774 
L 141.260042 -90.907918 
L 158.575053 -98.199067 
L 175.890063 -110.222515 
L 193.205074 -120.843346 
L 210.520085 -129.428897 
L 227.835095 -134.858989 
L 245.150106 -135.095582 
L 262.465116 -138.092257 
L 279.780127 -129.794032 
L 297.095137 -126.473674 
L 314.410148 -120.363936 
L 331.725159 -109.642777 
L 349.040169 -106.68743 
L 366.35518 -102.887783 
L 383.67019 -98.869126 
L 400.985201 -92.239521 
L 418.300211 -91.568564 
L 435.615222 -88.975463 
L 435.615222 -49.287973 
L 435.615222 -49.287973 
L 418.300211 -47.972559 
L 400.985201 -47.813941 
L 383.67019 -45.266476 
L 366.35518 -44.210676 
L 349.040169 -43.514411 
L 331.725159 -43.035083 
L 314.410148 -44.724681 
L 297.095137 -45.997775 
L 279.780127 -47.006405 
L 262.465116 -49.319821 
L 245.150106 -52.506717 
L 227.835095 -55.6057 
L 210.520085 -57.635254 
L 193.205074 -59.001844 
L 175.890063 -60.544273 
L 158.575053 -62.223343 
L 141.260042 -63.228064 
L 123.945032 -64.274888 
L 106.630021 -65.047146 
L 89.315011 -65.571782 
z
"/>
    </defs>
    <g clip-path="url(#pca83378661)">
     <use xlink:href="#mb0167b407c" x="0" y="302.4" style="fill: #f98e09; fill-opacity: 0.3"/>
    </g>
   </g>
   <g id="PolyCollection_3">
    <defs>
     <path id="md87c43015f" d="M 89.315011 -67.308336 
L 89.315011 -75.258664 
L 106.630021 -79.626045 
L 123.945032 -85.501986 
L 141.260042 -93.21277 
L 158.575053 -99.844928 
L 175.890063 -109.169501 
L 193.205074 -115.891317 
L 210.520085 -119.988253 
L 227.835095 -123.894131 
L 245.150106 -125.287586 
L 262.465116 -129.297774 
L 279.780127 -123.108904 
L 297.095137 -124.288229 
L 314.410148 -123.054471 
L 331.725159 -117.580996 
L 349.040169 -111.462924 
L 366.35518 -106.27242 
L 383.67019 -102.442765 
L 400.985201 -97.524491 
L 418.300211 -95.394396 
L 435.615222 -89.256385 
L 435.615222 -50.478964 
L 435.615222 -50.478964 
L 418.300211 -48.446824 
L 400.985201 -47.835947 
L 383.67019 -46.514287 
L 366.35518 -45.903965 
L 349.040169 -45.671739 
L 331.725159 -46.932723 
L 314.410148 -49.338548 
L 297.095137 -52.219366 
L 279.780127 -54.037612 
L 262.465116 -58.929115 
L 245.150106 -63.065346 
L 227.835095 -68.018126 
L 210.520085 -69.792677 
L 193.205074 -70.35394 
L 175.890063 -69.984533 
L 158.575053 -69.383305 
L 141.260042 -68.862142 
L 123.945032 -68.207022 
L 106.630021 -67.693451 
L 89.315011 -67.308336 
z
"/>
    </defs>
    <g clip-path="url(#pca83378661)">
     <use xlink:href="#md87c43015f" x="0" y="302.4" style="fill: #bc3754; fill-opacity: 0.3"/>
    </g>
   </g>
   <g id="PolyCollection_4">
    <defs>
     <path id="mcaa65bb9d1" d="M 89.315011 -69.552334 
L 89.315011 -75.913807 
L 106.630021 -80.168449 
L 123.945032 -85.503748 
L 141.260042 -92.761071 
L 158.575053 -97.565556 
L 175.890063 -104.313124 
L 193.205074 -108.21285 
L 210.520085 -110.166202 
L 227.835095 -112.837331 
L 245.150106 -115.017387 
L 262.465116 -118.412976 
L 279.780127 -114.119545 
L 297.095137 -113.722002 
L 314.410148 -113.02213 
L 331.725159 -108.72239 
L 349.040169 -105.424375 
L 366.35518 -99.799884 
L 383.67019 -92.286863 
L 400.985201 -86.359748 
L 418.300211 -82.921799 
L 435.615222 -80.164612 
L 435.615222 -56.628992 
L 435.615222 -56.628992 
L 418.300211 -55.393719 
L 400.985201 -54.392958 
L 383.67019 -52.398367 
L 366.35518 -51.523862 
L 349.040169 -52.513233 
L 331.725159 -54.025188 
L 314.410148 -56.508729 
L 297.095137 -58.59328 
L 279.780127 -60.908818 
L 262.465116 -65.774222 
L 245.150106 -68.777044 
L 227.835095 -72.041485 
L 210.520085 -73.872225 
L 193.205074 -77.116516 
L 175.890063 -77.776415 
L 158.575053 -76.218789 
L 141.260042 -74.787386 
L 123.945032 -72.595343 
L 106.630021 -70.90845 
L 89.315011 -69.552334 
z
"/>
    </defs>
    <g clip-path="url(#pca83378661)">
     <use xlink:href="#mcaa65bb9d1" x="0" y="302.4" style="fill: #57106e; fill-opacity: 0.3"/>
    </g>
   </g>
   <g id="PolyCollection_5">
    <defs>
     <path id="m02a71a8b42" d="M 89.315011 -73.292335 
L 89.315011 -74.900832 
L 106.630021 -78.450402 
L 123.945032 -82.993171 
L 141.260042 -88.827318 
L 158.575053 -92.071193 
L 175.890063 -98.063063 
L 193.205074 -102.189815 
L 210.520085 -104.756961 
L 227.835095 -107.671876 
L 245.150106 -109.528885 
L 262.465116 -112.709922 
L 279.780127 -110.235992 
L 297.095137 -109.017281 
L 314.410148 -107.00599 
L 331.725159 -102.410316 
L 349.040169 -99.743144 
L 366.35518 -97.236853 
L 383.67019 -93.732533 
L 400.985201 -87.573872 
L 418.300211 -83.894975 
L 435.615222 -80.607103 
L 435.615222 -56.997151 
L 435.615222 -56.997151 
L 418.300211 -55.703237 
L 400.985201 -54.727252 
L 383.67019 -53.406604 
L 366.35518 -53.694973 
L 349.040169 -55.44448 
L 331.725159 -57.01916 
L 314.410148 -59.34375 
L 297.095137 -62.403913 
L 279.780127 -65.648168 
L 262.465116 -69.86499 
L 245.150106 -72.457878 
L 227.835095 -75.217527 
L 210.520085 -78.450631 
L 193.205074 -83.134928 
L 175.890063 -86.20765 
L 158.575053 -85.446441 
L 141.260042 -83.323477 
L 123.945032 -79.462875 
L 106.630021 -76.077653 
L 89.315011 -73.292335 
z
"/>
    </defs>
    <g clip-path="url(#pca83378661)">
     <use xlink:href="#m02a71a8b42" x="0" y="302.4" style="fill: #000004; fill-opacity: 0.3"/>
    </g>
   </g>
   <g id="line2d_19">
    <path d="M 89.315011 234.095419 
L 106.630021 233.023592 
L 123.945032 231.278291 
L 141.260042 228.590557 
L 158.575053 225.691763 
L 175.890063 220.542571 
L 193.205074 214.7852 
L 210.520085 208.79065 
L 227.835095 202.286151 
L 245.150106 196.932062 
L 262.465116 190.40811 
L 279.780127 188.551635 
L 297.095137 185.702264 
L 314.410148 182.510628 
L 331.725159 180.434118 
L 349.040169 178.468511 
L 366.35518 176.73596 
L 383.67019 176.053703 
L 400.985201 177.381506 
L 418.300211 177.907905 
L 435.615222 180.32618 
" clip-path="url(#pca83378661)" style="fill: none; stroke: #fcffa4; stroke-linecap: square"/>
   </g>
   <g id="line2d_20">
    <path d="M 89.315011 232.804751 
L 106.630021 231.128865 
L 123.945032 228.662169 
L 141.260042 225.332009 
L 158.575053 222.188795 
L 175.890063 217.016606 
L 193.205074 212.477405 
L 210.520085 208.867925 
L 227.835095 207.167655 
L 245.150106 208.598851 
L 262.465116 208.693961 
L 279.780127 213.999781 
L 297.095137 216.164275 
L 314.410148 219.855691 
L 331.725159 226.06107 
L 349.040169 227.29908 
L 366.35518 228.850771 
L 383.67019 230.332199 
L 400.985201 232.373269 
L 418.300211 232.629438 
L 435.615222 233.268282 
" clip-path="url(#pca83378661)" style="fill: none; stroke: #f98e09; stroke-linecap: square"/>
   </g>
   <g id="line2d_21">
    <path d="M 89.315011 231.1165 
L 106.630021 228.740252 
L 123.945032 225.545496 
L 141.260042 221.362544 
L 158.575053 217.785884 
L 175.890063 212.822983 
L 193.205074 209.277371 
L 210.520085 207.509535 
L 227.835095 206.443872 
L 245.150106 208.223534 
L 262.465116 208.286556 
L 279.780127 213.826742 
L 297.095137 214.146202 
L 314.410148 216.203491 
L 331.725159 220.14314 
L 349.040169 223.832669 
L 366.35518 226.311808 
L 383.67019 227.921474 
L 400.985201 229.719781 
L 418.300211 230.47939 
L 435.615222 232.532325 
" clip-path="url(#pca83378661)" style="fill: none; stroke: #bc3754; stroke-linecap: square"/>
   </g>
   <g id="line2d_22">
    <path d="M 89.315011 229.66693 
L 106.630021 226.86155 
L 123.945032 223.350454 
L 141.260042 218.625772 
L 158.575053 215.507828 
L 175.890063 211.35523 
L 193.205074 209.735317 
L 210.520085 210.380786 
L 227.835095 209.960592 
L 245.150106 210.502784 
L 262.465116 210.306401 
L 279.780127 214.885818 
L 297.095137 216.242359 
L 314.410148 217.634571 
L 331.725159 221.026211 
L 349.040169 223.431196 
L 366.35518 226.738127 
L 383.67019 230.057385 
L 400.985201 232.023647 
L 418.300211 233.242241 
L 435.615222 234.003198 
" clip-path="url(#pca83378661)" style="fill: none; stroke: #57106e; stroke-linecap: square"/>
   </g>
   <g id="line2d_23">
    <path d="M 89.315011 228.303417 
L 106.630021 225.135972 
L 123.945032 221.171977 
L 141.260042 216.324603 
L 158.575053 213.641183 
L 175.890063 210.264643 
L 193.205074 209.737628 
L 210.520085 210.796204 
L 227.835095 210.955298 
L 245.150106 211.406618 
L 262.465116 211.112544 
L 279.780127 214.45792 
L 297.095137 216.689403 
L 314.410148 219.22513 
L 331.725159 222.685262 
L 349.040169 224.806188 
L 366.35518 226.934087 
L 383.67019 228.830431 
L 400.985201 231.249438 
L 418.300211 232.600894 
L 435.615222 233.597873 
" clip-path="url(#pca83378661)" style="fill: none; stroke: #000004; stroke-linecap: square"/>
   </g>
   <g id="patch_3">
    <path d="M 72 235.872 
L 72 48.9888 
" style="fill: none; stroke: #000000; stroke-width: 0.8; stroke-linejoin: miter; stroke-linecap: square"/>
   </g>
   <g id="patch_4">
    <path d="M 72 235.872 
L 452.930233 235.872 
" style="fill: none; stroke: #000000; stroke-width: 0.8; stroke-linejoin: miter; stroke-linecap: square"/>
   </g>
   <g id="text_13">
    <!-- PnET -->
    <g transform="translate(242.770116 289.674624) scale(0.16 -0.16)">
     <defs>
      <path id="DejaVuSans-6e" d="M 3513 2113 
L 3513 0 
L 2938 0 
L 2938 2094 
Q 2938 2591 2744 2837 
Q 2550 3084 2163 3084 
Q 1697 3084 1428 2787 
Q 1159 2491 1159 1978 
L 1159 0 
L 581 0 
L 581 3500 
L 1159 3500 
L 1159 2956 
Q 1366 3272 1645 3428 
Q 1925 3584 2291 3584 
Q 2894 3584 3203 3211 
Q 3513 2838 3513 2113 
z
" transform="scale(0.015625)"/>
      <path id="DejaVuSans-45" d="M 628 4666 
L 3578 4666 
L 3578 4134 
L 1259 4134 
L 1259 2753 
L 3481 2753 
L 3481 2222 
L 1259 2222 
L 1259 531 
L 3634 531 
L 3634 0 
L 628 0 
L 628 4666 
z
" transform="scale(0.015625)"/>
     </defs>
     <use xlink:href="#DejaVuSans-50"/>
     <use xlink:href="#DejaVuSans-6e" x="58.552734"/>
     <use xlink:href="#DejaVuSans-45" x="121.931641"/>
     <use xlink:href="#DejaVuSans-54" x="185.115234"/>
    </g>
   </g>
   <g id="legend_1">
    <g id="patch_5">
     <path d="M 266.5125 37.164 
L 633.4875 37.164 
Q 635.8875 37.164 635.8875 34.764 
L 635.8875 11.424 
Q 635.8875 9.024 633.4875 9.024 
L 266.5125 9.024 
Q 264.1125 9.024 264.1125 11.424 
L 264.1125 34.764 
Q 264.1125 37.164 266.5125 37.164 
z
" style="fill: #ffffff; opacity: 0.8; stroke: #cccccc; stroke-linejoin: miter"/>
    </g>
    <g id="patch_6">
     <path d="M 268.9125 32.364 
L 304.9125 32.364 
L 304.9125 13.824 
L 268.9125 13.824 
z
" style="fill: #fcffa4; fill-opacity: 0.3"/>
    </g>
    <g id="line2d_24">
     <path d="M 268.9125 20.364 
L 286.9125 20.364 
L 304.9125 20.364 
" style="fill: none; stroke: #fcffa4; stroke-linecap: square"/>
    </g>
    <g id="text_14">
     <!-- 1 -->
     <g transform="translate(314.5125 26.904) scale(0.12 -0.12)">
      <use xlink:href="#DejaVuSans-31"/>
     </g>
    </g>
    <g id="patch_7">
     <path d="M 346.1475 32.364 
L 382.1475 32.364 
L 382.1475 13.824 
L 346.1475 13.824 
z
" style="fill: #f98e09; fill-opacity: 0.3"/>
    </g>
    <g id="line2d_25">
     <path d="M 346.1475 20.364 
L 364.1475 20.364 
L 382.1475 20.364 
" style="fill: none; stroke: #f98e09; stroke-linecap: square"/>
    </g>
    <g id="text_15">
     <!-- 2 -->
     <g transform="translate(391.7475 26.904) scale(0.12 -0.12)">
      <use xlink:href="#DejaVuSans-32"/>
     </g>
    </g>
    <g id="patch_8">
     <path d="M 423.3825 32.364 
L 459.3825 32.364 
L 459.3825 13.824 
L 423.3825 13.824 
z
" style="fill: #bc3754; fill-opacity: 0.3"/>
    </g>
    <g id="line2d_26">
     <path d="M 423.3825 20.364 
L 441.3825 20.364 
L 459.3825 20.364 
" style="fill: none; stroke: #bc3754; stroke-linecap: square"/>
    </g>
    <g id="text_16">
     <!-- 3 -->
     <g transform="translate(468.9825 26.904) scale(0.12 -0.12)">
      <use xlink:href="#DejaVuSans-33"/>
     </g>
    </g>
    <g id="patch_9">
     <path d="M 500.6175 32.364 
L 536.6175 32.364 
L 536.6175 13.824 
L 500.6175 13.824 
z
" style="fill: #57106e; fill-opacity: 0.3"/>
    </g>
    <g id="line2d_27">
     <path d="M 500.6175 20.364 
L 518.6175 20.364 
L 536.6175 20.364 
" style="fill: none; stroke: #57106e; stroke-linecap: square"/>
    </g>
    <g id="text_17">
     <!-- 4 -->
     <g transform="translate(546.2175 26.904) scale(0.12 -0.12)">
      <defs>
       <path id="DejaVuSans-34" d="M 2419 4116 
L 825 1625 
L 2419 1625 
L 2419 4116 
z
M 2253 4666 
L 3047 4666 
L 3047 1625 
L 3713 1625 
L 3713 1100 
L 3047 1100 
L 3047 0 
L 2419 0 
L 2419 1100 
L 313 1100 
L 313 1709 
L 2253 4666 
z
" transform="scale(0.015625)"/>
      </defs>
      <use xlink:href="#DejaVuSans-34"/>
     </g>
    </g>
    <g id="patch_10">
     <path d="M 577.8525 32.364 
L 613.8525 32.364 
L 613.8525 13.824 
L 577.8525 13.824 
z
" style="fill: #000004; fill-opacity: 0.3"/>
    </g>
    <g id="line2d_28">
     <path d="M 577.8525 20.364 
L 595.8525 20.364 
L 613.8525 20.364 
" style="fill: none; stroke: #000004; stroke-linecap: square"/>
    </g>
    <g id="text_18">
     <!-- 5 -->
     <g transform="translate(623.4525 26.904) scale(0.12 -0.12)">
      <use xlink:href="#DejaVuSans-35"/>
     </g>
    </g>
   </g>
  </g>
  <g id="axes_2">
   <g id="patch_11">
    <path d="M 510.069767 235.872 
L 891 235.872 
L 891 48.9888 
L 510.069767 48.9888 
z
" style="fill: #fcfcfc"/>
   </g>
   <g id="matplotlib.axis_3">
    <g id="xtick_6">
     <g id="line2d_29">
      <path d="M 527.384778 235.872 
L 527.384778 48.9888 
" clip-path="url(#pd18aa9ee5c)" style="fill: none; stroke: #dcdcdc; stroke-width: 0.5; stroke-linecap: square"/>
     </g>
     <g id="line2d_30">
      <g>
       <use xlink:href="#m5487a68e21" x="527.384778" y="235.872" style="stroke: #000000; stroke-width: 0.8"/>
      </g>
     </g>
     <g id="text_19">
      <!-- 0 -->
      <g transform="translate(523.249153 252.749969) scale(0.13 -0.13)">
       <use xlink:href="#DejaVuSans-30"/>
      </g>
     </g>
    </g>
    <g id="xtick_7">
     <g id="line2d_31">
      <path d="M 613.959831 235.872 
L 613.959831 48.9888 
" clip-path="url(#pd18aa9ee5c)" style="fill: none; stroke: #dcdcdc; stroke-width: 0.5; stroke-linecap: square"/>
     </g>
     <g id="line2d_32">
      <g>
       <use xlink:href="#m5487a68e21" x="613.959831" y="235.872" style="stroke: #000000; stroke-width: 0.8"/>
      </g>
     </g>
     <g id="text_20">
      <!-- 25 -->
      <g transform="translate(605.688581 252.749969) scale(0.13 -0.13)">
       <use xlink:href="#DejaVuSans-32"/>
       <use xlink:href="#DejaVuSans-35" x="63.623047"/>
      </g>
     </g>
    </g>
    <g id="xtick_8">
     <g id="line2d_33">
      <path d="M 700.534884 235.872 
L 700.534884 48.9888 
" clip-path="url(#pd18aa9ee5c)" style="fill: none; stroke: #dcdcdc; stroke-width: 0.5; stroke-linecap: square"/>
     </g>
     <g id="line2d_34">
      <g>
       <use xlink:href="#m5487a68e21" x="700.534884" y="235.872" style="stroke: #000000; stroke-width: 0.8"/>
      </g>
     </g>
     <g id="text_21">
      <!-- 50 -->
      <g transform="translate(692.263634 252.749969) scale(0.13 -0.13)">
       <use xlink:href="#DejaVuSans-35"/>
       <use xlink:href="#DejaVuSans-30" x="63.623047"/>
      </g>
     </g>
    </g>
    <g id="xtick_9">
     <g id="line2d_35">
      <path d="M 787.109937 235.872 
L 787.109937 48.9888 
" clip-path="url(#pd18aa9ee5c)" style="fill: none; stroke: #dcdcdc; stroke-width: 0.5; stroke-linecap: square"/>
     </g>
     <g id="line2d_36">
      <g>
       <use xlink:href="#m5487a68e21" x="787.109937" y="235.872" style="stroke: #000000; stroke-width: 0.8"/>
      </g>
     </g>
     <g id="text_22">
      <!-- 75 -->
      <g transform="translate(778.838687 252.749969) scale(0.13 -0.13)">
       <use xlink:href="#DejaVuSans-37"/>
       <use xlink:href="#DejaVuSans-35" x="63.623047"/>
      </g>
     </g>
    </g>
    <g id="xtick_10">
     <g id="line2d_37">
      <path d="M 873.684989 235.872 
L 873.684989 48.9888 
" clip-path="url(#pd18aa9ee5c)" style="fill: none; stroke: #dcdcdc; stroke-width: 0.5; stroke-linecap: square"/>
     </g>
     <g id="line2d_38">
      <g>
       <use xlink:href="#m5487a68e21" x="873.684989" y="235.872" style="stroke: #000000; stroke-width: 0.8"/>
      </g>
     </g>
     <g id="text_23">
      <!-- 100 -->
      <g transform="translate(861.278114 252.749969) scale(0.13 -0.13)">
       <use xlink:href="#DejaVuSans-31"/>
       <use xlink:href="#DejaVuSans-30" x="63.623047"/>
       <use xlink:href="#DejaVuSans-30" x="127.246094"/>
      </g>
     </g>
    </g>
    <g id="text_24">
     <!-- Time step -->
     <g transform="translate(663.577462 270.851219) scale(0.15 -0.15)">
      <use xlink:href="#DejaVuSans-54"/>
      <use xlink:href="#DejaVuSans-69" x="57.958984"/>
      <use xlink:href="#DejaVuSans-6d" x="85.742188"/>
      <use xlink:href="#DejaVuSans-65" x="183.154297"/>
      <use xlink:href="#DejaVuSans-20" x="244.677734"/>
      <use xlink:href="#DejaVuSans-73" x="276.464844"/>
      <use xlink:href="#DejaVuSans-74" x="328.564453"/>
      <use xlink:href="#DejaVuSans-65" x="367.773438"/>
      <use xlink:href="#DejaVuSans-70" x="429.296875"/>
     </g>
    </g>
   </g>
   <g id="matplotlib.axis_4">
    <g id="ytick_5">
     <g id="line2d_39">
      <path d="M 510.069767 235.872 
L 891 235.872 
" clip-path="url(#pd18aa9ee5c)" style="fill: none; stroke: #dcdcdc; stroke-width: 0.5; stroke-linecap: square"/>
     </g>
    </g>
    <g id="ytick_6">
     <g id="line2d_40">
      <path d="M 510.069767 187.719913 
L 891 187.719913 
" clip-path="url(#pd18aa9ee5c)" style="fill: none; stroke: #dcdcdc; stroke-width: 0.5; stroke-linecap: square"/>
     </g>
    </g>
    <g id="ytick_7">
     <g id="line2d_41">
      <path d="M 510.069767 139.567827 
L 891 139.567827 
" clip-path="url(#pd18aa9ee5c)" style="fill: none; stroke: #dcdcdc; stroke-width: 0.5; stroke-linecap: square"/>
     </g>
    </g>
    <g id="ytick_8">
     <g id="line2d_42">
      <path d="M 510.069767 91.41574 
L 891 91.41574 
" clip-path="url(#pd18aa9ee5c)" style="fill: none; stroke: #dcdcdc; stroke-width: 0.5; stroke-linecap: square"/>
     </g>
    </g>
   </g>
   <g id="PolyCollection_6">
    <defs>
     <path id="m41681d7105" d="M 527.384778 -46.9564 
L 527.384778 -126.232554 
L 544.699789 -137.946665 
L 562.014799 -145.826216 
L 579.32981 -151.355931 
L 596.64482 -155.307397 
L 613.959831 -158.171626 
L 631.274841 -160.287648 
L 648.589852 -161.854206 
L 665.904863 -163.023279 
L 683.219873 -163.888393 
L 700.534884 -164.531383 
L 717.849894 -165.010703 
L 735.164905 -165.373115 
L 752.479915 -165.642002 
L 769.794926 -165.840744 
L 787.109937 -165.992724 
L 804.424947 -166.09794 
L 821.739958 -166.156394 
L 839.054968 -166.156394 
L 856.369979 -166.109631 
L 873.684989 -165.817363 
L 873.684989 -33.980203 
L 873.684989 -33.980203 
L 856.369979 -33.884395 
L 839.054968 -33.869066 
L 821.739958 -33.869066 
L 804.424947 -33.888227 
L 787.109937 -33.922718 
L 769.794926 -33.972538 
L 752.479915 -34.037687 
L 735.164905 -34.12583 
L 717.849894 -34.244632 
L 700.534884 -34.401757 
L 683.219873 -34.612534 
L 665.904863 -34.896124 
L 648.589852 -35.279355 
L 631.274841 -35.792885 
L 613.959831 -36.486533 
L 596.64482 -37.425448 
L 579.32981 -38.720768 
L 562.014799 -40.53345 
L 544.699789 -43.116426 
L 527.384778 -46.9564 
z
"/>
    </defs>
    <g clip-path="url(#pd18aa9ee5c)">
     <use xlink:href="#m41681d7105" x="0" y="302.4" style="fill: #fcffa4; fill-opacity: 0.3"/>
    </g>
   </g>
   <g id="PolyCollection_7">
    <defs>
     <path id="me9873538bf" d="M 527.384778 -57.180546 
L 527.384778 -134.019676 
L 544.699789 -149.236427 
L 562.014799 -159.74846 
L 579.32981 -167.201267 
L 596.64482 -172.538414 
L 613.959831 -176.366684 
L 631.274841 -179.047949 
L 648.589852 -180.886451 
L 665.904863 -182.113539 
L 683.219873 -182.883144 
L 700.534884 -183.337161 
L 717.849894 -183.640195 
L 735.164905 -183.855364 
L 752.479915 -184.014155 
L 769.794926 -184.131832 
L 787.109937 -184.21697 
L 804.424947 -184.280871 
L 821.739958 -184.315998 
L 839.054968 -184.284441 
L 856.369979 -184.14113 
L 873.684989 -183.725221 
L 873.684989 -50.345459 
L 873.684989 -50.345459 
L 856.369979 -50.285259 
L 839.054968 -50.263445 
L 821.739958 -50.258391 
L 804.424947 -50.262162 
L 787.109937 -50.269051 
L 769.794926 -50.27884 
L 752.479915 -50.292046 
L 735.164905 -50.30954 
L 717.849894 -50.333334 
L 700.534884 -50.367255 
L 683.219873 -50.419337 
L 665.904863 -50.514581 
L 648.589852 -50.672308 
L 631.274841 -50.914703 
L 613.959831 -51.273882 
L 596.64482 -51.794373 
L 579.32981 -52.526639 
L 562.014799 -53.558578 
L 544.699789 -55.030423 
L 527.384778 -57.180546 
z
"/>
    </defs>
    <g clip-path="url(#pd18aa9ee5c)">
     <use xlink:href="#me9873538bf" x="0" y="302.4" style="fill: #f98e09; fill-opacity: 0.3"/>
    </g>
   </g>
   <g id="PolyCollection_8">
    <defs>
     <path id="m5a98713e69" d="M 527.384778 -72.911169 
L 527.384778 -136.734307 
L 544.699789 -153.458952 
L 562.014799 -165.422219 
L 579.32981 -174.074013 
L 596.64482 -180.325521 
L 613.959831 -184.772016 
L 631.274841 -187.772045 
L 648.589852 -189.688105 
L 665.904863 -190.82477 
L 683.219873 -191.446612 
L 700.534884 -191.764195 
L 717.849894 -191.961483 
L 735.164905 -192.088873 
L 752.479915 -192.183483 
L 769.794926 -192.249419 
L 787.109937 -192.298056 
L 804.424947 -192.336272 
L 821.739958 -192.356474 
L 839.054968 -192.317926 
L 856.369979 -192.14865 
L 873.684989 -191.653274 
L 873.684989 -77.792086 
L 873.684989 -77.792086 
L 856.369979 -77.830004 
L 839.054968 -77.840702 
L 821.739958 -77.841599 
L 804.424947 -77.837533 
L 787.109937 -77.829754 
L 769.794926 -77.819761 
L 752.479915 -77.806188 
L 735.164905 -77.787544 
L 717.849894 -77.763313 
L 700.534884 -77.72847 
L 683.219873 -77.678325 
L 665.904863 -77.598302 
L 648.589852 -77.467758 
L 631.274841 -77.265974 
L 613.959831 -76.971706 
L 596.64482 -76.559078 
L 579.32981 -75.999339 
L 562.014799 -75.250151 
L 544.699789 -74.258966 
L 527.384778 -72.911169 
z
"/>
    </defs>
    <g clip-path="url(#pd18aa9ee5c)">
     <use xlink:href="#m5a98713e69" x="0" y="302.4" style="fill: #bc3754; fill-opacity: 0.3"/>
    </g>
   </g>
   <g id="PolyCollection_9">
    <defs>
     <path id="m19ac716a7a" d="M 527.384778 -88.271267 
L 527.384778 -131.848559 
L 544.699789 -147.513221 
L 562.014799 -159.091541 
L 579.32981 -167.611911 
L 596.64482 -173.786767 
L 613.959831 -178.101851 
L 631.274841 -180.819465 
L 648.589852 -182.350476 
L 665.904863 -183.034307 
L 683.219873 -183.256106 
L 700.534884 -183.310905 
L 717.849894 -183.335615 
L 735.164905 -183.344578 
L 752.479915 -183.34775 
L 769.794926 -183.348697 
L 787.109937 -183.349202 
L 804.424947 -183.349372 
L 821.739958 -183.349372 
L 839.054968 -183.309746 
L 856.369979 -183.131434 
L 873.684989 -182.643266 
L 873.684989 -104.586624 
L 873.684989 -104.586624 
L 856.369979 -104.745389 
L 839.054968 -104.802984 
L 821.739958 -104.812203 
L 804.424947 -104.812203 
L 787.109937 -104.812142 
L 769.794926 -104.811953 
L 752.479915 -104.811591 
L 735.164905 -104.810372 
L 717.849894 -104.807007 
L 700.534884 -104.797818 
L 683.219873 -104.776884 
L 665.904863 -104.689508 
L 648.589852 -104.449204 
L 631.274841 -103.937102 
L 613.959831 -103.042386 
L 596.64482 -101.632379 
L 579.32981 -99.627467 
L 562.014799 -96.886874 
L 544.699789 -93.213002 
L 527.384778 -88.271267 
z
"/>
    </defs>
    <g clip-path="url(#pd18aa9ee5c)">
     <use xlink:href="#m19ac716a7a" x="0" y="302.4" style="fill: #57106e; fill-opacity: 0.3"/>
    </g>
   </g>
   <g id="PolyCollection_10">
    <defs>
     <path id="m37222ae9fc" d="M 527.384778 -112.655614 
L 527.384778 -113.62244 
L 544.699789 -124.255857 
L 562.014799 -132.339725 
L 579.32981 -138.389031 
L 596.64482 -142.812282 
L 613.959831 -145.836511 
L 631.274841 -147.70001 
L 648.589852 -148.676219 
L 665.904863 -148.994791 
L 683.219873 -149.03492 
L 700.534884 -149.03492 
L 717.849894 -149.03492 
L 735.164905 -149.03492 
L 752.479915 -149.03492 
L 769.794926 -149.03492 
L 787.109937 -149.03492 
L 804.424947 -149.03492 
L 821.739958 -149.03492 
L 839.054968 -149.014415 
L 856.369979 -148.889047 
L 873.684989 -148.561613 
L 873.684989 -146.686871 
L 873.684989 -146.686871 
L 856.369979 -147.014305 
L 839.054968 -147.128234 
L 821.739958 -147.142244 
L 804.424947 -147.142244 
L 787.109937 -147.142244 
L 769.794926 -147.142244 
L 752.479915 -147.142244 
L 735.164905 -147.142244 
L 717.849894 -147.142244 
L 700.534884 -147.142244 
L 683.219873 -147.142244 
L 665.904863 -147.146548 
L 648.589852 -147.069964 
L 631.274841 -146.451222 
L 613.959831 -144.800389 
L 596.64482 -141.77949 
L 579.32981 -137.350308 
L 562.014799 -131.285319 
L 544.699789 -123.212428 
L 527.384778 -112.655614 
z
"/>
    </defs>
    <g clip-path="url(#pd18aa9ee5c)">
     <use xlink:href="#m37222ae9fc" x="0" y="302.4" style="fill: #000004; fill-opacity: 0.3"/>
    </g>
   </g>
   <g id="line2d_43">
    <path d="M 527.384778 215.805523 
L 544.699789 211.868455 
L 562.014799 209.220167 
L 579.32981 207.36165 
L 596.64482 206.033577 
L 613.959831 205.070921 
L 631.274841 204.359734 
L 648.589852 203.83322 
L 665.904863 203.440298 
L 683.219873 203.149537 
L 700.534884 202.93343 
L 717.849894 202.772333 
L 735.164905 202.650527 
L 752.479915 202.560155 
L 769.794926 202.493359 
L 787.109937 202.442279 
L 804.424947 202.406916 
L 821.739958 202.38727 
L 839.054968 202.38727 
L 856.369979 202.402987 
L 873.684989 202.501217 
" clip-path="url(#pd18aa9ee5c)" style="fill: none; stroke: #fcffa4; stroke-linecap: square"/>
   </g>
   <g id="line2d_44">
    <path d="M 527.384778 206.799889 
L 544.699789 200.266575 
L 562.014799 195.746481 
L 579.32981 192.536047 
L 596.64482 190.233606 
L 613.959831 188.579717 
L 631.274841 187.418674 
L 648.589852 186.620621 
L 665.904863 186.08594 
L 683.219873 185.74876 
L 700.534884 185.547792 
L 717.849894 185.413236 
L 735.164905 185.317548 
L 752.479915 185.246899 
L 769.794926 185.194664 
L 787.109937 185.15699 
L 804.424947 185.128484 
L 821.739958 185.112805 
L 839.054968 185.126057 
L 856.369979 185.186806 
L 873.684989 185.36466 
" clip-path="url(#pd18aa9ee5c)" style="fill: none; stroke: #f98e09; stroke-linecap: square"/>
   </g>
   <g id="line2d_45">
    <path d="M 527.384778 197.577262 
L 544.699789 188.541041 
L 562.014799 182.063815 
L 579.32981 177.363324 
L 596.64482 173.9577 
L 613.959831 171.528139 
L 631.274841 169.880991 
L 648.589852 168.822069 
L 665.904863 168.188464 
L 683.219873 167.837532 
L 700.534884 167.653668 
L 717.849894 167.537602 
L 735.164905 167.461791 
L 752.479915 167.405164 
L 769.794926 167.36541 
L 787.109937 167.336095 
L 804.424947 167.313098 
L 821.739958 167.300963 
L 839.054968 167.320686 
L 856.369979 167.410673 
L 873.684989 167.67732 
" clip-path="url(#pd18aa9ee5c)" style="fill: none; stroke: #bc3754; stroke-linecap: square"/>
   </g>
   <g id="line2d_46">
    <path d="M 527.384778 192.340087 
L 544.699789 182.036889 
L 562.014799 174.410792 
L 579.32981 168.780311 
L 596.64482 164.690427 
L 613.959831 161.827882 
L 631.274841 160.021716 
L 648.589852 159.00016 
L 665.904863 158.538093 
L 683.219873 158.383505 
L 700.534884 158.345638 
L 717.849894 158.328689 
L 735.164905 158.322525 
L 752.479915 158.32033 
L 769.794926 158.319675 
L 787.109937 158.319328 
L 804.424947 158.319212 
L 821.739958 158.319212 
L 839.054968 158.343635 
L 856.369979 158.461589 
L 873.684989 158.785055 
" clip-path="url(#pd18aa9ee5c)" style="fill: none; stroke: #57106e; stroke-linecap: square"/>
   </g>
   <g id="line2d_47">
    <path d="M 527.384778 189.260973 
L 544.699789 178.665857 
L 562.014799 170.587478 
L 579.32981 164.530331 
L 596.64482 160.104114 
L 613.959831 157.08155 
L 631.274841 155.324384 
L 648.589852 154.526908 
L 665.904863 154.329331 
L 683.219873 154.311418 
L 700.534884 154.311418 
L 717.849894 154.311418 
L 735.164905 154.311418 
L 752.479915 154.311418 
L 769.794926 154.311418 
L 787.109937 154.311418 
L 804.424947 154.311418 
L 821.739958 154.311418 
L 839.054968 154.328676 
L 856.369979 154.448324 
L 873.684989 154.775758 
" clip-path="url(#pd18aa9ee5c)" style="fill: none; stroke: #000004; stroke-linecap: square"/>
   </g>
   <g id="patch_12">
    <path d="M 510.069767 235.872 
L 891 235.872 
" style="fill: none; stroke: #000000; stroke-width: 0.8; stroke-linejoin: miter; stroke-linecap: square"/>
   </g>
   <g id="text_25">
    <!-- BiomassSuccession -->
    <g transform="translate(622.507384 289.674624) scale(0.16 -0.16)">
     <defs>
      <path id="DejaVuSans-53" d="M 3425 4513 
L 3425 3897 
Q 3066 4069 2747 4153 
Q 2428 4238 2131 4238 
Q 1616 4238 1336 4038 
Q 1056 3838 1056 3469 
Q 1056 3159 1242 3001 
Q 1428 2844 1947 2747 
L 2328 2669 
Q 3034 2534 3370 2195 
Q 3706 1856 3706 1288 
Q 3706 609 3251 259 
Q 2797 -91 1919 -91 
Q 1588 -91 1214 -16 
Q 841 59 441 206 
L 441 856 
Q 825 641 1194 531 
Q 1563 422 1919 422 
Q 2459 422 2753 634 
Q 3047 847 3047 1241 
Q 3047 1584 2836 1778 
Q 2625 1972 2144 2069 
L 1759 2144 
Q 1053 2284 737 2584 
Q 422 2884 422 3419 
Q 422 4038 858 4394 
Q 1294 4750 2059 4750 
Q 2388 4750 2728 4690 
Q 3069 4631 3425 4513 
z
" transform="scale(0.015625)"/>
      <path id="DejaVuSans-75" d="M 544 1381 
L 544 3500 
L 1119 3500 
L 1119 1403 
Q 1119 906 1312 657 
Q 1506 409 1894 409 
Q 2359 409 2629 706 
Q 2900 1003 2900 1516 
L 2900 3500 
L 3475 3500 
L 3475 0 
L 2900 0 
L 2900 538 
Q 2691 219 2414 64 
Q 2138 -91 1772 -91 
Q 1169 -91 856 284 
Q 544 659 544 1381 
z
M 1991 3584 
L 1991 3584 
z
" transform="scale(0.015625)"/>
      <path id="DejaVuSans-63" d="M 3122 3366 
L 3122 2828 
Q 2878 2963 2633 3030 
Q 2388 3097 2138 3097 
Q 1578 3097 1268 2742 
Q 959 2388 959 1747 
Q 959 1106 1268 751 
Q 1578 397 2138 397 
Q 2388 397 2633 464 
Q 2878 531 3122 666 
L 3122 134 
Q 2881 22 2623 -34 
Q 2366 -91 2075 -91 
Q 1284 -91 818 406 
Q 353 903 353 1747 
Q 353 2603 823 3093 
Q 1294 3584 2113 3584 
Q 2378 3584 2631 3529 
Q 2884 3475 3122 3366 
z
" transform="scale(0.015625)"/>
     </defs>
     <use xlink:href="#DejaVuSans-42"/>
     <use xlink:href="#DejaVuSans-69" x="68.603516"/>
     <use xlink:href="#DejaVuSans-6f" x="96.386719"/>
     <use xlink:href="#DejaVuSans-6d" x="157.568359"/>
     <use xlink:href="#DejaVuSans-61" x="254.980469"/>
     <use xlink:href="#DejaVuSans-73" x="316.259766"/>
     <use xlink:href="#DejaVuSans-73" x="368.359375"/>
     <use xlink:href="#DejaVuSans-53" x="420.458984"/>
     <use xlink:href="#DejaVuSans-75" x="483.935547"/>
     <use xlink:href="#DejaVuSans-63" x="547.314453"/>
     <use xlink:href="#DejaVuSans-63" x="602.294922"/>
     <use xlink:href="#DejaVuSans-65" x="657.275391"/>
     <use xlink:href="#DejaVuSans-73" x="718.798828"/>
     <use xlink:href="#DejaVuSans-73" x="770.898438"/>
     <use xlink:href="#DejaVuSans-69" x="822.998047"/>
     <use xlink:href="#DejaVuSans-6f" x="850.78125"/>
     <use xlink:href="#DejaVuSans-6e" x="911.962891"/>
    </g>
   </g>
  </g>
 </g>
 <defs>
  <clipPath id="pca83378661">
   <rect x="72" y="48.9888" width="380.930233" height="186.8832"/>
  </clipPath>
  <clipPath id="pd18aa9ee5c">
   <rect x="510.069767" y="48.9888" width="380.930233" height="186.8832"/>
  </clipPath>
 </defs>
</svg>
