<?xml version="1.0" encoding="utf-8" standalone="no"?>
<!DOCTYPE svg PUBLIC "-//W3C//DTD SVG 1.1//EN"
  "http://www.w3.org/Graphics/SVG/1.1/DTD/svg11.dtd">
<svg xmlns:xlink="http://www.w3.org/1999/xlink" width="900pt" height="302.4pt" viewBox="0 0 900 302.4" xmlns="http://www.w3.org/2000/svg" version="1.1">
 <metadata>
  <rdf:RDF xmlns:dc="http://purl.org/dc/elements/1.1/" xmlns:cc="http://creativecommons.org/ns#" xmlns:rdf="http://www.w3.org/1999/02/22-rdf-syntax-ns#">
   <cc:Work>
    <dc:type rdf:resource="http://purl.org/dc/dcmitype/StillImage"/>
    <dc:date>2024-02-23T15:27:17.446425</dc:date>
    <dc:format>image/svg+xml</dc:format>
    <dc:creator>
     <cc:Agent>
      <dc:title>Matplotlib v3.7.1, https://matplotlib.org/</dc:title>
     </cc:Agent>
    </dc:creator>
   </cc:Work>
  </rdf:RDF>
 </metadata>
 <defs>
  <style type="text/css">*{stroke-linejoin: round; stroke-linecap: butt}</style>
 </defs>
 <g id="figure_1">
  <g id="patch_1">
   <path d="M 0 302.4 
L 900 302.4 
L 900 0 
L 0 0 
z
" style="fill: #ffffff"/>
  </g>
  <g id="axes_1">
   <g id="patch_2">
    <path d="M 72 235.872 
L 452.930233 235.872 
L 452.930233 48.9888 
L 72 48.9888 
z
" style="fill: #fcfcfc"/>
   </g>
   <g id="matplotlib.axis_1">
    <g id="xtick_1">
     <g id="line2d_1">
      <path d="M 89.315011 235.872 
L 89.315011 48.9888 
" clip-path="url(#p8edeae8a13)" style="fill: none; stroke: #dcdcdc; stroke-width: 0.5; stroke-linecap: square"/>
     </g>
     <g id="line2d_2">
      <defs>
       <path id="md889206593" d="M 0 0 
L 0 3.5 
" style="stroke: #000000; stroke-width: 0.8"/>
      </defs>
      <g>
       <use xlink:href="#md889206593" x="89.315011" y="235.872" style="stroke: #000000; stroke-width: 0.8"/>
      </g>
     </g>
     <g id="text_1">
      <!-- 0 -->
      <g transform="translate(85.179386 252.749969) scale(0.13 -0.13)">
       <defs>
        <path id="DejaVuSans-30" d="M 2034 4250 
Q 1547 4250 1301 3770 
Q 1056 3291 1056 2328 
Q 1056 1369 1301 889 
Q 1547 409 2034 409 
Q 2525 409 2770 889 
Q 3016 1369 3016 2328 
Q 3016 3291 2770 3770 
Q 2525 4250 2034 4250 
z
M 2034 4750 
Q 2819 4750 3233 4129 
Q 3647 3509 3647 2328 
Q 3647 1150 3233 529 
Q 2819 -91 2034 -91 
Q 1250 -91 836 529 
Q 422 1150 422 2328 
Q 422 3509 836 4129 
Q 1250 4750 2034 4750 
z
" transform="scale(0.015625)"/>
       </defs>
       <use xlink:href="#DejaVuSans-30"/>
      </g>
     </g>
    </g>
    <g id="xtick_2">
     <g id="line2d_3">
      <path d="M 175.890063 235.872 
L 175.890063 48.9888 
" clip-path="url(#p8edeae8a13)" style="fill: none; stroke: #dcdcdc; stroke-width: 0.5; stroke-linecap: square"/>
     </g>
     <g id="line2d_4">
      <g>
       <use xlink:href="#md889206593" x="175.890063" y="235.872" style="stroke: #000000; stroke-width: 0.8"/>
      </g>
     </g>
     <g id="text_2">
      <!-- 25 -->
      <g transform="translate(167.618813 252.749969) scale(0.13 -0.13)">
       <defs>
        <path id="DejaVuSans-32" d="M 1228 531 
L 3431 531 
L 3431 0 
L 469 0 
L 469 531 
Q 828 903 1448 1529 
Q 2069 2156 2228 2338 
Q 2531 2678 2651 2914 
Q 2772 3150 2772 3378 
Q 2772 3750 2511 3984 
Q 2250 4219 1831 4219 
Q 1534 4219 1204 4116 
Q 875 4013 500 3803 
L 500 4441 
Q 881 4594 1212 4672 
Q 1544 4750 1819 4750 
Q 2544 4750 2975 4387 
Q 3406 4025 3406 3419 
Q 3406 3131 3298 2873 
Q 3191 2616 2906 2266 
Q 2828 2175 2409 1742 
Q 1991 1309 1228 531 
z
" transform="scale(0.015625)"/>
        <path id="DejaVuSans-35" d="M 691 4666 
L 3169 4666 
L 3169 4134 
L 1269 4134 
L 1269 2991 
Q 1406 3038 1543 3061 
Q 1681 3084 1819 3084 
Q 2600 3084 3056 2656 
Q 3513 2228 3513 1497 
Q 3513 744 3044 326 
Q 2575 -91 1722 -91 
Q 1428 -91 1123 -41 
Q 819 9 494 109 
L 494 744 
Q 775 591 1075 516 
Q 1375 441 1709 441 
Q 2250 441 2565 725 
Q 2881 1009 2881 1497 
Q 2881 1984 2565 2268 
Q 2250 2553 1709 2553 
Q 1456 2553 1204 2497 
Q 953 2441 691 2322 
L 691 4666 
z
" transform="scale(0.015625)"/>
       </defs>
       <use xlink:href="#DejaVuSans-32"/>
       <use xlink:href="#DejaVuSans-35" x="63.623047"/>
      </g>
     </g>
    </g>
    <g id="xtick_3">
     <g id="line2d_5">
      <path d="M 262.465116 235.872 
L 262.465116 48.9888 
" clip-path="url(#p8edeae8a13)" style="fill: none; stroke: #dcdcdc; stroke-width: 0.5; stroke-linecap: square"/>
     </g>
     <g id="line2d_6">
      <g>
       <use xlink:href="#md889206593" x="262.465116" y="235.872" style="stroke: #000000; stroke-width: 0.8"/>
      </g>
     </g>
     <g id="text_3">
      <!-- 50 -->
      <g transform="translate(254.193866 252.749969) scale(0.13 -0.13)">
       <use xlink:href="#DejaVuSans-35"/>
       <use xlink:href="#DejaVuSans-30" x="63.623047"/>
      </g>
     </g>
    </g>
    <g id="xtick_4">
     <g id="line2d_7">
      <path d="M 349.040169 235.872 
L 349.040169 48.9888 
" clip-path="url(#p8edeae8a13)" style="fill: none; stroke: #dcdcdc; stroke-width: 0.5; stroke-linecap: square"/>
     </g>
     <g id="line2d_8">
      <g>
       <use xlink:href="#md889206593" x="349.040169" y="235.872" style="stroke: #000000; stroke-width: 0.8"/>
      </g>
     </g>
     <g id="text_4">
      <!-- 75 -->
      <g transform="translate(340.768919 252.749969) scale(0.13 -0.13)">
       <defs>
        <path id="DejaVuSans-37" d="M 525 4666 
L 3525 4666 
L 3525 4397 
L 1831 0 
L 1172 0 
L 2766 4134 
L 525 4134 
L 525 4666 
z
" transform="scale(0.015625)"/>
       </defs>
       <use xlink:href="#DejaVuSans-37"/>
       <use xlink:href="#DejaVuSans-35" x="63.623047"/>
      </g>
     </g>
    </g>
    <g id="xtick_5">
     <g id="line2d_9">
      <path d="M 435.615222 235.872 
L 435.615222 48.9888 
" clip-path="url(#p8edeae8a13)" style="fill: none; stroke: #dcdcdc; stroke-width: 0.5; stroke-linecap: square"/>
     </g>
     <g id="line2d_10">
      <g>
       <use xlink:href="#md889206593" x="435.615222" y="235.872" style="stroke: #000000; stroke-width: 0.8"/>
      </g>
     </g>
     <g id="text_5">
      <!-- 100 -->
      <g transform="translate(423.208347 252.749969) scale(0.13 -0.13)">
       <defs>
        <path id="DejaVuSans-31" d="M 794 531 
L 1825 531 
L 1825 4091 
L 703 3866 
L 703 4441 
L 1819 4666 
L 2450 4666 
L 2450 531 
L 3481 531 
L 3481 0 
L 794 0 
L 794 531 
z
" transform="scale(0.015625)"/>
       </defs>
       <use xlink:href="#DejaVuSans-31"/>
       <use xlink:href="#DejaVuSans-30" x="63.623047"/>
       <use xlink:href="#DejaVuSans-30" x="127.246094"/>
      </g>
     </g>
    </g>
    <g id="text_6">
     <!-- Time step -->
     <g transform="translate(225.507694 270.851219) scale(0.15 -0.15)">
      <defs>
       <path id="DejaVuSans-54" d="M -19 4666 
L 3928 4666 
L 3928 4134 
L 2272 4134 
L 2272 0 
L 1638 0 
L 1638 4134 
L -19 4134 
L -19 4666 
z
" transform="scale(0.015625)"/>
       <path id="DejaVuSans-69" d="M 603 3500 
L 1178 3500 
L 1178 0 
L 603 0 
L 603 3500 
z
M 603 4863 
L 1178 4863 
L 1178 4134 
L 603 4134 
L 603 4863 
z
" transform="scale(0.015625)"/>
       <path id="DejaVuSans-6d" d="M 3328 2828 
Q 3544 3216 3844 3400 
Q 4144 3584 4550 3584 
Q 5097 3584 5394 3201 
Q 5691 2819 5691 2113 
L 5691 0 
L 5113 0 
L 5113 2094 
Q 5113 2597 4934 2840 
Q 4756 3084 4391 3084 
Q 3944 3084 3684 2787 
Q 3425 2491 3425 1978 
L 3425 0 
L 2847 0 
L 2847 2094 
Q 2847 2600 2669 2842 
Q 2491 3084 2119 3084 
Q 1678 3084 1418 2786 
Q 1159 2488 1159 1978 
L 1159 0 
L 581 0 
L 581 3500 
L 1159 3500 
L 1159 2956 
Q 1356 3278 1631 3431 
Q 1906 3584 2284 3584 
Q 2666 3584 2933 3390 
Q 3200 3197 3328 2828 
z
" transform="scale(0.015625)"/>
       <path id="DejaVuSans-65" d="M 3597 1894 
L 3597 1613 
L 953 1613 
Q 991 1019 1311 708 
Q 1631 397 2203 397 
Q 2534 397 2845 478 
Q 3156 559 3463 722 
L 3463 178 
Q 3153 47 2828 -22 
Q 2503 -91 2169 -91 
Q 1331 -91 842 396 
Q 353 884 353 1716 
Q 353 2575 817 3079 
Q 1281 3584 2069 3584 
Q 2775 3584 3186 3129 
Q 3597 2675 3597 1894 
z
M 3022 2063 
Q 3016 2534 2758 2815 
Q 2500 3097 2075 3097 
Q 1594 3097 1305 2825 
Q 1016 2553 972 2059 
L 3022 2063 
z
" transform="scale(0.015625)"/>
       <path id="DejaVuSans-20" transform="scale(0.015625)"/>
       <path id="DejaVuSans-73" d="M 2834 3397 
L 2834 2853 
Q 2591 2978 2328 3040 
Q 2066 3103 1784 3103 
Q 1356 3103 1142 2972 
Q 928 2841 928 2578 
Q 928 2378 1081 2264 
Q 1234 2150 1697 2047 
L 1894 2003 
Q 2506 1872 2764 1633 
Q 3022 1394 3022 966 
Q 3022 478 2636 193 
Q 2250 -91 1575 -91 
Q 1294 -91 989 -36 
Q 684 19 347 128 
L 347 722 
Q 666 556 975 473 
Q 1284 391 1588 391 
Q 1994 391 2212 530 
Q 2431 669 2431 922 
Q 2431 1156 2273 1281 
Q 2116 1406 1581 1522 
L 1381 1569 
Q 847 1681 609 1914 
Q 372 2147 372 2553 
Q 372 3047 722 3315 
Q 1072 3584 1716 3584 
Q 2034 3584 2315 3537 
Q 2597 3491 2834 3397 
z
" transform="scale(0.015625)"/>
       <path id="DejaVuSans-74" d="M 1172 4494 
L 1172 3500 
L 2356 3500 
L 2356 3053 
L 1172 3053 
L 1172 1153 
Q 1172 725 1289 603 
Q 1406 481 1766 481 
L 2356 481 
L 2356 0 
L 1766 0 
Q 1100 0 847 248 
Q 594 497 594 1153 
L 594 3053 
L 172 3053 
L 172 3500 
L 594 3500 
L 594 4494 
L 1172 4494 
z
" transform="scale(0.015625)"/>
       <path id="DejaVuSans-70" d="M 1159 525 
L 1159 -1331 
L 581 -1331 
L 581 3500 
L 1159 3500 
L 1159 2969 
Q 1341 3281 1617 3432 
Q 1894 3584 2278 3584 
Q 2916 3584 3314 3078 
Q 3713 2572 3713 1747 
Q 3713 922 3314 415 
Q 2916 -91 2278 -91 
Q 1894 -91 1617 61 
Q 1341 213 1159 525 
z
M 3116 1747 
Q 3116 2381 2855 2742 
Q 2594 3103 2138 3103 
Q 1681 3103 1420 2742 
Q 1159 2381 1159 1747 
Q 1159 1113 1420 752 
Q 1681 391 2138 391 
Q 2594 391 2855 752 
Q 3116 1113 3116 1747 
z
" transform="scale(0.015625)"/>
      </defs>
      <use xlink:href="#DejaVuSans-54"/>
      <use xlink:href="#DejaVuSans-69" x="57.958984"/>
      <use xlink:href="#DejaVuSans-6d" x="85.742188"/>
      <use xlink:href="#DejaVuSans-65" x="183.154297"/>
      <use xlink:href="#DejaVuSans-20" x="244.677734"/>
      <use xlink:href="#DejaVuSans-73" x="276.464844"/>
      <use xlink:href="#DejaVuSans-74" x="328.564453"/>
      <use xlink:href="#DejaVuSans-65" x="367.773438"/>
      <use xlink:href="#DejaVuSans-70" x="429.296875"/>
     </g>
    </g>
   </g>
   <g id="matplotlib.axis_2">
    <g id="ytick_1">
     <g id="line2d_11">
      <path d="M 72 235.872 
L 452.930233 235.872 
" clip-path="url(#p8edeae8a13)" style="fill: none; stroke: #dcdcdc; stroke-width: 0.5; stroke-linecap: square"/>
     </g>
     <g id="line2d_12">
      <defs>
       <path id="m7b5b9c21c8" d="M 0 0 
L -3.5 0 
" style="stroke: #000000; stroke-width: 0.8"/>
      </defs>
      <g>
       <use xlink:href="#m7b5b9c21c8" x="72" y="235.872" style="stroke: #000000; stroke-width: 0.8"/>
      </g>
     </g>
     <g id="text_7">
      <!-- 0.0 -->
      <g transform="translate(44.325937 240.810984) scale(0.13 -0.13)">
       <defs>
        <path id="DejaVuSans-2e" d="M 684 794 
L 1344 794 
L 1344 0 
L 684 0 
L 684 794 
z
" transform="scale(0.015625)"/>
       </defs>
       <use xlink:href="#DejaVuSans-30"/>
       <use xlink:href="#DejaVuSans-2e" x="63.623047"/>
       <use xlink:href="#DejaVuSans-30" x="95.410156"/>
      </g>
     </g>
    </g>
    <g id="ytick_2">
     <g id="line2d_13">
      <path d="M 72 185.445689 
L 452.930233 185.445689 
" clip-path="url(#p8edeae8a13)" style="fill: none; stroke: #dcdcdc; stroke-width: 0.5; stroke-linecap: square"/>
     </g>
     <g id="line2d_14">
      <g>
       <use xlink:href="#m7b5b9c21c8" x="72" y="185.445689" style="stroke: #000000; stroke-width: 0.8"/>
      </g>
     </g>
     <g id="text_8">
      <!-- 0.5 -->
      <g transform="translate(44.325937 190.384674) scale(0.13 -0.13)">
       <use xlink:href="#DejaVuSans-30"/>
       <use xlink:href="#DejaVuSans-2e" x="63.623047"/>
       <use xlink:href="#DejaVuSans-35" x="95.410156"/>
      </g>
     </g>
    </g>
    <g id="ytick_3">
     <g id="line2d_15">
      <path d="M 72 135.019379 
L 452.930233 135.019379 
" clip-path="url(#p8edeae8a13)" style="fill: none; stroke: #dcdcdc; stroke-width: 0.5; stroke-linecap: square"/>
     </g>
     <g id="line2d_16">
      <g>
       <use xlink:href="#m7b5b9c21c8" x="72" y="135.019379" style="stroke: #000000; stroke-width: 0.8"/>
      </g>
     </g>
     <g id="text_9">
      <!-- 1.0 -->
      <g transform="translate(44.325937 139.958363) scale(0.13 -0.13)">
       <use xlink:href="#DejaVuSans-31"/>
       <use xlink:href="#DejaVuSans-2e" x="63.623047"/>
       <use xlink:href="#DejaVuSans-30" x="95.410156"/>
      </g>
     </g>
    </g>
    <g id="ytick_4">
     <g id="line2d_17">
      <path d="M 72 84.593068 
L 452.930233 84.593068 
" clip-path="url(#p8edeae8a13)" style="fill: none; stroke: #dcdcdc; stroke-width: 0.5; stroke-linecap: square"/>
     </g>
     <g id="line2d_18">
      <g>
       <use xlink:href="#m7b5b9c21c8" x="72" y="84.593068" style="stroke: #000000; stroke-width: 0.8"/>
      </g>
     </g>
     <g id="text_10">
      <!-- 1.5 -->
      <g transform="translate(44.325937 89.532053) scale(0.13 -0.13)">
       <use xlink:href="#DejaVuSans-31"/>
       <use xlink:href="#DejaVuSans-2e" x="63.623047"/>
       <use xlink:href="#DejaVuSans-35" x="95.410156"/>
      </g>
     </g>
    </g>
    <g id="text_11">
     <!-- Biomass BETU.ALL -->
     <g transform="translate(37.206406 212.174541) rotate(-90) scale(0.15 -0.15)">
      <defs>
       <path id="DejaVuSans-42" d="M 1259 2228 
L 1259 519 
L 2272 519 
Q 2781 519 3026 730 
Q 3272 941 3272 1375 
Q 3272 1813 3026 2020 
Q 2781 2228 2272 2228 
L 1259 2228 
z
M 1259 4147 
L 1259 2741 
L 2194 2741 
Q 2656 2741 2882 2914 
Q 3109 3088 3109 3444 
Q 3109 3797 2882 3972 
Q 2656 4147 2194 4147 
L 1259 4147 
z
M 628 4666 
L 2241 4666 
Q 2963 4666 3353 4366 
Q 3744 4066 3744 3513 
Q 3744 3084 3544 2831 
Q 3344 2578 2956 2516 
Q 3422 2416 3680 2098 
Q 3938 1781 3938 1306 
Q 3938 681 3513 340 
Q 3088 0 2303 0 
L 628 0 
L 628 4666 
z
" transform="scale(0.015625)"/>
       <path id="DejaVuSans-6f" d="M 1959 3097 
Q 1497 3097 1228 2736 
Q 959 2375 959 1747 
Q 959 1119 1226 758 
Q 1494 397 1959 397 
Q 2419 397 2687 759 
Q 2956 1122 2956 1747 
Q 2956 2369 2687 2733 
Q 2419 3097 1959 3097 
z
M 1959 3584 
Q 2709 3584 3137 3096 
Q 3566 2609 3566 1747 
Q 3566 888 3137 398 
Q 2709 -91 1959 -91 
Q 1206 -91 779 398 
Q 353 888 353 1747 
Q 353 2609 779 3096 
Q 1206 3584 1959 3584 
z
" transform="scale(0.015625)"/>
       <path id="DejaVuSans-61" d="M 2194 1759 
Q 1497 1759 1228 1600 
Q 959 1441 959 1056 
Q 959 750 1161 570 
Q 1363 391 1709 391 
Q 2188 391 2477 730 
Q 2766 1069 2766 1631 
L 2766 1759 
L 2194 1759 
z
M 3341 1997 
L 3341 0 
L 2766 0 
L 2766 531 
Q 2569 213 2275 61 
Q 1981 -91 1556 -91 
Q 1019 -91 701 211 
Q 384 513 384 1019 
Q 384 1609 779 1909 
Q 1175 2209 1959 2209 
L 2766 2209 
L 2766 2266 
Q 2766 2663 2505 2880 
Q 2244 3097 1772 3097 
Q 1472 3097 1187 3025 
Q 903 2953 641 2809 
L 641 3341 
Q 956 3463 1253 3523 
Q 1550 3584 1831 3584 
Q 2591 3584 2966 3190 
Q 3341 2797 3341 1997 
z
" transform="scale(0.015625)"/>
       <path id="DejaVuSans-45" d="M 628 4666 
L 3578 4666 
L 3578 4134 
L 1259 4134 
L 1259 2753 
L 3481 2753 
L 3481 2222 
L 1259 2222 
L 1259 531 
L 3634 531 
L 3634 0 
L 628 0 
L 628 4666 
z
" transform="scale(0.015625)"/>
       <path id="DejaVuSans-55" d="M 556 4666 
L 1191 4666 
L 1191 1831 
Q 1191 1081 1462 751 
Q 1734 422 2344 422 
Q 2950 422 3222 751 
Q 3494 1081 3494 1831 
L 3494 4666 
L 4128 4666 
L 4128 1753 
Q 4128 841 3676 375 
Q 3225 -91 2344 -91 
Q 1459 -91 1007 375 
Q 556 841 556 1753 
L 556 4666 
z
" transform="scale(0.015625)"/>
       <path id="DejaVuSans-41" d="M 2188 4044 
L 1331 1722 
L 3047 1722 
L 2188 4044 
z
M 1831 4666 
L 2547 4666 
L 4325 0 
L 3669 0 
L 3244 1197 
L 1141 1197 
L 716 0 
L 50 0 
L 1831 4666 
z
" transform="scale(0.015625)"/>
       <path id="DejaVuSans-4c" d="M 628 4666 
L 1259 4666 
L 1259 531 
L 3531 531 
L 3531 0 
L 628 0 
L 628 4666 
z
" transform="scale(0.015625)"/>
      </defs>
      <use xlink:href="#DejaVuSans-42"/>
      <use xlink:href="#DejaVuSans-69" x="68.603516"/>
      <use xlink:href="#DejaVuSans-6f" x="96.386719"/>
      <use xlink:href="#DejaVuSans-6d" x="157.568359"/>
      <use xlink:href="#DejaVuSans-61" x="254.980469"/>
      <use xlink:href="#DejaVuSans-73" x="316.259766"/>
      <use xlink:href="#DejaVuSans-73" x="368.359375"/>
      <use xlink:href="#DejaVuSans-20" x="420.458984"/>
      <use xlink:href="#DejaVuSans-42" x="452.246094"/>
      <use xlink:href="#DejaVuSans-45" x="520.849609"/>
      <use xlink:href="#DejaVuSans-54" x="584.033203"/>
      <use xlink:href="#DejaVuSans-55" x="645.117188"/>
      <use xlink:href="#DejaVuSans-2e" x="718.310547"/>
      <use xlink:href="#DejaVuSans-41" x="750.097656"/>
      <use xlink:href="#DejaVuSans-4c" x="818.505859"/>
      <use xlink:href="#DejaVuSans-4c" x="874.21875"/>
     </g>
    </g>
    <g id="text_12">
     <!-- 1e4 -->
     <g transform="translate(72 45.9888) scale(0.12 -0.12)">
      <defs>
       <path id="DejaVuSans-34" d="M 2419 4116 
L 825 1625 
L 2419 1625 
L 2419 4116 
z
M 2253 4666 
L 3047 4666 
L 3047 1625 
L 3713 1625 
L 3713 1100 
L 3047 1100 
L 3047 0 
L 2419 0 
L 2419 1100 
L 313 1100 
L 313 1709 
L 2253 4666 
z
" transform="scale(0.015625)"/>
      </defs>
      <use xlink:href="#DejaVuSans-31"/>
      <use xlink:href="#DejaVuSans-65" x="63.623047"/>
      <use xlink:href="#DejaVuSans-34" x="125.146484"/>
     </g>
    </g>
   </g>
   <g id="PolyCollection_1">
    <defs>
     <path id="m019309d6a4" d="M 89.315011 -65.048576 
L 89.315011 -71.155679 
L 106.630021 -75.024429 
L 123.945032 -81.848401 
L 141.260042 -91.727152 
L 158.575053 -101.731342 
L 175.890063 -121.109348 
L 193.205074 -137.975144 
L 210.520085 -153.345205 
L 227.835095 -168.39222 
L 245.150106 -177.403331 
L 262.465116 -191.673919 
L 279.780127 -193.734936 
L 297.095137 -201.835625 
L 314.410148 -212.801448 
L 331.725159 -219.762042 
L 349.040169 -228.191721 
L 366.35518 -234.69124 
L 383.67019 -242.160182 
L 400.985201 -239.650573 
L 418.300211 -244.512 
L 435.615222 -233.342896 
L 435.615222 -9.678929 
L 435.615222 -9.678929 
L 418.300211 -9.63863 
L 400.985201 -11.192414 
L 383.67019 -10.390119 
L 366.35518 -12.777339 
L 349.040169 -14.854753 
L 331.725159 -17.548822 
L 314.410148 -19.773457 
L 297.095137 -23.278002 
L 279.780127 -25.866652 
L 262.465116 -26.526624 
L 245.150106 -31.087606 
L 227.835095 -33.968128 
L 210.520085 -38.777109 
L 193.205074 -43.689277 
L 175.890063 -49.07974 
L 158.575053 -55.273727 
L 141.260042 -58.471898 
L 123.945032 -61.62979 
L 106.630021 -63.811677 
L 89.315011 -65.048576 
z
"/>
    </defs>
    <g clip-path="url(#p8edeae8a13)">
     <use xlink:href="#m019309d6a4" x="0" y="302.4" style="fill: #fcffa4; fill-opacity: 0.3"/>
    </g>
   </g>
   <g id="PolyCollection_2">
    <defs>
     <path id="m04f8c99413" d="M 89.315011 -65.772454 
L 89.315011 -72.585126 
L 106.630021 -77.155534 
L 123.945032 -84.545706 
L 141.260042 -94.247502 
L 158.575053 -103.399583 
L 175.890063 -120.545047 
L 193.205074 -133.176065 
L 210.520085 -143.293352 
L 227.835095 -154.77312 
L 245.150106 -153.726191 
L 262.465116 -166.70143 
L 279.780127 -161.197067 
L 297.095137 -170.334842 
L 314.410148 -183.21035 
L 331.725159 -190.929747 
L 349.040169 -201.35941 
L 366.35518 -209.600407 
L 383.67019 -219.518342 
L 400.985201 -219.607255 
L 418.300211 -226.821138 
L 435.615222 -224.052417 
L 435.615222 -15.57003 
L 435.615222 -15.57003 
L 418.300211 -15.393705 
L 400.985201 -17.854122 
L 383.67019 -18.041467 
L 366.35518 -21.326688 
L 349.040169 -24.588228 
L 331.725159 -28.047039 
L 314.410148 -32.000639 
L 297.095137 -35.914625 
L 279.780127 -39.422726 
L 262.465116 -45.640584 
L 245.150106 -49.024861 
L 227.835095 -54.880365 
L 210.520085 -56.501547 
L 193.205074 -57.972497 
L 175.890063 -59.674076 
L 158.575053 -61.909207 
L 141.260042 -63.060528 
L 123.945032 -64.276261 
L 106.630021 -65.201297 
L 89.315011 -65.772454 
z
"/>
    </defs>
    <g clip-path="url(#p8edeae8a13)">
     <use xlink:href="#m04f8c99413" x="0" y="302.4" style="fill: #f98e09; fill-opacity: 0.3"/>
    </g>
   </g>
   <g id="PolyCollection_3">
    <defs>
     <path id="me2117bbfc1" d="M 89.315011 -67.485889 
L 89.315011 -74.043909 
L 106.630021 -79.22021 
L 123.945032 -86.993125 
L 141.260042 -97.06888 
L 158.575053 -105.757313 
L 175.890063 -121.875837 
L 193.205074 -131.783354 
L 210.520085 -138.441186 
L 227.835095 -147.935014 
L 245.150106 -141.808759 
L 262.465116 -152.038808 
L 279.780127 -142.082083 
L 297.095137 -149.193897 
L 314.410148 -159.610151 
L 331.725159 -167.149803 
L 349.040169 -178.863876 
L 366.35518 -188.689838 
L 383.67019 -200.658214 
L 400.985201 -202.33501 
L 418.300211 -211.621417 
L 435.615222 -211.913824 
L 435.615222 -21.253813 
L 435.615222 -21.253813 
L 418.300211 -21.976014 
L 400.985201 -25.038806 
L 383.67019 -26.084183 
L 366.35518 -29.52555 
L 349.040169 -32.939949 
L 331.725159 -36.665728 
L 314.410148 -40.822823 
L 297.095137 -45.194455 
L 279.780127 -47.875491 
L 262.465116 -55.825511 
L 245.150106 -58.537119 
L 227.835095 -72.841386 
L 210.520085 -73.160046 
L 193.205074 -74.270459 
L 175.890063 -73.209084 
L 158.575053 -71.425379 
L 141.260042 -70.381293 
L 123.945032 -69.118107 
L 106.630021 -68.137579 
L 89.315011 -67.485889 
z
"/>
    </defs>
    <g clip-path="url(#p8edeae8a13)">
     <use xlink:href="#me2117bbfc1" x="0" y="302.4" style="fill: #bc3754; fill-opacity: 0.3"/>
    </g>
   </g>
   <g id="PolyCollection_4">
    <defs>
     <path id="md8a2a1a9db" d="M 89.315011 -69.00975 
L 89.315011 -74.295054 
L 106.630021 -79.208499 
L 123.945032 -86.151304 
L 141.260042 -95.193508 
L 158.575053 -102.089585 
L 175.890063 -114.723194 
L 193.205074 -122.046981 
L 210.520085 -127.046305 
L 227.835095 -134.297252 
L 245.150106 -126.560936 
L 262.465116 -133.390103 
L 279.780127 -122.480901 
L 297.095137 -125.294302 
L 314.410148 -132.544948 
L 331.725159 -136.932594 
L 349.040169 -144.363001 
L 366.35518 -152.465558 
L 383.67019 -161.881507 
L 400.985201 -161.663261 
L 418.300211 -169.880563 
L 435.615222 -170.140046 
L 435.615222 -24.331811 
L 435.615222 -24.331811 
L 418.300211 -25.881966 
L 400.985201 -29.557431 
L 383.67019 -31.929605 
L 366.35518 -35.983341 
L 349.040169 -39.241382 
L 331.725159 -42.908412 
L 314.410148 -46.081712 
L 297.095137 -49.160933 
L 279.780127 -51.306608 
L 262.465116 -57.685724 
L 245.150106 -60.400991 
L 227.835095 -75.759845 
L 210.520085 -77.136409 
L 193.205074 -82.163084 
L 175.890063 -81.031912 
L 158.575053 -77.611075 
L 141.260042 -75.57508 
L 123.945032 -72.763106 
L 106.630021 -70.571366 
L 89.315011 -69.00975 
z
"/>
    </defs>
    <g clip-path="url(#p8edeae8a13)">
     <use xlink:href="#md8a2a1a9db" x="0" y="302.4" style="fill: #57106e; fill-opacity: 0.3"/>
    </g>
   </g>
   <g id="PolyCollection_5">
    <defs>
     <path id="m8d6aada067" d="M 89.315011 -72.333763 
L 89.315011 -73.261727 
L 106.630021 -77.285583 
L 123.945032 -82.801456 
L 141.260042 -89.705918 
L 158.575053 -94.698798 
L 175.890063 -104.535116 
L 193.205074 -111.266403 
L 210.520085 -117.083587 
L 227.835095 -122.874263 
L 245.150106 -115.978652 
L 262.465116 -121.27525 
L 279.780127 -112.665423 
L 297.095137 -113.398023 
L 314.410148 -118.148207 
L 331.725159 -121.417498 
L 349.040169 -127.559039 
L 366.35518 -134.75216 
L 383.67019 -144.894066 
L 400.985201 -144.789408 
L 418.300211 -152.869476 
L 435.615222 -153.135755 
L 435.615222 -30.276644 
L 435.615222 -30.276644 
L 418.300211 -32.083024 
L 400.985201 -35.546987 
L 383.67019 -38.092817 
L 366.35518 -41.910779 
L 349.040169 -45.241729 
L 331.725159 -48.375602 
L 314.410148 -51.219779 
L 297.095137 -53.473135 
L 279.780127 -55.473412 
L 262.465116 -60.208929 
L 245.150106 -62.268722 
L 227.835095 -75.831227 
L 210.520085 -78.073866 
L 193.205074 -93.225203 
L 175.890063 -93.687652 
L 158.575053 -88.692261 
L 141.260042 -85.440601 
L 123.945032 -80.262354 
L 106.630021 -75.697644 
L 89.315011 -72.333763 
z
"/>
    </defs>
    <g clip-path="url(#p8edeae8a13)">
     <use xlink:href="#m8d6aada067" x="0" y="302.4" style="fill: #000004; fill-opacity: 0.3"/>
    </g>
   </g>
   <g id="line2d_19">
    <path d="M 89.315011 234.297872 
L 106.630021 232.981947 
L 123.945032 230.660905 
L 141.260042 227.300475 
L 158.575053 223.897466 
L 175.890063 217.305456 
L 193.205074 211.567789 
L 210.520085 206.338843 
L 227.835095 201.219826 
L 245.150106 198.154532 
L 262.465116 193.299728 
L 279.780127 192.599206 
L 297.095137 189.843186 
L 314.410148 186.112547 
L 331.725159 183.744568 
L 349.040169 180.876763 
L 366.35518 178.665711 
L 383.67019 176.12485 
L 400.985201 176.978507 
L 418.300211 175.324685 
L 435.615222 180.889087 
" clip-path="url(#p8edeae8a13)" style="fill: none; stroke: #fcffa4; stroke-linecap: square"/>
   </g>
   <g id="line2d_20">
    <path d="M 89.315011 233.22121 
L 106.630021 231.221585 
L 123.945032 227.989016 
L 141.260042 223.745985 
L 158.575053 219.745605 
L 175.890063 212.290438 
L 193.205074 206.825719 
L 210.520085 202.50255 
L 227.835095 197.573257 
L 245.150106 201.024474 
L 262.465116 196.228993 
L 279.780127 202.090103 
L 297.095137 199.275266 
L 314.410148 194.794506 
L 331.725159 192.911607 
L 349.040169 189.426181 
L 366.35518 186.936452 
L 383.67019 183.620096 
L 400.985201 183.669312 
L 418.300211 181.292578 
L 435.615222 182.588777 
" clip-path="url(#p8edeae8a13)" style="fill: none; stroke: #f98e09; stroke-linecap: square"/>
   </g>
   <g id="line2d_21">
    <path d="M 89.315011 231.635101 
L 106.630021 228.721105 
L 123.945032 224.344384 
L 141.260042 218.674914 
L 158.575053 213.808654 
L 175.890063 204.85754 
L 193.205074 199.373093 
L 210.520085 196.599384 
L 227.835095 192.0118 
L 245.150106 202.227061 
L 262.465116 198.46784 
L 279.780127 207.421213 
L 297.095137 205.205824 
L 314.410148 202.183513 
L 331.725159 200.492235 
L 349.040169 196.498088 
L 366.35518 193.292306 
L 383.67019 189.028801 
L 400.985201 188.713092 
L 418.300211 185.601285 
L 435.615222 185.816182 
" clip-path="url(#p8edeae8a13)" style="fill: none; stroke: #bc3754; stroke-linecap: square"/>
   </g>
   <g id="line2d_22">
    <path d="M 89.315011 230.747598 
L 106.630021 227.510067 
L 123.945032 222.942795 
L 141.260042 217.015706 
L 158.575053 212.54967 
L 175.890063 204.522447 
L 193.205074 200.294967 
L 210.520085 200.308643 
L 227.835095 197.371451 
L 245.150106 208.919036 
L 262.465116 206.862086 
L 279.780127 215.506245 
L 297.095137 215.172383 
L 314.410148 213.08667 
L 331.725159 212.479497 
L 349.040169 210.597809 
L 366.35518 208.175551 
L 383.67019 205.494444 
L 400.985201 206.789654 
L 418.300211 204.518735 
L 435.615222 205.164071 
" clip-path="url(#p8edeae8a13)" style="fill: none; stroke: #57106e; stroke-linecap: square"/>
   </g>
   <g id="line2d_23">
    <path d="M 89.315011 229.602255 
L 106.630021 225.908386 
L 123.945032 220.868095 
L 141.260042 214.826741 
L 158.575053 210.70447 
L 175.890063 203.288616 
L 193.205074 200.154197 
L 210.520085 204.821273 
L 227.835095 203.047255 
L 245.150106 213.276313 
L 262.465116 211.657911 
L 279.780127 218.330583 
L 297.095137 218.964421 
L 314.410148 217.716007 
L 331.725159 217.50345 
L 349.040169 215.999616 
L 366.35518 214.068531 
L 383.67019 210.906559 
L 400.985201 212.231803 
L 418.300211 209.92375 
L 435.615222 210.6938 
" clip-path="url(#p8edeae8a13)" style="fill: none; stroke: #000004; stroke-linecap: square"/>
   </g>
   <g id="patch_3">
    <path d="M 72 235.872 
L 72 48.9888 
" style="fill: none; stroke: #000000; stroke-width: 0.8; stroke-linejoin: miter; stroke-linecap: square"/>
   </g>
   <g id="patch_4">
    <path d="M 72 235.872 
L 452.930233 235.872 
" style="fill: none; stroke: #000000; stroke-width: 0.8; stroke-linejoin: miter; stroke-linecap: square"/>
   </g>
   <g id="text_13">
    <!-- PnET -->
    <g transform="translate(242.770116 289.674624) scale(0.16 -0.16)">
     <defs>
      <path id="DejaVuSans-50" d="M 1259 4147 
L 1259 2394 
L 2053 2394 
Q 2494 2394 2734 2622 
Q 2975 2850 2975 3272 
Q 2975 3691 2734 3919 
Q 2494 4147 2053 4147 
L 1259 4147 
z
M 628 4666 
L 2053 4666 
Q 2838 4666 3239 4311 
Q 3641 3956 3641 3272 
Q 3641 2581 3239 2228 
Q 2838 1875 2053 1875 
L 1259 1875 
L 1259 0 
L 628 0 
L 628 4666 
z
" transform="scale(0.015625)"/>
      <path id="DejaVuSans-6e" d="M 3513 2113 
L 3513 0 
L 2938 0 
L 2938 2094 
Q 2938 2591 2744 2837 
Q 2550 3084 2163 3084 
Q 1697 3084 1428 2787 
Q 1159 2491 1159 1978 
L 1159 0 
L 581 0 
L 581 3500 
L 1159 3500 
L 1159 2956 
Q 1366 3272 1645 3428 
Q 1925 3584 2291 3584 
Q 2894 3584 3203 3211 
Q 3513 2838 3513 2113 
z
" transform="scale(0.015625)"/>
     </defs>
     <use xlink:href="#DejaVuSans-50"/>
     <use xlink:href="#DejaVuSans-6e" x="58.552734"/>
     <use xlink:href="#DejaVuSans-45" x="121.931641"/>
     <use xlink:href="#DejaVuSans-54" x="185.115234"/>
    </g>
   </g>
   <g id="legend_1">
    <g id="patch_5">
     <path d="M 266.5125 37.164 
L 633.4875 37.164 
Q 635.8875 37.164 635.8875 34.764 
L 635.8875 11.424 
Q 635.8875 9.024 633.4875 9.024 
L 266.5125 9.024 
Q 264.1125 9.024 264.1125 11.424 
L 264.1125 34.764 
Q 264.1125 37.164 266.5125 37.164 
z
" style="fill: #ffffff; opacity: 0.8; stroke: #cccccc; stroke-linejoin: miter"/>
    </g>
    <g id="patch_6">
     <path d="M 268.9125 32.364 
L 304.9125 32.364 
L 304.9125 13.824 
L 268.9125 13.824 
z
" style="fill: #fcffa4; fill-opacity: 0.3"/>
    </g>
    <g id="line2d_24">
     <path d="M 268.9125 20.364 
L 286.9125 20.364 
L 304.9125 20.364 
" style="fill: none; stroke: #fcffa4; stroke-linecap: square"/>
    </g>
    <g id="text_14">
     <!-- 1 -->
     <g transform="translate(314.5125 26.904) scale(0.12 -0.12)">
      <use xlink:href="#DejaVuSans-31"/>
     </g>
    </g>
    <g id="patch_7">
     <path d="M 346.1475 32.364 
L 382.1475 32.364 
L 382.1475 13.824 
L 346.1475 13.824 
z
" style="fill: #f98e09; fill-opacity: 0.3"/>
    </g>
    <g id="line2d_25">
     <path d="M 346.1475 20.364 
L 364.1475 20.364 
L 382.1475 20.364 
" style="fill: none; stroke: #f98e09; stroke-linecap: square"/>
    </g>
    <g id="text_15">
     <!-- 2 -->
     <g transform="translate(391.7475 26.904) scale(0.12 -0.12)">
      <use xlink:href="#DejaVuSans-32"/>
     </g>
    </g>
    <g id="patch_8">
     <path d="M 423.3825 32.364 
L 459.3825 32.364 
L 459.3825 13.824 
L 423.3825 13.824 
z
" style="fill: #bc3754; fill-opacity: 0.3"/>
    </g>
    <g id="line2d_26">
     <path d="M 423.3825 20.364 
L 441.3825 20.364 
L 459.3825 20.364 
" style="fill: none; stroke: #bc3754; stroke-linecap: square"/>
    </g>
    <g id="text_16">
     <!-- 3 -->
     <g transform="translate(468.9825 26.904) scale(0.12 -0.12)">
      <defs>
       <path id="DejaVuSans-33" d="M 2597 2516 
Q 3050 2419 3304 2112 
Q 3559 1806 3559 1356 
Q 3559 666 3084 287 
Q 2609 -91 1734 -91 
Q 1441 -91 1130 -33 
Q 819 25 488 141 
L 488 750 
Q 750 597 1062 519 
Q 1375 441 1716 441 
Q 2309 441 2620 675 
Q 2931 909 2931 1356 
Q 2931 1769 2642 2001 
Q 2353 2234 1838 2234 
L 1294 2234 
L 1294 2753 
L 1863 2753 
Q 2328 2753 2575 2939 
Q 2822 3125 2822 3475 
Q 2822 3834 2567 4026 
Q 2313 4219 1838 4219 
Q 1578 4219 1281 4162 
Q 984 4106 628 3988 
L 628 4550 
Q 988 4650 1302 4700 
Q 1616 4750 1894 4750 
Q 2613 4750 3031 4423 
Q 3450 4097 3450 3541 
Q 3450 3153 3228 2886 
Q 3006 2619 2597 2516 
z
" transform="scale(0.015625)"/>
      </defs>
      <use xlink:href="#DejaVuSans-33"/>
     </g>
    </g>
    <g id="patch_9">
     <path d="M 500.6175 32.364 
L 536.6175 32.364 
L 536.6175 13.824 
L 500.6175 13.824 
z
" style="fill: #57106e; fill-opacity: 0.3"/>
    </g>
    <g id="line2d_27">
     <path d="M 500.6175 20.364 
L 518.6175 20.364 
L 536.6175 20.364 
" style="fill: none; stroke: #57106e; stroke-linecap: square"/>
    </g>
    <g id="text_17">
     <!-- 4 -->
     <g transform="translate(546.2175 26.904) scale(0.12 -0.12)">
      <use xlink:href="#DejaVuSans-34"/>
     </g>
    </g>
    <g id="patch_10">
     <path d="M 577.8525 32.364 
L 613.8525 32.364 
L 613.8525 13.824 
L 577.8525 13.824 
z
" style="fill: #000004; fill-opacity: 0.3"/>
    </g>
    <g id="line2d_28">
     <path d="M 577.8525 20.364 
L 595.8525 20.364 
L 613.8525 20.364 
" style="fill: none; stroke: #000004; stroke-linecap: square"/>
    </g>
    <g id="text_18">
     <!-- 5 -->
     <g transform="translate(623.4525 26.904) scale(0.12 -0.12)">
      <use xlink:href="#DejaVuSans-35"/>
     </g>
    </g>
   </g>
  </g>
  <g id="axes_2">
   <g id="patch_11">
    <path d="M 510.069767 235.872 
L 891 235.872 
L 891 48.9888 
L 510.069767 48.9888 
z
" style="fill: #fcfcfc"/>
   </g>
   <g id="matplotlib.axis_3">
    <g id="xtick_6">
     <g id="line2d_29">
      <path d="M 527.384778 235.872 
L 527.384778 48.9888 
" clip-path="url(#pe1f7ab4051)" style="fill: none; stroke: #dcdcdc; stroke-width: 0.5; stroke-linecap: square"/>
     </g>
     <g id="line2d_30">
      <g>
       <use xlink:href="#md889206593" x="527.384778" y="235.872" style="stroke: #000000; stroke-width: 0.8"/>
      </g>
     </g>
     <g id="text_19">
      <!-- 0 -->
      <g transform="translate(523.249153 252.749969) scale(0.13 -0.13)">
       <use xlink:href="#DejaVuSans-30"/>
      </g>
     </g>
    </g>
    <g id="xtick_7">
     <g id="line2d_31">
      <path d="M 613.959831 235.872 
L 613.959831 48.9888 
" clip-path="url(#pe1f7ab4051)" style="fill: none; stroke: #dcdcdc; stroke-width: 0.5; stroke-linecap: square"/>
     </g>
     <g id="line2d_32">
      <g>
       <use xlink:href="#md889206593" x="613.959831" y="235.872" style="stroke: #000000; stroke-width: 0.8"/>
      </g>
     </g>
     <g id="text_20">
      <!-- 25 -->
      <g transform="translate(605.688581 252.749969) scale(0.13 -0.13)">
       <use xlink:href="#DejaVuSans-32"/>
       <use xlink:href="#DejaVuSans-35" x="63.623047"/>
      </g>
     </g>
    </g>
    <g id="xtick_8">
     <g id="line2d_33">
      <path d="M 700.534884 235.872 
L 700.534884 48.9888 
" clip-path="url(#pe1f7ab4051)" style="fill: none; stroke: #dcdcdc; stroke-width: 0.5; stroke-linecap: square"/>
     </g>
     <g id="line2d_34">
      <g>
       <use xlink:href="#md889206593" x="700.534884" y="235.872" style="stroke: #000000; stroke-width: 0.8"/>
      </g>
     </g>
     <g id="text_21">
      <!-- 50 -->
      <g transform="translate(692.263634 252.749969) scale(0.13 -0.13)">
       <use xlink:href="#DejaVuSans-35"/>
       <use xlink:href="#DejaVuSans-30" x="63.623047"/>
      </g>
     </g>
    </g>
    <g id="xtick_9">
     <g id="line2d_35">
      <path d="M 787.109937 235.872 
L 787.109937 48.9888 
" clip-path="url(#pe1f7ab4051)" style="fill: none; stroke: #dcdcdc; stroke-width: 0.5; stroke-linecap: square"/>
     </g>
     <g id="line2d_36">
      <g>
       <use xlink:href="#md889206593" x="787.109937" y="235.872" style="stroke: #000000; stroke-width: 0.8"/>
      </g>
     </g>
     <g id="text_22">
      <!-- 75 -->
      <g transform="translate(778.838687 252.749969) scale(0.13 -0.13)">
       <use xlink:href="#DejaVuSans-37"/>
       <use xlink:href="#DejaVuSans-35" x="63.623047"/>
      </g>
     </g>
    </g>
    <g id="xtick_10">
     <g id="line2d_37">
      <path d="M 873.684989 235.872 
L 873.684989 48.9888 
" clip-path="url(#pe1f7ab4051)" style="fill: none; stroke: #dcdcdc; stroke-width: 0.5; stroke-linecap: square"/>
     </g>
     <g id="line2d_38">
      <g>
       <use xlink:href="#md889206593" x="873.684989" y="235.872" style="stroke: #000000; stroke-width: 0.8"/>
      </g>
     </g>
     <g id="text_23">
      <!-- 100 -->
      <g transform="translate(861.278114 252.749969) scale(0.13 -0.13)">
       <use xlink:href="#DejaVuSans-31"/>
       <use xlink:href="#DejaVuSans-30" x="63.623047"/>
       <use xlink:href="#DejaVuSans-30" x="127.246094"/>
      </g>
     </g>
    </g>
    <g id="text_24">
     <!-- Time step -->
     <g transform="translate(663.577462 270.851219) scale(0.15 -0.15)">
      <use xlink:href="#DejaVuSans-54"/>
      <use xlink:href="#DejaVuSans-69" x="57.958984"/>
      <use xlink:href="#DejaVuSans-6d" x="85.742188"/>
      <use xlink:href="#DejaVuSans-65" x="183.154297"/>
      <use xlink:href="#DejaVuSans-20" x="244.677734"/>
      <use xlink:href="#DejaVuSans-73" x="276.464844"/>
      <use xlink:href="#DejaVuSans-74" x="328.564453"/>
      <use xlink:href="#DejaVuSans-65" x="367.773438"/>
      <use xlink:href="#DejaVuSans-70" x="429.296875"/>
     </g>
    </g>
   </g>
   <g id="matplotlib.axis_4">
    <g id="ytick_5">
     <g id="line2d_39">
      <path d="M 510.069767 235.872 
L 891 235.872 
" clip-path="url(#pe1f7ab4051)" style="fill: none; stroke: #dcdcdc; stroke-width: 0.5; stroke-linecap: square"/>
     </g>
    </g>
    <g id="ytick_6">
     <g id="line2d_40">
      <path d="M 510.069767 185.445689 
L 891 185.445689 
" clip-path="url(#pe1f7ab4051)" style="fill: none; stroke: #dcdcdc; stroke-width: 0.5; stroke-linecap: square"/>
     </g>
    </g>
    <g id="ytick_7">
     <g id="line2d_41">
      <path d="M 510.069767 135.019379 
L 891 135.019379 
" clip-path="url(#pe1f7ab4051)" style="fill: none; stroke: #dcdcdc; stroke-width: 0.5; stroke-linecap: square"/>
     </g>
    </g>
    <g id="ytick_8">
     <g id="line2d_42">
      <path d="M 510.069767 84.593068 
L 891 84.593068 
" clip-path="url(#pe1f7ab4051)" style="fill: none; stroke: #dcdcdc; stroke-width: 0.5; stroke-linecap: square"/>
     </g>
    </g>
   </g>
   <g id="PolyCollection_6">
    <defs>
     <path id="m5752e05a91" d="M 527.384778 -64.707237 
L 527.384778 -72.22453 
L 544.699789 -74.117147 
L 562.014799 -76.383307 
L 579.32981 -78.942076 
L 596.64482 -81.637811 
L 613.959831 -84.321095 
L 631.274841 -87.710565 
L 648.589852 -90.598585 
L 665.904863 -93.190794 
L 683.219873 -95.378786 
L 700.534884 -97.106923 
L 717.849894 -98.128559 
L 735.164905 -98.824362 
L 752.479915 -99.249097 
L 769.794926 -99.681803 
L 787.109937 -100.07163 
L 804.424947 -100.407576 
L 821.739958 -100.71675 
L 839.054968 -101.018176 
L 856.369979 -101.378963 
L 873.684989 -101.658345 
L 873.684989 -55.271568 
L 873.684989 -55.271568 
L 856.369979 -55.365503 
L 839.054968 -55.483114 
L 821.739958 -55.583036 
L 804.424947 -55.682518 
L 787.109937 -55.790335 
L 769.794926 -55.916694 
L 752.479915 -56.056605 
L 735.164905 -56.191207 
L 717.849894 -56.412559 
L 700.534884 -56.736618 
L 683.219873 -57.286029 
L 665.904863 -57.985477 
L 648.589852 -58.819382 
L 631.274841 -59.744769 
L 613.959831 -60.840851 
L 596.64482 -61.6985 
L 579.32981 -62.560129 
L 562.014799 -63.37798 
L 544.699789 -64.102305 
L 527.384778 -64.707237 
z
"/>
    </defs>
    <g clip-path="url(#pe1f7ab4051)">
     <use xlink:href="#m5752e05a91" x="0" y="302.4" style="fill: #fcffa4; fill-opacity: 0.3"/>
    </g>
   </g>
   <g id="PolyCollection_7">
    <defs>
     <path id="m96d7650edb" d="M 527.384778 -65.837116 
L 527.384778 -72.053194 
L 544.699789 -72.700243 
L 562.014799 -73.375504 
L 579.32981 -74.177002 
L 596.64482 -75.10923 
L 613.959831 -76.087181 
L 631.274841 -77.891714 
L 648.589852 -79.589033 
L 665.904863 -80.830989 
L 683.219873 -81.485041 
L 700.534884 -81.850879 
L 717.849894 -82.119468 
L 735.164905 -82.417235 
L 752.479915 -82.576239 
L 769.794926 -82.691242 
L 787.109937 -82.875192 
L 804.424947 -83.022684 
L 821.739958 -83.140541 
L 839.054968 -83.255257 
L 856.369979 -83.340645 
L 873.684989 -83.361893 
L 873.684989 -62.980956 
L 873.684989 -62.980956 
L 856.369979 -62.98756 
L 839.054968 -63.013566 
L 821.739958 -63.047035 
L 804.424947 -63.080902 
L 787.109937 -63.121006 
L 769.794926 -63.161705 
L 752.479915 -63.188482 
L 735.164905 -63.225414 
L 717.849894 -63.310423 
L 700.534884 -63.389247 
L 683.219873 -63.494643 
L 665.904863 -63.68671 
L 648.589852 -64.004332 
L 631.274841 -64.445914 
L 613.959831 -64.917982 
L 596.64482 -65.178266 
L 579.32981 -65.413683 
L 562.014799 -65.598729 
L 544.699789 -65.735559 
L 527.384778 -65.837116 
z
"/>
    </defs>
    <g clip-path="url(#pe1f7ab4051)">
     <use xlink:href="#m96d7650edb" x="0" y="302.4" style="fill: #f98e09; fill-opacity: 0.3"/>
    </g>
   </g>
   <g id="PolyCollection_8">
    <defs>
     <path id="me29c063ada" d="M 527.384778 -67.376223 
L 527.384778 -73.081835 
L 544.699789 -73.405036 
L 562.014799 -73.580708 
L 579.32981 -73.799137 
L 596.64482 -74.064563 
L 613.959831 -74.342564 
L 631.274841 -75.046823 
L 648.589852 -75.411531 
L 665.904863 -75.559731 
L 683.219873 -75.734793 
L 700.534884 -75.89637 
L 717.849894 -76.00335 
L 735.164905 -76.058877 
L 752.479915 -76.071427 
L 769.794926 -76.071427 
L 787.109937 -76.071427 
L 804.424947 -76.071427 
L 821.739958 -76.071427 
L 839.054968 -76.071427 
L 856.369979 -76.071427 
L 873.684989 -76.071427 
L 873.684989 -66.679132 
L 873.684989 -66.679132 
L 856.369979 -66.679132 
L 839.054968 -66.679132 
L 821.739958 -66.679132 
L 804.424947 -66.679132 
L 787.109937 -66.679132 
L 769.794926 -66.679132 
L 752.479915 -66.679132 
L 735.164905 -66.684381 
L 717.849894 -66.703923 
L 700.534884 -66.750432 
L 683.219873 -66.812569 
L 665.904863 -66.886616 
L 648.589852 -66.94296 
L 631.274841 -67.070543 
L 613.959831 -67.238306 
L 596.64482 -67.310084 
L 579.32981 -67.363881 
L 562.014799 -67.392546 
L 544.699789 -67.400561 
L 527.384778 -67.376223 
z
"/>
    </defs>
    <g clip-path="url(#pe1f7ab4051)">
     <use xlink:href="#me29c063ada" x="0" y="302.4" style="fill: #bc3754; fill-opacity: 0.3"/>
    </g>
   </g>
   <g id="PolyCollection_9">
    <defs>
     <path id="m71c2b21088" d="M 527.384778 -68.714388 
L 527.384778 -73.293331 
L 544.699789 -73.397001 
L 562.014799 -73.397001 
L 579.32981 -73.397001 
L 596.64482 -73.397001 
L 613.959831 -73.397001 
L 631.274841 -73.499722 
L 648.589852 -73.499722 
L 665.904863 -73.499722 
L 683.219873 -73.499722 
L 700.534884 -73.499722 
L 717.849894 -73.499722 
L 735.164905 -73.499722 
L 752.479915 -73.499722 
L 769.794926 -73.499722 
L 787.109937 -73.499722 
L 804.424947 -73.499722 
L 821.739958 -73.499722 
L 839.054968 -73.499722 
L 856.369979 -73.499722 
L 873.684989 -73.499722 
L 873.684989 -68.730074 
L 873.684989 -68.730074 
L 856.369979 -68.730074 
L 839.054968 -68.730074 
L 821.739958 -68.730074 
L 804.424947 -68.730074 
L 787.109937 -68.730074 
L 769.794926 -68.730074 
L 752.479915 -68.730074 
L 735.164905 -68.730074 
L 717.849894 -68.730074 
L 700.534884 -68.730074 
L 683.219873 -68.730074 
L 665.904863 -68.730074 
L 648.589852 -68.730074 
L 631.274841 -68.730074 
L 613.959831 -68.734323 
L 596.64482 -68.734323 
L 579.32981 -68.734323 
L 562.014799 -68.734323 
L 544.699789 -68.734323 
L 527.384778 -68.714388 
z
"/>
    </defs>
    <g clip-path="url(#pe1f7ab4051)">
     <use xlink:href="#m71c2b21088" x="0" y="302.4" style="fill: #57106e; fill-opacity: 0.3"/>
    </g>
   </g>
   <g id="PolyCollection_10">
    <defs>
     <path id="m49c8bf040c" d="M 527.384778 -71.794305 
L 527.384778 -71.8039 
L 544.699789 -71.8039 
L 562.014799 -71.8039 
L 579.32981 -71.8039 
L 596.64482 -71.8039 
L 613.959831 -71.8039 
L 631.274841 -71.8039 
L 648.589852 -71.8039 
L 665.904863 -71.8039 
L 683.219873 -71.8039 
L 700.534884 -71.8039 
L 717.849894 -71.8039 
L 735.164905 -71.8039 
L 752.479915 -71.8039 
L 769.794926 -71.8039 
L 787.109937 -71.8039 
L 804.424947 -71.8039 
L 821.739958 -71.8039 
L 839.054968 -71.8039 
L 856.369979 -71.8039 
L 873.684989 -71.8039 
L 873.684989 -71.794305 
L 873.684989 -71.794305 
L 856.369979 -71.794305 
L 839.054968 -71.794305 
L 821.739958 -71.794305 
L 804.424947 -71.794305 
L 787.109937 -71.794305 
L 769.794926 -71.794305 
L 752.479915 -71.794305 
L 735.164905 -71.794305 
L 717.849894 -71.794305 
L 700.534884 -71.794305 
L 683.219873 -71.794305 
L 665.904863 -71.794305 
L 648.589852 -71.794305 
L 631.274841 -71.794305 
L 613.959831 -71.794305 
L 596.64482 -71.794305 
L 579.32981 -71.794305 
L 562.014799 -71.794305 
L 544.699789 -71.794305 
L 527.384778 -71.794305 
z
"/>
    </defs>
    <g clip-path="url(#pe1f7ab4051)">
     <use xlink:href="#m49c8bf040c" x="0" y="302.4" style="fill: #000004; fill-opacity: 0.3"/>
    </g>
   </g>
   <g id="line2d_43">
    <path d="M 527.384778 233.934117 
L 544.699789 233.290274 
L 562.014799 232.519356 
L 579.32981 231.648897 
L 596.64482 230.731844 
L 613.959831 229.819027 
L 631.274841 228.672333 
L 648.589852 227.691017 
L 665.904863 226.811864 
L 683.219873 226.067592 
L 700.534884 225.47823 
L 717.849894 225.129441 
L 735.164905 224.892215 
L 752.479915 224.747149 
L 769.794926 224.600751 
L 787.109937 224.469018 
L 804.424947 224.354953 
L 821.739958 224.250107 
L 839.054968 224.149355 
L 856.369979 224.027767 
L 873.684989 223.935043 
" clip-path="url(#pe1f7ab4051)" style="fill: none; stroke: #fcffa4; stroke-linecap: square"/>
   </g>
   <g id="line2d_44">
    <path d="M 527.384778 233.454845 
L 544.699789 233.182099 
L 562.014799 232.912883 
L 579.32981 232.604657 
L 596.64482 232.256252 
L 613.959831 231.897418 
L 631.274841 231.231186 
L 648.589852 230.603318 
L 665.904863 230.141151 
L 683.219873 229.910158 
L 700.534884 229.779937 
L 717.849894 229.685055 
L 735.164905 229.578675 
L 752.479915 229.517639 
L 769.794926 229.473526 
L 787.109937 229.401901 
L 804.424947 229.348207 
L 821.739958 229.306212 
L 839.054968 229.265589 
L 856.369979 229.235898 
L 873.684989 229.228576 
" clip-path="url(#pe1f7ab4051)" style="fill: none; stroke: #f98e09; stroke-linecap: square"/>
   </g>
   <g id="line2d_45">
    <path d="M 527.384778 232.170971 
L 544.699789 231.997202 
L 562.014799 231.913373 
L 579.32981 231.818491 
L 596.64482 231.712677 
L 613.959831 231.609565 
L 631.274841 231.341317 
L 648.589852 231.222755 
L 665.904863 231.176826 
L 683.219873 231.126319 
L 700.534884 231.076599 
L 717.849894 231.046363 
L 735.164905 231.028371 
L 752.479915 231.02472 
L 769.794926 231.02472 
L 787.109937 231.02472 
L 804.424947 231.02472 
L 821.739958 231.02472 
L 839.054968 231.02472 
L 856.369979 231.02472 
L 873.684989 231.02472 
" clip-path="url(#pe1f7ab4051)" style="fill: none; stroke: #bc3754; stroke-linecap: square"/>
   </g>
   <g id="line2d_46">
    <path d="M 527.384778 231.39614 
L 544.699789 231.334338 
L 562.014799 231.334338 
L 579.32981 231.334338 
L 596.64482 231.334338 
L 613.959831 231.334338 
L 631.274841 231.285102 
L 648.589852 231.285102 
L 665.904863 231.285102 
L 683.219873 231.285102 
L 700.534884 231.285102 
L 717.849894 231.285102 
L 735.164905 231.285102 
L 752.479915 231.285102 
L 769.794926 231.285102 
L 787.109937 231.285102 
L 804.424947 231.285102 
L 821.739958 231.285102 
L 839.054968 231.285102 
L 856.369979 231.285102 
L 873.684989 231.285102 
" clip-path="url(#pe1f7ab4051)" style="fill: none; stroke: #57106e; stroke-linecap: square"/>
   </g>
   <g id="line2d_47">
    <path d="M 527.384778 230.600897 
L 544.699789 230.600897 
L 562.014799 230.600897 
L 579.32981 230.600897 
L 596.64482 230.600897 
L 613.959831 230.600897 
L 631.274841 230.600897 
L 648.589852 230.600897 
L 665.904863 230.600897 
L 683.219873 230.600897 
L 700.534884 230.600897 
L 717.849894 230.600897 
L 735.164905 230.600897 
L 752.479915 230.600897 
L 769.794926 230.600897 
L 787.109937 230.600897 
L 804.424947 230.600897 
L 821.739958 230.600897 
L 839.054968 230.600897 
L 856.369979 230.600897 
L 873.684989 230.600897 
" clip-path="url(#pe1f7ab4051)" style="fill: none; stroke: #000004; stroke-linecap: square"/>
   </g>
   <g id="patch_12">
    <path d="M 510.069767 235.872 
L 891 235.872 
" style="fill: none; stroke: #000000; stroke-width: 0.8; stroke-linejoin: miter; stroke-linecap: square"/>
   </g>
   <g id="text_25">
    <!-- BiomassSuccession -->
    <g transform="translate(622.507384 289.674624) scale(0.16 -0.16)">
     <defs>
      <path id="DejaVuSans-53" d="M 3425 4513 
L 3425 3897 
Q 3066 4069 2747 4153 
Q 2428 4238 2131 4238 
Q 1616 4238 1336 4038 
Q 1056 3838 1056 3469 
Q 1056 3159 1242 3001 
Q 1428 2844 1947 2747 
L 2328 2669 
Q 3034 2534 3370 2195 
Q 3706 1856 3706 1288 
Q 3706 609 3251 259 
Q 2797 -91 1919 -91 
Q 1588 -91 1214 -16 
Q 841 59 441 206 
L 441 856 
Q 825 641 1194 531 
Q 1563 422 1919 422 
Q 2459 422 2753 634 
Q 3047 847 3047 1241 
Q 3047 1584 2836 1778 
Q 2625 1972 2144 2069 
L 1759 2144 
Q 1053 2284 737 2584 
Q 422 2884 422 3419 
Q 422 4038 858 4394 
Q 1294 4750 2059 4750 
Q 2388 4750 2728 4690 
Q 3069 4631 3425 4513 
z
" transform="scale(0.015625)"/>
      <path id="DejaVuSans-75" d="M 544 1381 
L 544 3500 
L 1119 3500 
L 1119 1403 
Q 1119 906 1312 657 
Q 1506 409 1894 409 
Q 2359 409 2629 706 
Q 2900 1003 2900 1516 
L 2900 3500 
L 3475 3500 
L 3475 0 
L 2900 0 
L 2900 538 
Q 2691 219 2414 64 
Q 2138 -91 1772 -91 
Q 1169 -91 856 284 
Q 544 659 544 1381 
z
M 1991 3584 
L 1991 3584 
z
" transform="scale(0.015625)"/>
      <path id="DejaVuSans-63" d="M 3122 3366 
L 3122 2828 
Q 2878 2963 2633 3030 
Q 2388 3097 2138 3097 
Q 1578 3097 1268 2742 
Q 959 2388 959 1747 
Q 959 1106 1268 751 
Q 1578 397 2138 397 
Q 2388 397 2633 464 
Q 2878 531 3122 666 
L 3122 134 
Q 2881 22 2623 -34 
Q 2366 -91 2075 -91 
Q 1284 -91 818 406 
Q 353 903 353 1747 
Q 353 2603 823 3093 
Q 1294 3584 2113 3584 
Q 2378 3584 2631 3529 
Q 2884 3475 3122 3366 
z
" transform="scale(0.015625)"/>
     </defs>
     <use xlink:href="#DejaVuSans-42"/>
     <use xlink:href="#DejaVuSans-69" x="68.603516"/>
     <use xlink:href="#DejaVuSans-6f" x="96.386719"/>
     <use xlink:href="#DejaVuSans-6d" x="157.568359"/>
     <use xlink:href="#DejaVuSans-61" x="254.980469"/>
     <use xlink:href="#DejaVuSans-73" x="316.259766"/>
     <use xlink:href="#DejaVuSans-73" x="368.359375"/>
     <use xlink:href="#DejaVuSans-53" x="420.458984"/>
     <use xlink:href="#DejaVuSans-75" x="483.935547"/>
     <use xlink:href="#DejaVuSans-63" x="547.314453"/>
     <use xlink:href="#DejaVuSans-63" x="602.294922"/>
     <use xlink:href="#DejaVuSans-65" x="657.275391"/>
     <use xlink:href="#DejaVuSans-73" x="718.798828"/>
     <use xlink:href="#DejaVuSans-73" x="770.898438"/>
     <use xlink:href="#DejaVuSans-69" x="822.998047"/>
     <use xlink:href="#DejaVuSans-6f" x="850.78125"/>
     <use xlink:href="#DejaVuSans-6e" x="911.962891"/>
    </g>
   </g>
  </g>
 </g>
 <defs>
  <clipPath id="p8edeae8a13">
   <rect x="72" y="48.9888" width="380.930233" height="186.8832"/>
  </clipPath>
  <clipPath id="pe1f7ab4051">
   <rect x="510.069767" y="48.9888" width="380.930233" height="186.8832"/>
  </clipPath>
 </defs>
</svg>
