<?xml version="1.0" encoding="utf-8" standalone="no"?>
<!DOCTYPE svg PUBLIC "-//W3C//DTD SVG 1.1//EN"
  "http://www.w3.org/Graphics/SVG/1.1/DTD/svg11.dtd">
<svg xmlns:xlink="http://www.w3.org/1999/xlink" width="900pt" height="302.4pt" viewBox="0 0 900 302.4" xmlns="http://www.w3.org/2000/svg" version="1.1">
 <metadata>
  <rdf:RDF xmlns:dc="http://purl.org/dc/elements/1.1/" xmlns:cc="http://creativecommons.org/ns#" xmlns:rdf="http://www.w3.org/1999/02/22-rdf-syntax-ns#">
   <cc:Work>
    <dc:type rdf:resource="http://purl.org/dc/dcmitype/StillImage"/>
    <dc:date>2024-02-23T15:27:17.831183</dc:date>
    <dc:format>image/svg+xml</dc:format>
    <dc:creator>
     <cc:Agent>
      <dc:title>Matplotlib v3.7.1, https://matplotlib.org/</dc:title>
     </cc:Agent>
    </dc:creator>
   </cc:Work>
  </rdf:RDF>
 </metadata>
 <defs>
  <style type="text/css">*{stroke-linejoin: round; stroke-linecap: butt}</style>
 </defs>
 <g id="figure_1">
  <g id="patch_1">
   <path d="M 0 302.4 
L 900 302.4 
L 900 0 
L 0 0 
z
" style="fill: #ffffff"/>
  </g>
  <g id="axes_1">
   <g id="patch_2">
    <path d="M 72 235.872 
L 452.930233 235.872 
L 452.930233 48.9888 
L 72 48.9888 
z
" style="fill: #fcfcfc"/>
   </g>
   <g id="matplotlib.axis_1">
    <g id="xtick_1">
     <g id="line2d_1">
      <path d="M 89.315011 235.872 
L 89.315011 48.9888 
" clip-path="url(#p500c6eb95e)" style="fill: none; stroke: #dcdcdc; stroke-width: 0.5; stroke-linecap: square"/>
     </g>
     <g id="line2d_2">
      <defs>
       <path id="m49dc2a76db" d="M 0 0 
L 0 3.5 
" style="stroke: #000000; stroke-width: 0.8"/>
      </defs>
      <g>
       <use xlink:href="#m49dc2a76db" x="89.315011" y="235.872" style="stroke: #000000; stroke-width: 0.8"/>
      </g>
     </g>
     <g id="text_1">
      <!-- 0 -->
      <g transform="translate(85.179386 252.749969) scale(0.13 -0.13)">
       <defs>
        <path id="DejaVuSans-30" d="M 2034 4250 
Q 1547 4250 1301 3770 
Q 1056 3291 1056 2328 
Q 1056 1369 1301 889 
Q 1547 409 2034 409 
Q 2525 409 2770 889 
Q 3016 1369 3016 2328 
Q 3016 3291 2770 3770 
Q 2525 4250 2034 4250 
z
M 2034 4750 
Q 2819 4750 3233 4129 
Q 3647 3509 3647 2328 
Q 3647 1150 3233 529 
Q 2819 -91 2034 -91 
Q 1250 -91 836 529 
Q 422 1150 422 2328 
Q 422 3509 836 4129 
Q 1250 4750 2034 4750 
z
" transform="scale(0.015625)"/>
       </defs>
       <use xlink:href="#DejaVuSans-30"/>
      </g>
     </g>
    </g>
    <g id="xtick_2">
     <g id="line2d_3">
      <path d="M 175.890063 235.872 
L 175.890063 48.9888 
" clip-path="url(#p500c6eb95e)" style="fill: none; stroke: #dcdcdc; stroke-width: 0.5; stroke-linecap: square"/>
     </g>
     <g id="line2d_4">
      <g>
       <use xlink:href="#m49dc2a76db" x="175.890063" y="235.872" style="stroke: #000000; stroke-width: 0.8"/>
      </g>
     </g>
     <g id="text_2">
      <!-- 25 -->
      <g transform="translate(167.618813 252.749969) scale(0.13 -0.13)">
       <defs>
        <path id="DejaVuSans-32" d="M 1228 531 
L 3431 531 
L 3431 0 
L 469 0 
L 469 531 
Q 828 903 1448 1529 
Q 2069 2156 2228 2338 
Q 2531 2678 2651 2914 
Q 2772 3150 2772 3378 
Q 2772 3750 2511 3984 
Q 2250 4219 1831 4219 
Q 1534 4219 1204 4116 
Q 875 4013 500 3803 
L 500 4441 
Q 881 4594 1212 4672 
Q 1544 4750 1819 4750 
Q 2544 4750 2975 4387 
Q 3406 4025 3406 3419 
Q 3406 3131 3298 2873 
Q 3191 2616 2906 2266 
Q 2828 2175 2409 1742 
Q 1991 1309 1228 531 
z
" transform="scale(0.015625)"/>
        <path id="DejaVuSans-35" d="M 691 4666 
L 3169 4666 
L 3169 4134 
L 1269 4134 
L 1269 2991 
Q 1406 3038 1543 3061 
Q 1681 3084 1819 3084 
Q 2600 3084 3056 2656 
Q 3513 2228 3513 1497 
Q 3513 744 3044 326 
Q 2575 -91 1722 -91 
Q 1428 -91 1123 -41 
Q 819 9 494 109 
L 494 744 
Q 775 591 1075 516 
Q 1375 441 1709 441 
Q 2250 441 2565 725 
Q 2881 1009 2881 1497 
Q 2881 1984 2565 2268 
Q 2250 2553 1709 2553 
Q 1456 2553 1204 2497 
Q 953 2441 691 2322 
L 691 4666 
z
" transform="scale(0.015625)"/>
       </defs>
       <use xlink:href="#DejaVuSans-32"/>
       <use xlink:href="#DejaVuSans-35" x="63.623047"/>
      </g>
     </g>
    </g>
    <g id="xtick_3">
     <g id="line2d_5">
      <path d="M 262.465116 235.872 
L 262.465116 48.9888 
" clip-path="url(#p500c6eb95e)" style="fill: none; stroke: #dcdcdc; stroke-width: 0.5; stroke-linecap: square"/>
     </g>
     <g id="line2d_6">
      <g>
       <use xlink:href="#m49dc2a76db" x="262.465116" y="235.872" style="stroke: #000000; stroke-width: 0.8"/>
      </g>
     </g>
     <g id="text_3">
      <!-- 50 -->
      <g transform="translate(254.193866 252.749969) scale(0.13 -0.13)">
       <use xlink:href="#DejaVuSans-35"/>
       <use xlink:href="#DejaVuSans-30" x="63.623047"/>
      </g>
     </g>
    </g>
    <g id="xtick_4">
     <g id="line2d_7">
      <path d="M 349.040169 235.872 
L 349.040169 48.9888 
" clip-path="url(#p500c6eb95e)" style="fill: none; stroke: #dcdcdc; stroke-width: 0.5; stroke-linecap: square"/>
     </g>
     <g id="line2d_8">
      <g>
       <use xlink:href="#m49dc2a76db" x="349.040169" y="235.872" style="stroke: #000000; stroke-width: 0.8"/>
      </g>
     </g>
     <g id="text_4">
      <!-- 75 -->
      <g transform="translate(340.768919 252.749969) scale(0.13 -0.13)">
       <defs>
        <path id="DejaVuSans-37" d="M 525 4666 
L 3525 4666 
L 3525 4397 
L 1831 0 
L 1172 0 
L 2766 4134 
L 525 4134 
L 525 4666 
z
" transform="scale(0.015625)"/>
       </defs>
       <use xlink:href="#DejaVuSans-37"/>
       <use xlink:href="#DejaVuSans-35" x="63.623047"/>
      </g>
     </g>
    </g>
    <g id="xtick_5">
     <g id="line2d_9">
      <path d="M 435.615222 235.872 
L 435.615222 48.9888 
" clip-path="url(#p500c6eb95e)" style="fill: none; stroke: #dcdcdc; stroke-width: 0.5; stroke-linecap: square"/>
     </g>
     <g id="line2d_10">
      <g>
       <use xlink:href="#m49dc2a76db" x="435.615222" y="235.872" style="stroke: #000000; stroke-width: 0.8"/>
      </g>
     </g>
     <g id="text_5">
      <!-- 100 -->
      <g transform="translate(423.208347 252.749969) scale(0.13 -0.13)">
       <defs>
        <path id="DejaVuSans-31" d="M 794 531 
L 1825 531 
L 1825 4091 
L 703 3866 
L 703 4441 
L 1819 4666 
L 2450 4666 
L 2450 531 
L 3481 531 
L 3481 0 
L 794 0 
L 794 531 
z
" transform="scale(0.015625)"/>
       </defs>
       <use xlink:href="#DejaVuSans-31"/>
       <use xlink:href="#DejaVuSans-30" x="63.623047"/>
       <use xlink:href="#DejaVuSans-30" x="127.246094"/>
      </g>
     </g>
    </g>
    <g id="text_6">
     <!-- Time step -->
     <g transform="translate(225.507694 270.851219) scale(0.15 -0.15)">
      <defs>
       <path id="DejaVuSans-54" d="M -19 4666 
L 3928 4666 
L 3928 4134 
L 2272 4134 
L 2272 0 
L 1638 0 
L 1638 4134 
L -19 4134 
L -19 4666 
z
" transform="scale(0.015625)"/>
       <path id="DejaVuSans-69" d="M 603 3500 
L 1178 3500 
L 1178 0 
L 603 0 
L 603 3500 
z
M 603 4863 
L 1178 4863 
L 1178 4134 
L 603 4134 
L 603 4863 
z
" transform="scale(0.015625)"/>
       <path id="DejaVuSans-6d" d="M 3328 2828 
Q 3544 3216 3844 3400 
Q 4144 3584 4550 3584 
Q 5097 3584 5394 3201 
Q 5691 2819 5691 2113 
L 5691 0 
L 5113 0 
L 5113 2094 
Q 5113 2597 4934 2840 
Q 4756 3084 4391 3084 
Q 3944 3084 3684 2787 
Q 3425 2491 3425 1978 
L 3425 0 
L 2847 0 
L 2847 2094 
Q 2847 2600 2669 2842 
Q 2491 3084 2119 3084 
Q 1678 3084 1418 2786 
Q 1159 2488 1159 1978 
L 1159 0 
L 581 0 
L 581 3500 
L 1159 3500 
L 1159 2956 
Q 1356 3278 1631 3431 
Q 1906 3584 2284 3584 
Q 2666 3584 2933 3390 
Q 3200 3197 3328 2828 
z
" transform="scale(0.015625)"/>
       <path id="DejaVuSans-65" d="M 3597 1894 
L 3597 1613 
L 953 1613 
Q 991 1019 1311 708 
Q 1631 397 2203 397 
Q 2534 397 2845 478 
Q 3156 559 3463 722 
L 3463 178 
Q 3153 47 2828 -22 
Q 2503 -91 2169 -91 
Q 1331 -91 842 396 
Q 353 884 353 1716 
Q 353 2575 817 3079 
Q 1281 3584 2069 3584 
Q 2775 3584 3186 3129 
Q 3597 2675 3597 1894 
z
M 3022 2063 
Q 3016 2534 2758 2815 
Q 2500 3097 2075 3097 
Q 1594 3097 1305 2825 
Q 1016 2553 972 2059 
L 3022 2063 
z
" transform="scale(0.015625)"/>
       <path id="DejaVuSans-20" transform="scale(0.015625)"/>
       <path id="DejaVuSans-73" d="M 2834 3397 
L 2834 2853 
Q 2591 2978 2328 3040 
Q 2066 3103 1784 3103 
Q 1356 3103 1142 2972 
Q 928 2841 928 2578 
Q 928 2378 1081 2264 
Q 1234 2150 1697 2047 
L 1894 2003 
Q 2506 1872 2764 1633 
Q 3022 1394 3022 966 
Q 3022 478 2636 193 
Q 2250 -91 1575 -91 
Q 1294 -91 989 -36 
Q 684 19 347 128 
L 347 722 
Q 666 556 975 473 
Q 1284 391 1588 391 
Q 1994 391 2212 530 
Q 2431 669 2431 922 
Q 2431 1156 2273 1281 
Q 2116 1406 1581 1522 
L 1381 1569 
Q 847 1681 609 1914 
Q 372 2147 372 2553 
Q 372 3047 722 3315 
Q 1072 3584 1716 3584 
Q 2034 3584 2315 3537 
Q 2597 3491 2834 3397 
z
" transform="scale(0.015625)"/>
       <path id="DejaVuSans-74" d="M 1172 4494 
L 1172 3500 
L 2356 3500 
L 2356 3053 
L 1172 3053 
L 1172 1153 
Q 1172 725 1289 603 
Q 1406 481 1766 481 
L 2356 481 
L 2356 0 
L 1766 0 
Q 1100 0 847 248 
Q 594 497 594 1153 
L 594 3053 
L 172 3053 
L 172 3500 
L 594 3500 
L 594 4494 
L 1172 4494 
z
" transform="scale(0.015625)"/>
       <path id="DejaVuSans-70" d="M 1159 525 
L 1159 -1331 
L 581 -1331 
L 581 3500 
L 1159 3500 
L 1159 2969 
Q 1341 3281 1617 3432 
Q 1894 3584 2278 3584 
Q 2916 3584 3314 3078 
Q 3713 2572 3713 1747 
Q 3713 922 3314 415 
Q 2916 -91 2278 -91 
Q 1894 -91 1617 61 
Q 1341 213 1159 525 
z
M 3116 1747 
Q 3116 2381 2855 2742 
Q 2594 3103 2138 3103 
Q 1681 3103 1420 2742 
Q 1159 2381 1159 1747 
Q 1159 1113 1420 752 
Q 1681 391 2138 391 
Q 2594 391 2855 752 
Q 3116 1113 3116 1747 
z
" transform="scale(0.015625)"/>
      </defs>
      <use xlink:href="#DejaVuSans-54"/>
      <use xlink:href="#DejaVuSans-69" x="57.958984"/>
      <use xlink:href="#DejaVuSans-6d" x="85.742188"/>
      <use xlink:href="#DejaVuSans-65" x="183.154297"/>
      <use xlink:href="#DejaVuSans-20" x="244.677734"/>
      <use xlink:href="#DejaVuSans-73" x="276.464844"/>
      <use xlink:href="#DejaVuSans-74" x="328.564453"/>
      <use xlink:href="#DejaVuSans-65" x="367.773438"/>
      <use xlink:href="#DejaVuSans-70" x="429.296875"/>
     </g>
    </g>
   </g>
   <g id="matplotlib.axis_2">
    <g id="ytick_1">
     <g id="line2d_11">
      <path d="M 72 235.872 
L 452.930233 235.872 
" clip-path="url(#p500c6eb95e)" style="fill: none; stroke: #dcdcdc; stroke-width: 0.5; stroke-linecap: square"/>
     </g>
     <g id="line2d_12">
      <defs>
       <path id="m89b0673fcb" d="M 0 0 
L -3.5 0 
" style="stroke: #000000; stroke-width: 0.8"/>
      </defs>
      <g>
       <use xlink:href="#m89b0673fcb" x="72" y="235.872" style="stroke: #000000; stroke-width: 0.8"/>
      </g>
     </g>
     <g id="text_7">
      <!-- 0.0 -->
      <g transform="translate(44.325937 240.810984) scale(0.13 -0.13)">
       <defs>
        <path id="DejaVuSans-2e" d="M 684 794 
L 1344 794 
L 1344 0 
L 684 0 
L 684 794 
z
" transform="scale(0.015625)"/>
       </defs>
       <use xlink:href="#DejaVuSans-30"/>
       <use xlink:href="#DejaVuSans-2e" x="63.623047"/>
       <use xlink:href="#DejaVuSans-30" x="95.410156"/>
      </g>
     </g>
    </g>
    <g id="ytick_2">
     <g id="line2d_13">
      <path d="M 72 182.891207 
L 452.930233 182.891207 
" clip-path="url(#p500c6eb95e)" style="fill: none; stroke: #dcdcdc; stroke-width: 0.5; stroke-linecap: square"/>
     </g>
     <g id="line2d_14">
      <g>
       <use xlink:href="#m89b0673fcb" x="72" y="182.891207" style="stroke: #000000; stroke-width: 0.8"/>
      </g>
     </g>
     <g id="text_8">
      <!-- 1.5 -->
      <g transform="translate(44.325937 187.830191) scale(0.13 -0.13)">
       <use xlink:href="#DejaVuSans-31"/>
       <use xlink:href="#DejaVuSans-2e" x="63.623047"/>
       <use xlink:href="#DejaVuSans-35" x="95.410156"/>
      </g>
     </g>
    </g>
    <g id="ytick_3">
     <g id="line2d_15">
      <path d="M 72 129.910413 
L 452.930233 129.910413 
" clip-path="url(#p500c6eb95e)" style="fill: none; stroke: #dcdcdc; stroke-width: 0.5; stroke-linecap: square"/>
     </g>
     <g id="line2d_16">
      <g>
       <use xlink:href="#m89b0673fcb" x="72" y="129.910413" style="stroke: #000000; stroke-width: 0.8"/>
      </g>
     </g>
     <g id="text_9">
      <!-- 3.0 -->
      <g transform="translate(44.325937 134.849397) scale(0.13 -0.13)">
       <defs>
        <path id="DejaVuSans-33" d="M 2597 2516 
Q 3050 2419 3304 2112 
Q 3559 1806 3559 1356 
Q 3559 666 3084 287 
Q 2609 -91 1734 -91 
Q 1441 -91 1130 -33 
Q 819 25 488 141 
L 488 750 
Q 750 597 1062 519 
Q 1375 441 1716 441 
Q 2309 441 2620 675 
Q 2931 909 2931 1356 
Q 2931 1769 2642 2001 
Q 2353 2234 1838 2234 
L 1294 2234 
L 1294 2753 
L 1863 2753 
Q 2328 2753 2575 2939 
Q 2822 3125 2822 3475 
Q 2822 3834 2567 4026 
Q 2313 4219 1838 4219 
Q 1578 4219 1281 4162 
Q 984 4106 628 3988 
L 628 4550 
Q 988 4650 1302 4700 
Q 1616 4750 1894 4750 
Q 2613 4750 3031 4423 
Q 3450 4097 3450 3541 
Q 3450 3153 3228 2886 
Q 3006 2619 2597 2516 
z
" transform="scale(0.015625)"/>
       </defs>
       <use xlink:href="#DejaVuSans-33"/>
       <use xlink:href="#DejaVuSans-2e" x="63.623047"/>
       <use xlink:href="#DejaVuSans-30" x="95.410156"/>
      </g>
     </g>
    </g>
    <g id="ytick_4">
     <g id="line2d_17">
      <path d="M 72 76.92962 
L 452.930233 76.92962 
" clip-path="url(#p500c6eb95e)" style="fill: none; stroke: #dcdcdc; stroke-width: 0.5; stroke-linecap: square"/>
     </g>
     <g id="line2d_18">
      <g>
       <use xlink:href="#m89b0673fcb" x="72" y="76.92962" style="stroke: #000000; stroke-width: 0.8"/>
      </g>
     </g>
     <g id="text_10">
      <!-- 4.5 -->
      <g transform="translate(44.325937 81.868604) scale(0.13 -0.13)">
       <defs>
        <path id="DejaVuSans-34" d="M 2419 4116 
L 825 1625 
L 2419 1625 
L 2419 4116 
z
M 2253 4666 
L 3047 4666 
L 3047 1625 
L 3713 1625 
L 3713 1100 
L 3047 1100 
L 3047 0 
L 2419 0 
L 2419 1100 
L 313 1100 
L 313 1709 
L 2253 4666 
z
" transform="scale(0.015625)"/>
       </defs>
       <use xlink:href="#DejaVuSans-34"/>
       <use xlink:href="#DejaVuSans-2e" x="63.623047"/>
       <use xlink:href="#DejaVuSans-35" x="95.410156"/>
      </g>
     </g>
    </g>
    <g id="text_11">
     <!-- ShannonFDIV -->
     <g transform="translate(37.206406 192.821025) rotate(-90) scale(0.15 -0.15)">
      <defs>
       <path id="DejaVuSans-53" d="M 3425 4513 
L 3425 3897 
Q 3066 4069 2747 4153 
Q 2428 4238 2131 4238 
Q 1616 4238 1336 4038 
Q 1056 3838 1056 3469 
Q 1056 3159 1242 3001 
Q 1428 2844 1947 2747 
L 2328 2669 
Q 3034 2534 3370 2195 
Q 3706 1856 3706 1288 
Q 3706 609 3251 259 
Q 2797 -91 1919 -91 
Q 1588 -91 1214 -16 
Q 841 59 441 206 
L 441 856 
Q 825 641 1194 531 
Q 1563 422 1919 422 
Q 2459 422 2753 634 
Q 3047 847 3047 1241 
Q 3047 1584 2836 1778 
Q 2625 1972 2144 2069 
L 1759 2144 
Q 1053 2284 737 2584 
Q 422 2884 422 3419 
Q 422 4038 858 4394 
Q 1294 4750 2059 4750 
Q 2388 4750 2728 4690 
Q 3069 4631 3425 4513 
z
" transform="scale(0.015625)"/>
       <path id="DejaVuSans-68" d="M 3513 2113 
L 3513 0 
L 2938 0 
L 2938 2094 
Q 2938 2591 2744 2837 
Q 2550 3084 2163 3084 
Q 1697 3084 1428 2787 
Q 1159 2491 1159 1978 
L 1159 0 
L 581 0 
L 581 4863 
L 1159 4863 
L 1159 2956 
Q 1366 3272 1645 3428 
Q 1925 3584 2291 3584 
Q 2894 3584 3203 3211 
Q 3513 2838 3513 2113 
z
" transform="scale(0.015625)"/>
       <path id="DejaVuSans-61" d="M 2194 1759 
Q 1497 1759 1228 1600 
Q 959 1441 959 1056 
Q 959 750 1161 570 
Q 1363 391 1709 391 
Q 2188 391 2477 730 
Q 2766 1069 2766 1631 
L 2766 1759 
L 2194 1759 
z
M 3341 1997 
L 3341 0 
L 2766 0 
L 2766 531 
Q 2569 213 2275 61 
Q 1981 -91 1556 -91 
Q 1019 -91 701 211 
Q 384 513 384 1019 
Q 384 1609 779 1909 
Q 1175 2209 1959 2209 
L 2766 2209 
L 2766 2266 
Q 2766 2663 2505 2880 
Q 2244 3097 1772 3097 
Q 1472 3097 1187 3025 
Q 903 2953 641 2809 
L 641 3341 
Q 956 3463 1253 3523 
Q 1550 3584 1831 3584 
Q 2591 3584 2966 3190 
Q 3341 2797 3341 1997 
z
" transform="scale(0.015625)"/>
       <path id="DejaVuSans-6e" d="M 3513 2113 
L 3513 0 
L 2938 0 
L 2938 2094 
Q 2938 2591 2744 2837 
Q 2550 3084 2163 3084 
Q 1697 3084 1428 2787 
Q 1159 2491 1159 1978 
L 1159 0 
L 581 0 
L 581 3500 
L 1159 3500 
L 1159 2956 
Q 1366 3272 1645 3428 
Q 1925 3584 2291 3584 
Q 2894 3584 3203 3211 
Q 3513 2838 3513 2113 
z
" transform="scale(0.015625)"/>
       <path id="DejaVuSans-6f" d="M 1959 3097 
Q 1497 3097 1228 2736 
Q 959 2375 959 1747 
Q 959 1119 1226 758 
Q 1494 397 1959 397 
Q 2419 397 2687 759 
Q 2956 1122 2956 1747 
Q 2956 2369 2687 2733 
Q 2419 3097 1959 3097 
z
M 1959 3584 
Q 2709 3584 3137 3096 
Q 3566 2609 3566 1747 
Q 3566 888 3137 398 
Q 2709 -91 1959 -91 
Q 1206 -91 779 398 
Q 353 888 353 1747 
Q 353 2609 779 3096 
Q 1206 3584 1959 3584 
z
" transform="scale(0.015625)"/>
       <path id="DejaVuSans-46" d="M 628 4666 
L 3309 4666 
L 3309 4134 
L 1259 4134 
L 1259 2759 
L 3109 2759 
L 3109 2228 
L 1259 2228 
L 1259 0 
L 628 0 
L 628 4666 
z
" transform="scale(0.015625)"/>
       <path id="DejaVuSans-44" d="M 1259 4147 
L 1259 519 
L 2022 519 
Q 2988 519 3436 956 
Q 3884 1394 3884 2338 
Q 3884 3275 3436 3711 
Q 2988 4147 2022 4147 
L 1259 4147 
z
M 628 4666 
L 1925 4666 
Q 3281 4666 3915 4102 
Q 4550 3538 4550 2338 
Q 4550 1131 3912 565 
Q 3275 0 1925 0 
L 628 0 
L 628 4666 
z
" transform="scale(0.015625)"/>
       <path id="DejaVuSans-49" d="M 628 4666 
L 1259 4666 
L 1259 0 
L 628 0 
L 628 4666 
z
" transform="scale(0.015625)"/>
       <path id="DejaVuSans-56" d="M 1831 0 
L 50 4666 
L 709 4666 
L 2188 738 
L 3669 4666 
L 4325 4666 
L 2547 0 
L 1831 0 
z
" transform="scale(0.015625)"/>
      </defs>
      <use xlink:href="#DejaVuSans-53"/>
      <use xlink:href="#DejaVuSans-68" x="63.476562"/>
      <use xlink:href="#DejaVuSans-61" x="126.855469"/>
      <use xlink:href="#DejaVuSans-6e" x="188.134766"/>
      <use xlink:href="#DejaVuSans-6e" x="251.513672"/>
      <use xlink:href="#DejaVuSans-6f" x="314.892578"/>
      <use xlink:href="#DejaVuSans-6e" x="376.074219"/>
      <use xlink:href="#DejaVuSans-46" x="439.453125"/>
      <use xlink:href="#DejaVuSans-44" x="496.972656"/>
      <use xlink:href="#DejaVuSans-49" x="573.974609"/>
      <use xlink:href="#DejaVuSans-56" x="603.466797"/>
     </g>
    </g>
   </g>
   <g id="PolyCollection_1">
    <defs>
     <path id="mf501af19d8" d="M 89.315011 -101.848529 
L 89.315011 -101.848529 
L 106.630021 -101.848529 
L 123.945032 -101.848529 
L 141.260042 -101.848529 
L 158.575053 -101.848529 
L 175.890063 -101.848529 
L 193.205074 -101.848529 
L 210.520085 -101.848529 
L 227.835095 -101.848529 
L 245.150106 -101.848529 
L 262.465116 -101.848529 
L 279.780127 -101.848529 
L 297.095137 -101.848529 
L 314.410148 -101.848529 
L 331.725159 -101.848529 
L 349.040169 -101.848529 
L 366.35518 -101.848529 
L 383.67019 -101.848529 
L 400.985201 -101.848529 
L 418.300211 -101.848529 
L 435.615222 -104.712467 
L 435.615222 -98.419463 
L 435.615222 -98.419463 
L 418.300211 -101.848529 
L 400.985201 -101.848529 
L 383.67019 -101.848529 
L 366.35518 -101.848529 
L 349.040169 -101.848529 
L 331.725159 -101.848529 
L 314.410148 -101.848529 
L 297.095137 -101.848529 
L 279.780127 -101.848529 
L 262.465116 -101.848529 
L 245.150106 -101.848529 
L 227.835095 -101.848529 
L 210.520085 -101.848529 
L 193.205074 -101.848529 
L 175.890063 -101.848529 
L 158.575053 -101.848529 
L 141.260042 -101.848529 
L 123.945032 -101.848529 
L 106.630021 -101.848529 
L 89.315011 -101.848529 
z
"/>
    </defs>
    <g clip-path="url(#p500c6eb95e)">
     <use xlink:href="#mf501af19d8" x="0" y="302.4" style="fill: #fcffa4; fill-opacity: 0.3"/>
    </g>
   </g>
   <g id="PolyCollection_2">
    <defs>
     <path id="md7f106a05f" d="M 89.315011 -134.593372 
L 89.315011 -138.033605 
L 106.630021 -137.79133 
L 123.945032 -137.558608 
L 141.260042 -137.400015 
L 158.575053 -137.356411 
L 175.890063 -137.214932 
L 193.205074 -137.157043 
L 210.520085 -137.253905 
L 227.835095 -139.502355 
L 245.150106 -139.930974 
L 262.465116 -138.843409 
L 279.780127 -132.848802 
L 297.095137 -130.493193 
L 314.410148 -128.085796 
L 331.725159 -122.881677 
L 349.040169 -120.182821 
L 366.35518 -118.299379 
L 383.67019 -116.66752 
L 400.985201 -111.864856 
L 418.300211 -110.515143 
L 435.615222 -109.131766 
L 435.615222 -96.645808 
L 435.615222 -96.645808 
L 418.300211 -96.948034 
L 400.985201 -96.648513 
L 383.67019 -96.035181 
L 366.35518 -95.941501 
L 349.040169 -95.988673 
L 331.725159 -96.337093 
L 314.410148 -99.114604 
L 297.095137 -100.482268 
L 279.780127 -102.227088 
L 262.465116 -110.982128 
L 245.150106 -114.161855 
L 227.835095 -125.135942 
L 210.520085 -130.51303 
L 193.205074 -131.017933 
L 175.890063 -131.402825 
L 158.575053 -132.523094 
L 141.260042 -132.792466 
L 123.945032 -133.388117 
L 106.630021 -134.059152 
L 89.315011 -134.593372 
z
"/>
    </defs>
    <g clip-path="url(#p500c6eb95e)">
     <use xlink:href="#md7f106a05f" x="0" y="302.4" style="fill: #f98e09; fill-opacity: 0.3"/>
    </g>
   </g>
   <g id="PolyCollection_3">
    <defs>
     <path id="mc82d17627d" d="M 89.315011 -165.896992 
L 89.315011 -174.647601 
L 106.630021 -173.957368 
L 123.945032 -173.174607 
L 141.260042 -172.54343 
L 158.575053 -172.219188 
L 175.890063 -171.262878 
L 193.205074 -171.059127 
L 210.520085 -172.32709 
L 227.835095 -171.706442 
L 245.150106 -161.285818 
L 262.465116 -157.27413 
L 279.780127 -147.421908 
L 297.095137 -144.639935 
L 314.410148 -141.55316 
L 331.725159 -137.13319 
L 349.040169 -133.254827 
L 366.35518 -129.94211 
L 383.67019 -127.256993 
L 400.985201 -121.438196 
L 418.300211 -118.652231 
L 435.615222 -112.00693 
L 435.615222 -96.082133 
L 435.615222 -96.082133 
L 418.300211 -95.587151 
L 400.985201 -95.831894 
L 383.67019 -97.635547 
L 366.35518 -99.125846 
L 349.040169 -101.342372 
L 331.725159 -103.612876 
L 314.410148 -108.358438 
L 297.095137 -111.210093 
L 279.780127 -114.174713 
L 262.465116 -122.603851 
L 245.150106 -126.459694 
L 227.835095 -144.171529 
L 210.520085 -154.170017 
L 193.205074 -160.176492 
L 175.890063 -161.221296 
L 158.575053 -162.842898 
L 141.260042 -163.464726 
L 123.945032 -164.209829 
L 106.630021 -165.157194 
L 89.315011 -165.896992 
z
"/>
    </defs>
    <g clip-path="url(#p500c6eb95e)">
     <use xlink:href="#mc82d17627d" x="0" y="302.4" style="fill: #bc3754; fill-opacity: 0.3"/>
    </g>
   </g>
   <g id="PolyCollection_4">
    <defs>
     <path id="m085469b482" d="M 89.315011 -199.414312 
L 89.315011 -210.119823 
L 106.630021 -209.203848 
L 123.945032 -208.105795 
L 141.260042 -207.114714 
L 158.575053 -206.58648 
L 175.890063 -205.084867 
L 193.205074 -205.375837 
L 210.520085 -203.098263 
L 227.835095 -197.102819 
L 245.150106 -181.243634 
L 262.465116 -175.911734 
L 279.780127 -164.077248 
L 297.095137 -157.963742 
L 314.410148 -154.534244 
L 331.725159 -150.033456 
L 349.040169 -145.772148 
L 366.35518 -140.830922 
L 383.67019 -136.778714 
L 400.985201 -128.941732 
L 418.300211 -124.27917 
L 435.615222 -116.355861 
L 435.615222 -95.539683 
L 435.615222 -95.539683 
L 418.300211 -95.795916 
L 400.985201 -97.055291 
L 383.67019 -102.175261 
L 366.35518 -107.358379 
L 349.040169 -110.829307 
L 331.725159 -114.692756 
L 314.410148 -119.946081 
L 297.095137 -122.86224 
L 279.780127 -126.179915 
L 262.465116 -138.220714 
L 245.150106 -141.947685 
L 227.835095 -160.380405 
L 210.520085 -171.348115 
L 193.205074 -186.186738 
L 175.890063 -192.238158 
L 158.575053 -195.223725 
L 141.260042 -196.028618 
L 123.945032 -197.270327 
L 106.630021 -198.437924 
L 89.315011 -199.414312 
z
"/>
    </defs>
    <g clip-path="url(#p500c6eb95e)">
     <use xlink:href="#m085469b482" x="0" y="302.4" style="fill: #57106e; fill-opacity: 0.3"/>
    </g>
   </g>
   <g id="PolyCollection_5">
    <defs>
     <path id="m3f6f65b5e6" d="M 89.315011 -234.157517 
L 89.315011 -244.512 
L 106.630021 -243.366444 
L 123.945032 -242.148589 
L 141.260042 -240.995963 
L 158.575053 -240.144992 
L 175.890063 -238.366817 
L 193.205074 -238.255834 
L 210.520085 -227.9614 
L 227.835095 -216.817049 
L 245.150106 -197.829065 
L 262.465116 -192.580719 
L 279.780127 -178.497235 
L 297.095137 -171.923453 
L 314.410148 -166.093661 
L 331.725159 -159.049574 
L 349.040169 -154.378525 
L 366.35518 -148.605592 
L 383.67019 -144.025575 
L 400.985201 -136.124204 
L 418.300211 -131.84406 
L 435.615222 -123.198379 
L 435.615222 -95.982026 
L 435.615222 -95.982026 
L 418.300211 -99.858783 
L 400.985201 -102.745981 
L 383.67019 -110.674911 
L 366.35518 -115.402114 
L 349.040169 -120.861412 
L 331.725159 -125.20386 
L 314.410148 -130.818598 
L 297.095137 -135.114669 
L 279.780127 -140.973177 
L 262.465116 -152.728975 
L 245.150106 -157.893588 
L 227.835095 -176.092185 
L 210.520085 -189.057813 
L 193.205074 -212.903083 
L 175.890063 -224.405216 
L 158.575053 -229.302187 
L 141.260042 -230.341386 
L 123.945032 -231.736012 
L 106.630021 -233.016236 
L 89.315011 -234.157517 
z
"/>
    </defs>
    <g clip-path="url(#p500c6eb95e)">
     <use xlink:href="#m3f6f65b5e6" x="0" y="302.4" style="fill: #000004; fill-opacity: 0.3"/>
    </g>
   </g>
   <g id="line2d_19">
    <path d="M 89.315011 200.551471 
L 106.630021 200.551471 
L 123.945032 200.551471 
L 141.260042 200.551471 
L 158.575053 200.551471 
L 175.890063 200.551471 
L 193.205074 200.551471 
L 210.520085 200.551471 
L 227.835095 200.551471 
L 245.150106 200.551471 
L 262.465116 200.551471 
L 279.780127 200.551471 
L 297.095137 200.551471 
L 314.410148 200.551471 
L 331.725159 200.551471 
L 349.040169 200.551471 
L 366.35518 200.551471 
L 383.67019 200.551471 
L 400.985201 200.551471 
L 418.300211 200.551471 
L 435.615222 200.834035 
" clip-path="url(#p500c6eb95e)" style="fill: none; stroke: #fcffa4; stroke-linecap: square"/>
   </g>
   <g id="line2d_20">
    <path d="M 89.315011 166.086511 
L 106.630021 166.474759 
L 123.945032 166.926637 
L 141.260042 167.303759 
L 158.575053 167.460247 
L 175.890063 168.091121 
L 193.205074 168.312512 
L 210.520085 168.516532 
L 227.835095 170.080851 
L 245.150106 175.353586 
L 262.465116 177.487232 
L 279.780127 184.862055 
L 297.095137 186.912269 
L 314.410148 188.7998 
L 331.725159 192.790615 
L 349.040169 194.314253 
L 366.35518 195.27956 
L 383.67019 196.04865 
L 400.985201 198.143316 
L 418.300211 198.668412 
L 435.615222 199.511213 
" clip-path="url(#p500c6eb95e)" style="fill: none; stroke: #f98e09; stroke-linecap: square"/>
   </g>
   <g id="line2d_21">
    <path d="M 89.315011 132.127704 
L 106.630021 132.842719 
L 123.945032 133.707782 
L 141.260042 134.395922 
L 158.575053 134.868957 
L 175.890063 136.157913 
L 193.205074 136.782191 
L 210.520085 139.151447 
L 227.835095 144.461014 
L 245.150106 158.527244 
L 262.465116 162.461009 
L 279.780127 171.60169 
L 297.095137 174.474986 
L 314.410148 177.444201 
L 331.725159 182.026967 
L 349.040169 185.101401 
L 366.35518 187.866022 
L 383.67019 189.95373 
L 400.985201 193.764955 
L 418.300211 195.280309 
L 435.615222 198.355468 
" clip-path="url(#p500c6eb95e)" style="fill: none; stroke: #bc3754; stroke-linecap: square"/>
   </g>
   <g id="line2d_22">
    <path d="M 89.315011 97.632932 
L 106.630021 98.579114 
L 123.945032 99.711939 
L 141.260042 100.828334 
L 158.575053 101.494898 
L 175.890063 103.738487 
L 193.205074 106.618712 
L 210.520085 115.176811 
L 227.835095 123.658388 
L 245.150106 140.80434 
L 262.465116 145.333776 
L 279.780127 157.271419 
L 297.095137 161.987009 
L 314.410148 165.159838 
L 331.725159 170.036894 
L 349.040169 174.099272 
L 366.35518 178.305349 
L 383.67019 182.923012 
L 400.985201 189.401488 
L 418.300211 192.362457 
L 435.615222 196.452228 
" clip-path="url(#p500c6eb95e)" style="fill: none; stroke: #57106e; stroke-linecap: square"/>
   </g>
   <g id="line2d_23">
    <path d="M 89.315011 63.065241 
L 106.630021 64.20866 
L 123.945032 65.457699 
L 141.260042 66.731326 
L 158.575053 67.676411 
L 175.890063 71.013984 
L 193.205074 76.820542 
L 210.520085 93.890394 
L 227.835095 105.945383 
L 245.150106 124.538673 
L 262.465116 129.745153 
L 279.780127 142.664794 
L 297.095137 148.880939 
L 314.410148 153.94387 
L 331.725159 160.273283 
L 349.040169 164.780032 
L 366.35518 170.396147 
L 383.67019 175.049757 
L 400.985201 182.964908 
L 418.300211 186.548579 
L 435.615222 192.809797 
" clip-path="url(#p500c6eb95e)" style="fill: none; stroke: #000004; stroke-linecap: square"/>
   </g>
   <g id="patch_3">
    <path d="M 72 235.872 
L 72 48.9888 
" style="fill: none; stroke: #000000; stroke-width: 0.8; stroke-linejoin: miter; stroke-linecap: square"/>
   </g>
   <g id="patch_4">
    <path d="M 72 235.872 
L 452.930233 235.872 
" style="fill: none; stroke: #000000; stroke-width: 0.8; stroke-linejoin: miter; stroke-linecap: square"/>
   </g>
   <g id="text_12">
    <!-- PnET -->
    <g transform="translate(242.770116 289.674624) scale(0.16 -0.16)">
     <defs>
      <path id="DejaVuSans-50" d="M 1259 4147 
L 1259 2394 
L 2053 2394 
Q 2494 2394 2734 2622 
Q 2975 2850 2975 3272 
Q 2975 3691 2734 3919 
Q 2494 4147 2053 4147 
L 1259 4147 
z
M 628 4666 
L 2053 4666 
Q 2838 4666 3239 4311 
Q 3641 3956 3641 3272 
Q 3641 2581 3239 2228 
Q 2838 1875 2053 1875 
L 1259 1875 
L 1259 0 
L 628 0 
L 628 4666 
z
" transform="scale(0.015625)"/>
      <path id="DejaVuSans-45" d="M 628 4666 
L 3578 4666 
L 3578 4134 
L 1259 4134 
L 1259 2753 
L 3481 2753 
L 3481 2222 
L 1259 2222 
L 1259 531 
L 3634 531 
L 3634 0 
L 628 0 
L 628 4666 
z
" transform="scale(0.015625)"/>
     </defs>
     <use xlink:href="#DejaVuSans-50"/>
     <use xlink:href="#DejaVuSans-6e" x="58.552734"/>
     <use xlink:href="#DejaVuSans-45" x="121.931641"/>
     <use xlink:href="#DejaVuSans-54" x="185.115234"/>
    </g>
   </g>
   <g id="legend_1">
    <g id="patch_5">
     <path d="M 266.5125 37.164 
L 633.4875 37.164 
Q 635.8875 37.164 635.8875 34.764 
L 635.8875 11.424 
Q 635.8875 9.024 633.4875 9.024 
L 266.5125 9.024 
Q 264.1125 9.024 264.1125 11.424 
L 264.1125 34.764 
Q 264.1125 37.164 266.5125 37.164 
z
" style="fill: #ffffff; opacity: 0.8; stroke: #cccccc; stroke-linejoin: miter"/>
    </g>
    <g id="patch_6">
     <path d="M 268.9125 32.364 
L 304.9125 32.364 
L 304.9125 13.824 
L 268.9125 13.824 
z
" style="fill: #fcffa4; fill-opacity: 0.3"/>
    </g>
    <g id="line2d_24">
     <path d="M 268.9125 20.364 
L 286.9125 20.364 
L 304.9125 20.364 
" style="fill: none; stroke: #fcffa4; stroke-linecap: square"/>
    </g>
    <g id="text_13">
     <!-- 1 -->
     <g transform="translate(314.5125 26.904) scale(0.12 -0.12)">
      <use xlink:href="#DejaVuSans-31"/>
     </g>
    </g>
    <g id="patch_7">
     <path d="M 346.1475 32.364 
L 382.1475 32.364 
L 382.1475 13.824 
L 346.1475 13.824 
z
" style="fill: #f98e09; fill-opacity: 0.3"/>
    </g>
    <g id="line2d_25">
     <path d="M 346.1475 20.364 
L 364.1475 20.364 
L 382.1475 20.364 
" style="fill: none; stroke: #f98e09; stroke-linecap: square"/>
    </g>
    <g id="text_14">
     <!-- 2 -->
     <g transform="translate(391.7475 26.904) scale(0.12 -0.12)">
      <use xlink:href="#DejaVuSans-32"/>
     </g>
    </g>
    <g id="patch_8">
     <path d="M 423.3825 32.364 
L 459.3825 32.364 
L 459.3825 13.824 
L 423.3825 13.824 
z
" style="fill: #bc3754; fill-opacity: 0.3"/>
    </g>
    <g id="line2d_26">
     <path d="M 423.3825 20.364 
L 441.3825 20.364 
L 459.3825 20.364 
" style="fill: none; stroke: #bc3754; stroke-linecap: square"/>
    </g>
    <g id="text_15">
     <!-- 3 -->
     <g transform="translate(468.9825 26.904) scale(0.12 -0.12)">
      <use xlink:href="#DejaVuSans-33"/>
     </g>
    </g>
    <g id="patch_9">
     <path d="M 500.6175 32.364 
L 536.6175 32.364 
L 536.6175 13.824 
L 500.6175 13.824 
z
" style="fill: #57106e; fill-opacity: 0.3"/>
    </g>
    <g id="line2d_27">
     <path d="M 500.6175 20.364 
L 518.6175 20.364 
L 536.6175 20.364 
" style="fill: none; stroke: #57106e; stroke-linecap: square"/>
    </g>
    <g id="text_16">
     <!-- 4 -->
     <g transform="translate(546.2175 26.904) scale(0.12 -0.12)">
      <use xlink:href="#DejaVuSans-34"/>
     </g>
    </g>
    <g id="patch_10">
     <path d="M 577.8525 32.364 
L 613.8525 32.364 
L 613.8525 13.824 
L 577.8525 13.824 
z
" style="fill: #000004; fill-opacity: 0.3"/>
    </g>
    <g id="line2d_28">
     <path d="M 577.8525 20.364 
L 595.8525 20.364 
L 613.8525 20.364 
" style="fill: none; stroke: #000004; stroke-linecap: square"/>
    </g>
    <g id="text_17">
     <!-- 5 -->
     <g transform="translate(623.4525 26.904) scale(0.12 -0.12)">
      <use xlink:href="#DejaVuSans-35"/>
     </g>
    </g>
   </g>
  </g>
  <g id="axes_2">
   <g id="patch_11">
    <path d="M 510.069767 235.872 
L 891 235.872 
L 891 48.9888 
L 510.069767 48.9888 
z
" style="fill: #fcfcfc"/>
   </g>
   <g id="matplotlib.axis_3">
    <g id="xtick_6">
     <g id="line2d_29">
      <path d="M 527.384778 235.872 
L 527.384778 48.9888 
" clip-path="url(#p5b5498bf34)" style="fill: none; stroke: #dcdcdc; stroke-width: 0.5; stroke-linecap: square"/>
     </g>
     <g id="line2d_30">
      <g>
       <use xlink:href="#m49dc2a76db" x="527.384778" y="235.872" style="stroke: #000000; stroke-width: 0.8"/>
      </g>
     </g>
     <g id="text_18">
      <!-- 0 -->
      <g transform="translate(523.249153 252.749969) scale(0.13 -0.13)">
       <use xlink:href="#DejaVuSans-30"/>
      </g>
     </g>
    </g>
    <g id="xtick_7">
     <g id="line2d_31">
      <path d="M 613.959831 235.872 
L 613.959831 48.9888 
" clip-path="url(#p5b5498bf34)" style="fill: none; stroke: #dcdcdc; stroke-width: 0.5; stroke-linecap: square"/>
     </g>
     <g id="line2d_32">
      <g>
       <use xlink:href="#m49dc2a76db" x="613.959831" y="235.872" style="stroke: #000000; stroke-width: 0.8"/>
      </g>
     </g>
     <g id="text_19">
      <!-- 25 -->
      <g transform="translate(605.688581 252.749969) scale(0.13 -0.13)">
       <use xlink:href="#DejaVuSans-32"/>
       <use xlink:href="#DejaVuSans-35" x="63.623047"/>
      </g>
     </g>
    </g>
    <g id="xtick_8">
     <g id="line2d_33">
      <path d="M 700.534884 235.872 
L 700.534884 48.9888 
" clip-path="url(#p5b5498bf34)" style="fill: none; stroke: #dcdcdc; stroke-width: 0.5; stroke-linecap: square"/>
     </g>
     <g id="line2d_34">
      <g>
       <use xlink:href="#m49dc2a76db" x="700.534884" y="235.872" style="stroke: #000000; stroke-width: 0.8"/>
      </g>
     </g>
     <g id="text_20">
      <!-- 50 -->
      <g transform="translate(692.263634 252.749969) scale(0.13 -0.13)">
       <use xlink:href="#DejaVuSans-35"/>
       <use xlink:href="#DejaVuSans-30" x="63.623047"/>
      </g>
     </g>
    </g>
    <g id="xtick_9">
     <g id="line2d_35">
      <path d="M 787.109937 235.872 
L 787.109937 48.9888 
" clip-path="url(#p5b5498bf34)" style="fill: none; stroke: #dcdcdc; stroke-width: 0.5; stroke-linecap: square"/>
     </g>
     <g id="line2d_36">
      <g>
       <use xlink:href="#m49dc2a76db" x="787.109937" y="235.872" style="stroke: #000000; stroke-width: 0.8"/>
      </g>
     </g>
     <g id="text_21">
      <!-- 75 -->
      <g transform="translate(778.838687 252.749969) scale(0.13 -0.13)">
       <use xlink:href="#DejaVuSans-37"/>
       <use xlink:href="#DejaVuSans-35" x="63.623047"/>
      </g>
     </g>
    </g>
    <g id="xtick_10">
     <g id="line2d_37">
      <path d="M 873.684989 235.872 
L 873.684989 48.9888 
" clip-path="url(#p5b5498bf34)" style="fill: none; stroke: #dcdcdc; stroke-width: 0.5; stroke-linecap: square"/>
     </g>
     <g id="line2d_38">
      <g>
       <use xlink:href="#m49dc2a76db" x="873.684989" y="235.872" style="stroke: #000000; stroke-width: 0.8"/>
      </g>
     </g>
     <g id="text_22">
      <!-- 100 -->
      <g transform="translate(861.278114 252.749969) scale(0.13 -0.13)">
       <use xlink:href="#DejaVuSans-31"/>
       <use xlink:href="#DejaVuSans-30" x="63.623047"/>
       <use xlink:href="#DejaVuSans-30" x="127.246094"/>
      </g>
     </g>
    </g>
    <g id="text_23">
     <!-- Time step -->
     <g transform="translate(663.577462 270.851219) scale(0.15 -0.15)">
      <use xlink:href="#DejaVuSans-54"/>
      <use xlink:href="#DejaVuSans-69" x="57.958984"/>
      <use xlink:href="#DejaVuSans-6d" x="85.742188"/>
      <use xlink:href="#DejaVuSans-65" x="183.154297"/>
      <use xlink:href="#DejaVuSans-20" x="244.677734"/>
      <use xlink:href="#DejaVuSans-73" x="276.464844"/>
      <use xlink:href="#DejaVuSans-74" x="328.564453"/>
      <use xlink:href="#DejaVuSans-65" x="367.773438"/>
      <use xlink:href="#DejaVuSans-70" x="429.296875"/>
     </g>
    </g>
   </g>
   <g id="matplotlib.axis_4">
    <g id="ytick_5">
     <g id="line2d_39">
      <path d="M 510.069767 235.872 
L 891 235.872 
" clip-path="url(#p5b5498bf34)" style="fill: none; stroke: #dcdcdc; stroke-width: 0.5; stroke-linecap: square"/>
     </g>
    </g>
    <g id="ytick_6">
     <g id="line2d_40">
      <path d="M 510.069767 182.891207 
L 891 182.891207 
" clip-path="url(#p5b5498bf34)" style="fill: none; stroke: #dcdcdc; stroke-width: 0.5; stroke-linecap: square"/>
     </g>
    </g>
    <g id="ytick_7">
     <g id="line2d_41">
      <path d="M 510.069767 129.910413 
L 891 129.910413 
" clip-path="url(#p5b5498bf34)" style="fill: none; stroke: #dcdcdc; stroke-width: 0.5; stroke-linecap: square"/>
     </g>
    </g>
    <g id="ytick_8">
     <g id="line2d_42">
      <path d="M 510.069767 76.92962 
L 891 76.92962 
" clip-path="url(#p5b5498bf34)" style="fill: none; stroke: #dcdcdc; stroke-width: 0.5; stroke-linecap: square"/>
     </g>
    </g>
   </g>
   <g id="PolyCollection_6">
    <defs>
     <path id="m372a7f6c8b" d="M 527.384778 -101.848529 
L 527.384778 -101.848529 
L 544.699789 -101.848529 
L 562.014799 -101.848529 
L 579.32981 -101.848529 
L 596.64482 -101.848529 
L 613.959831 -101.848529 
L 631.274841 -101.848529 
L 648.589852 -101.848529 
L 665.904863 -101.848529 
L 683.219873 -101.848529 
L 700.534884 -101.848529 
L 717.849894 -101.848529 
L 735.164905 -101.848529 
L 752.479915 -101.848529 
L 769.794926 -101.848529 
L 787.109937 -101.848529 
L 804.424947 -101.848529 
L 821.739958 -101.848529 
L 839.054968 -101.848529 
L 856.369979 -101.848529 
L 873.684989 -101.848529 
L 873.684989 -101.848529 
L 873.684989 -101.848529 
L 856.369979 -101.848529 
L 839.054968 -101.848529 
L 821.739958 -101.848529 
L 804.424947 -101.848529 
L 787.109937 -101.848529 
L 769.794926 -101.848529 
L 752.479915 -101.848529 
L 735.164905 -101.848529 
L 717.849894 -101.848529 
L 700.534884 -101.848529 
L 683.219873 -101.848529 
L 665.904863 -101.848529 
L 648.589852 -101.848529 
L 631.274841 -101.848529 
L 613.959831 -101.848529 
L 596.64482 -101.848529 
L 579.32981 -101.848529 
L 562.014799 -101.848529 
L 544.699789 -101.848529 
L 527.384778 -101.848529 
z
"/>
    </defs>
    <g clip-path="url(#p5b5498bf34)">
     <use xlink:href="#m372a7f6c8b" x="0" y="302.4" style="fill: #fcffa4; fill-opacity: 0.3"/>
    </g>
   </g>
   <g id="PolyCollection_7">
    <defs>
     <path id="md2681bdc50" d="M 527.384778 -119.182272 
L 527.384778 -132.487196 
L 544.699789 -131.632967 
L 562.014799 -131.317621 
L 579.32981 -131.345924 
L 596.64482 -131.664393 
L 613.959831 -132.107006 
L 631.274841 -132.989001 
L 648.589852 -133.585277 
L 665.904863 -133.987698 
L 683.219873 -134.214664 
L 700.534884 -134.372851 
L 717.849894 -134.530314 
L 735.164905 -134.685911 
L 752.479915 -134.806386 
L 769.794926 -134.910725 
L 787.109937 -135.05906 
L 804.424947 -135.178383 
L 821.739958 -135.291498 
L 839.054968 -135.39558 
L 856.369979 -135.487528 
L 873.684989 -135.56487 
L 873.684989 -121.141265 
L 873.684989 -121.141265 
L 856.369979 -120.99653 
L 839.054968 -120.854092 
L 821.739958 -120.686405 
L 804.424947 -120.485727 
L 787.109937 -120.267083 
L 769.794926 -120.017266 
L 752.479915 -119.760474 
L 735.164905 -119.426134 
L 717.849894 -119.05784 
L 700.534884 -118.643516 
L 683.219873 -118.250846 
L 665.904863 -117.832942 
L 648.589852 -117.350143 
L 631.274841 -116.901376 
L 613.959831 -116.367408 
L 596.64482 -115.965223 
L 579.32981 -115.777368 
L 562.014799 -116.235348 
L 544.699789 -117.216901 
L 527.384778 -119.182272 
z
"/>
    </defs>
    <g clip-path="url(#p5b5498bf34)">
     <use xlink:href="#md2681bdc50" x="0" y="302.4" style="fill: #f98e09; fill-opacity: 0.3"/>
    </g>
   </g>
   <g id="PolyCollection_8">
    <defs>
     <path id="m459b10a616" d="M 527.384778 -142.756903 
L 527.384778 -158.965172 
L 544.699789 -156.495765 
L 562.014799 -155.146702 
L 579.32981 -154.600949 
L 596.64482 -155.086153 
L 613.959831 -155.660146 
L 631.274841 -156.476857 
L 648.589852 -157.050232 
L 665.904863 -157.491525 
L 683.219873 -158.021304 
L 700.534884 -158.528261 
L 717.849894 -159.008241 
L 735.164905 -159.450794 
L 752.479915 -159.865319 
L 769.794926 -160.205162 
L 787.109937 -160.546709 
L 804.424947 -160.839696 
L 821.739958 -161.103867 
L 839.054968 -161.3159 
L 856.369979 -161.51941 
L 873.684989 -161.721924 
L 873.684989 -143.081445 
L 873.684989 -143.081445 
L 856.369979 -142.713135 
L 839.054968 -142.381142 
L 821.739958 -141.978893 
L 804.424947 -141.550494 
L 787.109937 -141.102513 
L 769.794926 -140.574656 
L 752.479915 -140.039799 
L 735.164905 -139.435273 
L 717.849894 -138.743349 
L 700.534884 -138.010654 
L 683.219873 -137.212687 
L 665.904863 -136.469105 
L 648.589852 -135.680168 
L 631.274841 -135.039331 
L 613.959831 -134.372569 
L 596.64482 -133.995981 
L 579.32981 -134.049622 
L 562.014799 -135.55431 
L 544.699789 -138.178114 
L 527.384778 -142.756903 
z
"/>
    </defs>
    <g clip-path="url(#p5b5498bf34)">
     <use xlink:href="#m459b10a616" x="0" y="302.4" style="fill: #bc3754; fill-opacity: 0.3"/>
    </g>
   </g>
   <g id="PolyCollection_9">
    <defs>
     <path id="ma7535242ee" d="M 527.384778 -173.975163 
L 527.384778 -185.124605 
L 544.699789 -181.295707 
L 562.014799 -178.711547 
L 579.32981 -176.998918 
L 596.64482 -177.004735 
L 613.959831 -177.335258 
L 631.274841 -178.128469 
L 648.589852 -179.074443 
L 665.904863 -180.180724 
L 683.219873 -181.197429 
L 700.534884 -182.293995 
L 717.849894 -183.343864 
L 735.164905 -184.265119 
L 752.479915 -185.100617 
L 769.794926 -185.803305 
L 787.109937 -186.417795 
L 804.424947 -186.918007 
L 821.739958 -187.370981 
L 839.054968 -187.801439 
L 856.369979 -188.166201 
L 873.684989 -188.575475 
L 873.684989 -172.304719 
L 873.684989 -172.304719 
L 856.369979 -171.856029 
L 839.054968 -171.422836 
L 821.739958 -171.005978 
L 804.424947 -170.469811 
L 787.109937 -169.894763 
L 769.794926 -169.311709 
L 752.479915 -168.667062 
L 735.164905 -167.909813 
L 717.849894 -166.973687 
L 700.534884 -166.00492 
L 683.219873 -164.854261 
L 665.904863 -163.714043 
L 648.589852 -162.637583 
L 631.274841 -161.697369 
L 613.959831 -160.849982 
L 596.64482 -160.360262 
L 579.32981 -160.523191 
L 562.014799 -162.813134 
L 544.699789 -166.869313 
L 527.384778 -173.975163 
z
"/>
    </defs>
    <g clip-path="url(#p5b5498bf34)">
     <use xlink:href="#ma7535242ee" x="0" y="302.4" style="fill: #57106e; fill-opacity: 0.3"/>
    </g>
   </g>
   <g id="PolyCollection_10">
    <defs>
     <path id="m008f280e25" d="M 527.384778 -211.826065 
L 527.384778 -212.40708 
L 544.699789 -206.348129 
L 562.014799 -202.390396 
L 579.32981 -199.766382 
L 596.64482 -200.204017 
L 613.959831 -200.790198 
L 631.274841 -201.796199 
L 648.589852 -203.300489 
L 665.904863 -204.756978 
L 683.219873 -206.17924 
L 700.534884 -207.365114 
L 717.849894 -208.433277 
L 735.164905 -209.286867 
L 752.479915 -209.983311 
L 769.794926 -210.591325 
L 787.109937 -211.073514 
L 804.424947 -211.485694 
L 821.739958 -211.840322 
L 839.054968 -212.16828 
L 856.369979 -212.509003 
L 873.684989 -212.875484 
L 873.684989 -210.308989 
L 873.684989 -210.308989 
L 856.369979 -209.799656 
L 839.054968 -209.344964 
L 821.739958 -208.894527 
L 804.424947 -208.470639 
L 787.109937 -207.860606 
L 769.794926 -207.129039 
L 752.479915 -206.336909 
L 735.164905 -205.387034 
L 717.849894 -204.443266 
L 700.534884 -203.220659 
L 683.219873 -201.882574 
L 665.904863 -200.533256 
L 648.589852 -199.261507 
L 631.274841 -198.262176 
L 613.959831 -197.687035 
L 596.64482 -197.71838 
L 579.32981 -199.009284 
L 562.014799 -201.656422 
L 544.699789 -205.672046 
L 527.384778 -211.826065 
z
"/>
    </defs>
    <g clip-path="url(#p5b5498bf34)">
     <use xlink:href="#m008f280e25" x="0" y="302.4" style="fill: #000004; fill-opacity: 0.3"/>
    </g>
   </g>
   <g id="line2d_43">
    <path d="M 527.384778 200.551471 
L 544.699789 200.551471 
L 562.014799 200.551471 
L 579.32981 200.551471 
L 596.64482 200.551471 
L 613.959831 200.551471 
L 631.274841 200.551471 
L 648.589852 200.551471 
L 665.904863 200.551471 
L 683.219873 200.551471 
L 700.534884 200.551471 
L 717.849894 200.551471 
L 735.164905 200.551471 
L 752.479915 200.551471 
L 769.794926 200.551471 
L 787.109937 200.551471 
L 804.424947 200.551471 
L 821.739958 200.551471 
L 839.054968 200.551471 
L 856.369979 200.551471 
L 873.684989 200.551471 
" clip-path="url(#p5b5498bf34)" style="fill: none; stroke: #fcffa4; stroke-linecap: square"/>
   </g>
   <g id="line2d_44">
    <path d="M 527.384778 176.565266 
L 544.699789 177.975066 
L 562.014799 178.623515 
L 579.32981 178.838354 
L 596.64482 178.585192 
L 613.959831 178.162793 
L 631.274841 177.454811 
L 648.589852 176.93229 
L 665.904863 176.48968 
L 683.219873 176.167245 
L 700.534884 175.891816 
L 717.849894 175.605923 
L 735.164905 175.343977 
L 752.479915 175.11657 
L 769.794926 174.936004 
L 787.109937 174.736928 
L 804.424947 174.567945 
L 821.739958 174.411049 
L 839.054968 174.275164 
L 856.369979 174.157971 
L 873.684989 174.046933 
" clip-path="url(#p5b5498bf34)" style="fill: none; stroke: #f98e09; stroke-linecap: square"/>
   </g>
   <g id="line2d_45">
    <path d="M 527.384778 151.538962 
L 544.699789 155.063061 
L 562.014799 157.049494 
L 579.32981 158.074714 
L 596.64482 157.858933 
L 613.959831 157.383643 
L 631.274841 156.641906 
L 648.589852 156.0348 
L 665.904863 155.419685 
L 683.219873 154.783004 
L 700.534884 154.130543 
L 717.849894 153.524205 
L 735.164905 152.956967 
L 752.479915 152.447441 
L 769.794926 152.010091 
L 787.109937 151.575389 
L 804.424947 151.204905 
L 821.739958 150.85862 
L 839.054968 150.551479 
L 856.369979 150.283728 
L 873.684989 149.998315 
" clip-path="url(#p5b5498bf34)" style="fill: none; stroke: #bc3754; stroke-linecap: square"/>
   </g>
   <g id="line2d_46">
    <path d="M 527.384778 122.850116 
L 544.699789 128.31749 
L 562.014799 131.63766 
L 579.32981 133.638946 
L 596.64482 133.717501 
L 613.959831 133.30738 
L 631.274841 132.487081 
L 648.589852 131.543987 
L 665.904863 130.452616 
L 683.219873 129.374155 
L 700.534884 128.250543 
L 717.849894 127.241225 
L 735.164905 126.312534 
L 752.479915 125.51616 
L 769.794926 124.842493 
L 787.109937 124.243721 
L 804.424947 123.706091 
L 821.739958 123.211521 
L 839.054968 122.787863 
L 856.369979 122.388885 
L 873.684989 121.959903 
" clip-path="url(#p5b5498bf34)" style="fill: none; stroke: #57106e; stroke-linecap: square"/>
   </g>
   <g id="line2d_47">
    <path d="M 527.384778 90.283427 
L 544.699789 96.389913 
L 562.014799 100.376591 
L 579.32981 103.012167 
L 596.64482 103.438801 
L 613.959831 103.161384 
L 631.274841 102.370812 
L 648.589852 101.119002 
L 665.904863 99.754883 
L 683.219873 98.369093 
L 700.534884 97.107114 
L 717.849894 95.961729 
L 735.164905 95.063049 
L 752.479915 94.23989 
L 769.794926 93.539818 
L 787.109937 92.93294 
L 804.424947 92.421834 
L 821.739958 92.032575 
L 839.054968 91.643378 
L 856.369979 91.24567 
L 873.684989 90.807763 
" clip-path="url(#p5b5498bf34)" style="fill: none; stroke: #000004; stroke-linecap: square"/>
   </g>
   <g id="patch_12">
    <path d="M 510.069767 235.872 
L 891 235.872 
" style="fill: none; stroke: #000000; stroke-width: 0.8; stroke-linejoin: miter; stroke-linecap: square"/>
   </g>
   <g id="text_24">
    <!-- BiomassSuccession -->
    <g transform="translate(622.507384 289.674624) scale(0.16 -0.16)">
     <defs>
      <path id="DejaVuSans-42" d="M 1259 2228 
L 1259 519 
L 2272 519 
Q 2781 519 3026 730 
Q 3272 941 3272 1375 
Q 3272 1813 3026 2020 
Q 2781 2228 2272 2228 
L 1259 2228 
z
M 1259 4147 
L 1259 2741 
L 2194 2741 
Q 2656 2741 2882 2914 
Q 3109 3088 3109 3444 
Q 3109 3797 2882 3972 
Q 2656 4147 2194 4147 
L 1259 4147 
z
M 628 4666 
L 2241 4666 
Q 2963 4666 3353 4366 
Q 3744 4066 3744 3513 
Q 3744 3084 3544 2831 
Q 3344 2578 2956 2516 
Q 3422 2416 3680 2098 
Q 3938 1781 3938 1306 
Q 3938 681 3513 340 
Q 3088 0 2303 0 
L 628 0 
L 628 4666 
z
" transform="scale(0.015625)"/>
      <path id="DejaVuSans-75" d="M 544 1381 
L 544 3500 
L 1119 3500 
L 1119 1403 
Q 1119 906 1312 657 
Q 1506 409 1894 409 
Q 2359 409 2629 706 
Q 2900 1003 2900 1516 
L 2900 3500 
L 3475 3500 
L 3475 0 
L 2900 0 
L 2900 538 
Q 2691 219 2414 64 
Q 2138 -91 1772 -91 
Q 1169 -91 856 284 
Q 544 659 544 1381 
z
M 1991 3584 
L 1991 3584 
z
" transform="scale(0.015625)"/>
      <path id="DejaVuSans-63" d="M 3122 3366 
L 3122 2828 
Q 2878 2963 2633 3030 
Q 2388 3097 2138 3097 
Q 1578 3097 1268 2742 
Q 959 2388 959 1747 
Q 959 1106 1268 751 
Q 1578 397 2138 397 
Q 2388 397 2633 464 
Q 2878 531 3122 666 
L 3122 134 
Q 2881 22 2623 -34 
Q 2366 -91 2075 -91 
Q 1284 -91 818 406 
Q 353 903 353 1747 
Q 353 2603 823 3093 
Q 1294 3584 2113 3584 
Q 2378 3584 2631 3529 
Q 2884 3475 3122 3366 
z
" transform="scale(0.015625)"/>
     </defs>
     <use xlink:href="#DejaVuSans-42"/>
     <use xlink:href="#DejaVuSans-69" x="68.603516"/>
     <use xlink:href="#DejaVuSans-6f" x="96.386719"/>
     <use xlink:href="#DejaVuSans-6d" x="157.568359"/>
     <use xlink:href="#DejaVuSans-61" x="254.980469"/>
     <use xlink:href="#DejaVuSans-73" x="316.259766"/>
     <use xlink:href="#DejaVuSans-73" x="368.359375"/>
     <use xlink:href="#DejaVuSans-53" x="420.458984"/>
     <use xlink:href="#DejaVuSans-75" x="483.935547"/>
     <use xlink:href="#DejaVuSans-63" x="547.314453"/>
     <use xlink:href="#DejaVuSans-63" x="602.294922"/>
     <use xlink:href="#DejaVuSans-65" x="657.275391"/>
     <use xlink:href="#DejaVuSans-73" x="718.798828"/>
     <use xlink:href="#DejaVuSans-73" x="770.898438"/>
     <use xlink:href="#DejaVuSans-69" x="822.998047"/>
     <use xlink:href="#DejaVuSans-6f" x="850.78125"/>
     <use xlink:href="#DejaVuSans-6e" x="911.962891"/>
    </g>
   </g>
  </g>
 </g>
 <defs>
  <clipPath id="p500c6eb95e">
   <rect x="72" y="48.9888" width="380.930233" height="186.8832"/>
  </clipPath>
  <clipPath id="p5b5498bf34">
   <rect x="510.069767" y="48.9888" width="380.930233" height="186.8832"/>
  </clipPath>
 </defs>
</svg>
