<?xml version="1.0" encoding="utf-8" standalone="no"?>
<!DOCTYPE svg PUBLIC "-//W3C//DTD SVG 1.1//EN"
  "http://www.w3.org/Graphics/SVG/1.1/DTD/svg11.dtd">
<svg xmlns:xlink="http://www.w3.org/1999/xlink" width="900pt" height="302.4pt" viewBox="0 0 900 302.4" xmlns="http://www.w3.org/2000/svg" version="1.1">
 <metadata>
  <rdf:RDF xmlns:dc="http://purl.org/dc/elements/1.1/" xmlns:cc="http://creativecommons.org/ns#" xmlns:rdf="http://www.w3.org/1999/02/22-rdf-syntax-ns#">
   <cc:Work>
    <dc:type rdf:resource="http://purl.org/dc/dcmitype/StillImage"/>
    <dc:date>2024-03-04T14:47:00.166374</dc:date>
    <dc:format>image/svg+xml</dc:format>
    <dc:creator>
     <cc:Agent>
      <dc:title>Matplotlib v3.7.1, https://matplotlib.org/</dc:title>
     </cc:Agent>
    </dc:creator>
   </cc:Work>
  </rdf:RDF>
 </metadata>
 <defs>
  <style type="text/css">*{stroke-linejoin: round; stroke-linecap: butt}</style>
 </defs>
 <g id="figure_1">
  <g id="patch_1">
   <path d="M 0 302.4 
L 900 302.4 
L 900 0 
L 0 0 
z
" style="fill: #ffffff"/>
  </g>
  <g id="axes_1">
   <g id="patch_2">
    <path d="M 72 235.872 
L 452.930233 235.872 
L 452.930233 48.9888 
L 72 48.9888 
z
" style="fill: #fcfcfc"/>
   </g>
   <g id="matplotlib.axis_1">
    <g id="xtick_1">
     <g id="line2d_1">
      <path d="M 89.315011 235.872 
L 89.315011 48.9888 
" clip-path="url(#pcfb852a069)" style="fill: none; stroke: #dcdcdc; stroke-width: 0.5; stroke-linecap: square"/>
     </g>
     <g id="line2d_2">
      <defs>
       <path id="m7a94321050" d="M 0 0 
L 0 3.5 
" style="stroke: #000000; stroke-width: 0.8"/>
      </defs>
      <g>
       <use xlink:href="#m7a94321050" x="89.315011" y="235.872" style="stroke: #000000; stroke-width: 0.8"/>
      </g>
     </g>
     <g id="text_1">
      <!-- 0 -->
      <g transform="translate(85.179386 252.749969) scale(0.13 -0.13)">
       <defs>
        <path id="DejaVuSans-30" d="M 2034 4250 
Q 1547 4250 1301 3770 
Q 1056 3291 1056 2328 
Q 1056 1369 1301 889 
Q 1547 409 2034 409 
Q 2525 409 2770 889 
Q 3016 1369 3016 2328 
Q 3016 3291 2770 3770 
Q 2525 4250 2034 4250 
z
M 2034 4750 
Q 2819 4750 3233 4129 
Q 3647 3509 3647 2328 
Q 3647 1150 3233 529 
Q 2819 -91 2034 -91 
Q 1250 -91 836 529 
Q 422 1150 422 2328 
Q 422 3509 836 4129 
Q 1250 4750 2034 4750 
z
" transform="scale(0.015625)"/>
       </defs>
       <use xlink:href="#DejaVuSans-30"/>
      </g>
     </g>
    </g>
    <g id="xtick_2">
     <g id="line2d_3">
      <path d="M 175.890063 235.872 
L 175.890063 48.9888 
" clip-path="url(#pcfb852a069)" style="fill: none; stroke: #dcdcdc; stroke-width: 0.5; stroke-linecap: square"/>
     </g>
     <g id="line2d_4">
      <g>
       <use xlink:href="#m7a94321050" x="175.890063" y="235.872" style="stroke: #000000; stroke-width: 0.8"/>
      </g>
     </g>
     <g id="text_2">
      <!-- 25 -->
      <g transform="translate(167.618813 252.749969) scale(0.13 -0.13)">
       <defs>
        <path id="DejaVuSans-32" d="M 1228 531 
L 3431 531 
L 3431 0 
L 469 0 
L 469 531 
Q 828 903 1448 1529 
Q 2069 2156 2228 2338 
Q 2531 2678 2651 2914 
Q 2772 3150 2772 3378 
Q 2772 3750 2511 3984 
Q 2250 4219 1831 4219 
Q 1534 4219 1204 4116 
Q 875 4013 500 3803 
L 500 4441 
Q 881 4594 1212 4672 
Q 1544 4750 1819 4750 
Q 2544 4750 2975 4387 
Q 3406 4025 3406 3419 
Q 3406 3131 3298 2873 
Q 3191 2616 2906 2266 
Q 2828 2175 2409 1742 
Q 1991 1309 1228 531 
z
" transform="scale(0.015625)"/>
        <path id="DejaVuSans-35" d="M 691 4666 
L 3169 4666 
L 3169 4134 
L 1269 4134 
L 1269 2991 
Q 1406 3038 1543 3061 
Q 1681 3084 1819 3084 
Q 2600 3084 3056 2656 
Q 3513 2228 3513 1497 
Q 3513 744 3044 326 
Q 2575 -91 1722 -91 
Q 1428 -91 1123 -41 
Q 819 9 494 109 
L 494 744 
Q 775 591 1075 516 
Q 1375 441 1709 441 
Q 2250 441 2565 725 
Q 2881 1009 2881 1497 
Q 2881 1984 2565 2268 
Q 2250 2553 1709 2553 
Q 1456 2553 1204 2497 
Q 953 2441 691 2322 
L 691 4666 
z
" transform="scale(0.015625)"/>
       </defs>
       <use xlink:href="#DejaVuSans-32"/>
       <use xlink:href="#DejaVuSans-35" x="63.623047"/>
      </g>
     </g>
    </g>
    <g id="xtick_3">
     <g id="line2d_5">
      <path d="M 262.465116 235.872 
L 262.465116 48.9888 
" clip-path="url(#pcfb852a069)" style="fill: none; stroke: #dcdcdc; stroke-width: 0.5; stroke-linecap: square"/>
     </g>
     <g id="line2d_6">
      <g>
       <use xlink:href="#m7a94321050" x="262.465116" y="235.872" style="stroke: #000000; stroke-width: 0.8"/>
      </g>
     </g>
     <g id="text_3">
      <!-- 50 -->
      <g transform="translate(254.193866 252.749969) scale(0.13 -0.13)">
       <use xlink:href="#DejaVuSans-35"/>
       <use xlink:href="#DejaVuSans-30" x="63.623047"/>
      </g>
     </g>
    </g>
    <g id="xtick_4">
     <g id="line2d_7">
      <path d="M 349.040169 235.872 
L 349.040169 48.9888 
" clip-path="url(#pcfb852a069)" style="fill: none; stroke: #dcdcdc; stroke-width: 0.5; stroke-linecap: square"/>
     </g>
     <g id="line2d_8">
      <g>
       <use xlink:href="#m7a94321050" x="349.040169" y="235.872" style="stroke: #000000; stroke-width: 0.8"/>
      </g>
     </g>
     <g id="text_4">
      <!-- 75 -->
      <g transform="translate(340.768919 252.749969) scale(0.13 -0.13)">
       <defs>
        <path id="DejaVuSans-37" d="M 525 4666 
L 3525 4666 
L 3525 4397 
L 1831 0 
L 1172 0 
L 2766 4134 
L 525 4134 
L 525 4666 
z
" transform="scale(0.015625)"/>
       </defs>
       <use xlink:href="#DejaVuSans-37"/>
       <use xlink:href="#DejaVuSans-35" x="63.623047"/>
      </g>
     </g>
    </g>
    <g id="xtick_5">
     <g id="line2d_9">
      <path d="M 435.615222 235.872 
L 435.615222 48.9888 
" clip-path="url(#pcfb852a069)" style="fill: none; stroke: #dcdcdc; stroke-width: 0.5; stroke-linecap: square"/>
     </g>
     <g id="line2d_10">
      <g>
       <use xlink:href="#m7a94321050" x="435.615222" y="235.872" style="stroke: #000000; stroke-width: 0.8"/>
      </g>
     </g>
     <g id="text_5">
      <!-- 100 -->
      <g transform="translate(423.208347 252.749969) scale(0.13 -0.13)">
       <defs>
        <path id="DejaVuSans-31" d="M 794 531 
L 1825 531 
L 1825 4091 
L 703 3866 
L 703 4441 
L 1819 4666 
L 2450 4666 
L 2450 531 
L 3481 531 
L 3481 0 
L 794 0 
L 794 531 
z
" transform="scale(0.015625)"/>
       </defs>
       <use xlink:href="#DejaVuSans-31"/>
       <use xlink:href="#DejaVuSans-30" x="63.623047"/>
       <use xlink:href="#DejaVuSans-30" x="127.246094"/>
      </g>
     </g>
    </g>
    <g id="text_6">
     <!-- Time step -->
     <g transform="translate(225.507694 270.851219) scale(0.15 -0.15)">
      <defs>
       <path id="DejaVuSans-54" d="M -19 4666 
L 3928 4666 
L 3928 4134 
L 2272 4134 
L 2272 0 
L 1638 0 
L 1638 4134 
L -19 4134 
L -19 4666 
z
" transform="scale(0.015625)"/>
       <path id="DejaVuSans-69" d="M 603 3500 
L 1178 3500 
L 1178 0 
L 603 0 
L 603 3500 
z
M 603 4863 
L 1178 4863 
L 1178 4134 
L 603 4134 
L 603 4863 
z
" transform="scale(0.015625)"/>
       <path id="DejaVuSans-6d" d="M 3328 2828 
Q 3544 3216 3844 3400 
Q 4144 3584 4550 3584 
Q 5097 3584 5394 3201 
Q 5691 2819 5691 2113 
L 5691 0 
L 5113 0 
L 5113 2094 
Q 5113 2597 4934 2840 
Q 4756 3084 4391 3084 
Q 3944 3084 3684 2787 
Q 3425 2491 3425 1978 
L 3425 0 
L 2847 0 
L 2847 2094 
Q 2847 2600 2669 2842 
Q 2491 3084 2119 3084 
Q 1678 3084 1418 2786 
Q 1159 2488 1159 1978 
L 1159 0 
L 581 0 
L 581 3500 
L 1159 3500 
L 1159 2956 
Q 1356 3278 1631 3431 
Q 1906 3584 2284 3584 
Q 2666 3584 2933 3390 
Q 3200 3197 3328 2828 
z
" transform="scale(0.015625)"/>
       <path id="DejaVuSans-65" d="M 3597 1894 
L 3597 1613 
L 953 1613 
Q 991 1019 1311 708 
Q 1631 397 2203 397 
Q 2534 397 2845 478 
Q 3156 559 3463 722 
L 3463 178 
Q 3153 47 2828 -22 
Q 2503 -91 2169 -91 
Q 1331 -91 842 396 
Q 353 884 353 1716 
Q 353 2575 817 3079 
Q 1281 3584 2069 3584 
Q 2775 3584 3186 3129 
Q 3597 2675 3597 1894 
z
M 3022 2063 
Q 3016 2534 2758 2815 
Q 2500 3097 2075 3097 
Q 1594 3097 1305 2825 
Q 1016 2553 972 2059 
L 3022 2063 
z
" transform="scale(0.015625)"/>
       <path id="DejaVuSans-20" transform="scale(0.015625)"/>
       <path id="DejaVuSans-73" d="M 2834 3397 
L 2834 2853 
Q 2591 2978 2328 3040 
Q 2066 3103 1784 3103 
Q 1356 3103 1142 2972 
Q 928 2841 928 2578 
Q 928 2378 1081 2264 
Q 1234 2150 1697 2047 
L 1894 2003 
Q 2506 1872 2764 1633 
Q 3022 1394 3022 966 
Q 3022 478 2636 193 
Q 2250 -91 1575 -91 
Q 1294 -91 989 -36 
Q 684 19 347 128 
L 347 722 
Q 666 556 975 473 
Q 1284 391 1588 391 
Q 1994 391 2212 530 
Q 2431 669 2431 922 
Q 2431 1156 2273 1281 
Q 2116 1406 1581 1522 
L 1381 1569 
Q 847 1681 609 1914 
Q 372 2147 372 2553 
Q 372 3047 722 3315 
Q 1072 3584 1716 3584 
Q 2034 3584 2315 3537 
Q 2597 3491 2834 3397 
z
" transform="scale(0.015625)"/>
       <path id="DejaVuSans-74" d="M 1172 4494 
L 1172 3500 
L 2356 3500 
L 2356 3053 
L 1172 3053 
L 1172 1153 
Q 1172 725 1289 603 
Q 1406 481 1766 481 
L 2356 481 
L 2356 0 
L 1766 0 
Q 1100 0 847 248 
Q 594 497 594 1153 
L 594 3053 
L 172 3053 
L 172 3500 
L 594 3500 
L 594 4494 
L 1172 4494 
z
" transform="scale(0.015625)"/>
       <path id="DejaVuSans-70" d="M 1159 525 
L 1159 -1331 
L 581 -1331 
L 581 3500 
L 1159 3500 
L 1159 2969 
Q 1341 3281 1617 3432 
Q 1894 3584 2278 3584 
Q 2916 3584 3314 3078 
Q 3713 2572 3713 1747 
Q 3713 922 3314 415 
Q 2916 -91 2278 -91 
Q 1894 -91 1617 61 
Q 1341 213 1159 525 
z
M 3116 1747 
Q 3116 2381 2855 2742 
Q 2594 3103 2138 3103 
Q 1681 3103 1420 2742 
Q 1159 2381 1159 1747 
Q 1159 1113 1420 752 
Q 1681 391 2138 391 
Q 2594 391 2855 752 
Q 3116 1113 3116 1747 
z
" transform="scale(0.015625)"/>
      </defs>
      <use xlink:href="#DejaVuSans-54"/>
      <use xlink:href="#DejaVuSans-69" x="57.958984"/>
      <use xlink:href="#DejaVuSans-6d" x="85.742188"/>
      <use xlink:href="#DejaVuSans-65" x="183.154297"/>
      <use xlink:href="#DejaVuSans-20" x="244.677734"/>
      <use xlink:href="#DejaVuSans-73" x="276.464844"/>
      <use xlink:href="#DejaVuSans-74" x="328.564453"/>
      <use xlink:href="#DejaVuSans-65" x="367.773438"/>
      <use xlink:href="#DejaVuSans-70" x="429.296875"/>
     </g>
    </g>
   </g>
   <g id="matplotlib.axis_2">
    <g id="ytick_1">
     <g id="line2d_11">
      <path d="M 72 235.872 
L 452.930233 235.872 
" clip-path="url(#pcfb852a069)" style="fill: none; stroke: #dcdcdc; stroke-width: 0.5; stroke-linecap: square"/>
     </g>
     <g id="line2d_12">
      <defs>
       <path id="mf67f82bbe2" d="M 0 0 
L -3.5 0 
" style="stroke: #000000; stroke-width: 0.8"/>
      </defs>
      <g>
       <use xlink:href="#mf67f82bbe2" x="72" y="235.872" style="stroke: #000000; stroke-width: 0.8"/>
      </g>
     </g>
     <g id="text_7">
      <!-- 0.0 -->
      <g transform="translate(44.325937 240.810984) scale(0.13 -0.13)">
       <defs>
        <path id="DejaVuSans-2e" d="M 684 794 
L 1344 794 
L 1344 0 
L 684 0 
L 684 794 
z
" transform="scale(0.015625)"/>
       </defs>
       <use xlink:href="#DejaVuSans-30"/>
       <use xlink:href="#DejaVuSans-2e" x="63.623047"/>
       <use xlink:href="#DejaVuSans-30" x="95.410156"/>
      </g>
     </g>
    </g>
    <g id="ytick_2">
     <g id="line2d_13">
      <path d="M 72 184.195459 
L 452.930233 184.195459 
" clip-path="url(#pcfb852a069)" style="fill: none; stroke: #dcdcdc; stroke-width: 0.5; stroke-linecap: square"/>
     </g>
     <g id="line2d_14">
      <g>
       <use xlink:href="#mf67f82bbe2" x="72" y="184.195459" style="stroke: #000000; stroke-width: 0.8"/>
      </g>
     </g>
     <g id="text_8">
      <!-- 0.8 -->
      <g transform="translate(44.325937 189.134444) scale(0.13 -0.13)">
       <defs>
        <path id="DejaVuSans-38" d="M 2034 2216 
Q 1584 2216 1326 1975 
Q 1069 1734 1069 1313 
Q 1069 891 1326 650 
Q 1584 409 2034 409 
Q 2484 409 2743 651 
Q 3003 894 3003 1313 
Q 3003 1734 2745 1975 
Q 2488 2216 2034 2216 
z
M 1403 2484 
Q 997 2584 770 2862 
Q 544 3141 544 3541 
Q 544 4100 942 4425 
Q 1341 4750 2034 4750 
Q 2731 4750 3128 4425 
Q 3525 4100 3525 3541 
Q 3525 3141 3298 2862 
Q 3072 2584 2669 2484 
Q 3125 2378 3379 2068 
Q 3634 1759 3634 1313 
Q 3634 634 3220 271 
Q 2806 -91 2034 -91 
Q 1263 -91 848 271 
Q 434 634 434 1313 
Q 434 1759 690 2068 
Q 947 2378 1403 2484 
z
M 1172 3481 
Q 1172 3119 1398 2916 
Q 1625 2713 2034 2713 
Q 2441 2713 2670 2916 
Q 2900 3119 2900 3481 
Q 2900 3844 2670 4047 
Q 2441 4250 2034 4250 
Q 1625 4250 1398 4047 
Q 1172 3844 1172 3481 
z
" transform="scale(0.015625)"/>
       </defs>
       <use xlink:href="#DejaVuSans-30"/>
       <use xlink:href="#DejaVuSans-2e" x="63.623047"/>
       <use xlink:href="#DejaVuSans-38" x="95.410156"/>
      </g>
     </g>
    </g>
    <g id="ytick_3">
     <g id="line2d_15">
      <path d="M 72 132.518918 
L 452.930233 132.518918 
" clip-path="url(#pcfb852a069)" style="fill: none; stroke: #dcdcdc; stroke-width: 0.5; stroke-linecap: square"/>
     </g>
     <g id="line2d_16">
      <g>
       <use xlink:href="#mf67f82bbe2" x="72" y="132.518918" style="stroke: #000000; stroke-width: 0.8"/>
      </g>
     </g>
     <g id="text_9">
      <!-- 1.6 -->
      <g transform="translate(44.325937 137.457903) scale(0.13 -0.13)">
       <defs>
        <path id="DejaVuSans-36" d="M 2113 2584 
Q 1688 2584 1439 2293 
Q 1191 2003 1191 1497 
Q 1191 994 1439 701 
Q 1688 409 2113 409 
Q 2538 409 2786 701 
Q 3034 994 3034 1497 
Q 3034 2003 2786 2293 
Q 2538 2584 2113 2584 
z
M 3366 4563 
L 3366 3988 
Q 3128 4100 2886 4159 
Q 2644 4219 2406 4219 
Q 1781 4219 1451 3797 
Q 1122 3375 1075 2522 
Q 1259 2794 1537 2939 
Q 1816 3084 2150 3084 
Q 2853 3084 3261 2657 
Q 3669 2231 3669 1497 
Q 3669 778 3244 343 
Q 2819 -91 2113 -91 
Q 1303 -91 875 529 
Q 447 1150 447 2328 
Q 447 3434 972 4092 
Q 1497 4750 2381 4750 
Q 2619 4750 2861 4703 
Q 3103 4656 3366 4563 
z
" transform="scale(0.015625)"/>
       </defs>
       <use xlink:href="#DejaVuSans-31"/>
       <use xlink:href="#DejaVuSans-2e" x="63.623047"/>
       <use xlink:href="#DejaVuSans-36" x="95.410156"/>
      </g>
     </g>
    </g>
    <g id="ytick_4">
     <g id="line2d_17">
      <path d="M 72 80.842378 
L 452.930233 80.842378 
" clip-path="url(#pcfb852a069)" style="fill: none; stroke: #dcdcdc; stroke-width: 0.5; stroke-linecap: square"/>
     </g>
     <g id="line2d_18">
      <g>
       <use xlink:href="#mf67f82bbe2" x="72" y="80.842378" style="stroke: #000000; stroke-width: 0.8"/>
      </g>
     </g>
     <g id="text_10">
      <!-- 2.4 -->
      <g transform="translate(44.325937 85.781362) scale(0.13 -0.13)">
       <defs>
        <path id="DejaVuSans-34" d="M 2419 4116 
L 825 1625 
L 2419 1625 
L 2419 4116 
z
M 2253 4666 
L 3047 4666 
L 3047 1625 
L 3713 1625 
L 3713 1100 
L 3047 1100 
L 3047 0 
L 2419 0 
L 2419 1100 
L 313 1100 
L 313 1709 
L 2253 4666 
z
" transform="scale(0.015625)"/>
       </defs>
       <use xlink:href="#DejaVuSans-32"/>
       <use xlink:href="#DejaVuSans-2e" x="63.623047"/>
       <use xlink:href="#DejaVuSans-34" x="95.410156"/>
      </g>
     </g>
    </g>
    <g id="text_11">
     <!-- TotalBiomass -->
     <g transform="translate(37.206406 191.479228) rotate(-90) scale(0.15 -0.15)">
      <defs>
       <path id="DejaVuSans-6f" d="M 1959 3097 
Q 1497 3097 1228 2736 
Q 959 2375 959 1747 
Q 959 1119 1226 758 
Q 1494 397 1959 397 
Q 2419 397 2687 759 
Q 2956 1122 2956 1747 
Q 2956 2369 2687 2733 
Q 2419 3097 1959 3097 
z
M 1959 3584 
Q 2709 3584 3137 3096 
Q 3566 2609 3566 1747 
Q 3566 888 3137 398 
Q 2709 -91 1959 -91 
Q 1206 -91 779 398 
Q 353 888 353 1747 
Q 353 2609 779 3096 
Q 1206 3584 1959 3584 
z
" transform="scale(0.015625)"/>
       <path id="DejaVuSans-61" d="M 2194 1759 
Q 1497 1759 1228 1600 
Q 959 1441 959 1056 
Q 959 750 1161 570 
Q 1363 391 1709 391 
Q 2188 391 2477 730 
Q 2766 1069 2766 1631 
L 2766 1759 
L 2194 1759 
z
M 3341 1997 
L 3341 0 
L 2766 0 
L 2766 531 
Q 2569 213 2275 61 
Q 1981 -91 1556 -91 
Q 1019 -91 701 211 
Q 384 513 384 1019 
Q 384 1609 779 1909 
Q 1175 2209 1959 2209 
L 2766 2209 
L 2766 2266 
Q 2766 2663 2505 2880 
Q 2244 3097 1772 3097 
Q 1472 3097 1187 3025 
Q 903 2953 641 2809 
L 641 3341 
Q 956 3463 1253 3523 
Q 1550 3584 1831 3584 
Q 2591 3584 2966 3190 
Q 3341 2797 3341 1997 
z
" transform="scale(0.015625)"/>
       <path id="DejaVuSans-6c" d="M 603 4863 
L 1178 4863 
L 1178 0 
L 603 0 
L 603 4863 
z
" transform="scale(0.015625)"/>
       <path id="DejaVuSans-42" d="M 1259 2228 
L 1259 519 
L 2272 519 
Q 2781 519 3026 730 
Q 3272 941 3272 1375 
Q 3272 1813 3026 2020 
Q 2781 2228 2272 2228 
L 1259 2228 
z
M 1259 4147 
L 1259 2741 
L 2194 2741 
Q 2656 2741 2882 2914 
Q 3109 3088 3109 3444 
Q 3109 3797 2882 3972 
Q 2656 4147 2194 4147 
L 1259 4147 
z
M 628 4666 
L 2241 4666 
Q 2963 4666 3353 4366 
Q 3744 4066 3744 3513 
Q 3744 3084 3544 2831 
Q 3344 2578 2956 2516 
Q 3422 2416 3680 2098 
Q 3938 1781 3938 1306 
Q 3938 681 3513 340 
Q 3088 0 2303 0 
L 628 0 
L 628 4666 
z
" transform="scale(0.015625)"/>
      </defs>
      <use xlink:href="#DejaVuSans-54"/>
      <use xlink:href="#DejaVuSans-6f" x="44.083984"/>
      <use xlink:href="#DejaVuSans-74" x="105.265625"/>
      <use xlink:href="#DejaVuSans-61" x="144.474609"/>
      <use xlink:href="#DejaVuSans-6c" x="205.753906"/>
      <use xlink:href="#DejaVuSans-42" x="233.537109"/>
      <use xlink:href="#DejaVuSans-69" x="302.140625"/>
      <use xlink:href="#DejaVuSans-6f" x="329.923828"/>
      <use xlink:href="#DejaVuSans-6d" x="391.105469"/>
      <use xlink:href="#DejaVuSans-61" x="488.517578"/>
      <use xlink:href="#DejaVuSans-73" x="549.796875"/>
      <use xlink:href="#DejaVuSans-73" x="601.896484"/>
     </g>
    </g>
    <g id="text_12">
     <!-- 1e4 -->
     <g transform="translate(72 45.9888) scale(0.12 -0.12)">
      <use xlink:href="#DejaVuSans-31"/>
      <use xlink:href="#DejaVuSans-65" x="63.623047"/>
      <use xlink:href="#DejaVuSans-34" x="125.146484"/>
     </g>
    </g>
   </g>
   <g id="PolyCollection_1">
    <defs>
     <path id="m32c414b354" d="M 89.315011 -69.744851 
L 89.315011 -71.36685 
L 106.630021 -75.197099 
L 123.945032 -82.086338 
L 141.260042 -92.631726 
L 158.575053 -103.796218 
L 175.890063 -125.439141 
L 193.205074 -144.996781 
L 210.520085 -163.064537 
L 227.835095 -178.656711 
L 245.150106 -189.41025 
L 262.465116 -204.784815 
L 279.780127 -207.069816 
L 297.095137 -211.646491 
L 314.410148 -221.660766 
L 331.725159 -228.258118 
L 349.040169 -233.582792 
L 366.35518 -238.584939 
L 383.67019 -244.512 
L 400.985201 -242.028486 
L 418.300211 -244.488156 
L 435.615222 -235.703081 
L 435.615222 -127.355099 
L 435.615222 -127.355099 
L 418.300211 -161.525192 
L 400.985201 -163.374149 
L 383.67019 -170.483352 
L 366.35518 -168.806184 
L 349.040169 -167.335689 
L 331.725159 -163.312672 
L 314.410148 -158.984698 
L 297.095137 -152.951262 
L 279.780127 -147.140281 
L 262.465116 -145.224444 
L 245.150106 -134.57088 
L 227.835095 -126.227508 
L 210.520085 -115.170296 
L 193.205074 -104.590541 
L 175.890063 -94.541038 
L 158.575053 -85.310923 
L 141.260042 -79.904376 
L 123.945032 -75.002845 
L 106.630021 -71.740563 
L 89.315011 -69.744851 
z
"/>
    </defs>
    <g clip-path="url(#pcfb852a069)">
     <use xlink:href="#m32c414b354" x="0" y="302.4" style="fill: #fcffa4; fill-opacity: 0.3"/>
    </g>
   </g>
   <g id="PolyCollection_2">
    <defs>
     <path id="m246973aa84" d="M 89.315011 -73.178942 
L 89.315011 -74.965006 
L 106.630021 -80.76866 
L 123.945032 -90.1703 
L 141.260042 -103.169472 
L 158.575053 -116.197168 
L 175.890063 -139.607974 
L 193.205074 -157.21686 
L 210.520085 -172.351254 
L 227.835095 -187.323493 
L 245.150106 -192.531896 
L 262.465116 -206.107508 
L 279.780127 -198.798001 
L 297.095137 -200.639205 
L 314.410148 -210.816034 
L 331.725159 -212.587009 
L 349.040169 -219.177329 
L 366.35518 -225.65365 
L 383.67019 -233.150801 
L 400.985201 -230.370819 
L 418.300211 -234.310595 
L 435.615222 -232.035042 
L 435.615222 -141.788395 
L 435.615222 -141.788395 
L 418.300211 -161.288277 
L 400.985201 -159.848447 
L 383.67019 -164.10123 
L 366.35518 -161.104425 
L 349.040169 -157.68549 
L 331.725159 -154.457655 
L 314.410148 -152.069444 
L 297.095137 -146.592053 
L 279.780127 -142.037433 
L 262.465116 -151.856037 
L 245.150106 -142.866829 
L 227.835095 -147.030979 
L 210.520085 -139.666007 
L 193.205074 -128.1382 
L 175.890063 -115.270458 
L 158.575053 -100.443492 
L 141.260042 -91.924628 
L 123.945032 -83.38817 
L 106.630021 -77.183211 
L 89.315011 -73.178942 
z
"/>
    </defs>
    <g clip-path="url(#pcfb852a069)">
     <use xlink:href="#m246973aa84" x="0" y="302.4" style="fill: #f98e09; fill-opacity: 0.3"/>
    </g>
   </g>
   <g id="PolyCollection_3">
    <defs>
     <path id="m4b0a49a7a9" d="M 89.315011 -76.593006 
L 89.315011 -78.411933 
L 106.630021 -85.765737 
L 123.945032 -96.661922 
L 141.260042 -111.81236 
L 158.575053 -125.072274 
L 175.890063 -148.034546 
L 193.205074 -163.264041 
L 210.520085 -174.844765 
L 227.835095 -185.734792 
L 245.150106 -177.958242 
L 262.465116 -188.023574 
L 279.780127 -180.971972 
L 297.095137 -183.638461 
L 314.410148 -192.915583 
L 331.725159 -196.016183 
L 349.040169 -201.470932 
L 366.35518 -208.19365 
L 383.67019 -215.243528 
L 400.985201 -212.532322 
L 418.300211 -217.493488 
L 435.615222 -215.527904 
L 435.615222 -138.481352 
L 435.615222 -138.481352 
L 418.300211 -151.855097 
L 400.985201 -149.938916 
L 383.67019 -155.258193 
L 366.35518 -152.664634 
L 349.040169 -151.22928 
L 331.725159 -147.546505 
L 314.410148 -146.675608 
L 297.095137 -141.265973 
L 279.780127 -137.092607 
L 262.465116 -147.67888 
L 245.150106 -138.281897 
L 227.835095 -150.574345 
L 210.520085 -149.862446 
L 193.205074 -142.571182 
L 175.890063 -130.005544 
L 158.575053 -113.182616 
L 141.260042 -102.225301 
L 123.945032 -90.99688 
L 106.630021 -82.395739 
L 89.315011 -76.593006 
z
"/>
    </defs>
    <g clip-path="url(#pcfb852a069)">
     <use xlink:href="#m4b0a49a7a9" x="0" y="302.4" style="fill: #bc3754; fill-opacity: 0.3"/>
    </g>
   </g>
   <g id="PolyCollection_4">
    <defs>
     <path id="m3b57afb181" d="M 89.315011 -79.822489 
L 89.315011 -81.425027 
L 106.630021 -89.764171 
L 123.945032 -101.413165 
L 141.260042 -117.546519 
L 158.575053 -129.845171 
L 175.890063 -150.614944 
L 193.205074 -163.239019 
L 210.520085 -171.025302 
L 227.835095 -179.179689 
L 245.150106 -170.884632 
L 262.465116 -179.051838 
L 279.780127 -169.784531 
L 297.095137 -170.558364 
L 314.410148 -177.758775 
L 331.725159 -180.356802 
L 349.040169 -185.363346 
L 366.35518 -190.603452 
L 383.67019 -194.882987 
L 400.985201 -191.301403 
L 418.300211 -196.366605 
L 435.615222 -194.27764 
L 435.615222 -133.435388 
L 435.615222 -133.435388 
L 418.300211 -139.804969 
L 400.985201 -138.768955 
L 383.67019 -147.681931 
L 366.35518 -147.944286 
L 349.040169 -147.455919 
L 331.725159 -146.114336 
L 314.410148 -143.585739 
L 297.095137 -137.397044 
L 279.780127 -134.44337 
L 262.465116 -145.787846 
L 245.150106 -136.158968 
L 227.835095 -147.890432 
L 210.520085 -149.249819 
L 193.205074 -147.967514 
L 175.890063 -138.505501 
L 158.575053 -121.338207 
L 141.260042 -110.484994 
L 123.945032 -96.884985 
L 106.630021 -86.973311 
L 89.315011 -79.822489 
z
"/>
    </defs>
    <g clip-path="url(#pcfb852a069)">
     <use xlink:href="#m3b57afb181" x="0" y="302.4" style="fill: #57106e; fill-opacity: 0.3"/>
    </g>
   </g>
   <g id="PolyCollection_5">
    <defs>
     <path id="mfc14ef9c19" d="M 89.315011 -83.106507 
L 89.315011 -84.118409 
L 106.630021 -93.149893 
L 123.945032 -105.442474 
L 141.260042 -120.903762 
L 158.575053 -131.910572 
L 175.890063 -150.692398 
L 193.205074 -163.337433 
L 210.520085 -167.839647 
L 227.835095 -173.110585 
L 245.150106 -166.14272 
L 262.465116 -174.116762 
L 279.780127 -165.367992 
L 297.095137 -165.91175 
L 314.410148 -170.69449 
L 331.725159 -172.745602 
L 349.040169 -176.55367 
L 366.35518 -180.667179 
L 383.67019 -184.625272 
L 400.985201 -180.812978 
L 418.300211 -184.537886 
L 435.615222 -181.794339 
L 435.615222 -131.964318 
L 435.615222 -131.964318 
L 418.300211 -137.725102 
L 400.985201 -136.242849 
L 383.67019 -145.407362 
L 366.35518 -144.689813 
L 349.040169 -144.86004 
L 331.725159 -142.436408 
L 314.410148 -142.35501 
L 297.095137 -136.614004 
L 279.780127 -135.194905 
L 262.465116 -144.127987 
L 245.150106 -134.973839 
L 227.835095 -145.773377 
L 210.520085 -146.018745 
L 193.205074 -151.403156 
L 175.890063 -145.752266 
L 158.575053 -128.66383 
L 141.260042 -118.051009 
L 123.945032 -103.131375 
L 106.630021 -91.622723 
L 89.315011 -83.106507 
z
"/>
    </defs>
    <g clip-path="url(#pcfb852a069)">
     <use xlink:href="#mfc14ef9c19" x="0" y="302.4" style="fill: #000004; fill-opacity: 0.3"/>
    </g>
   </g>
   <g id="line2d_19">
    <path d="M 89.315011 231.84415 
L 106.630021 228.931169 
L 123.945032 223.855409 
L 141.260042 216.131949 
L 158.575053 207.84643 
L 175.890063 192.40991 
L 193.205074 177.606339 
L 210.520085 163.282583 
L 227.835095 149.957891 
L 245.150106 140.409435 
L 262.465116 127.39537 
L 279.780127 125.294951 
L 297.095137 120.101123 
L 314.410148 112.077268 
L 331.725159 106.614605 
L 349.040169 101.940759 
L 366.35518 98.704439 
L 383.67019 94.902324 
L 400.985201 99.698682 
L 418.300211 99.393326 
L 435.615222 120.87091 
" clip-path="url(#pcfb852a069)" style="fill: none; stroke: #fcffa4; stroke-linecap: square"/>
   </g>
   <g id="line2d_20">
    <path d="M 89.315011 228.328026 
L 106.630021 223.424064 
L 123.945032 215.620765 
L 141.260042 204.85295 
L 158.575053 194.07967 
L 175.890063 174.960784 
L 193.205074 159.72247 
L 210.520085 146.39137 
L 227.835095 135.222764 
L 245.150106 134.700637 
L 262.465116 123.418227 
L 279.780127 131.982283 
L 297.095137 128.784371 
L 314.410148 120.957261 
L 331.725159 118.877668 
L 349.040169 113.968591 
L 366.35518 109.020962 
L 383.67019 103.773985 
L 400.985201 107.290367 
L 418.300211 104.600564 
L 435.615222 115.488281 
" clip-path="url(#pcfb852a069)" style="fill: none; stroke: #f98e09; stroke-linecap: square"/>
   </g>
   <g id="line2d_21">
    <path d="M 89.315011 224.897531 
L 106.630021 218.319262 
L 123.945032 208.570599 
L 141.260042 195.381169 
L 158.575053 183.272555 
L 175.890063 163.379955 
L 193.205074 149.482389 
L 210.520085 140.046395 
L 227.835095 134.245432 
L 245.150106 144.279931 
L 262.465116 134.548773 
L 279.780127 143.367711 
L 297.095137 139.947783 
L 314.410148 132.604404 
L 331.725159 130.618656 
L 349.040169 126.049894 
L 366.35518 121.970858 
L 383.67019 117.14914 
L 400.985201 121.164381 
L 418.300211 117.725708 
L 435.615222 125.395372 
" clip-path="url(#pcfb852a069)" style="fill: none; stroke: #bc3754; stroke-linecap: square"/>
   </g>
   <g id="line2d_22">
    <path d="M 89.315011 221.776242 
L 106.630021 214.031259 
L 123.945032 203.250925 
L 141.260042 188.384243 
L 158.575053 176.808311 
L 175.890063 157.839777 
L 193.205074 146.796733 
L 210.520085 142.26244 
L 227.835095 138.86494 
L 245.150106 148.8782 
L 262.465116 139.980158 
L 279.780127 150.28605 
L 297.095137 148.422296 
L 314.410148 141.727743 
L 331.725159 139.164431 
L 349.040169 135.990368 
L 366.35518 133.126131 
L 383.67019 131.117541 
L 400.985201 137.364821 
L 418.300211 134.314213 
L 435.615222 138.543486 
" clip-path="url(#pcfb852a069)" style="fill: none; stroke: #57106e; stroke-linecap: square"/>
   </g>
   <g id="line2d_23">
    <path d="M 89.315011 218.787542 
L 106.630021 210.013692 
L 123.945032 198.113076 
L 141.260042 182.922614 
L 158.575053 172.112799 
L 175.890063 154.177668 
L 193.205074 145.029706 
L 210.520085 145.470804 
L 227.835095 142.958019 
L 245.150106 151.84172 
L 262.465116 143.277625 
L 279.780127 152.118551 
L 297.095137 151.137123 
L 314.410148 145.87525 
L 331.725159 144.808995 
L 349.040169 141.693145 
L 366.35518 139.721504 
L 383.67019 137.383683 
L 400.985201 143.872086 
L 418.300211 141.268506 
L 435.615222 145.520671 
" clip-path="url(#pcfb852a069)" style="fill: none; stroke: #000004; stroke-linecap: square"/>
   </g>
   <g id="patch_3">
    <path d="M 72 235.872 
L 72 48.9888 
" style="fill: none; stroke: #000000; stroke-width: 0.8; stroke-linejoin: miter; stroke-linecap: square"/>
   </g>
   <g id="patch_4">
    <path d="M 72 235.872 
L 452.930233 235.872 
" style="fill: none; stroke: #000000; stroke-width: 0.8; stroke-linejoin: miter; stroke-linecap: square"/>
   </g>
   <g id="text_13">
    <!-- PnET -->
    <g transform="translate(242.770116 289.674624) scale(0.16 -0.16)">
     <defs>
      <path id="DejaVuSans-50" d="M 1259 4147 
L 1259 2394 
L 2053 2394 
Q 2494 2394 2734 2622 
Q 2975 2850 2975 3272 
Q 2975 3691 2734 3919 
Q 2494 4147 2053 4147 
L 1259 4147 
z
M 628 4666 
L 2053 4666 
Q 2838 4666 3239 4311 
Q 3641 3956 3641 3272 
Q 3641 2581 3239 2228 
Q 2838 1875 2053 1875 
L 1259 1875 
L 1259 0 
L 628 0 
L 628 4666 
z
" transform="scale(0.015625)"/>
      <path id="DejaVuSans-6e" d="M 3513 2113 
L 3513 0 
L 2938 0 
L 2938 2094 
Q 2938 2591 2744 2837 
Q 2550 3084 2163 3084 
Q 1697 3084 1428 2787 
Q 1159 2491 1159 1978 
L 1159 0 
L 581 0 
L 581 3500 
L 1159 3500 
L 1159 2956 
Q 1366 3272 1645 3428 
Q 1925 3584 2291 3584 
Q 2894 3584 3203 3211 
Q 3513 2838 3513 2113 
z
" transform="scale(0.015625)"/>
      <path id="DejaVuSans-45" d="M 628 4666 
L 3578 4666 
L 3578 4134 
L 1259 4134 
L 1259 2753 
L 3481 2753 
L 3481 2222 
L 1259 2222 
L 1259 531 
L 3634 531 
L 3634 0 
L 628 0 
L 628 4666 
z
" transform="scale(0.015625)"/>
     </defs>
     <use xlink:href="#DejaVuSans-50"/>
     <use xlink:href="#DejaVuSans-6e" x="58.552734"/>
     <use xlink:href="#DejaVuSans-45" x="121.931641"/>
     <use xlink:href="#DejaVuSans-54" x="185.115234"/>
    </g>
   </g>
   <g id="legend_1">
    <g id="patch_5">
     <path d="M 266.5125 37.164 
L 633.4875 37.164 
Q 635.8875 37.164 635.8875 34.764 
L 635.8875 11.424 
Q 635.8875 9.024 633.4875 9.024 
L 266.5125 9.024 
Q 264.1125 9.024 264.1125 11.424 
L 264.1125 34.764 
Q 264.1125 37.164 266.5125 37.164 
z
" style="fill: #ffffff; opacity: 0.8; stroke: #cccccc; stroke-linejoin: miter"/>
    </g>
    <g id="patch_6">
     <path d="M 268.9125 32.364 
L 304.9125 32.364 
L 304.9125 13.824 
L 268.9125 13.824 
z
" style="fill: #fcffa4; fill-opacity: 0.3"/>
    </g>
    <g id="line2d_24">
     <path d="M 268.9125 20.364 
L 286.9125 20.364 
L 304.9125 20.364 
" style="fill: none; stroke: #fcffa4; stroke-linecap: square"/>
    </g>
    <g id="text_14">
     <!-- 1 -->
     <g transform="translate(314.5125 26.904) scale(0.12 -0.12)">
      <use xlink:href="#DejaVuSans-31"/>
     </g>
    </g>
    <g id="patch_7">
     <path d="M 346.1475 32.364 
L 382.1475 32.364 
L 382.1475 13.824 
L 346.1475 13.824 
z
" style="fill: #f98e09; fill-opacity: 0.3"/>
    </g>
    <g id="line2d_25">
     <path d="M 346.1475 20.364 
L 364.1475 20.364 
L 382.1475 20.364 
" style="fill: none; stroke: #f98e09; stroke-linecap: square"/>
    </g>
    <g id="text_15">
     <!-- 2 -->
     <g transform="translate(391.7475 26.904) scale(0.12 -0.12)">
      <use xlink:href="#DejaVuSans-32"/>
     </g>
    </g>
    <g id="patch_8">
     <path d="M 423.3825 32.364 
L 459.3825 32.364 
L 459.3825 13.824 
L 423.3825 13.824 
z
" style="fill: #bc3754; fill-opacity: 0.3"/>
    </g>
    <g id="line2d_26">
     <path d="M 423.3825 20.364 
L 441.3825 20.364 
L 459.3825 20.364 
" style="fill: none; stroke: #bc3754; stroke-linecap: square"/>
    </g>
    <g id="text_16">
     <!-- 3 -->
     <g transform="translate(468.9825 26.904) scale(0.12 -0.12)">
      <defs>
       <path id="DejaVuSans-33" d="M 2597 2516 
Q 3050 2419 3304 2112 
Q 3559 1806 3559 1356 
Q 3559 666 3084 287 
Q 2609 -91 1734 -91 
Q 1441 -91 1130 -33 
Q 819 25 488 141 
L 488 750 
Q 750 597 1062 519 
Q 1375 441 1716 441 
Q 2309 441 2620 675 
Q 2931 909 2931 1356 
Q 2931 1769 2642 2001 
Q 2353 2234 1838 2234 
L 1294 2234 
L 1294 2753 
L 1863 2753 
Q 2328 2753 2575 2939 
Q 2822 3125 2822 3475 
Q 2822 3834 2567 4026 
Q 2313 4219 1838 4219 
Q 1578 4219 1281 4162 
Q 984 4106 628 3988 
L 628 4550 
Q 988 4650 1302 4700 
Q 1616 4750 1894 4750 
Q 2613 4750 3031 4423 
Q 3450 4097 3450 3541 
Q 3450 3153 3228 2886 
Q 3006 2619 2597 2516 
z
" transform="scale(0.015625)"/>
      </defs>
      <use xlink:href="#DejaVuSans-33"/>
     </g>
    </g>
    <g id="patch_9">
     <path d="M 500.6175 32.364 
L 536.6175 32.364 
L 536.6175 13.824 
L 500.6175 13.824 
z
" style="fill: #57106e; fill-opacity: 0.3"/>
    </g>
    <g id="line2d_27">
     <path d="M 500.6175 20.364 
L 518.6175 20.364 
L 536.6175 20.364 
" style="fill: none; stroke: #57106e; stroke-linecap: square"/>
    </g>
    <g id="text_17">
     <!-- 4 -->
     <g transform="translate(546.2175 26.904) scale(0.12 -0.12)">
      <use xlink:href="#DejaVuSans-34"/>
     </g>
    </g>
    <g id="patch_10">
     <path d="M 577.8525 32.364 
L 613.8525 32.364 
L 613.8525 13.824 
L 577.8525 13.824 
z
" style="fill: #000004; fill-opacity: 0.3"/>
    </g>
    <g id="line2d_28">
     <path d="M 577.8525 20.364 
L 595.8525 20.364 
L 613.8525 20.364 
" style="fill: none; stroke: #000004; stroke-linecap: square"/>
    </g>
    <g id="text_18">
     <!-- 5 -->
     <g transform="translate(623.4525 26.904) scale(0.12 -0.12)">
      <use xlink:href="#DejaVuSans-35"/>
     </g>
    </g>
   </g>
  </g>
  <g id="axes_2">
   <g id="patch_11">
    <path d="M 510.069767 235.872 
L 891 235.872 
L 891 48.9888 
L 510.069767 48.9888 
z
" style="fill: #fcfcfc"/>
   </g>
   <g id="matplotlib.axis_3">
    <g id="xtick_6">
     <g id="line2d_29">
      <path d="M 527.384778 235.872 
L 527.384778 48.9888 
" clip-path="url(#pa1c157cf97)" style="fill: none; stroke: #dcdcdc; stroke-width: 0.5; stroke-linecap: square"/>
     </g>
     <g id="line2d_30">
      <g>
       <use xlink:href="#m7a94321050" x="527.384778" y="235.872" style="stroke: #000000; stroke-width: 0.8"/>
      </g>
     </g>
     <g id="text_19">
      <!-- 0 -->
      <g transform="translate(523.249153 252.749969) scale(0.13 -0.13)">
       <use xlink:href="#DejaVuSans-30"/>
      </g>
     </g>
    </g>
    <g id="xtick_7">
     <g id="line2d_31">
      <path d="M 613.959831 235.872 
L 613.959831 48.9888 
" clip-path="url(#pa1c157cf97)" style="fill: none; stroke: #dcdcdc; stroke-width: 0.5; stroke-linecap: square"/>
     </g>
     <g id="line2d_32">
      <g>
       <use xlink:href="#m7a94321050" x="613.959831" y="235.872" style="stroke: #000000; stroke-width: 0.8"/>
      </g>
     </g>
     <g id="text_20">
      <!-- 25 -->
      <g transform="translate(605.688581 252.749969) scale(0.13 -0.13)">
       <use xlink:href="#DejaVuSans-32"/>
       <use xlink:href="#DejaVuSans-35" x="63.623047"/>
      </g>
     </g>
    </g>
    <g id="xtick_8">
     <g id="line2d_33">
      <path d="M 700.534884 235.872 
L 700.534884 48.9888 
" clip-path="url(#pa1c157cf97)" style="fill: none; stroke: #dcdcdc; stroke-width: 0.5; stroke-linecap: square"/>
     </g>
     <g id="line2d_34">
      <g>
       <use xlink:href="#m7a94321050" x="700.534884" y="235.872" style="stroke: #000000; stroke-width: 0.8"/>
      </g>
     </g>
     <g id="text_21">
      <!-- 50 -->
      <g transform="translate(692.263634 252.749969) scale(0.13 -0.13)">
       <use xlink:href="#DejaVuSans-35"/>
       <use xlink:href="#DejaVuSans-30" x="63.623047"/>
      </g>
     </g>
    </g>
    <g id="xtick_9">
     <g id="line2d_35">
      <path d="M 787.109937 235.872 
L 787.109937 48.9888 
" clip-path="url(#pa1c157cf97)" style="fill: none; stroke: #dcdcdc; stroke-width: 0.5; stroke-linecap: square"/>
     </g>
     <g id="line2d_36">
      <g>
       <use xlink:href="#m7a94321050" x="787.109937" y="235.872" style="stroke: #000000; stroke-width: 0.8"/>
      </g>
     </g>
     <g id="text_22">
      <!-- 75 -->
      <g transform="translate(778.838687 252.749969) scale(0.13 -0.13)">
       <use xlink:href="#DejaVuSans-37"/>
       <use xlink:href="#DejaVuSans-35" x="63.623047"/>
      </g>
     </g>
    </g>
    <g id="xtick_10">
     <g id="line2d_37">
      <path d="M 873.684989 235.872 
L 873.684989 48.9888 
" clip-path="url(#pa1c157cf97)" style="fill: none; stroke: #dcdcdc; stroke-width: 0.5; stroke-linecap: square"/>
     </g>
     <g id="line2d_38">
      <g>
       <use xlink:href="#m7a94321050" x="873.684989" y="235.872" style="stroke: #000000; stroke-width: 0.8"/>
      </g>
     </g>
     <g id="text_23">
      <!-- 100 -->
      <g transform="translate(861.278114 252.749969) scale(0.13 -0.13)">
       <use xlink:href="#DejaVuSans-31"/>
       <use xlink:href="#DejaVuSans-30" x="63.623047"/>
       <use xlink:href="#DejaVuSans-30" x="127.246094"/>
      </g>
     </g>
    </g>
    <g id="text_24">
     <!-- Time step -->
     <g transform="translate(663.577462 270.851219) scale(0.15 -0.15)">
      <use xlink:href="#DejaVuSans-54"/>
      <use xlink:href="#DejaVuSans-69" x="57.958984"/>
      <use xlink:href="#DejaVuSans-6d" x="85.742188"/>
      <use xlink:href="#DejaVuSans-65" x="183.154297"/>
      <use xlink:href="#DejaVuSans-20" x="244.677734"/>
      <use xlink:href="#DejaVuSans-73" x="276.464844"/>
      <use xlink:href="#DejaVuSans-74" x="328.564453"/>
      <use xlink:href="#DejaVuSans-65" x="367.773438"/>
      <use xlink:href="#DejaVuSans-70" x="429.296875"/>
     </g>
    </g>
   </g>
   <g id="matplotlib.axis_4">
    <g id="ytick_5">
     <g id="line2d_39">
      <path d="M 510.069767 235.872 
L 891 235.872 
" clip-path="url(#pa1c157cf97)" style="fill: none; stroke: #dcdcdc; stroke-width: 0.5; stroke-linecap: square"/>
     </g>
    </g>
    <g id="ytick_6">
     <g id="line2d_40">
      <path d="M 510.069767 184.195459 
L 891 184.195459 
" clip-path="url(#pa1c157cf97)" style="fill: none; stroke: #dcdcdc; stroke-width: 0.5; stroke-linecap: square"/>
     </g>
    </g>
    <g id="ytick_7">
     <g id="line2d_41">
      <path d="M 510.069767 132.518918 
L 891 132.518918 
" clip-path="url(#pa1c157cf97)" style="fill: none; stroke: #dcdcdc; stroke-width: 0.5; stroke-linecap: square"/>
     </g>
    </g>
    <g id="ytick_8">
     <g id="line2d_42">
      <path d="M 510.069767 80.842378 
L 891 80.842378 
" clip-path="url(#pa1c157cf97)" style="fill: none; stroke: #dcdcdc; stroke-width: 0.5; stroke-linecap: square"/>
     </g>
    </g>
   </g>
   <g id="PolyCollection_6">
    <defs>
     <path id="m5839846a16" d="M 527.384778 -73.689246 
L 527.384778 -96.023121 
L 544.699789 -101.41824 
L 562.014799 -104.94659 
L 579.32981 -107.359577 
L 596.64482 -109.159164 
L 613.959831 -110.53575 
L 631.274841 -111.580115 
L 648.589852 -112.446825 
L 665.904863 -113.238928 
L 683.219873 -113.987697 
L 700.534884 -114.705774 
L 717.849894 -115.44145 
L 735.164905 -116.140152 
L 752.479915 -116.817046 
L 769.794926 -117.513384 
L 787.109937 -118.192839 
L 804.424947 -118.847984 
L 821.739958 -119.467897 
L 839.054968 -120.024651 
L 856.369979 -120.481372 
L 873.684989 -120.764315 
L 873.684989 -102.420146 
L 873.684989 -102.420146 
L 856.369979 -102.174541 
L 839.054968 -101.835185 
L 821.739958 -101.491035 
L 804.424947 -101.106692 
L 787.109937 -100.662265 
L 769.794926 -100.07554 
L 752.479915 -99.484281 
L 735.164905 -98.757123 
L 717.849894 -97.782745 
L 700.534884 -96.548149 
L 683.219873 -94.879623 
L 665.904863 -92.84145 
L 648.589852 -90.518828 
L 631.274841 -88.008682 
L 613.959831 -85.102841 
L 596.64482 -82.272904 
L 579.32981 -79.395377 
L 562.014799 -77.360125 
L 544.699789 -75.467915 
L 527.384778 -73.689246 
z
"/>
    </defs>
    <g clip-path="url(#pa1c157cf97)">
     <use xlink:href="#m5839846a16" x="0" y="302.4" style="fill: #fcffa4; fill-opacity: 0.3"/>
    </g>
   </g>
   <g id="PolyCollection_7">
    <defs>
     <path id="m62daca37ea" d="M 527.384778 -83.323683 
L 527.384778 -100.671562 
L 544.699789 -106.801893 
L 562.014799 -110.810387 
L 579.32981 -113.590832 
L 596.64482 -115.61403 
L 613.959831 -117.107125 
L 631.274841 -118.116145 
L 648.589852 -118.787968 
L 665.904863 -119.325291 
L 683.219873 -119.769594 
L 700.534884 -120.143073 
L 717.849894 -120.557999 
L 735.164905 -120.958742 
L 752.479915 -121.384788 
L 769.794926 -121.805292 
L 787.109937 -122.26118 
L 804.424947 -122.770989 
L 821.739958 -123.336828 
L 839.054968 -123.920136 
L 856.369979 -124.479725 
L 873.684989 -124.954292 
L 873.684989 -113.832091 
L 873.684989 -113.832091 
L 856.369979 -113.447458 
L 839.054968 -112.899231 
L 821.739958 -112.18011 
L 804.424947 -111.392825 
L 787.109937 -110.481244 
L 769.794926 -109.520472 
L 752.479915 -108.555063 
L 735.164905 -107.470629 
L 717.849894 -106.194572 
L 700.534884 -104.935384 
L 683.219873 -103.618834 
L 665.904863 -102.173739 
L 648.589852 -100.290869 
L 631.274841 -97.936746 
L 613.959831 -95.281951 
L 596.64482 -92.875457 
L 579.32981 -90.330139 
L 562.014799 -88.54323 
L 544.699789 -86.311394 
L 527.384778 -83.323683 
z
"/>
    </defs>
    <g clip-path="url(#pa1c157cf97)">
     <use xlink:href="#m62daca37ea" x="0" y="302.4" style="fill: #f98e09; fill-opacity: 0.3"/>
    </g>
   </g>
   <g id="PolyCollection_8">
    <defs>
     <path id="m7e47f750af" d="M 527.384778 -92.23392 
L 527.384778 -103.925931 
L 544.699789 -109.759246 
L 562.014799 -113.57439 
L 579.32981 -116.40243 
L 596.64482 -118.4683 
L 613.959831 -120.081636 
L 631.274841 -121.148061 
L 648.589852 -121.950903 
L 665.904863 -122.574114 
L 683.219873 -123.019969 
L 700.534884 -123.410627 
L 717.849894 -123.783 
L 735.164905 -124.135798 
L 752.479915 -124.477259 
L 769.794926 -124.820966 
L 787.109937 -125.185975 
L 804.424947 -125.499321 
L 821.739958 -125.857621 
L 839.054968 -126.205189 
L 856.369979 -126.486282 
L 873.684989 -126.705875 
L 873.684989 -119.95131 
L 873.684989 -119.95131 
L 856.369979 -119.560216 
L 839.054968 -119.000454 
L 821.739958 -118.32139 
L 804.424947 -117.541592 
L 787.109937 -116.725443 
L 769.794926 -115.895329 
L 752.479915 -115.122848 
L 735.164905 -114.247224 
L 717.849894 -113.340639 
L 700.534884 -112.399782 
L 683.219873 -111.346882 
L 665.904863 -110.262181 
L 648.589852 -109.220529 
L 631.274841 -107.958919 
L 613.959831 -106.097532 
L 596.64482 -104.069971 
L 579.32981 -101.484849 
L 562.014799 -99.419483 
L 544.699789 -96.519338 
L 527.384778 -92.23392 
z
"/>
    </defs>
    <g clip-path="url(#pa1c157cf97)">
     <use xlink:href="#m7e47f750af" x="0" y="302.4" style="fill: #bc3754; fill-opacity: 0.3"/>
    </g>
   </g>
   <g id="PolyCollection_9">
    <defs>
     <path id="m83bca040ea" d="M 527.384778 -98.914148 
L 527.384778 -105.611594 
L 544.699789 -110.619002 
L 562.014799 -113.930953 
L 579.32981 -116.549322 
L 596.64482 -118.85537 
L 613.959831 -120.629024 
L 631.274841 -122.016222 
L 648.589852 -123.0642 
L 665.904863 -123.822736 
L 683.219873 -124.424306 
L 700.534884 -124.954381 
L 717.849894 -125.445027 
L 735.164905 -125.942495 
L 752.479915 -126.32177 
L 769.794926 -126.666559 
L 787.109937 -126.976387 
L 804.424947 -127.250413 
L 821.739958 -127.552912 
L 839.054968 -127.811604 
L 856.369979 -127.984415 
L 873.684989 -128.068146 
L 873.684989 -124.503962 
L 873.684989 -124.503962 
L 856.369979 -124.186166 
L 839.054968 -123.698913 
L 821.739958 -123.115303 
L 804.424947 -122.4699 
L 787.109937 -121.770986 
L 769.794926 -121.046016 
L 752.479915 -120.301464 
L 735.164905 -119.509232 
L 717.849894 -118.721556 
L 700.534884 -117.900678 
L 683.219873 -117.051221 
L 665.904863 -116.271839 
L 648.589852 -115.416672 
L 631.274841 -114.491019 
L 613.959831 -113.232792 
L 596.64482 -111.470581 
L 579.32981 -109.238215 
L 562.014799 -106.926539 
L 544.699789 -103.704172 
L 527.384778 -98.914148 
z
"/>
    </defs>
    <g clip-path="url(#pa1c157cf97)">
     <use xlink:href="#m83bca040ea" x="0" y="302.4" style="fill: #57106e; fill-opacity: 0.3"/>
    </g>
   </g>
   <g id="PolyCollection_10">
    <defs>
     <path id="m0d64df3968" d="M 527.384778 -105.694733 
L 527.384778 -105.721403 
L 544.699789 -110.100766 
L 562.014799 -113.084968 
L 579.32981 -115.418965 
L 596.64482 -118.038507 
L 613.959831 -119.922797 
L 631.274841 -121.279728 
L 648.589852 -122.363846 
L 665.904863 -123.201948 
L 683.219873 -124.022961 
L 700.534884 -124.77423 
L 717.849894 -125.483446 
L 735.164905 -126.083015 
L 752.479915 -126.595825 
L 769.794926 -127.094904 
L 787.109937 -127.505712 
L 804.424947 -127.896096 
L 821.739958 -128.250968 
L 839.054968 -128.611117 
L 856.369979 -128.925695 
L 873.684989 -129.088309 
L 873.684989 -127.286547 
L 873.684989 -127.286547 
L 856.369979 -127.178402 
L 839.054968 -126.973269 
L 821.739958 -126.706787 
L 804.424947 -126.428829 
L 787.109937 -126.047011 
L 769.794926 -125.583063 
L 752.479915 -125.095818 
L 735.164905 -124.5189 
L 717.849894 -123.954093 
L 700.534884 -123.285845 
L 683.219873 -122.609678 
L 665.904863 -121.931891 
L 648.589852 -121.175229 
L 631.274841 -120.179779 
L 613.959831 -118.882268 
L 596.64482 -117.225345 
L 579.32981 -115.391636 
L 562.014799 -113.049344 
L 544.699789 -110.069324 
L 527.384778 -105.694733 
z
"/>
    </defs>
    <g clip-path="url(#pa1c157cf97)">
     <use xlink:href="#m0d64df3968" x="0" y="302.4" style="fill: #000004; fill-opacity: 0.3"/>
    </g>
   </g>
   <g id="line2d_43">
    <path d="M 527.384778 217.543817 
L 544.699789 213.956922 
L 562.014799 211.246643 
L 579.32981 209.022523 
L 596.64482 206.683966 
L 613.959831 204.580705 
L 631.274841 202.605602 
L 648.589852 200.917174 
L 665.904863 199.359811 
L 683.219873 197.96634 
L 700.534884 196.773038 
L 717.849894 195.787903 
L 735.164905 194.951363 
L 752.479915 194.249337 
L 769.794926 193.605538 
L 787.109937 192.972448 
L 804.424947 192.422662 
L 821.739958 191.920534 
L 839.054968 191.470082 
L 856.369979 191.072044 
L 873.684989 190.80777 
" clip-path="url(#pa1c157cf97)" style="fill: none; stroke: #fcffa4; stroke-linecap: square"/>
   </g>
   <g id="line2d_44">
    <path d="M 527.384778 210.402377 
L 544.699789 205.843356 
L 562.014799 202.723191 
L 579.32981 200.439515 
L 596.64482 198.155257 
L 613.959831 196.205462 
L 631.274841 194.373554 
L 648.589852 192.860582 
L 665.904863 191.650485 
L 683.219873 190.705786 
L 700.534884 189.860771 
L 717.849894 189.023715 
L 735.164905 188.185314 
L 752.479915 187.430075 
L 769.794926 186.737118 
L 787.109937 186.028788 
L 804.424947 185.318093 
L 821.739958 184.641531 
L 839.054968 183.990316 
L 856.369979 183.436408 
L 873.684989 183.006808 
" clip-path="url(#pa1c157cf97)" style="fill: none; stroke: #f98e09; stroke-linecap: square"/>
   </g>
   <g id="line2d_45">
    <path d="M 527.384778 204.320074 
L 544.699789 199.260708 
L 562.014799 195.903064 
L 579.32981 193.45636 
L 596.64482 191.130864 
L 613.959831 189.310416 
L 631.274841 187.84651 
L 648.589852 186.814284 
L 665.904863 185.981853 
L 683.219873 185.216575 
L 700.534884 184.494796 
L 717.849894 183.838181 
L 735.164905 183.208489 
L 752.479915 182.599946 
L 769.794926 182.041852 
L 787.109937 181.444291 
L 804.424947 180.879544 
L 821.739958 180.310494 
L 839.054968 179.797178 
L 856.369979 179.376751 
L 873.684989 179.071407 
" clip-path="url(#pa1c157cf97)" style="fill: none; stroke: #bc3754; stroke-linecap: square"/>
   </g>
   <g id="line2d_46">
    <path d="M 527.384778 200.137129 
L 544.699789 195.238413 
L 562.014799 191.971254 
L 579.32981 189.506231 
L 596.64482 187.237024 
L 613.959831 185.469092 
L 631.274841 184.146379 
L 648.589852 183.159564 
L 665.904863 182.352713 
L 683.219873 181.662236 
L 700.534884 180.972471 
L 717.849894 180.316708 
L 735.164905 179.674137 
L 752.479915 179.088383 
L 769.794926 178.543712 
L 787.109937 178.026314 
L 804.424947 177.539844 
L 821.739958 177.065892 
L 839.054968 176.644741 
L 856.369979 176.314709 
L 873.684989 176.113946 
" clip-path="url(#pa1c157cf97)" style="fill: none; stroke: #57106e; stroke-linecap: square"/>
   </g>
   <g id="line2d_47">
    <path d="M 527.384778 196.691932 
L 544.699789 192.314955 
L 562.014799 189.332844 
L 579.32981 186.9947 
L 596.64482 184.768074 
L 613.959831 182.997468 
L 631.274841 181.670246 
L 648.589852 180.630463 
L 665.904863 179.833081 
L 683.219873 179.08368 
L 700.534884 178.369963 
L 717.849894 177.681231 
L 735.164905 177.099043 
L 752.479915 176.554178 
L 769.794926 176.061016 
L 787.109937 175.623639 
L 804.424947 175.237538 
L 821.739958 174.921122 
L 839.054968 174.607807 
L 856.369979 174.347952 
L 873.684989 174.212572 
" clip-path="url(#pa1c157cf97)" style="fill: none; stroke: #000004; stroke-linecap: square"/>
   </g>
   <g id="patch_12">
    <path d="M 510.069767 235.872 
L 891 235.872 
" style="fill: none; stroke: #000000; stroke-width: 0.8; stroke-linejoin: miter; stroke-linecap: square"/>
   </g>
   <g id="text_25">
    <!-- BiomassSuccession -->
    <g transform="translate(622.507384 289.674624) scale(0.16 -0.16)">
     <defs>
      <path id="DejaVuSans-53" d="M 3425 4513 
L 3425 3897 
Q 3066 4069 2747 4153 
Q 2428 4238 2131 4238 
Q 1616 4238 1336 4038 
Q 1056 3838 1056 3469 
Q 1056 3159 1242 3001 
Q 1428 2844 1947 2747 
L 2328 2669 
Q 3034 2534 3370 2195 
Q 3706 1856 3706 1288 
Q 3706 609 3251 259 
Q 2797 -91 1919 -91 
Q 1588 -91 1214 -16 
Q 841 59 441 206 
L 441 856 
Q 825 641 1194 531 
Q 1563 422 1919 422 
Q 2459 422 2753 634 
Q 3047 847 3047 1241 
Q 3047 1584 2836 1778 
Q 2625 1972 2144 2069 
L 1759 2144 
Q 1053 2284 737 2584 
Q 422 2884 422 3419 
Q 422 4038 858 4394 
Q 1294 4750 2059 4750 
Q 2388 4750 2728 4690 
Q 3069 4631 3425 4513 
z
" transform="scale(0.015625)"/>
      <path id="DejaVuSans-75" d="M 544 1381 
L 544 3500 
L 1119 3500 
L 1119 1403 
Q 1119 906 1312 657 
Q 1506 409 1894 409 
Q 2359 409 2629 706 
Q 2900 1003 2900 1516 
L 2900 3500 
L 3475 3500 
L 3475 0 
L 2900 0 
L 2900 538 
Q 2691 219 2414 64 
Q 2138 -91 1772 -91 
Q 1169 -91 856 284 
Q 544 659 544 1381 
z
M 1991 3584 
L 1991 3584 
z
" transform="scale(0.015625)"/>
      <path id="DejaVuSans-63" d="M 3122 3366 
L 3122 2828 
Q 2878 2963 2633 3030 
Q 2388 3097 2138 3097 
Q 1578 3097 1268 2742 
Q 959 2388 959 1747 
Q 959 1106 1268 751 
Q 1578 397 2138 397 
Q 2388 397 2633 464 
Q 2878 531 3122 666 
L 3122 134 
Q 2881 22 2623 -34 
Q 2366 -91 2075 -91 
Q 1284 -91 818 406 
Q 353 903 353 1747 
Q 353 2603 823 3093 
Q 1294 3584 2113 3584 
Q 2378 3584 2631 3529 
Q 2884 3475 3122 3366 
z
" transform="scale(0.015625)"/>
     </defs>
     <use xlink:href="#DejaVuSans-42"/>
     <use xlink:href="#DejaVuSans-69" x="68.603516"/>
     <use xlink:href="#DejaVuSans-6f" x="96.386719"/>
     <use xlink:href="#DejaVuSans-6d" x="157.568359"/>
     <use xlink:href="#DejaVuSans-61" x="254.980469"/>
     <use xlink:href="#DejaVuSans-73" x="316.259766"/>
     <use xlink:href="#DejaVuSans-73" x="368.359375"/>
     <use xlink:href="#DejaVuSans-53" x="420.458984"/>
     <use xlink:href="#DejaVuSans-75" x="483.935547"/>
     <use xlink:href="#DejaVuSans-63" x="547.314453"/>
     <use xlink:href="#DejaVuSans-63" x="602.294922"/>
     <use xlink:href="#DejaVuSans-65" x="657.275391"/>
     <use xlink:href="#DejaVuSans-73" x="718.798828"/>
     <use xlink:href="#DejaVuSans-73" x="770.898438"/>
     <use xlink:href="#DejaVuSans-69" x="822.998047"/>
     <use xlink:href="#DejaVuSans-6f" x="850.78125"/>
     <use xlink:href="#DejaVuSans-6e" x="911.962891"/>
    </g>
   </g>
  </g>
 </g>
 <defs>
  <clipPath id="pcfb852a069">
   <rect x="72" y="48.9888" width="380.930233" height="186.8832"/>
  </clipPath>
  <clipPath id="pa1c157cf97">
   <rect x="510.069767" y="48.9888" width="380.930233" height="186.8832"/>
  </clipPath>
 </defs>
</svg>
